<?xml version="1.0" encoding="utf-8" standalone="no"?>
<!DOCTYPE svg PUBLIC "-//W3C//DTD SVG 1.1//EN"
  "http://www.w3.org/Graphics/SVG/1.1/DTD/svg11.dtd">
<svg xmlns:xlink="http://www.w3.org/1999/xlink" width="432pt" height="360pt" viewBox="0 0 432 360" xmlns="http://www.w3.org/2000/svg" version="1.1">
 <metadata>
  <rdf:RDF xmlns:dc="http://purl.org/dc/elements/1.1/" xmlns:cc="http://creativecommons.org/ns#" xmlns:rdf="http://www.w3.org/1999/02/22-rdf-syntax-ns#">
   <cc:Work>
    <dc:type rdf:resource="http://purl.org/dc/dcmitype/StillImage"/>
    <dc:date>2024-04-07T23:08:26.766281</dc:date>
    <dc:format>image/svg+xml</dc:format>
    <dc:creator>
     <cc:Agent>
      <dc:title>Matplotlib v3.6.2, https://matplotlib.org/</dc:title>
     </cc:Agent>
    </dc:creator>
   </cc:Work>
  </rdf:RDF>
 </metadata>
 <defs>
  <style type="text/css">*{stroke-linejoin: round; stroke-linecap: butt}</style>
 </defs>
 <g id="figure_1">
  <g id="patch_1">
   <path d="M 0 360 
L 432 360 
L 432 0 
L 0 0 
z
" style="fill: #ffffff"/>
  </g>
  <g id="axes_1">
   <g id="patch_2">
    <path d="M 30.87774 298.609447 
L 428.99976 298.609447 
L 428.99976 3.00024 
L 30.87774 3.00024 
z
" style="fill: #ffffff"/>
   </g>
   <g id="matplotlib.axis_1">
    <g id="xtick_1">
     <g id="line2d_1">
      <defs>
       <path id="m5e67b6a4f3" d="M 0 0 
L 0 10.125 
" style="stroke: #000000; stroke-width: 2.025"/>
      </defs>
      <g>
       <use xlink:href="#m5e67b6a4f3" x="120.776261" y="298.609447" style="stroke: #000000; stroke-width: 2.025"/>
      </g>
     </g>
     <g id="text_1">
      <!-- −20 -->
      <g transform="translate(102.117511 327.981635) scale(0.22 -0.22)">
       <defs>
        <path id="ArialMT-2212" d="M 3381 1997 
L 356 1997 
L 356 2522 
L 3381 2522 
L 3381 1997 
z
" transform="scale(0.015625)"/>
        <path id="ArialMT-32" d="M 3222 541 
L 3222 0 
L 194 0 
Q 188 203 259 391 
Q 375 700 629 1000 
Q 884 1300 1366 1694 
Q 2113 2306 2375 2664 
Q 2638 3022 2638 3341 
Q 2638 3675 2398 3904 
Q 2159 4134 1775 4134 
Q 1369 4134 1125 3890 
Q 881 3647 878 3216 
L 300 3275 
Q 359 3922 746 4261 
Q 1134 4600 1788 4600 
Q 2447 4600 2831 4234 
Q 3216 3869 3216 3328 
Q 3216 3053 3103 2787 
Q 2991 2522 2730 2228 
Q 2469 1934 1863 1422 
Q 1356 997 1212 845 
Q 1069 694 975 541 
L 3222 541 
z
" transform="scale(0.015625)"/>
        <path id="ArialMT-30" d="M 266 2259 
Q 266 3072 433 3567 
Q 600 4063 929 4331 
Q 1259 4600 1759 4600 
Q 2128 4600 2406 4451 
Q 2684 4303 2865 4023 
Q 3047 3744 3150 3342 
Q 3253 2941 3253 2259 
Q 3253 1453 3087 958 
Q 2922 463 2592 192 
Q 2263 -78 1759 -78 
Q 1097 -78 719 397 
Q 266 969 266 2259 
z
M 844 2259 
Q 844 1131 1108 757 
Q 1372 384 1759 384 
Q 2147 384 2411 759 
Q 2675 1134 2675 2259 
Q 2675 3391 2411 3762 
Q 2147 4134 1753 4134 
Q 1366 4134 1134 3806 
Q 844 3388 844 2259 
z
" transform="scale(0.015625)"/>
       </defs>
       <use xlink:href="#ArialMT-2212"/>
       <use xlink:href="#ArialMT-32" x="58.398438"/>
       <use xlink:href="#ArialMT-30" x="114.013672"/>
      </g>
     </g>
    </g>
    <g id="xtick_2">
     <g id="line2d_2">
      <g>
       <use xlink:href="#m5e67b6a4f3" x="249.202719" y="298.609447" style="stroke: #000000; stroke-width: 2.025"/>
      </g>
     </g>
     <g id="text_2">
      <!-- −10 -->
      <g transform="translate(230.543969 327.981635) scale(0.22 -0.22)">
       <defs>
        <path id="ArialMT-31" d="M 2384 0 
L 1822 0 
L 1822 3584 
Q 1619 3391 1289 3197 
Q 959 3003 697 2906 
L 697 3450 
Q 1169 3672 1522 3987 
Q 1875 4303 2022 4600 
L 2384 4600 
L 2384 0 
z
" transform="scale(0.015625)"/>
       </defs>
       <use xlink:href="#ArialMT-2212"/>
       <use xlink:href="#ArialMT-31" x="58.398438"/>
       <use xlink:href="#ArialMT-30" x="114.013672"/>
      </g>
     </g>
    </g>
    <g id="xtick_3">
     <g id="line2d_3">
      <g>
       <use xlink:href="#m5e67b6a4f3" x="377.629177" y="298.609447" style="stroke: #000000; stroke-width: 2.025"/>
      </g>
     </g>
     <g id="text_3">
      <!-- 0 -->
      <g transform="translate(371.512146 327.981635) scale(0.22 -0.22)">
       <use xlink:href="#ArialMT-30"/>
      </g>
     </g>
    </g>
    <g id="xtick_4">
     <g id="line2d_4">
      <defs>
       <path id="m7cd002c8b7" d="M 0 0 
L 0 5.0625 
" style="stroke: #000000; stroke-width: 2.025"/>
      </defs>
      <g>
       <use xlink:href="#m7cd002c8b7" x="43.720386" y="298.609447" style="stroke: #000000; stroke-width: 2.025"/>
      </g>
     </g>
    </g>
    <g id="xtick_5">
     <g id="line2d_5">
      <g>
       <use xlink:href="#m7cd002c8b7" x="69.405677" y="298.609447" style="stroke: #000000; stroke-width: 2.025"/>
      </g>
     </g>
    </g>
    <g id="xtick_6">
     <g id="line2d_6">
      <g>
       <use xlink:href="#m7cd002c8b7" x="95.090969" y="298.609447" style="stroke: #000000; stroke-width: 2.025"/>
      </g>
     </g>
    </g>
    <g id="xtick_7">
     <g id="line2d_7">
      <g>
       <use xlink:href="#m7cd002c8b7" x="146.461552" y="298.609447" style="stroke: #000000; stroke-width: 2.025"/>
      </g>
     </g>
    </g>
    <g id="xtick_8">
     <g id="line2d_8">
      <g>
       <use xlink:href="#m7cd002c8b7" x="172.146844" y="298.609447" style="stroke: #000000; stroke-width: 2.025"/>
      </g>
     </g>
    </g>
    <g id="xtick_9">
     <g id="line2d_9">
      <g>
       <use xlink:href="#m7cd002c8b7" x="197.832135" y="298.609447" style="stroke: #000000; stroke-width: 2.025"/>
      </g>
     </g>
    </g>
    <g id="xtick_10">
     <g id="line2d_10">
      <g>
       <use xlink:href="#m7cd002c8b7" x="223.517427" y="298.609447" style="stroke: #000000; stroke-width: 2.025"/>
      </g>
     </g>
    </g>
    <g id="xtick_11">
     <g id="line2d_11">
      <g>
       <use xlink:href="#m7cd002c8b7" x="274.88801" y="298.609447" style="stroke: #000000; stroke-width: 2.025"/>
      </g>
     </g>
    </g>
    <g id="xtick_12">
     <g id="line2d_12">
      <g>
       <use xlink:href="#m7cd002c8b7" x="300.573302" y="298.609447" style="stroke: #000000; stroke-width: 2.025"/>
      </g>
     </g>
    </g>
    <g id="xtick_13">
     <g id="line2d_13">
      <g>
       <use xlink:href="#m7cd002c8b7" x="326.258594" y="298.609447" style="stroke: #000000; stroke-width: 2.025"/>
      </g>
     </g>
    </g>
    <g id="xtick_14">
     <g id="line2d_14">
      <g>
       <use xlink:href="#m7cd002c8b7" x="351.943885" y="298.609447" style="stroke: #000000; stroke-width: 2.025"/>
      </g>
     </g>
    </g>
    <g id="xtick_15">
     <g id="line2d_15">
      <g>
       <use xlink:href="#m7cd002c8b7" x="403.314468" y="298.609447" style="stroke: #000000; stroke-width: 2.025"/>
      </g>
     </g>
    </g>
    <g id="xtick_16">
     <g id="line2d_16">
      <g>
       <use xlink:href="#m7cd002c8b7" x="428.99976" y="298.609447" style="stroke: #000000; stroke-width: 2.025"/>
      </g>
     </g>
    </g>
    <g id="text_4">
     <!-- Relative Emission Energy (eV) -->
     <g transform="translate(80.77875 352.369447) scale(0.22 -0.22)">
      <defs>
       <path id="ArialMT-52" d="M 503 0 
L 503 4581 
L 2534 4581 
Q 3147 4581 3465 4457 
Q 3784 4334 3975 4021 
Q 4166 3709 4166 3331 
Q 4166 2844 3850 2509 
Q 3534 2175 2875 2084 
Q 3116 1969 3241 1856 
Q 3506 1613 3744 1247 
L 4541 0 
L 3778 0 
L 3172 953 
Q 2906 1366 2734 1584 
Q 2563 1803 2427 1890 
Q 2291 1978 2150 2013 
Q 2047 2034 1813 2034 
L 1109 2034 
L 1109 0 
L 503 0 
z
M 1109 2559 
L 2413 2559 
Q 2828 2559 3062 2645 
Q 3297 2731 3419 2920 
Q 3541 3109 3541 3331 
Q 3541 3656 3305 3865 
Q 3069 4075 2559 4075 
L 1109 4075 
L 1109 2559 
z
" transform="scale(0.015625)"/>
       <path id="ArialMT-65" d="M 2694 1069 
L 3275 997 
Q 3138 488 2766 206 
Q 2394 -75 1816 -75 
Q 1088 -75 661 373 
Q 234 822 234 1631 
Q 234 2469 665 2931 
Q 1097 3394 1784 3394 
Q 2450 3394 2872 2941 
Q 3294 2488 3294 1666 
Q 3294 1616 3291 1516 
L 816 1516 
Q 847 969 1125 678 
Q 1403 388 1819 388 
Q 2128 388 2347 550 
Q 2566 713 2694 1069 
z
M 847 1978 
L 2700 1978 
Q 2663 2397 2488 2606 
Q 2219 2931 1791 2931 
Q 1403 2931 1139 2672 
Q 875 2413 847 1978 
z
" transform="scale(0.015625)"/>
       <path id="ArialMT-6c" d="M 409 0 
L 409 4581 
L 972 4581 
L 972 0 
L 409 0 
z
" transform="scale(0.015625)"/>
       <path id="ArialMT-61" d="M 2588 409 
Q 2275 144 1986 34 
Q 1697 -75 1366 -75 
Q 819 -75 525 192 
Q 231 459 231 875 
Q 231 1119 342 1320 
Q 453 1522 633 1644 
Q 813 1766 1038 1828 
Q 1203 1872 1538 1913 
Q 2219 1994 2541 2106 
Q 2544 2222 2544 2253 
Q 2544 2597 2384 2738 
Q 2169 2928 1744 2928 
Q 1347 2928 1158 2789 
Q 969 2650 878 2297 
L 328 2372 
Q 403 2725 575 2942 
Q 747 3159 1072 3276 
Q 1397 3394 1825 3394 
Q 2250 3394 2515 3294 
Q 2781 3194 2906 3042 
Q 3031 2891 3081 2659 
Q 3109 2516 3109 2141 
L 3109 1391 
Q 3109 606 3145 398 
Q 3181 191 3288 0 
L 2700 0 
Q 2613 175 2588 409 
z
M 2541 1666 
Q 2234 1541 1622 1453 
Q 1275 1403 1131 1340 
Q 988 1278 909 1158 
Q 831 1038 831 891 
Q 831 666 1001 516 
Q 1172 366 1500 366 
Q 1825 366 2078 508 
Q 2331 650 2450 897 
Q 2541 1088 2541 1459 
L 2541 1666 
z
" transform="scale(0.015625)"/>
       <path id="ArialMT-74" d="M 1650 503 
L 1731 6 
Q 1494 -44 1306 -44 
Q 1000 -44 831 53 
Q 663 150 594 308 
Q 525 466 525 972 
L 525 2881 
L 113 2881 
L 113 3319 
L 525 3319 
L 525 4141 
L 1084 4478 
L 1084 3319 
L 1650 3319 
L 1650 2881 
L 1084 2881 
L 1084 941 
Q 1084 700 1114 631 
Q 1144 563 1211 522 
Q 1278 481 1403 481 
Q 1497 481 1650 503 
z
" transform="scale(0.015625)"/>
       <path id="ArialMT-69" d="M 425 3934 
L 425 4581 
L 988 4581 
L 988 3934 
L 425 3934 
z
M 425 0 
L 425 3319 
L 988 3319 
L 988 0 
L 425 0 
z
" transform="scale(0.015625)"/>
       <path id="ArialMT-76" d="M 1344 0 
L 81 3319 
L 675 3319 
L 1388 1331 
Q 1503 1009 1600 663 
Q 1675 925 1809 1294 
L 2547 3319 
L 3125 3319 
L 1869 0 
L 1344 0 
z
" transform="scale(0.015625)"/>
       <path id="ArialMT-20" transform="scale(0.015625)"/>
       <path id="ArialMT-45" d="M 506 0 
L 506 4581 
L 3819 4581 
L 3819 4041 
L 1113 4041 
L 1113 2638 
L 3647 2638 
L 3647 2100 
L 1113 2100 
L 1113 541 
L 3925 541 
L 3925 0 
L 506 0 
z
" transform="scale(0.015625)"/>
       <path id="ArialMT-6d" d="M 422 0 
L 422 3319 
L 925 3319 
L 925 2853 
Q 1081 3097 1340 3245 
Q 1600 3394 1931 3394 
Q 2300 3394 2536 3241 
Q 2772 3088 2869 2813 
Q 3263 3394 3894 3394 
Q 4388 3394 4653 3120 
Q 4919 2847 4919 2278 
L 4919 0 
L 4359 0 
L 4359 2091 
Q 4359 2428 4304 2576 
Q 4250 2725 4106 2815 
Q 3963 2906 3769 2906 
Q 3419 2906 3187 2673 
Q 2956 2441 2956 1928 
L 2956 0 
L 2394 0 
L 2394 2156 
Q 2394 2531 2256 2718 
Q 2119 2906 1806 2906 
Q 1569 2906 1367 2781 
Q 1166 2656 1075 2415 
Q 984 2175 984 1722 
L 984 0 
L 422 0 
z
" transform="scale(0.015625)"/>
       <path id="ArialMT-73" d="M 197 991 
L 753 1078 
Q 800 744 1014 566 
Q 1228 388 1613 388 
Q 2000 388 2187 545 
Q 2375 703 2375 916 
Q 2375 1106 2209 1216 
Q 2094 1291 1634 1406 
Q 1016 1563 777 1677 
Q 538 1791 414 1992 
Q 291 2194 291 2438 
Q 291 2659 392 2848 
Q 494 3038 669 3163 
Q 800 3259 1026 3326 
Q 1253 3394 1513 3394 
Q 1903 3394 2198 3281 
Q 2494 3169 2634 2976 
Q 2775 2784 2828 2463 
L 2278 2388 
Q 2241 2644 2061 2787 
Q 1881 2931 1553 2931 
Q 1166 2931 1000 2803 
Q 834 2675 834 2503 
Q 834 2394 903 2306 
Q 972 2216 1119 2156 
Q 1203 2125 1616 2013 
Q 2213 1853 2448 1751 
Q 2684 1650 2818 1456 
Q 2953 1263 2953 975 
Q 2953 694 2789 445 
Q 2625 197 2315 61 
Q 2006 -75 1616 -75 
Q 969 -75 630 194 
Q 291 463 197 991 
z
" transform="scale(0.015625)"/>
       <path id="ArialMT-6f" d="M 213 1659 
Q 213 2581 725 3025 
Q 1153 3394 1769 3394 
Q 2453 3394 2887 2945 
Q 3322 2497 3322 1706 
Q 3322 1066 3130 698 
Q 2938 331 2570 128 
Q 2203 -75 1769 -75 
Q 1072 -75 642 372 
Q 213 819 213 1659 
z
M 791 1659 
Q 791 1022 1069 705 
Q 1347 388 1769 388 
Q 2188 388 2466 706 
Q 2744 1025 2744 1678 
Q 2744 2294 2464 2611 
Q 2184 2928 1769 2928 
Q 1347 2928 1069 2612 
Q 791 2297 791 1659 
z
" transform="scale(0.015625)"/>
       <path id="ArialMT-6e" d="M 422 0 
L 422 3319 
L 928 3319 
L 928 2847 
Q 1294 3394 1984 3394 
Q 2284 3394 2536 3286 
Q 2788 3178 2913 3003 
Q 3038 2828 3088 2588 
Q 3119 2431 3119 2041 
L 3119 0 
L 2556 0 
L 2556 2019 
Q 2556 2363 2490 2533 
Q 2425 2703 2258 2804 
Q 2091 2906 1866 2906 
Q 1506 2906 1245 2678 
Q 984 2450 984 1813 
L 984 0 
L 422 0 
z
" transform="scale(0.015625)"/>
       <path id="ArialMT-72" d="M 416 0 
L 416 3319 
L 922 3319 
L 922 2816 
Q 1116 3169 1280 3281 
Q 1444 3394 1641 3394 
Q 1925 3394 2219 3213 
L 2025 2691 
Q 1819 2813 1613 2813 
Q 1428 2813 1281 2702 
Q 1134 2591 1072 2394 
Q 978 2094 978 1738 
L 978 0 
L 416 0 
z
" transform="scale(0.015625)"/>
       <path id="ArialMT-67" d="M 319 -275 
L 866 -356 
Q 900 -609 1056 -725 
Q 1266 -881 1628 -881 
Q 2019 -881 2231 -725 
Q 2444 -569 2519 -288 
Q 2563 -116 2559 434 
Q 2191 0 1641 0 
Q 956 0 581 494 
Q 206 988 206 1678 
Q 206 2153 378 2554 
Q 550 2956 876 3175 
Q 1203 3394 1644 3394 
Q 2231 3394 2613 2919 
L 2613 3319 
L 3131 3319 
L 3131 450 
Q 3131 -325 2973 -648 
Q 2816 -972 2473 -1159 
Q 2131 -1347 1631 -1347 
Q 1038 -1347 672 -1080 
Q 306 -813 319 -275 
z
M 784 1719 
Q 784 1066 1043 766 
Q 1303 466 1694 466 
Q 2081 466 2343 764 
Q 2606 1063 2606 1700 
Q 2606 2309 2336 2618 
Q 2066 2928 1684 2928 
Q 1309 2928 1046 2623 
Q 784 2319 784 1719 
z
" transform="scale(0.015625)"/>
       <path id="ArialMT-79" d="M 397 -1278 
L 334 -750 
Q 519 -800 656 -800 
Q 844 -800 956 -737 
Q 1069 -675 1141 -563 
Q 1194 -478 1313 -144 
Q 1328 -97 1363 -6 
L 103 3319 
L 709 3319 
L 1400 1397 
Q 1534 1031 1641 628 
Q 1738 1016 1872 1384 
L 2581 3319 
L 3144 3319 
L 1881 -56 
Q 1678 -603 1566 -809 
Q 1416 -1088 1222 -1217 
Q 1028 -1347 759 -1347 
Q 597 -1347 397 -1278 
z
" transform="scale(0.015625)"/>
       <path id="ArialMT-28" d="M 1497 -1347 
Q 1031 -759 709 28 
Q 388 816 388 1659 
Q 388 2403 628 3084 
Q 909 3875 1497 4659 
L 1900 4659 
Q 1522 4009 1400 3731 
Q 1209 3300 1100 2831 
Q 966 2247 966 1656 
Q 966 153 1900 -1347 
L 1497 -1347 
z
" transform="scale(0.015625)"/>
       <path id="ArialMT-56" d="M 1803 0 
L 28 4581 
L 684 4581 
L 1875 1253 
Q 2019 853 2116 503 
Q 2222 878 2363 1253 
L 3600 4581 
L 4219 4581 
L 2425 0 
L 1803 0 
z
" transform="scale(0.015625)"/>
       <path id="ArialMT-29" d="M 791 -1347 
L 388 -1347 
Q 1322 153 1322 1656 
Q 1322 2244 1188 2822 
Q 1081 3291 891 3722 
Q 769 4003 388 4659 
L 791 4659 
Q 1378 3875 1659 3084 
Q 1900 2403 1900 1659 
Q 1900 816 1576 28 
Q 1253 -759 791 -1347 
z
" transform="scale(0.015625)"/>
      </defs>
      <use xlink:href="#ArialMT-52"/>
      <use xlink:href="#ArialMT-65" x="72.216797"/>
      <use xlink:href="#ArialMT-6c" x="127.832031"/>
      <use xlink:href="#ArialMT-61" x="150.048828"/>
      <use xlink:href="#ArialMT-74" x="205.664062"/>
      <use xlink:href="#ArialMT-69" x="233.447266"/>
      <use xlink:href="#ArialMT-76" x="255.664062"/>
      <use xlink:href="#ArialMT-65" x="305.664062"/>
      <use xlink:href="#ArialMT-20" x="361.279297"/>
      <use xlink:href="#ArialMT-45" x="389.0625"/>
      <use xlink:href="#ArialMT-6d" x="455.761719"/>
      <use xlink:href="#ArialMT-69" x="539.0625"/>
      <use xlink:href="#ArialMT-73" x="561.279297"/>
      <use xlink:href="#ArialMT-73" x="611.279297"/>
      <use xlink:href="#ArialMT-69" x="661.279297"/>
      <use xlink:href="#ArialMT-6f" x="683.496094"/>
      <use xlink:href="#ArialMT-6e" x="739.111328"/>
      <use xlink:href="#ArialMT-20" x="794.726562"/>
      <use xlink:href="#ArialMT-45" x="822.509766"/>
      <use xlink:href="#ArialMT-6e" x="889.208984"/>
      <use xlink:href="#ArialMT-65" x="944.824219"/>
      <use xlink:href="#ArialMT-72" x="1000.439453"/>
      <use xlink:href="#ArialMT-67" x="1033.740234"/>
      <use xlink:href="#ArialMT-79" x="1089.355469"/>
      <use xlink:href="#ArialMT-20" x="1139.355469"/>
      <use xlink:href="#ArialMT-28" x="1167.138672"/>
      <use xlink:href="#ArialMT-65" x="1200.439453"/>
      <use xlink:href="#ArialMT-56" x="1256.054688"/>
      <use xlink:href="#ArialMT-29" x="1322.753906"/>
     </g>
    </g>
   </g>
   <g id="matplotlib.axis_2">
    <g id="text_5">
     <!-- Normalized Intensity -->
     <g transform="translate(18.747428 250.449375) rotate(-90) scale(0.22 -0.22)">
      <defs>
       <path id="ArialMT-4e" d="M 488 0 
L 488 4581 
L 1109 4581 
L 3516 984 
L 3516 4581 
L 4097 4581 
L 4097 0 
L 3475 0 
L 1069 3600 
L 1069 0 
L 488 0 
z
" transform="scale(0.015625)"/>
       <path id="ArialMT-7a" d="M 125 0 
L 125 456 
L 2238 2881 
Q 1878 2863 1603 2863 
L 250 2863 
L 250 3319 
L 2963 3319 
L 2963 2947 
L 1166 841 
L 819 456 
Q 1197 484 1528 484 
L 3063 484 
L 3063 0 
L 125 0 
z
" transform="scale(0.015625)"/>
       <path id="ArialMT-64" d="M 2575 0 
L 2575 419 
Q 2259 -75 1647 -75 
Q 1250 -75 917 144 
Q 584 363 401 755 
Q 219 1147 219 1656 
Q 219 2153 384 2558 
Q 550 2963 881 3178 
Q 1213 3394 1622 3394 
Q 1922 3394 2156 3267 
Q 2391 3141 2538 2938 
L 2538 4581 
L 3097 4581 
L 3097 0 
L 2575 0 
z
M 797 1656 
Q 797 1019 1065 703 
Q 1334 388 1700 388 
Q 2069 388 2326 689 
Q 2584 991 2584 1609 
Q 2584 2291 2321 2609 
Q 2059 2928 1675 2928 
Q 1300 2928 1048 2622 
Q 797 2316 797 1656 
z
" transform="scale(0.015625)"/>
       <path id="ArialMT-49" d="M 597 0 
L 597 4581 
L 1203 4581 
L 1203 0 
L 597 0 
z
" transform="scale(0.015625)"/>
      </defs>
      <use xlink:href="#ArialMT-4e"/>
      <use xlink:href="#ArialMT-6f" x="72.216797"/>
      <use xlink:href="#ArialMT-72" x="127.832031"/>
      <use xlink:href="#ArialMT-6d" x="161.132812"/>
      <use xlink:href="#ArialMT-61" x="244.433594"/>
      <use xlink:href="#ArialMT-6c" x="300.048828"/>
      <use xlink:href="#ArialMT-69" x="322.265625"/>
      <use xlink:href="#ArialMT-7a" x="344.482422"/>
      <use xlink:href="#ArialMT-65" x="394.482422"/>
      <use xlink:href="#ArialMT-64" x="450.097656"/>
      <use xlink:href="#ArialMT-20" x="505.712891"/>
      <use xlink:href="#ArialMT-49" x="533.496094"/>
      <use xlink:href="#ArialMT-6e" x="561.279297"/>
      <use xlink:href="#ArialMT-74" x="616.894531"/>
      <use xlink:href="#ArialMT-65" x="644.677734"/>
      <use xlink:href="#ArialMT-6e" x="700.292969"/>
      <use xlink:href="#ArialMT-73" x="755.908203"/>
      <use xlink:href="#ArialMT-69" x="805.908203"/>
      <use xlink:href="#ArialMT-74" x="828.125"/>
      <use xlink:href="#ArialMT-79" x="855.908203"/>
     </g>
    </g>
   </g>
   <g id="line2d_17">
    <path d="M 30.87774 285.012593 
L 33.166528 285.421545 
L 34.310923 285.020601 
L 35.455317 286.136679 
L 36.599711 285.376699 
L 37.744105 284.788096 
L 40.032893 284.258085 
L 41.177288 283.30671 
L 43.466076 284.183075 
L 44.61047 284.339369 
L 45.754864 284.880324 
L 46.899259 286.367716 
L 50.332441 286.015221 
L 51.476835 285.507767 
L 52.621229 285.720118 
L 53.765624 286.106381 
L 54.910018 286.140683 
L 56.054412 285.640704 
L 58.3432 285.120036 
L 59.487595 285.090806 
L 61.776383 285.630293 
L 62.920777 285.516843 
L 64.065171 285.943281 
L 66.35396 287.194564 
L 67.498354 287.496607 
L 68.642748 288.103363 
L 69.787142 286.783609 
L 70.931536 285.633763 
L 72.075931 284.797706 
L 73.220325 284.159051 
L 74.364719 282.486668 
L 75.509113 282.268845 
L 76.653507 283.101566 
L 77.797901 283.677089 
L 78.942296 285.103619 
L 80.08669 286.841135 
L 81.231084 286.097172 
L 82.375478 284.284913 
L 84.664266 281.663558 
L 85.808661 280.973783 
L 86.953055 282.060765 
L 88.097449 284.159051 
L 89.241843 283.23904 
L 90.386237 278.03944 
L 91.530632 270.254122 
L 92.675026 260.972068 
L 93.81942 249.570106 
L 94.963814 235.200034 
L 97.252602 208.094632 
L 98.396997 198.291377 
L 99.541391 192.847794 
L 100.685785 190.125668 
L 101.830179 189.437629 
L 102.974573 199.602589 
L 105.263362 227.830475 
L 106.407756 238.866461 
L 107.55215 246.3468 
L 109.840938 253.390558 
L 110.985333 253.588228 
L 112.129727 250.338761 
L 113.274121 249.526195 
L 114.418515 251.294141 
L 115.562909 251.95562 
L 116.707304 250.928166 
L 117.851698 247.86449 
L 118.996092 239.450927 
L 120.140486 238.04642 
L 121.28488 236.430896 
L 122.429274 233.645506 
L 123.573669 236.809818 
L 124.718063 245.216307 
L 125.862457 244.201133 
L 127.006851 246.35601 
L 128.151245 245.799973 
L 129.29564 242.500989 
L 130.440034 238.390373 
L 131.584428 238.747005 
L 132.728822 242.288371 
L 133.873216 247.756379 
L 135.01761 257.618228 
L 136.162005 266.248547 
L 137.306399 264.540928 
L 139.595187 262.19639 
L 140.739581 259.101883 
L 141.883976 257.163895 
L 143.02837 257.058721 
L 144.172764 256.655774 
L 145.317158 257.983269 
L 146.461552 259.697694 
L 147.605946 265.216555 
L 148.750341 268.120734 
L 149.894735 271.970682 
L 151.039129 276.525888 
L 152.183523 279.105334 
L 153.327917 281.19788 
L 154.472312 281.55171 
L 155.616706 278.866689 
L 157.905494 278.192264 
L 159.049888 279.902284 
L 160.194282 279.970755 
L 161.338677 281.024369 
L 162.483071 281.338958 
L 163.627465 281.820252 
L 164.771859 281.838671 
L 165.916253 281.064944 
L 167.060648 281.976946 
L 168.205042 280.377438 
L 169.349436 280.617685 
L 170.49383 281.249933 
L 171.638224 280.718989 
L 172.782618 281.29905 
L 176.215801 284.654892 
L 177.360195 284.976556 
L 178.504589 285.550478 
L 179.648984 283.931884 
L 183.082166 281.948116 
L 184.22656 281.65288 
L 185.370954 282.031802 
L 187.659743 283.520929 
L 188.804137 283.646792 
L 189.948531 284.32135 
L 191.092925 283.50558 
L 192.237319 282.506422 
L 193.381714 281.76366 
L 194.526108 281.518742 
L 195.670502 279.252685 
L 196.814896 278.290231 
L 197.95929 276.364389 
L 199.103685 275.835313 
L 200.248079 275.556093 
L 201.392473 277.137182 
L 202.536867 278.326401 
L 203.681261 280.201391 
L 204.825655 282.56635 
L 205.97005 284.560129 
L 207.114444 284.07056 
L 208.258838 284.434266 
L 209.403232 283.672285 
L 210.547626 283.138804 
L 211.692021 282.222664 
L 215.125203 281.963198 
L 216.269597 283.554163 
L 217.413991 283.545888 
L 218.558386 283.680827 
L 223.135962 282.366812 
L 225.424751 280.647716 
L 226.569145 281.090436 
L 227.713539 282.335847 
L 228.857933 282.008044 
L 230.002327 282.462377 
L 231.146722 282.153393 
L 232.291116 281.360981 
L 233.43551 281.05133 
L 234.579904 281.093773 
L 236.868693 279.746525 
L 239.157481 282.814872 
L 240.301875 281.231915 
L 241.446269 280.110231 
L 242.590663 276.00135 
L 243.735058 272.61868 
L 244.879452 272.399656 
L 246.023846 270.48943 
L 247.16824 269.59638 
L 248.312634 269.414327 
L 250.601423 271.696401 
L 251.745817 273.445662 
L 252.890211 274.91904 
L 254.034605 269.883341 
L 256.323394 267.888095 
L 257.467788 263.283906 
L 258.612182 256.855979 
L 259.756576 251.877673 
L 260.90097 249.661533 
L 262.045365 248.477786 
L 263.189759 252.578926 
L 264.334153 252.766051 
L 265.478547 247.403084 
L 266.622941 243.762016 
L 267.767335 241.421882 
L 268.91173 237.756122 
L 271.200518 213.4257 
L 272.344912 208.009211 
L 273.489306 207.377764 
L 274.633701 214.879458 
L 275.778095 216.063873 
L 276.922489 212.440289 
L 278.066883 211.849684 
L 279.211277 212.582969 
L 280.355671 204.412856 
L 281.500066 191.288594 
L 282.64446 181.435421 
L 283.788854 175.916828 
L 284.933248 174.6869 
L 289.510825 201.808451 
L 290.655219 203.003944 
L 291.799613 202.805741 
L 292.944007 208.555905 
L 294.088402 215.048164 
L 295.232796 213.640587 
L 296.37719 215.655587 
L 298.665978 231.228093 
L 299.810372 237.173525 
L 300.954767 233.849048 
L 302.099161 229.077087 
L 303.243555 228.452847 
L 304.387949 227.307272 
L 305.532343 223.87028 
L 306.676738 218.799746 
L 307.821132 218.945629 
L 308.965526 218.947764 
L 310.10992 220.3157 
L 311.254314 227.71489 
L 312.398708 229.929428 
L 314.687497 239.5218 
L 315.831891 243.245352 
L 316.976285 242.305455 
L 318.120679 242.643402 
L 319.265074 245.904747 
L 320.409468 244.88757 
L 321.553862 245.102724 
L 322.698256 247.62718 
L 323.84265 248.604049 
L 324.987044 251.875271 
L 326.131439 253.526164 
L 327.275833 255.603361 
L 328.420227 253.64909 
L 329.564621 256.083053 
L 330.709015 259.230415 
L 331.85341 260.341421 
L 332.997804 260.378659 
L 334.142198 257.267602 
L 335.286592 258.120343 
L 336.430986 261.294532 
L 337.57538 262.594132 
L 338.719775 262.941154 
L 339.864169 261.509553 
L 341.008563 262.170898 
L 342.152957 264.682407 
L 343.297351 268.085898 
L 344.441746 263.571 
L 345.58614 256.946072 
L 346.730534 254.221144 
L 347.874928 252.588002 
L 349.019322 254.970579 
L 350.163716 254.788526 
L 351.308111 254.911985 
L 352.452505 254.336061 
L 353.596899 259.812745 
L 354.741293 264.483803 
L 355.885687 259.320641 
L 357.030082 256.658443 
L 358.174476 257.119583 
L 359.31887 258.93638 
L 360.463264 265.963855 
L 361.607658 266.109471 
L 362.752052 266.704347 
L 363.896447 265.022623 
L 365.040841 268.317335 
L 366.185235 270.395467 
L 367.329629 268.098444 
L 368.474023 269.10214 
L 369.618418 272.486011 
L 370.762812 274.153455 
L 371.907206 276.370796 
L 373.0516 270.527335 
L 374.195994 267.513577 
L 375.340388 263.52869 
L 376.484783 261.183618 
L 377.629177 260.389337 
L 378.773571 261.645425 
L 379.917965 266.489193 
L 381.062359 269.100005 
L 382.206753 271.094851 
L 383.351148 274.40865 
L 384.495542 275.167828 
L 385.639936 277.123434 
L 386.78433 276.702069 
L 387.928724 274.541986 
L 389.073119 273.590744 
L 390.217513 274.722972 
L 391.361907 276.862767 
L 392.506301 275.688095 
L 394.795089 278.752171 
L 395.939484 279.936586 
L 397.083878 280.830036 
L 398.228272 281.26328 
L 399.372666 280.452315 
L 400.51706 280.567367 
L 401.661455 281.110057 
L 402.805849 279.609184 
L 405.094637 277.946145 
L 406.239031 275.585457 
L 407.383425 274.739122 
L 408.52782 275.153547 
L 410.816608 279.442346 
L 411.961002 281.219235 
L 413.105396 282.198907 
L 414.249791 281.387141 
L 415.394185 281.353506 
L 416.538579 281.562521 
L 417.682973 280.225816 
L 418.827367 279.283516 
L 419.971761 278.876566 
L 421.116156 279.830611 
L 422.26055 279.072633 
L 423.404944 278.988681 
L 424.549338 279.603311 
L 426.838127 281.482972 
L 427.982521 282.050755 
L 427.982521 282.050755 
" clip-path="url(#pcecac7c7e9)" style="fill: none; stroke: #000000; stroke-width: 3; stroke-linecap: square"/>
   </g>
   <g id="line2d_18">
    <path d="M 30.87774 197.566262 
L 33.166528 196.947311 
L 34.310923 196.713026 
L 40.032893 199.792018 
L 41.177288 198.593983 
L 43.466076 198.684842 
L 44.61047 198.622446 
L 45.754864 198.720907 
L 46.899259 199.040859 
L 48.043653 199.238152 
L 49.188047 199.15369 
L 50.332441 198.840877 
L 51.476835 198.284508 
L 52.621229 198.054302 
L 53.765624 198.004608 
L 54.910018 197.652485 
L 57.198806 197.247701 
L 58.3432 197.433775 
L 61.776383 197.324281 
L 64.065171 195.506833 
L 65.209565 194.383988 
L 67.498354 194.169358 
L 68.642748 194.571824 
L 69.787142 195.400213 
L 70.931536 196.603532 
L 72.075931 198.368969 
L 73.220325 197.769488 
L 75.509113 194.899286 
L 76.653507 193.701993 
L 77.797901 193.519719 
L 78.942296 192.778573 
L 80.08669 192.328824 
L 81.231084 192.835777 
L 82.375478 193.167689 
L 83.519872 192.471323 
L 84.664266 191.109836 
L 86.953055 183.793314 
L 88.097449 182.36498 
L 89.241843 181.522963 
L 90.386237 179.952594 
L 91.530632 175.417084 
L 92.675026 169.783577 
L 93.81942 162.101117 
L 94.963814 155.71265 
L 96.108208 151.079606 
L 97.252602 137.820565 
L 98.396997 120.615204 
L 99.541391 106.745835 
L 100.685785 98.689557 
L 101.830179 94.381843 
L 102.974573 92.981416 
L 104.118968 96.965377 
L 105.263362 106.139864 
L 106.407756 120.575523 
L 107.55215 138.715336 
L 108.696544 150.615579 
L 109.840938 156.041131 
L 112.129727 161.413281 
L 113.274121 161.707088 
L 114.418515 163.353296 
L 115.562909 160.881388 
L 116.707304 156.7998 
L 117.851698 151.173617 
L 118.996092 146.374432 
L 120.140486 144.120121 
L 121.28488 140.91096 
L 122.429274 140.985223 
L 123.573669 143.275786 
L 125.862457 157.37054 
L 127.006851 161.31825 
L 128.151245 161.763735 
L 129.29564 161.920976 
L 130.440034 159.113355 
L 131.584428 158.969372 
L 132.728822 161.455373 
L 133.873216 168.940261 
L 136.162005 180.017771 
L 137.306399 183.196151 
L 138.450793 185.97466 
L 139.595187 186.230918 
L 140.739581 186.251686 
L 141.883976 183.225262 
L 143.02837 181.509056 
L 144.172764 180.46066 
L 145.317158 180.133105 
L 146.461552 178.270227 
L 147.605946 176.991069 
L 148.750341 177.213765 
L 149.894735 178.049756 
L 152.183523 180.587584 
L 153.327917 183.041413 
L 154.472312 184.70023 
L 155.616706 186.01258 
L 156.7611 188.037798 
L 157.905494 189.433125 
L 159.049888 191.086194 
L 160.194282 191.491905 
L 162.483071 192.985508 
L 163.627465 192.844492 
L 164.771859 192.122723 
L 165.916253 190.381484 
L 167.060648 190.378239 
L 168.205042 190.073678 
L 169.349436 190.633107 
L 171.638224 193.248256 
L 173.927013 196.360439 
L 175.071407 196.377313 
L 176.215801 196.801474 
L 177.360195 196.567003 
L 178.504589 196.692166 
L 179.648984 195.791275 
L 183.082166 195.610671 
L 184.22656 195.471324 
L 185.370954 195.863591 
L 186.515349 196.119015 
L 187.659743 195.335499 
L 188.804137 194.097691 
L 189.948531 193.493018 
L 191.092925 193.466966 
L 192.237319 194.312785 
L 193.381714 194.574142 
L 194.526108 195.212284 
L 195.670502 196.677517 
L 196.814896 197.269581 
L 197.95929 197.188457 
L 200.248079 194.039189 
L 202.536867 193.329195 
L 203.681261 193.693556 
L 204.825655 193.583784 
L 205.97005 193.007481 
L 207.114444 192.689476 
L 208.258838 192.001455 
L 209.403232 193.037798 
L 211.692021 191.105108 
L 212.836415 191.154616 
L 213.980809 191.662775 
L 215.125203 193.226932 
L 216.269597 194.579149 
L 217.413991 193.589532 
L 218.558386 193.355247 
L 219.70278 194.316122 
L 220.847174 195.756323 
L 221.991568 195.133386 
L 223.135962 195.040024 
L 224.280357 194.656471 
L 227.713539 196.177981 
L 228.857933 195.137465 
L 230.002327 195.492277 
L 231.146722 196.736761 
L 232.291116 197.000343 
L 235.724298 190.408186 
L 236.868693 189.774957 
L 238.013087 190.104644 
L 239.157481 189.012673 
L 240.301875 189.655914 
L 241.446269 192.624207 
L 242.590663 192.823539 
L 243.735058 190.56487 
L 244.879452 186.555228 
L 246.023846 183.538632 
L 247.16824 182.359788 
L 248.312634 183.601862 
L 249.457029 184.315101 
L 250.601423 182.371841 
L 251.745817 181.652204 
L 252.890211 180.007387 
L 254.034605 176.892886 
L 255.178999 175.051796 
L 256.323394 173.984764 
L 257.467788 172.086099 
L 258.612182 171.532604 
L 259.756576 170.81445 
L 260.90097 168.433957 
L 262.045365 166.765776 
L 263.189759 161.157301 
L 264.334153 158.052257 
L 265.478547 155.581554 
L 266.622941 151.377678 
L 267.767335 145.512482 
L 268.91173 140.39353 
L 270.056124 134.315187 
L 271.200518 125.815742 
L 272.344912 120.263266 
L 274.633701 117.259279 
L 275.778095 120.427275 
L 276.922489 121.725996 
L 278.066883 123.813795 
L 279.211277 120.839847 
L 280.355671 115.407341 
L 281.500066 110.658778 
L 282.64446 108.015814 
L 283.788854 110.829184 
L 286.077642 126.904654 
L 287.222036 128.335676 
L 288.366431 127.062729 
L 289.510825 126.736566 
L 290.655219 120.935527 
L 291.799613 118.201427 
L 292.944007 119.544186 
L 294.088402 124.063656 
L 296.37719 140.554573 
L 297.521584 138.641166 
L 299.810372 123.974096 
L 300.954767 122.340125 
L 302.099161 123.959169 
L 306.676738 164.015729 
L 307.821132 168.439798 
L 310.10992 167.30453 
L 311.254314 162.840409 
L 312.398708 161.486802 
L 313.543103 161.266517 
L 314.687497 164.605846 
L 315.831891 168.448142 
L 316.976285 169.736479 
L 318.120679 169.435348 
L 319.265074 167.187063 
L 320.409468 167.538444 
L 321.553862 168.64015 
L 322.698256 166.55745 
L 323.84265 163.382779 
L 324.987044 163.502286 
L 326.131439 165.955002 
L 327.275833 171.371191 
L 328.420227 174.643859 
L 329.564621 177.17464 
L 330.709015 178.886397 
L 331.85341 179.90327 
L 332.997804 182.373974 
L 334.142198 180.602047 
L 335.286592 173.418938 
L 336.430986 170.254929 
L 337.57538 169.907441 
L 338.719775 171.396594 
L 339.864169 171.738704 
L 341.008563 173.172229 
L 342.152957 173.981519 
L 344.441746 176.998115 
L 345.58614 174.186693 
L 346.730534 169.24677 
L 347.874928 165.694294 
L 349.019322 164.945175 
L 350.163716 165.997279 
L 351.308111 162.787563 
L 352.452505 160.827058 
L 353.596899 163.378885 
L 354.741293 168.729711 
L 355.885687 172.825483 
L 357.030082 171.849867 
L 358.174476 172.92858 
L 359.31887 174.777737 
L 360.463264 175.461308 
L 361.607658 176.32502 
L 362.752052 172.548458 
L 363.896447 170.760492 
L 365.040841 172.304808 
L 366.185235 175.321034 
L 367.329629 176.654151 
L 368.474023 176.437017 
L 369.618418 180.146178 
L 370.762812 180.070153 
L 371.907206 177.894555 
L 373.0516 178.527691 
L 374.195994 180.239169 
L 375.340388 178.890476 
L 376.484783 178.513042 
L 377.629177 178.497374 
L 378.773571 178.225447 
L 381.062359 184.38343 
L 382.206753 184.840875 
L 383.351148 186.956489 
L 384.495542 190.435165 
L 385.639936 191.702549 
L 386.78433 191.456953 
L 387.928724 191.678351 
L 389.073119 191.007666 
L 390.217513 190.872955 
L 391.361907 191.958714 
L 392.506301 193.43396 
L 393.650695 195.303792 
L 394.795089 196.346347 
L 395.939484 196.962887 
L 397.083878 195.865631 
L 398.228272 195.34987 
L 399.372666 193.737873 
L 401.661455 191.370359 
L 402.805849 191.180483 
L 403.950243 191.331605 
L 405.094637 192.038447 
L 406.239031 192.227581 
L 407.383425 193.042063 
L 409.672214 193.305182 
L 410.816608 193.177795 
L 411.961002 192.758826 
L 413.105396 192.823539 
L 414.249791 193.231197 
L 415.394185 194.023335 
L 416.538579 195.161385 
L 417.682973 194.449721 
L 418.827367 194.27162 
L 419.971761 193.886399 
L 421.116156 194.256415 
L 422.26055 193.944622 
L 424.549338 193.815937 
L 425.693732 194.03511 
L 427.982521 195.355062 
L 427.982521 195.355062 
" clip-path="url(#pcecac7c7e9)" style="fill: none; stroke: #0000ff; stroke-width: 3; stroke-linecap: square"/>
   </g>
   <g id="patch_3">
    <path d="M 30.87774 298.609447 
L 30.87774 3.00024 
" style="fill: none; stroke: #000000; stroke-width: 2.25; stroke-linejoin: miter; stroke-linecap: square"/>
   </g>
   <g id="patch_4">
    <path d="M 428.99976 298.609447 
L 428.99976 3.00024 
" style="fill: none; stroke: #000000; stroke-width: 2.25; stroke-linejoin: miter; stroke-linecap: square"/>
   </g>
   <g id="patch_5">
    <path d="M 30.87774 298.609447 
L 428.99976 298.609447 
" style="fill: none; stroke: #000000; stroke-width: 2.25; stroke-linejoin: miter; stroke-linecap: square"/>
   </g>
   <g id="patch_6">
    <path d="M 30.87774 3.00024 
L 428.99976 3.00024 
" style="fill: none; stroke: #000000; stroke-width: 2.25; stroke-linejoin: miter; stroke-linecap: square"/>
   </g>
   <g id="text_6">
    <!-- L$_2$ -->
    <g transform="translate(115.757584 100.113112) scale(0.22 -0.22)">
     <defs>
      <path id="ArialMT-4c" d="M 469 0 
L 469 4581 
L 1075 4581 
L 1075 541 
L 3331 541 
L 3331 0 
L 469 0 
z
" transform="scale(0.015625)"/>
      <path id="DejaVuSans-32" d="M 1228 531 
L 3431 531 
L 3431 0 
L 469 0 
L 469 531 
Q 828 903 1448 1529 
Q 2069 2156 2228 2338 
Q 2531 2678 2651 2914 
Q 2772 3150 2772 3378 
Q 2772 3750 2511 3984 
Q 2250 4219 1831 4219 
Q 1534 4219 1204 4116 
Q 875 4013 500 3803 
L 500 4441 
Q 881 4594 1212 4672 
Q 1544 4750 1819 4750 
Q 2544 4750 2975 4387 
Q 3406 4025 3406 3419 
Q 3406 3131 3298 2873 
Q 3191 2616 2906 2266 
Q 2828 2175 2409 1742 
Q 1991 1309 1228 531 
z
" transform="scale(0.015625)"/>
     </defs>
     <use xlink:href="#ArialMT-4c" transform="translate(0 0.421875)"/>
     <use xlink:href="#DejaVuSans-32" transform="translate(56.572266 -15.984375) scale(0.7)"/>
    </g>
   </g>
   <g id="text_7">
    <!-- L$_3$ -->
    <g transform="translate(289.133302 109.255665) scale(0.22 -0.22)">
     <defs>
      <path id="DejaVuSans-33" d="M 2597 2516 
Q 3050 2419 3304 2112 
Q 3559 1806 3559 1356 
Q 3559 666 3084 287 
Q 2609 -91 1734 -91 
Q 1441 -91 1130 -33 
Q 819 25 488 141 
L 488 750 
Q 750 597 1062 519 
Q 1375 441 1716 441 
Q 2309 441 2620 675 
Q 2931 909 2931 1356 
Q 2931 1769 2642 2001 
Q 2353 2234 1838 2234 
L 1294 2234 
L 1294 2753 
L 1863 2753 
Q 2328 2753 2575 2939 
Q 2822 3125 2822 3475 
Q 2822 3834 2567 4026 
Q 2313 4219 1838 4219 
Q 1578 4219 1281 4162 
Q 984 4106 628 3988 
L 628 4550 
Q 988 4650 1302 4700 
Q 1616 4750 1894 4750 
Q 2613 4750 3031 4423 
Q 3450 4097 3450 3541 
Q 3450 3153 3228 2886 
Q 3006 2619 2597 2516 
z
" transform="scale(0.015625)"/>
     </defs>
     <use xlink:href="#ArialMT-4c" transform="translate(0 0.421875)"/>
     <use xlink:href="#DejaVuSans-33" transform="translate(56.572266 -15.984375) scale(0.7)"/>
    </g>
   </g>
   <g id="legend_1">
    <g id="line2d_19">
     <path d="M 158.12476 30.847428 
L 180.12476 30.847428 
L 202.12476 30.847428 
" style="fill: none; stroke: #000000; stroke-width: 3; stroke-linecap: square"/>
    </g>
    <g id="text_8">
     <!-- FePCN-224Ac -->
     <g transform="translate(219.72476 38.547428) scale(0.22 -0.22)">
      <defs>
       <path id="ArialMT-46" d="M 525 0 
L 525 4581 
L 3616 4581 
L 3616 4041 
L 1131 4041 
L 1131 2622 
L 3281 2622 
L 3281 2081 
L 1131 2081 
L 1131 0 
L 525 0 
z
" transform="scale(0.015625)"/>
       <path id="ArialMT-50" d="M 494 0 
L 494 4581 
L 2222 4581 
Q 2678 4581 2919 4538 
Q 3256 4481 3484 4323 
Q 3713 4166 3852 3881 
Q 3991 3597 3991 3256 
Q 3991 2672 3619 2267 
Q 3247 1863 2275 1863 
L 1100 1863 
L 1100 0 
L 494 0 
z
M 1100 2403 
L 2284 2403 
Q 2872 2403 3119 2622 
Q 3366 2841 3366 3238 
Q 3366 3525 3220 3729 
Q 3075 3934 2838 4000 
Q 2684 4041 2272 4041 
L 1100 4041 
L 1100 2403 
z
" transform="scale(0.015625)"/>
       <path id="ArialMT-43" d="M 3763 1606 
L 4369 1453 
Q 4178 706 3683 314 
Q 3188 -78 2472 -78 
Q 1731 -78 1267 223 
Q 803 525 561 1097 
Q 319 1669 319 2325 
Q 319 3041 592 3573 
Q 866 4106 1370 4382 
Q 1875 4659 2481 4659 
Q 3169 4659 3637 4309 
Q 4106 3959 4291 3325 
L 3694 3184 
Q 3534 3684 3231 3912 
Q 2928 4141 2469 4141 
Q 1941 4141 1586 3887 
Q 1231 3634 1087 3207 
Q 944 2781 944 2328 
Q 944 1744 1114 1308 
Q 1284 872 1643 656 
Q 2003 441 2422 441 
Q 2931 441 3284 734 
Q 3638 1028 3763 1606 
z
" transform="scale(0.015625)"/>
       <path id="ArialMT-2d" d="M 203 1375 
L 203 1941 
L 1931 1941 
L 1931 1375 
L 203 1375 
z
" transform="scale(0.015625)"/>
       <path id="ArialMT-34" d="M 2069 0 
L 2069 1097 
L 81 1097 
L 81 1613 
L 2172 4581 
L 2631 4581 
L 2631 1613 
L 3250 1613 
L 3250 1097 
L 2631 1097 
L 2631 0 
L 2069 0 
z
M 2069 1613 
L 2069 3678 
L 634 1613 
L 2069 1613 
z
" transform="scale(0.015625)"/>
       <path id="ArialMT-41" d="M -9 0 
L 1750 4581 
L 2403 4581 
L 4278 0 
L 3588 0 
L 3053 1388 
L 1138 1388 
L 634 0 
L -9 0 
z
M 1313 1881 
L 2866 1881 
L 2388 3150 
Q 2169 3728 2063 4100 
Q 1975 3659 1816 3225 
L 1313 1881 
z
" transform="scale(0.015625)"/>
       <path id="ArialMT-63" d="M 2588 1216 
L 3141 1144 
Q 3050 572 2676 248 
Q 2303 -75 1759 -75 
Q 1078 -75 664 370 
Q 250 816 250 1647 
Q 250 2184 428 2587 
Q 606 2991 970 3192 
Q 1334 3394 1763 3394 
Q 2303 3394 2647 3120 
Q 2991 2847 3088 2344 
L 2541 2259 
Q 2463 2594 2264 2762 
Q 2066 2931 1784 2931 
Q 1359 2931 1093 2626 
Q 828 2322 828 1663 
Q 828 994 1084 691 
Q 1341 388 1753 388 
Q 2084 388 2306 591 
Q 2528 794 2588 1216 
z
" transform="scale(0.015625)"/>
      </defs>
      <use xlink:href="#ArialMT-46"/>
      <use xlink:href="#ArialMT-65" x="61.083984"/>
      <use xlink:href="#ArialMT-50" x="116.699219"/>
      <use xlink:href="#ArialMT-43" x="183.398438"/>
      <use xlink:href="#ArialMT-4e" x="255.615234"/>
      <use xlink:href="#ArialMT-2d" x="327.832031"/>
      <use xlink:href="#ArialMT-32" x="361.132812"/>
      <use xlink:href="#ArialMT-32" x="416.748047"/>
      <use xlink:href="#ArialMT-34" x="472.363281"/>
      <use xlink:href="#ArialMT-41" x="527.978516"/>
      <use xlink:href="#ArialMT-63" x="594.677734"/>
     </g>
    </g>
    <g id="line2d_20">
     <path d="M 158.12476 62.24899 
L 180.12476 62.24899 
L 202.12476 62.24899 
" style="fill: none; stroke: #0000ff; stroke-width: 3; stroke-linecap: square"/>
    </g>
    <g id="text_9">
     <!-- Fe(NO)PCN-224Ac -->
     <g transform="translate(219.72476 69.94899) scale(0.22 -0.22)">
      <defs>
       <path id="ArialMT-4f" d="M 309 2231 
Q 309 3372 921 4017 
Q 1534 4663 2503 4663 
Q 3138 4663 3647 4359 
Q 4156 4056 4423 3514 
Q 4691 2972 4691 2284 
Q 4691 1588 4409 1038 
Q 4128 488 3612 205 
Q 3097 -78 2500 -78 
Q 1853 -78 1343 234 
Q 834 547 571 1087 
Q 309 1628 309 2231 
z
M 934 2222 
Q 934 1394 1379 917 
Q 1825 441 2497 441 
Q 3181 441 3623 922 
Q 4066 1403 4066 2288 
Q 4066 2847 3877 3264 
Q 3688 3681 3323 3911 
Q 2959 4141 2506 4141 
Q 1863 4141 1398 3698 
Q 934 3256 934 2222 
z
" transform="scale(0.015625)"/>
      </defs>
      <use xlink:href="#ArialMT-46"/>
      <use xlink:href="#ArialMT-65" x="61.083984"/>
      <use xlink:href="#ArialMT-28" x="116.699219"/>
      <use xlink:href="#ArialMT-4e" x="150"/>
      <use xlink:href="#ArialMT-4f" x="222.216797"/>
      <use xlink:href="#ArialMT-29" x="300"/>
      <use xlink:href="#ArialMT-50" x="333.300781"/>
      <use xlink:href="#ArialMT-43" x="400"/>
      <use xlink:href="#ArialMT-4e" x="472.216797"/>
      <use xlink:href="#ArialMT-2d" x="544.433594"/>
      <use xlink:href="#ArialMT-32" x="577.734375"/>
      <use xlink:href="#ArialMT-32" x="633.349609"/>
      <use xlink:href="#ArialMT-34" x="688.964844"/>
      <use xlink:href="#ArialMT-41" x="744.580078"/>
      <use xlink:href="#ArialMT-63" x="811.279297"/>
     </g>
    </g>
   </g>
  </g>
 </g>
 <defs>
  <clipPath id="pcecac7c7e9">
   <rect x="30.87774" y="3.00024" width="398.12202" height="295.609208"/>
  </clipPath>
 </defs>
</svg>
