<?xml version="1.0" encoding="utf-8" standalone="no"?>
<!DOCTYPE svg PUBLIC "-//W3C//DTD SVG 1.1//EN"
  "http://www.w3.org/Graphics/SVG/1.1/DTD/svg11.dtd">
<svg xmlns:xlink="http://www.w3.org/1999/xlink" width="504pt" height="432pt" viewBox="0 0 504 432" xmlns="http://www.w3.org/2000/svg" version="1.1">
 <metadata>
  <rdf:RDF xmlns:dc="http://purl.org/dc/elements/1.1/" xmlns:cc="http://creativecommons.org/ns#" xmlns:rdf="http://www.w3.org/1999/02/22-rdf-syntax-ns#">
   <cc:Work>
    <dc:type rdf:resource="http://purl.org/dc/dcmitype/StillImage"/>
    <dc:date>2024-04-07T10:08:22.902336</dc:date>
    <dc:format>image/svg+xml</dc:format>
    <dc:creator>
     <cc:Agent>
      <dc:title>Matplotlib v3.6.2, https://matplotlib.org/</dc:title>
     </cc:Agent>
    </dc:creator>
   </cc:Work>
  </rdf:RDF>
 </metadata>
 <defs>
  <style type="text/css">*{stroke-linejoin: round; stroke-linecap: butt}</style>
 </defs>
 <g id="figure_1">
  <g id="patch_1">
   <path d="M 0 432 
L 504 432 
L 504 0 
L 0 0 
z
" style="fill: #ffffff"/>
  </g>
  <g id="axes_1">
   <g id="patch_2">
    <path d="M 30.87774 370.609447 
L 500.99976 370.609447 
L 500.99976 3.00024 
L 30.87774 3.00024 
z
" style="fill: #ffffff"/>
   </g>
   <g id="matplotlib.axis_1">
    <g id="xtick_1">
     <g id="line2d_1">
      <defs>
       <path id="mda9995c938" d="M 0 0 
L 0 10.125 
" style="stroke: #000000; stroke-width: 2.025"/>
      </defs>
      <g>
       <use xlink:href="#mda9995c938" x="88.209694" y="370.609447" style="stroke: #000000; stroke-width: 2.025"/>
      </g>
     </g>
     <g id="text_1">
      <!-- 680 -->
      <g transform="translate(69.8586 399.981635) scale(0.22 -0.22)">
       <defs>
        <path id="ArialMT-36" d="M 3184 3459 
L 2625 3416 
Q 2550 3747 2413 3897 
Q 2184 4138 1850 4138 
Q 1581 4138 1378 3988 
Q 1113 3794 959 3422 
Q 806 3050 800 2363 
Q 1003 2672 1297 2822 
Q 1591 2972 1913 2972 
Q 2475 2972 2870 2558 
Q 3266 2144 3266 1488 
Q 3266 1056 3080 686 
Q 2894 316 2569 119 
Q 2244 -78 1831 -78 
Q 1128 -78 684 439 
Q 241 956 241 2144 
Q 241 3472 731 4075 
Q 1159 4600 1884 4600 
Q 2425 4600 2770 4297 
Q 3116 3994 3184 3459 
z
M 888 1484 
Q 888 1194 1011 928 
Q 1134 663 1356 523 
Q 1578 384 1822 384 
Q 2178 384 2434 671 
Q 2691 959 2691 1453 
Q 2691 1928 2437 2201 
Q 2184 2475 1800 2475 
Q 1419 2475 1153 2201 
Q 888 1928 888 1484 
z
" transform="scale(0.015625)"/>
        <path id="ArialMT-38" d="M 1131 2484 
Q 781 2613 612 2850 
Q 444 3088 444 3419 
Q 444 3919 803 4259 
Q 1163 4600 1759 4600 
Q 2359 4600 2725 4251 
Q 3091 3903 3091 3403 
Q 3091 3084 2923 2848 
Q 2756 2613 2416 2484 
Q 2838 2347 3058 2040 
Q 3278 1734 3278 1309 
Q 3278 722 2862 322 
Q 2447 -78 1769 -78 
Q 1091 -78 675 323 
Q 259 725 259 1325 
Q 259 1772 486 2073 
Q 713 2375 1131 2484 
z
M 1019 3438 
Q 1019 3113 1228 2906 
Q 1438 2700 1772 2700 
Q 2097 2700 2305 2904 
Q 2513 3109 2513 3406 
Q 2513 3716 2298 3927 
Q 2084 4138 1766 4138 
Q 1444 4138 1231 3931 
Q 1019 3725 1019 3438 
z
M 838 1322 
Q 838 1081 952 856 
Q 1066 631 1291 507 
Q 1516 384 1775 384 
Q 2178 384 2440 643 
Q 2703 903 2703 1303 
Q 2703 1709 2433 1975 
Q 2163 2241 1756 2241 
Q 1359 2241 1098 1978 
Q 838 1716 838 1322 
z
" transform="scale(0.015625)"/>
        <path id="ArialMT-30" d="M 266 2259 
Q 266 3072 433 3567 
Q 600 4063 929 4331 
Q 1259 4600 1759 4600 
Q 2128 4600 2406 4451 
Q 2684 4303 2865 4023 
Q 3047 3744 3150 3342 
Q 3253 2941 3253 2259 
Q 3253 1453 3087 958 
Q 2922 463 2592 192 
Q 2263 -78 1759 -78 
Q 1097 -78 719 397 
Q 266 969 266 2259 
z
M 844 2259 
Q 844 1131 1108 757 
Q 1372 384 1759 384 
Q 2147 384 2411 759 
Q 2675 1134 2675 2259 
Q 2675 3391 2411 3762 
Q 2147 4134 1753 4134 
Q 1366 4134 1134 3806 
Q 844 3388 844 2259 
z
" transform="scale(0.015625)"/>
       </defs>
       <use xlink:href="#ArialMT-36"/>
       <use xlink:href="#ArialMT-38" x="55.615234"/>
       <use xlink:href="#ArialMT-30" x="111.230469"/>
      </g>
     </g>
    </g>
    <g id="xtick_2">
     <g id="line2d_2">
      <g>
       <use xlink:href="#mda9995c938" x="202.873601" y="370.609447" style="stroke: #000000; stroke-width: 2.025"/>
      </g>
     </g>
     <g id="text_2">
      <!-- 700 -->
      <g transform="translate(184.522507 399.981635) scale(0.22 -0.22)">
       <defs>
        <path id="ArialMT-37" d="M 303 3981 
L 303 4522 
L 3269 4522 
L 3269 4084 
Q 2831 3619 2401 2847 
Q 1972 2075 1738 1259 
Q 1569 684 1522 0 
L 944 0 
Q 953 541 1156 1306 
Q 1359 2072 1739 2783 
Q 2119 3494 2547 3981 
L 303 3981 
z
" transform="scale(0.015625)"/>
       </defs>
       <use xlink:href="#ArialMT-37"/>
       <use xlink:href="#ArialMT-30" x="55.615234"/>
       <use xlink:href="#ArialMT-30" x="111.230469"/>
      </g>
     </g>
    </g>
    <g id="xtick_3">
     <g id="line2d_3">
      <g>
       <use xlink:href="#mda9995c938" x="317.537508" y="370.609447" style="stroke: #000000; stroke-width: 2.025"/>
      </g>
     </g>
     <g id="text_3">
      <!-- 720 -->
      <g transform="translate(299.186415 399.981635) scale(0.22 -0.22)">
       <defs>
        <path id="ArialMT-32" d="M 3222 541 
L 3222 0 
L 194 0 
Q 188 203 259 391 
Q 375 700 629 1000 
Q 884 1300 1366 1694 
Q 2113 2306 2375 2664 
Q 2638 3022 2638 3341 
Q 2638 3675 2398 3904 
Q 2159 4134 1775 4134 
Q 1369 4134 1125 3890 
Q 881 3647 878 3216 
L 300 3275 
Q 359 3922 746 4261 
Q 1134 4600 1788 4600 
Q 2447 4600 2831 4234 
Q 3216 3869 3216 3328 
Q 3216 3053 3103 2787 
Q 2991 2522 2730 2228 
Q 2469 1934 1863 1422 
Q 1356 997 1212 845 
Q 1069 694 975 541 
L 3222 541 
z
" transform="scale(0.015625)"/>
       </defs>
       <use xlink:href="#ArialMT-37"/>
       <use xlink:href="#ArialMT-32" x="55.615234"/>
       <use xlink:href="#ArialMT-30" x="111.230469"/>
      </g>
     </g>
    </g>
    <g id="xtick_4">
     <g id="line2d_4">
      <g>
       <use xlink:href="#mda9995c938" x="432.201416" y="370.609447" style="stroke: #000000; stroke-width: 2.025"/>
      </g>
     </g>
     <g id="text_4">
      <!-- 740 -->
      <g transform="translate(413.850322 399.981635) scale(0.22 -0.22)">
       <defs>
        <path id="ArialMT-34" d="M 2069 0 
L 2069 1097 
L 81 1097 
L 81 1613 
L 2172 4581 
L 2631 4581 
L 2631 1613 
L 3250 1613 
L 3250 1097 
L 2631 1097 
L 2631 0 
L 2069 0 
z
M 2069 1613 
L 2069 3678 
L 634 1613 
L 2069 1613 
z
" transform="scale(0.015625)"/>
       </defs>
       <use xlink:href="#ArialMT-37"/>
       <use xlink:href="#ArialMT-34" x="55.615234"/>
       <use xlink:href="#ArialMT-30" x="111.230469"/>
      </g>
     </g>
    </g>
    <g id="xtick_5">
     <g id="line2d_5">
      <defs>
       <path id="mcaa99b6f3f" d="M 0 0 
L 0 5.0625 
" style="stroke: #000000; stroke-width: 2.025"/>
      </defs>
      <g>
       <use xlink:href="#mcaa99b6f3f" x="30.87774" y="370.609447" style="stroke: #000000; stroke-width: 2.025"/>
      </g>
     </g>
    </g>
    <g id="xtick_6">
     <g id="line2d_6">
      <g>
       <use xlink:href="#mcaa99b6f3f" x="59.543717" y="370.609447" style="stroke: #000000; stroke-width: 2.025"/>
      </g>
     </g>
    </g>
    <g id="xtick_7">
     <g id="line2d_7">
      <g>
       <use xlink:href="#mcaa99b6f3f" x="116.87567" y="370.609447" style="stroke: #000000; stroke-width: 2.025"/>
      </g>
     </g>
    </g>
    <g id="xtick_8">
     <g id="line2d_8">
      <g>
       <use xlink:href="#mcaa99b6f3f" x="145.541647" y="370.609447" style="stroke: #000000; stroke-width: 2.025"/>
      </g>
     </g>
    </g>
    <g id="xtick_9">
     <g id="line2d_9">
      <g>
       <use xlink:href="#mcaa99b6f3f" x="174.207624" y="370.609447" style="stroke: #000000; stroke-width: 2.025"/>
      </g>
     </g>
    </g>
    <g id="xtick_10">
     <g id="line2d_10">
      <g>
       <use xlink:href="#mcaa99b6f3f" x="231.539578" y="370.609447" style="stroke: #000000; stroke-width: 2.025"/>
      </g>
     </g>
    </g>
    <g id="xtick_11">
     <g id="line2d_11">
      <g>
       <use xlink:href="#mcaa99b6f3f" x="260.205555" y="370.609447" style="stroke: #000000; stroke-width: 2.025"/>
      </g>
     </g>
    </g>
    <g id="xtick_12">
     <g id="line2d_12">
      <g>
       <use xlink:href="#mcaa99b6f3f" x="288.871531" y="370.609447" style="stroke: #000000; stroke-width: 2.025"/>
      </g>
     </g>
    </g>
    <g id="xtick_13">
     <g id="line2d_13">
      <g>
       <use xlink:href="#mcaa99b6f3f" x="346.203485" y="370.609447" style="stroke: #000000; stroke-width: 2.025"/>
      </g>
     </g>
    </g>
    <g id="xtick_14">
     <g id="line2d_14">
      <g>
       <use xlink:href="#mcaa99b6f3f" x="374.869462" y="370.609447" style="stroke: #000000; stroke-width: 2.025"/>
      </g>
     </g>
    </g>
    <g id="xtick_15">
     <g id="line2d_15">
      <g>
       <use xlink:href="#mcaa99b6f3f" x="403.535439" y="370.609447" style="stroke: #000000; stroke-width: 2.025"/>
      </g>
     </g>
    </g>
    <g id="xtick_16">
     <g id="line2d_16">
      <g>
       <use xlink:href="#mcaa99b6f3f" x="460.867392" y="370.609447" style="stroke: #000000; stroke-width: 2.025"/>
      </g>
     </g>
    </g>
    <g id="xtick_17">
     <g id="line2d_17">
      <g>
       <use xlink:href="#mcaa99b6f3f" x="489.533369" y="370.609447" style="stroke: #000000; stroke-width: 2.025"/>
      </g>
     </g>
    </g>
    <g id="text_5">
     <!-- Emission Energy (eV) -->
     <g transform="translate(159.573906 424.369447) scale(0.22 -0.22)">
      <defs>
       <path id="ArialMT-45" d="M 506 0 
L 506 4581 
L 3819 4581 
L 3819 4041 
L 1113 4041 
L 1113 2638 
L 3647 2638 
L 3647 2100 
L 1113 2100 
L 1113 541 
L 3925 541 
L 3925 0 
L 506 0 
z
" transform="scale(0.015625)"/>
       <path id="ArialMT-6d" d="M 422 0 
L 422 3319 
L 925 3319 
L 925 2853 
Q 1081 3097 1340 3245 
Q 1600 3394 1931 3394 
Q 2300 3394 2536 3241 
Q 2772 3088 2869 2813 
Q 3263 3394 3894 3394 
Q 4388 3394 4653 3120 
Q 4919 2847 4919 2278 
L 4919 0 
L 4359 0 
L 4359 2091 
Q 4359 2428 4304 2576 
Q 4250 2725 4106 2815 
Q 3963 2906 3769 2906 
Q 3419 2906 3187 2673 
Q 2956 2441 2956 1928 
L 2956 0 
L 2394 0 
L 2394 2156 
Q 2394 2531 2256 2718 
Q 2119 2906 1806 2906 
Q 1569 2906 1367 2781 
Q 1166 2656 1075 2415 
Q 984 2175 984 1722 
L 984 0 
L 422 0 
z
" transform="scale(0.015625)"/>
       <path id="ArialMT-69" d="M 425 3934 
L 425 4581 
L 988 4581 
L 988 3934 
L 425 3934 
z
M 425 0 
L 425 3319 
L 988 3319 
L 988 0 
L 425 0 
z
" transform="scale(0.015625)"/>
       <path id="ArialMT-73" d="M 197 991 
L 753 1078 
Q 800 744 1014 566 
Q 1228 388 1613 388 
Q 2000 388 2187 545 
Q 2375 703 2375 916 
Q 2375 1106 2209 1216 
Q 2094 1291 1634 1406 
Q 1016 1563 777 1677 
Q 538 1791 414 1992 
Q 291 2194 291 2438 
Q 291 2659 392 2848 
Q 494 3038 669 3163 
Q 800 3259 1026 3326 
Q 1253 3394 1513 3394 
Q 1903 3394 2198 3281 
Q 2494 3169 2634 2976 
Q 2775 2784 2828 2463 
L 2278 2388 
Q 2241 2644 2061 2787 
Q 1881 2931 1553 2931 
Q 1166 2931 1000 2803 
Q 834 2675 834 2503 
Q 834 2394 903 2306 
Q 972 2216 1119 2156 
Q 1203 2125 1616 2013 
Q 2213 1853 2448 1751 
Q 2684 1650 2818 1456 
Q 2953 1263 2953 975 
Q 2953 694 2789 445 
Q 2625 197 2315 61 
Q 2006 -75 1616 -75 
Q 969 -75 630 194 
Q 291 463 197 991 
z
" transform="scale(0.015625)"/>
       <path id="ArialMT-6f" d="M 213 1659 
Q 213 2581 725 3025 
Q 1153 3394 1769 3394 
Q 2453 3394 2887 2945 
Q 3322 2497 3322 1706 
Q 3322 1066 3130 698 
Q 2938 331 2570 128 
Q 2203 -75 1769 -75 
Q 1072 -75 642 372 
Q 213 819 213 1659 
z
M 791 1659 
Q 791 1022 1069 705 
Q 1347 388 1769 388 
Q 2188 388 2466 706 
Q 2744 1025 2744 1678 
Q 2744 2294 2464 2611 
Q 2184 2928 1769 2928 
Q 1347 2928 1069 2612 
Q 791 2297 791 1659 
z
" transform="scale(0.015625)"/>
       <path id="ArialMT-6e" d="M 422 0 
L 422 3319 
L 928 3319 
L 928 2847 
Q 1294 3394 1984 3394 
Q 2284 3394 2536 3286 
Q 2788 3178 2913 3003 
Q 3038 2828 3088 2588 
Q 3119 2431 3119 2041 
L 3119 0 
L 2556 0 
L 2556 2019 
Q 2556 2363 2490 2533 
Q 2425 2703 2258 2804 
Q 2091 2906 1866 2906 
Q 1506 2906 1245 2678 
Q 984 2450 984 1813 
L 984 0 
L 422 0 
z
" transform="scale(0.015625)"/>
       <path id="ArialMT-20" transform="scale(0.015625)"/>
       <path id="ArialMT-65" d="M 2694 1069 
L 3275 997 
Q 3138 488 2766 206 
Q 2394 -75 1816 -75 
Q 1088 -75 661 373 
Q 234 822 234 1631 
Q 234 2469 665 2931 
Q 1097 3394 1784 3394 
Q 2450 3394 2872 2941 
Q 3294 2488 3294 1666 
Q 3294 1616 3291 1516 
L 816 1516 
Q 847 969 1125 678 
Q 1403 388 1819 388 
Q 2128 388 2347 550 
Q 2566 713 2694 1069 
z
M 847 1978 
L 2700 1978 
Q 2663 2397 2488 2606 
Q 2219 2931 1791 2931 
Q 1403 2931 1139 2672 
Q 875 2413 847 1978 
z
" transform="scale(0.015625)"/>
       <path id="ArialMT-72" d="M 416 0 
L 416 3319 
L 922 3319 
L 922 2816 
Q 1116 3169 1280 3281 
Q 1444 3394 1641 3394 
Q 1925 3394 2219 3213 
L 2025 2691 
Q 1819 2813 1613 2813 
Q 1428 2813 1281 2702 
Q 1134 2591 1072 2394 
Q 978 2094 978 1738 
L 978 0 
L 416 0 
z
" transform="scale(0.015625)"/>
       <path id="ArialMT-67" d="M 319 -275 
L 866 -356 
Q 900 -609 1056 -725 
Q 1266 -881 1628 -881 
Q 2019 -881 2231 -725 
Q 2444 -569 2519 -288 
Q 2563 -116 2559 434 
Q 2191 0 1641 0 
Q 956 0 581 494 
Q 206 988 206 1678 
Q 206 2153 378 2554 
Q 550 2956 876 3175 
Q 1203 3394 1644 3394 
Q 2231 3394 2613 2919 
L 2613 3319 
L 3131 3319 
L 3131 450 
Q 3131 -325 2973 -648 
Q 2816 -972 2473 -1159 
Q 2131 -1347 1631 -1347 
Q 1038 -1347 672 -1080 
Q 306 -813 319 -275 
z
M 784 1719 
Q 784 1066 1043 766 
Q 1303 466 1694 466 
Q 2081 466 2343 764 
Q 2606 1063 2606 1700 
Q 2606 2309 2336 2618 
Q 2066 2928 1684 2928 
Q 1309 2928 1046 2623 
Q 784 2319 784 1719 
z
" transform="scale(0.015625)"/>
       <path id="ArialMT-79" d="M 397 -1278 
L 334 -750 
Q 519 -800 656 -800 
Q 844 -800 956 -737 
Q 1069 -675 1141 -563 
Q 1194 -478 1313 -144 
Q 1328 -97 1363 -6 
L 103 3319 
L 709 3319 
L 1400 1397 
Q 1534 1031 1641 628 
Q 1738 1016 1872 1384 
L 2581 3319 
L 3144 3319 
L 1881 -56 
Q 1678 -603 1566 -809 
Q 1416 -1088 1222 -1217 
Q 1028 -1347 759 -1347 
Q 597 -1347 397 -1278 
z
" transform="scale(0.015625)"/>
       <path id="ArialMT-28" d="M 1497 -1347 
Q 1031 -759 709 28 
Q 388 816 388 1659 
Q 388 2403 628 3084 
Q 909 3875 1497 4659 
L 1900 4659 
Q 1522 4009 1400 3731 
Q 1209 3300 1100 2831 
Q 966 2247 966 1656 
Q 966 153 1900 -1347 
L 1497 -1347 
z
" transform="scale(0.015625)"/>
       <path id="ArialMT-56" d="M 1803 0 
L 28 4581 
L 684 4581 
L 1875 1253 
Q 2019 853 2116 503 
Q 2222 878 2363 1253 
L 3600 4581 
L 4219 4581 
L 2425 0 
L 1803 0 
z
" transform="scale(0.015625)"/>
       <path id="ArialMT-29" d="M 791 -1347 
L 388 -1347 
Q 1322 153 1322 1656 
Q 1322 2244 1188 2822 
Q 1081 3291 891 3722 
Q 769 4003 388 4659 
L 791 4659 
Q 1378 3875 1659 3084 
Q 1900 2403 1900 1659 
Q 1900 816 1576 28 
Q 1253 -759 791 -1347 
z
" transform="scale(0.015625)"/>
      </defs>
      <use xlink:href="#ArialMT-45"/>
      <use xlink:href="#ArialMT-6d" x="66.699219"/>
      <use xlink:href="#ArialMT-69" x="150"/>
      <use xlink:href="#ArialMT-73" x="172.216797"/>
      <use xlink:href="#ArialMT-73" x="222.216797"/>
      <use xlink:href="#ArialMT-69" x="272.216797"/>
      <use xlink:href="#ArialMT-6f" x="294.433594"/>
      <use xlink:href="#ArialMT-6e" x="350.048828"/>
      <use xlink:href="#ArialMT-20" x="405.664062"/>
      <use xlink:href="#ArialMT-45" x="433.447266"/>
      <use xlink:href="#ArialMT-6e" x="500.146484"/>
      <use xlink:href="#ArialMT-65" x="555.761719"/>
      <use xlink:href="#ArialMT-72" x="611.376953"/>
      <use xlink:href="#ArialMT-67" x="644.677734"/>
      <use xlink:href="#ArialMT-79" x="700.292969"/>
      <use xlink:href="#ArialMT-20" x="750.292969"/>
      <use xlink:href="#ArialMT-28" x="778.076172"/>
      <use xlink:href="#ArialMT-65" x="811.376953"/>
      <use xlink:href="#ArialMT-56" x="866.992188"/>
      <use xlink:href="#ArialMT-29" x="933.691406"/>
     </g>
    </g>
   </g>
   <g id="matplotlib.axis_2">
    <g id="text_6">
     <!-- Normalized Intensity -->
     <g transform="translate(18.747428 286.449375) rotate(-90) scale(0.22 -0.22)">
      <defs>
       <path id="ArialMT-4e" d="M 488 0 
L 488 4581 
L 1109 4581 
L 3516 984 
L 3516 4581 
L 4097 4581 
L 4097 0 
L 3475 0 
L 1069 3600 
L 1069 0 
L 488 0 
z
" transform="scale(0.015625)"/>
       <path id="ArialMT-61" d="M 2588 409 
Q 2275 144 1986 34 
Q 1697 -75 1366 -75 
Q 819 -75 525 192 
Q 231 459 231 875 
Q 231 1119 342 1320 
Q 453 1522 633 1644 
Q 813 1766 1038 1828 
Q 1203 1872 1538 1913 
Q 2219 1994 2541 2106 
Q 2544 2222 2544 2253 
Q 2544 2597 2384 2738 
Q 2169 2928 1744 2928 
Q 1347 2928 1158 2789 
Q 969 2650 878 2297 
L 328 2372 
Q 403 2725 575 2942 
Q 747 3159 1072 3276 
Q 1397 3394 1825 3394 
Q 2250 3394 2515 3294 
Q 2781 3194 2906 3042 
Q 3031 2891 3081 2659 
Q 3109 2516 3109 2141 
L 3109 1391 
Q 3109 606 3145 398 
Q 3181 191 3288 0 
L 2700 0 
Q 2613 175 2588 409 
z
M 2541 1666 
Q 2234 1541 1622 1453 
Q 1275 1403 1131 1340 
Q 988 1278 909 1158 
Q 831 1038 831 891 
Q 831 666 1001 516 
Q 1172 366 1500 366 
Q 1825 366 2078 508 
Q 2331 650 2450 897 
Q 2541 1088 2541 1459 
L 2541 1666 
z
" transform="scale(0.015625)"/>
       <path id="ArialMT-6c" d="M 409 0 
L 409 4581 
L 972 4581 
L 972 0 
L 409 0 
z
" transform="scale(0.015625)"/>
       <path id="ArialMT-7a" d="M 125 0 
L 125 456 
L 2238 2881 
Q 1878 2863 1603 2863 
L 250 2863 
L 250 3319 
L 2963 3319 
L 2963 2947 
L 1166 841 
L 819 456 
Q 1197 484 1528 484 
L 3063 484 
L 3063 0 
L 125 0 
z
" transform="scale(0.015625)"/>
       <path id="ArialMT-64" d="M 2575 0 
L 2575 419 
Q 2259 -75 1647 -75 
Q 1250 -75 917 144 
Q 584 363 401 755 
Q 219 1147 219 1656 
Q 219 2153 384 2558 
Q 550 2963 881 3178 
Q 1213 3394 1622 3394 
Q 1922 3394 2156 3267 
Q 2391 3141 2538 2938 
L 2538 4581 
L 3097 4581 
L 3097 0 
L 2575 0 
z
M 797 1656 
Q 797 1019 1065 703 
Q 1334 388 1700 388 
Q 2069 388 2326 689 
Q 2584 991 2584 1609 
Q 2584 2291 2321 2609 
Q 2059 2928 1675 2928 
Q 1300 2928 1048 2622 
Q 797 2316 797 1656 
z
" transform="scale(0.015625)"/>
       <path id="ArialMT-49" d="M 597 0 
L 597 4581 
L 1203 4581 
L 1203 0 
L 597 0 
z
" transform="scale(0.015625)"/>
       <path id="ArialMT-74" d="M 1650 503 
L 1731 6 
Q 1494 -44 1306 -44 
Q 1000 -44 831 53 
Q 663 150 594 308 
Q 525 466 525 972 
L 525 2881 
L 113 2881 
L 113 3319 
L 525 3319 
L 525 4141 
L 1084 4478 
L 1084 3319 
L 1650 3319 
L 1650 2881 
L 1084 2881 
L 1084 941 
Q 1084 700 1114 631 
Q 1144 563 1211 522 
Q 1278 481 1403 481 
Q 1497 481 1650 503 
z
" transform="scale(0.015625)"/>
      </defs>
      <use xlink:href="#ArialMT-4e"/>
      <use xlink:href="#ArialMT-6f" x="72.216797"/>
      <use xlink:href="#ArialMT-72" x="127.832031"/>
      <use xlink:href="#ArialMT-6d" x="161.132812"/>
      <use xlink:href="#ArialMT-61" x="244.433594"/>
      <use xlink:href="#ArialMT-6c" x="300.048828"/>
      <use xlink:href="#ArialMT-69" x="322.265625"/>
      <use xlink:href="#ArialMT-7a" x="344.482422"/>
      <use xlink:href="#ArialMT-65" x="394.482422"/>
      <use xlink:href="#ArialMT-64" x="450.097656"/>
      <use xlink:href="#ArialMT-20" x="505.712891"/>
      <use xlink:href="#ArialMT-49" x="533.496094"/>
      <use xlink:href="#ArialMT-6e" x="561.279297"/>
      <use xlink:href="#ArialMT-74" x="616.894531"/>
      <use xlink:href="#ArialMT-65" x="644.677734"/>
      <use xlink:href="#ArialMT-6e" x="700.292969"/>
      <use xlink:href="#ArialMT-73" x="755.908203"/>
      <use xlink:href="#ArialMT-69" x="805.908203"/>
      <use xlink:href="#ArialMT-74" x="828.125"/>
      <use xlink:href="#ArialMT-79" x="855.908203"/>
     </g>
    </g>
   </g>
   <g id="line2d_18">
    <path d="M 30.726556 354.180856 
L 33.064782 354.696516 
L 34.234927 354.190954 
L 35.40576 355.598248 
L 36.577339 354.639968 
L 37.749605 353.897781 
L 40.096202 353.229476 
L 41.270533 352.029859 
L 43.621372 353.134894 
L 44.798168 353.331969 
L 45.975307 354.014074 
L 47.153192 355.889569 
L 49.511657 355.770247 
L 50.691606 355.445098 
L 51.872644 354.805236 
L 53.053969 355.072995 
L 54.236383 355.560045 
L 55.419485 355.603297 
L 56.603276 354.972859 
L 58.972977 354.316334 
L 60.158889 354.279478 
L 62.53312 354.959732 
L 63.721152 354.81668 
L 64.910217 355.354387 
L 67.290066 356.932166 
L 68.481195 357.31302 
L 69.672668 358.078096 
L 70.86523 356.413981 
L 72.05848 354.964107 
L 73.252418 353.909899 
L 74.447445 353.1046 
L 75.642759 350.995846 
L 76.838818 350.721187 
L 78.035909 351.771188 
L 79.233746 352.496882 
L 80.431869 354.295634 
L 81.631081 356.486517 
L 82.830982 355.548432 
L 84.03157 353.263304 
L 86.435212 349.957962 
L 87.637922 349.088206 
L 88.841664 350.458812 
L 90.045749 353.1046 
L 91.250924 351.944533 
L 92.45673 345.38821 
L 93.663281 335.57148 
L 94.87052 323.867474 
L 96.078504 309.490417 
L 97.287463 291.370784 
L 98.497167 275.058149 
L 99.707216 257.192812 
L 100.918296 244.831609 
L 102.130121 237.96764 
L 103.342635 234.535234 
L 104.55618 233.667666 
L 105.77007 246.484953 
L 108.200314 282.078297 
L 109.416611 295.993886 
L 110.633654 305.426059 
L 113.070205 314.307733 
L 114.289713 314.55698 
L 115.509565 310.459636 
L 116.730449 309.435047 
L 117.952021 311.664302 
L 119.174682 312.498379 
L 120.397687 311.202833 
L 121.621724 307.339757 
L 122.846105 296.730856 
L 124.071576 294.959873 
L 125.297677 292.922813 
L 126.524868 289.410635 
L 127.752459 293.400607 
L 128.981026 304.000588 
L 130.210338 302.720525 
L 131.440337 305.437671 
L 132.671025 304.736548 
L 133.902745 300.576766 
L 135.134808 295.393573 
L 136.367961 295.843261 
L 137.601802 300.30867 
L 138.836733 307.203437 
L 140.07195 319.638522 
L 141.308256 330.520737 
L 142.54525 328.367552 
L 145.021303 325.411257 
L 146.260762 321.509305 
L 147.500508 319.065641 
L 148.741401 318.933024 
L 149.983268 318.424937 
L 151.22548 320.098813 
L 152.468781 322.26058 
L 153.712769 329.219469 
L 154.957446 332.88143 
L 156.202868 337.73594 
L 157.449322 343.479729 
L 158.696063 346.732225 
L 159.943893 349.370776 
L 161.192812 349.81693 
L 162.442018 346.431311 
L 164.943296 345.580909 
L 166.195369 347.737123 
L 167.447728 347.823459 
L 168.701177 349.151991 
L 169.955313 349.548665 
L 171.210138 350.155542 
L 172.466051 350.178767 
L 173.722653 349.203153 
L 174.979886 350.353122 
L 176.237921 348.336258 
L 177.49693 348.639192 
L 178.756685 349.436412 
L 180.017128 348.766929 
L 181.278259 349.498345 
L 185.067271 353.729821 
L 186.331555 354.135416 
L 187.596871 354.85909 
L 188.862875 352.81816 
L 192.66622 350.31677 
L 193.935435 349.944499 
L 195.205682 350.422292 
L 197.748239 352.299975 
L 199.02055 352.458679 
L 200.29395 353.309249 
L 201.568382 352.280621 
L 202.843158 351.020754 
L 204.118966 350.084185 
L 205.395519 349.775361 
L 206.673104 346.918024 
L 207.951033 345.704439 
L 209.229995 343.27609 
L 210.510045 342.608963 
L 211.790784 342.256887 
L 213.07221 344.250526 
L 214.354325 345.750047 
L 215.637528 348.114275 
L 216.92142 351.096319 
L 218.206344 353.610331 
L 219.491612 352.99302 
L 220.777911 353.451627 
L 222.0653 352.490823 
L 223.353377 351.818143 
L 224.6422 350.662956 
L 228.513769 350.335788 
L 229.805688 352.341881 
L 231.098695 352.331447 
L 232.392677 352.501594 
L 233.687061 352.087922 
L 234.982476 351.801145 
L 236.278981 351.208236 
L 237.576174 350.844716 
L 240.172623 348.677058 
L 241.472224 349.235297 
L 242.772914 350.805671 
L 244.073948 350.392335 
L 245.376358 350.965216 
L 246.679169 350.57561 
L 247.982955 349.576434 
L 249.287487 349.185987 
L 250.59305 349.239505 
L 253.206699 347.540721 
L 255.823444 351.409687 
L 257.132849 349.413692 
L 258.443686 347.999329 
L 259.754868 342.818324 
L 261.067082 338.553019 
L 262.379984 338.276845 
L 263.693975 335.868187 
L 265.008654 334.742115 
L 266.324365 334.512559 
L 268.958252 337.390091 
L 270.276428 339.595784 
L 271.595293 341.453608 
L 272.915246 335.103953 
L 275.557504 332.58809 
L 276.879923 326.782537 
L 278.202972 318.677381 
L 279.527111 312.400094 
L 280.852282 309.6057 
L 282.178141 308.113079 
L 283.504687 313.284323 
L 284.832323 313.520275 
L 286.160647 306.757956 
L 287.490003 302.16683 
L 288.820105 299.216089 
L 290.151238 294.593828 
L 292.815913 263.914907 
L 294.149454 257.085102 
L 295.484084 256.288892 
L 296.819403 265.747992 
L 298.155409 267.241454 
L 299.492505 262.672375 
L 300.830633 261.927663 
L 302.169449 262.852284 
L 303.508953 252.550355 
L 304.849546 236.001601 
L 306.191171 223.577455 
L 307.533484 216.618903 
L 308.876485 215.068052 
L 314.258006 249.266388 
L 315.605536 250.773819 
L 316.954156 250.523898 
L 318.303521 257.774444 
L 319.65386 265.960718 
L 321.004945 264.185864 
L 322.356718 266.726635 
L 325.063359 286.362451 
L 326.418285 293.859215 
L 327.773555 289.667288 
L 329.130201 283.650186 
L 330.487593 282.863064 
L 331.845672 281.418576 
L 333.204783 277.084775 
L 334.564583 270.691194 
L 335.925471 270.875142 
L 337.287334 270.877835 
L 338.65 272.602705 
L 340.013641 281.932553 
L 341.378027 284.724927 
L 342.743387 291.062296 
L 344.10955 296.820222 
L 345.476688 301.515355 
L 346.844915 300.330212 
L 348.21383 300.756338 
L 349.583777 304.868661 
L 350.954412 303.586074 
L 352.326136 303.857368 
L 353.698549 307.040526 
L 355.072394 308.272288 
L 356.446527 312.397064 
L 357.821748 314.478723 
L 359.198002 317.09792 
L 360.575287 314.633724 
L 361.953318 317.702777 
L 363.332037 321.671375 
L 364.711788 323.072274 
L 366.092628 323.119229 
L 367.474443 319.196408 
L 368.857003 320.271653 
L 370.240308 324.274079 
L 371.624932 325.912781 
L 373.010301 326.350351 
L 374.396359 324.545204 
L 375.783448 325.379113 
L 377.171627 328.545946 
L 378.560493 332.837505 
L 379.950736 327.144542 
L 381.34138 318.790982 
L 382.733342 315.355042 
L 384.125706 313.295767 
L 385.519446 316.300026 
L 386.913931 316.07047 
L 388.309448 316.226144 
L 389.705997 315.499945 
L 391.103234 322.405652 
L 392.50156 328.295521 
L 393.900575 321.785143 
L 395.300965 318.428303 
L 396.701699 319.009767 
L 398.103867 321.300618 
L 399.506722 330.16176 
L 400.910667 330.345372 
L 402.315587 331.095469 
L 403.721252 328.974934 
L 405.127948 333.129331 
L 406.535333 335.749706 
L 407.943807 332.853325 
L 409.353313 334.118914 
L 410.763851 338.385733 
L 412.175135 340.48826 
L 413.58745 343.284168 
L 415.000798 335.915983 
L 416.415177 332.11585 
L 417.830301 327.091192 
L 419.246458 324.134224 
L 420.663303 323.132692 
L 422.081523 324.71653 
L 423.500489 330.824175 
L 424.920143 334.116221 
L 426.341173 336.631579 
L 427.762948 340.810043 
L 429.185755 341.767313 
L 430.60925 344.233192 
L 432.034178 343.70188 
L 433.459737 340.978171 
L 434.886386 339.778722 
L 436.313779 341.206381 
L 437.742492 343.904509 
L 439.171949 342.423332 
L 440.602095 344.471668 
L 442.033674 346.286913 
L 443.465883 347.780375 
L 444.899182 348.906951 
L 446.33357 349.453241 
L 447.768933 348.430672 
L 449.205041 348.575744 
L 450.642181 349.260037 
L 452.080411 347.367544 
L 454.959564 345.270571 
L 456.400947 342.293912 
L 457.84296 341.226744 
L 459.285719 341.749305 
L 462.174733 347.157173 
L 463.620989 349.397704 
L 465.067531 350.632999 
L 466.515565 349.60942 
L 467.96463 349.56701 
L 469.414325 349.830562 
L 470.865168 348.145073 
L 472.316985 346.956901 
L 473.769891 346.443765 
L 475.22383 347.646748 
L 476.678456 346.690992 
L 478.134516 346.585134 
L 479.591263 347.360139 
L 482.507568 349.730257 
L 483.967411 350.44619 
L 485.428057 349.582661 
L 486.890022 349.912691 
L 488.352732 350.428519 
L 489.816474 350.42347 
L 491.281249 349.816257 
L 492.746768 350.202497 
L 494.213663 351.147313 
L 495.681247 350.766963 
L 497.149862 350.641751 
L 498.619911 351.914071 
L 500.090647 355.90034 
L 501.562072 341.59077 
L 501.562072 341.59077 
" clip-path="url(#pc5ba0e81d3)" style="fill: none; stroke: #000000; stroke-width: 3; stroke-linecap: square"/>
   </g>
   <g id="line2d_19">
    <path d="M 30.726556 268.344712 
L 31.895325 267.83283 
L 34.234927 267.144189 
L 40.096202 271.476405 
L 41.270533 269.790741 
L 43.621372 269.918581 
L 44.798168 269.830789 
L 45.975307 269.969326 
L 47.153192 270.419506 
L 48.332052 270.697102 
L 49.511657 270.578263 
L 50.691606 270.138127 
L 51.872644 269.355302 
L 53.053969 269.031397 
L 54.236383 268.961476 
L 55.419485 268.46603 
L 57.787811 267.896489 
L 58.972977 268.158301 
L 61.345832 268.065551 
L 62.53312 268.00424 
L 63.721152 266.810761 
L 64.910217 265.447045 
L 66.099568 263.867176 
L 67.290066 263.646978 
L 68.481195 263.565186 
L 69.672668 264.131466 
L 70.86523 265.297029 
L 72.05848 266.990128 
L 73.252418 269.474141 
L 74.447445 268.630657 
L 76.838818 264.592212 
L 78.035909 262.907592 
L 79.233746 262.651129 
L 80.431869 261.608318 
L 81.631081 260.975509 
L 82.830982 261.688805 
L 84.03157 262.155813 
L 85.232847 261.17601 
L 86.435212 259.260364 
L 88.841664 248.965839 
L 90.045749 246.956139 
L 91.250924 245.7714 
L 92.45673 243.561852 
L 93.663281 237.18028 
L 94.87052 229.253798 
L 96.078504 218.44439 
L 97.287463 209.455661 
L 98.497167 202.936856 
L 99.707216 184.281062 
L 100.918296 160.072701 
L 102.130121 140.55816 
L 103.342635 129.222781 
L 104.55618 123.161722 
L 105.77007 121.191288 
L 106.984991 126.796818 
L 108.200314 139.705544 
L 109.416611 160.016868 
L 110.633654 185.540027 
L 111.851786 202.283958 
L 113.070205 209.917843 
L 115.509565 217.476588 
L 116.730449 217.889982 
L 117.952021 220.206237 
L 119.174682 216.728201 
L 120.397687 210.985308 
L 121.621724 203.069132 
L 122.846105 196.316562 
L 124.071576 193.144691 
L 125.297677 188.629324 
L 126.524868 188.733814 
L 127.752459 191.95669 
L 130.210338 211.788353 
L 131.440337 217.342878 
L 132.671025 217.969686 
L 133.902745 218.190928 
L 135.134808 214.240536 
L 136.367961 214.037949 
L 137.601802 217.535812 
L 138.836733 228.067233 
L 141.308256 243.653558 
L 142.54525 248.125616 
L 143.782932 252.035047 
L 145.021303 252.395608 
L 146.260762 252.424829 
L 147.500508 248.166577 
L 148.741401 245.751833 
L 149.983268 244.276714 
L 151.22548 243.815837 
L 152.468781 241.194722 
L 153.712769 239.394915 
L 154.957446 239.708254 
L 156.202868 240.884514 
L 157.449322 242.781767 
L 158.696063 244.455299 
L 159.943893 247.907896 
L 161.192812 250.241893 
L 162.442018 252.0884 
L 163.692313 254.937931 
L 164.943296 256.901191 
L 166.195369 259.2271 
L 167.447728 259.797945 
L 169.955313 261.899481 
L 171.210138 261.701068 
L 172.466051 260.685521 
L 173.722653 258.235556 
L 174.979886 258.23099 
L 176.237921 257.802464 
L 177.49693 258.589595 
L 178.756685 260.324307 
L 180.017128 262.269174 
L 182.540422 266.648091 
L 183.803331 266.671833 
L 185.067271 267.268637 
L 186.331555 266.938731 
L 187.596871 267.114838 
L 188.862875 265.847263 
L 190.129969 265.813738 
L 193.935435 265.397083 
L 195.205682 265.949014 
L 196.476616 266.308401 
L 197.748239 265.205975 
L 199.02055 263.464349 
L 200.29395 262.613559 
L 201.568382 262.576903 
L 202.843158 263.766991 
L 204.118966 264.134727 
L 205.395519 265.032608 
L 206.673104 267.094227 
L 207.951033 267.927275 
L 209.229995 267.813132 
L 211.790784 263.382035 
L 214.354325 262.383056 
L 215.637528 262.895721 
L 216.92142 262.741269 
L 218.206344 261.930397 
L 219.491612 261.482957 
L 220.777911 260.514894 
L 222.0653 261.973054 
L 223.353377 260.701044 
L 224.6422 259.253711 
L 225.931653 259.323371 
L 227.222195 260.038363 
L 228.513769 262.23917 
L 229.805688 264.141771 
L 231.098695 262.749357 
L 232.392677 262.419712 
L 233.687061 263.771687 
L 234.982476 265.798084 
L 236.278981 264.921596 
L 237.576174 264.790234 
L 238.874055 264.250566 
L 240.172623 264.910247 
L 241.472224 265.731294 
L 242.772914 266.391367 
L 244.073948 264.927336 
L 245.376358 265.426565 
L 246.679169 267.177584 
L 247.982955 267.548451 
L 251.899359 258.273125 
L 253.206699 257.382157 
L 254.514326 257.846034 
L 255.823444 256.309604 
L 257.132849 257.21466 
L 258.443686 261.39112 
L 259.754868 261.671586 
L 261.067082 258.493584 
L 262.379984 252.851919 
L 263.693975 248.607495 
L 265.008654 246.948834 
L 266.324365 248.696461 
L 267.640821 249.700007 
L 268.958252 246.965793 
L 270.276428 245.953246 
L 271.595293 243.638948 
L 272.915246 239.25677 
L 274.23583 236.66631 
L 275.557504 235.164971 
L 276.879923 232.493503 
L 278.202972 231.714722 
L 279.527111 230.704262 
L 280.852282 227.35485 
L 282.178141 225.007678 
L 283.504687 217.116418 
L 284.832323 212.747546 
L 286.160647 209.271206 
L 287.490003 203.35625 
L 288.820105 195.103776 
L 290.151238 187.901287 
L 291.483059 179.348911 
L 292.815913 167.389985 
L 294.149454 159.577516 
L 295.484084 157.334573 
L 296.819403 155.350833 
L 298.155409 159.80828 
L 299.492505 161.635612 
L 300.830633 164.573196 
L 302.169449 160.388779 
L 303.508953 152.745111 
L 304.849546 146.063766 
L 306.191171 142.345052 
L 307.533484 146.303532 
L 310.220518 168.92211 
L 311.56564 170.935593 
L 312.911508 169.144526 
L 314.258006 168.685606 
L 315.605536 160.523402 
L 316.954156 156.676457 
L 318.303521 158.565752 
L 319.65386 164.924757 
L 322.356718 188.127877 
L 323.709866 185.435668 
L 326.418285 164.798743 
L 327.773555 162.499707 
L 329.130201 164.777741 
L 333.204783 207.225633 
L 334.564583 221.138296 
L 335.925471 227.363068 
L 337.287334 226.478493 
L 338.65 225.765718 
L 340.013641 219.484592 
L 341.378027 217.580034 
L 342.743387 217.270087 
L 344.10955 221.968605 
L 345.476688 227.374809 
L 346.844915 229.18753 
L 348.21383 228.763831 
L 349.583777 225.600439 
L 350.954412 226.094842 
L 352.326136 227.644969 
L 353.698549 224.714559 
L 355.072394 220.247719 
L 356.446527 220.415868 
L 357.821748 223.866901 
L 359.198002 231.48761 
L 360.575287 236.092334 
L 361.953318 239.653205 
L 363.332037 242.061687 
L 364.711788 243.492453 
L 366.092628 246.968793 
L 367.474443 244.475649 
L 368.857003 234.36884 
L 370.240308 229.917002 
L 371.624932 229.428078 
L 373.010301 231.523353 
L 374.396359 232.00471 
L 375.783448 234.021715 
L 377.171627 235.160405 
L 379.950736 239.404829 
L 381.34138 235.449089 
L 382.733342 228.498498 
L 384.125706 223.500078 
L 385.519446 222.446049 
L 386.913931 223.926385 
L 388.309448 219.410236 
L 389.705997 216.651758 
L 391.103234 220.242241 
L 392.50156 227.770983 
L 393.900575 233.533835 
L 395.300965 232.161119 
L 396.701699 233.678894 
L 398.103867 236.280703 
L 399.506722 237.242504 
L 400.910667 238.457769 
L 402.315587 233.144053 
L 403.721252 230.628341 
L 405.127948 232.801233 
L 406.535333 237.045135 
L 407.943807 238.920863 
L 409.353313 238.615351 
L 410.763851 243.83423 
L 412.175135 243.727262 
L 413.58745 240.666142 
L 415.000798 241.556979 
L 416.415177 243.965071 
L 417.830301 242.067427 
L 419.246458 241.536368 
L 420.663303 241.514323 
L 422.081523 241.131715 
L 423.500489 245.255343 
L 424.920143 249.796148 
L 426.341173 250.439784 
L 427.762948 253.416503 
L 429.185755 258.311086 
L 430.60925 260.094325 
L 432.034178 259.748766 
L 433.459737 260.060278 
L 434.886386 259.116609 
L 436.313779 258.927066 
L 437.742492 260.454756 
L 439.171949 262.530463 
L 440.602095 265.161362 
L 442.033674 266.628262 
L 443.465883 267.495749 
L 444.899182 265.951884 
L 446.33357 265.226195 
L 447.768933 262.958076 
L 449.205041 261.186185 
L 450.642181 259.626926 
L 452.080411 259.359766 
L 453.519615 259.572398 
L 454.959564 260.566943 
L 456.400947 260.833059 
L 457.84296 261.979055 
L 460.729853 262.349269 
L 462.174733 262.170032 
L 463.620989 261.580533 
L 465.067531 261.671586 
L 466.515565 262.245171 
L 467.96463 263.359729 
L 469.414325 264.960992 
L 470.865168 263.959664 
L 472.316985 263.709071 
L 473.769891 263.167055 
L 475.22383 263.687678 
L 476.678456 263.248977 
L 479.591263 263.067914 
L 481.049043 263.376296 
L 483.967411 265.2335 
L 485.428057 264.780711 
L 486.890022 264.920161 
L 488.352732 264.430325 
L 491.281249 262.664435 
L 492.746768 261.368161 
L 494.213663 260.570204 
L 495.681247 261.040343 
L 498.619911 262.565815 
L 500.090647 263.621279 
L 501.562072 265.678984 
L 501.562072 265.678984 
" clip-path="url(#pc5ba0e81d3)" style="fill: none; stroke: #0000ff; stroke-width: 3; stroke-linecap: square"/>
   </g>
   <g id="patch_3">
    <path d="M 30.87774 370.609447 
L 30.87774 3.00024 
" style="fill: none; stroke: #000000; stroke-width: 2.25; stroke-linejoin: miter; stroke-linecap: square"/>
   </g>
   <g id="patch_4">
    <path d="M 500.99976 370.609447 
L 500.99976 3.00024 
" style="fill: none; stroke: #000000; stroke-width: 2.25; stroke-linejoin: miter; stroke-linecap: square"/>
   </g>
   <g id="patch_5">
    <path d="M 30.87774 370.609447 
L 500.99976 370.609447 
" style="fill: none; stroke: #000000; stroke-width: 2.25; stroke-linejoin: miter; stroke-linecap: square"/>
   </g>
   <g id="patch_6">
    <path d="M 30.87774 3.00024 
L 500.99976 3.00024 
" style="fill: none; stroke: #000000; stroke-width: 2.25; stroke-linejoin: miter; stroke-linecap: square"/>
   </g>
   <g id="legend_1">
    <g id="line2d_20">
     <path d="M 230.12476 30.847428 
L 252.12476 30.847428 
L 274.12476 30.847428 
" style="fill: none; stroke: #000000; stroke-width: 3; stroke-linecap: square"/>
    </g>
    <g id="text_7">
     <!-- FePCN-224Ac -->
     <g transform="translate(291.72476 38.547428) scale(0.22 -0.22)">
      <defs>
       <path id="ArialMT-46" d="M 525 0 
L 525 4581 
L 3616 4581 
L 3616 4041 
L 1131 4041 
L 1131 2622 
L 3281 2622 
L 3281 2081 
L 1131 2081 
L 1131 0 
L 525 0 
z
" transform="scale(0.015625)"/>
       <path id="ArialMT-50" d="M 494 0 
L 494 4581 
L 2222 4581 
Q 2678 4581 2919 4538 
Q 3256 4481 3484 4323 
Q 3713 4166 3852 3881 
Q 3991 3597 3991 3256 
Q 3991 2672 3619 2267 
Q 3247 1863 2275 1863 
L 1100 1863 
L 1100 0 
L 494 0 
z
M 1100 2403 
L 2284 2403 
Q 2872 2403 3119 2622 
Q 3366 2841 3366 3238 
Q 3366 3525 3220 3729 
Q 3075 3934 2838 4000 
Q 2684 4041 2272 4041 
L 1100 4041 
L 1100 2403 
z
" transform="scale(0.015625)"/>
       <path id="ArialMT-43" d="M 3763 1606 
L 4369 1453 
Q 4178 706 3683 314 
Q 3188 -78 2472 -78 
Q 1731 -78 1267 223 
Q 803 525 561 1097 
Q 319 1669 319 2325 
Q 319 3041 592 3573 
Q 866 4106 1370 4382 
Q 1875 4659 2481 4659 
Q 3169 4659 3637 4309 
Q 4106 3959 4291 3325 
L 3694 3184 
Q 3534 3684 3231 3912 
Q 2928 4141 2469 4141 
Q 1941 4141 1586 3887 
Q 1231 3634 1087 3207 
Q 944 2781 944 2328 
Q 944 1744 1114 1308 
Q 1284 872 1643 656 
Q 2003 441 2422 441 
Q 2931 441 3284 734 
Q 3638 1028 3763 1606 
z
" transform="scale(0.015625)"/>
       <path id="ArialMT-2d" d="M 203 1375 
L 203 1941 
L 1931 1941 
L 1931 1375 
L 203 1375 
z
" transform="scale(0.015625)"/>
       <path id="ArialMT-41" d="M -9 0 
L 1750 4581 
L 2403 4581 
L 4278 0 
L 3588 0 
L 3053 1388 
L 1138 1388 
L 634 0 
L -9 0 
z
M 1313 1881 
L 2866 1881 
L 2388 3150 
Q 2169 3728 2063 4100 
Q 1975 3659 1816 3225 
L 1313 1881 
z
" transform="scale(0.015625)"/>
       <path id="ArialMT-63" d="M 2588 1216 
L 3141 1144 
Q 3050 572 2676 248 
Q 2303 -75 1759 -75 
Q 1078 -75 664 370 
Q 250 816 250 1647 
Q 250 2184 428 2587 
Q 606 2991 970 3192 
Q 1334 3394 1763 3394 
Q 2303 3394 2647 3120 
Q 2991 2847 3088 2344 
L 2541 2259 
Q 2463 2594 2264 2762 
Q 2066 2931 1784 2931 
Q 1359 2931 1093 2626 
Q 828 2322 828 1663 
Q 828 994 1084 691 
Q 1341 388 1753 388 
Q 2084 388 2306 591 
Q 2528 794 2588 1216 
z
" transform="scale(0.015625)"/>
      </defs>
      <use xlink:href="#ArialMT-46"/>
      <use xlink:href="#ArialMT-65" x="61.083984"/>
      <use xlink:href="#ArialMT-50" x="116.699219"/>
      <use xlink:href="#ArialMT-43" x="183.398438"/>
      <use xlink:href="#ArialMT-4e" x="255.615234"/>
      <use xlink:href="#ArialMT-2d" x="327.832031"/>
      <use xlink:href="#ArialMT-32" x="361.132812"/>
      <use xlink:href="#ArialMT-32" x="416.748047"/>
      <use xlink:href="#ArialMT-34" x="472.363281"/>
      <use xlink:href="#ArialMT-41" x="527.978516"/>
      <use xlink:href="#ArialMT-63" x="594.677734"/>
     </g>
    </g>
    <g id="line2d_21">
     <path d="M 230.12476 62.24899 
L 252.12476 62.24899 
L 274.12476 62.24899 
" style="fill: none; stroke: #0000ff; stroke-width: 3; stroke-linecap: square"/>
    </g>
    <g id="text_8">
     <!-- Fe(NO)PCN-224Ac -->
     <g transform="translate(291.72476 69.94899) scale(0.22 -0.22)">
      <defs>
       <path id="ArialMT-4f" d="M 309 2231 
Q 309 3372 921 4017 
Q 1534 4663 2503 4663 
Q 3138 4663 3647 4359 
Q 4156 4056 4423 3514 
Q 4691 2972 4691 2284 
Q 4691 1588 4409 1038 
Q 4128 488 3612 205 
Q 3097 -78 2500 -78 
Q 1853 -78 1343 234 
Q 834 547 571 1087 
Q 309 1628 309 2231 
z
M 934 2222 
Q 934 1394 1379 917 
Q 1825 441 2497 441 
Q 3181 441 3623 922 
Q 4066 1403 4066 2288 
Q 4066 2847 3877 3264 
Q 3688 3681 3323 3911 
Q 2959 4141 2506 4141 
Q 1863 4141 1398 3698 
Q 934 3256 934 2222 
z
" transform="scale(0.015625)"/>
      </defs>
      <use xlink:href="#ArialMT-46"/>
      <use xlink:href="#ArialMT-65" x="61.083984"/>
      <use xlink:href="#ArialMT-28" x="116.699219"/>
      <use xlink:href="#ArialMT-4e" x="150"/>
      <use xlink:href="#ArialMT-4f" x="222.216797"/>
      <use xlink:href="#ArialMT-29" x="300"/>
      <use xlink:href="#ArialMT-50" x="333.300781"/>
      <use xlink:href="#ArialMT-43" x="400"/>
      <use xlink:href="#ArialMT-4e" x="472.216797"/>
      <use xlink:href="#ArialMT-2d" x="544.433594"/>
      <use xlink:href="#ArialMT-32" x="577.734375"/>
      <use xlink:href="#ArialMT-32" x="633.349609"/>
      <use xlink:href="#ArialMT-34" x="688.964844"/>
      <use xlink:href="#ArialMT-41" x="744.580078"/>
      <use xlink:href="#ArialMT-63" x="811.279297"/>
     </g>
    </g>
   </g>
  </g>
 </g>
 <defs>
  <clipPath id="pc5ba0e81d3">
   <rect x="30.87774" y="3.00024" width="470.12202" height="367.609207"/>
  </clipPath>
 </defs>
</svg>
