<?xml version="1.0" encoding="utf-8" standalone="no"?>
<!DOCTYPE svg PUBLIC "-//W3C//DTD SVG 1.1//EN"
  "http://www.w3.org/Graphics/SVG/1.1/DTD/svg11.dtd">
<svg xmlns:xlink="http://www.w3.org/1999/xlink" width="504pt" height="432pt" viewBox="0 0 504 432" xmlns="http://www.w3.org/2000/svg" version="1.1">
 <metadata>
  <rdf:RDF xmlns:dc="http://purl.org/dc/elements/1.1/" xmlns:cc="http://creativecommons.org/ns#" xmlns:rdf="http://www.w3.org/1999/02/22-rdf-syntax-ns#">
   <cc:Work>
    <dc:type rdf:resource="http://purl.org/dc/dcmitype/StillImage"/>
    <dc:date>2024-04-07T09:30:44.337237</dc:date>
    <dc:format>image/svg+xml</dc:format>
    <dc:creator>
     <cc:Agent>
      <dc:title>Matplotlib v3.6.2, https://matplotlib.org/</dc:title>
     </cc:Agent>
    </dc:creator>
   </cc:Work>
  </rdf:RDF>
 </metadata>
 <defs>
  <style type="text/css">*{stroke-linejoin: round; stroke-linecap: butt}</style>
 </defs>
 <g id="figure_1">
  <g id="patch_1">
   <path d="M 0 432 
L 504 432 
L 504 0 
L 0 0 
z
" style="fill: #ffffff"/>
  </g>
  <g id="axes_1">
   <g id="patch_2">
    <path d="M 30.87774 370.609447 
L 499.753432 370.609447 
L 499.753432 3.00024 
L 30.87774 3.00024 
z
" style="fill: #ffffff"/>
   </g>
   <g id="matplotlib.axis_1">
    <g id="xtick_1">
     <g id="line2d_1">
      <defs>
       <path id="m144059612b" d="M 0 0 
L 0 10.125 
" style="stroke: #000000; stroke-width: 2.025"/>
      </defs>
      <g>
       <use xlink:href="#m144059612b" x="52.385799" y="370.609447" style="stroke: #000000; stroke-width: 2.025"/>
      </g>
     </g>
     <g id="text_1">
      <!-- 700 -->
      <g transform="translate(34.034706 399.981635) scale(0.22 -0.22)">
       <defs>
        <path id="ArialMT-37" d="M 303 3981 
L 303 4522 
L 3269 4522 
L 3269 4084 
Q 2831 3619 2401 2847 
Q 1972 2075 1738 1259 
Q 1569 684 1522 0 
L 944 0 
Q 953 541 1156 1306 
Q 1359 2072 1739 2783 
Q 2119 3494 2547 3981 
L 303 3981 
z
" transform="scale(0.015625)"/>
        <path id="ArialMT-30" d="M 266 2259 
Q 266 3072 433 3567 
Q 600 4063 929 4331 
Q 1259 4600 1759 4600 
Q 2128 4600 2406 4451 
Q 2684 4303 2865 4023 
Q 3047 3744 3150 3342 
Q 3253 2941 3253 2259 
Q 3253 1453 3087 958 
Q 2922 463 2592 192 
Q 2263 -78 1759 -78 
Q 1097 -78 719 397 
Q 266 969 266 2259 
z
M 844 2259 
Q 844 1131 1108 757 
Q 1372 384 1759 384 
Q 2147 384 2411 759 
Q 2675 1134 2675 2259 
Q 2675 3391 2411 3762 
Q 2147 4134 1753 4134 
Q 1366 4134 1134 3806 
Q 844 3388 844 2259 
z
" transform="scale(0.015625)"/>
       </defs>
       <use xlink:href="#ArialMT-37"/>
       <use xlink:href="#ArialMT-30" x="55.615234"/>
       <use xlink:href="#ArialMT-30" x="111.230469"/>
      </g>
     </g>
    </g>
    <g id="xtick_2">
     <g id="line2d_2">
      <g>
       <use xlink:href="#m144059612b" x="138.418036" y="370.609447" style="stroke: #000000; stroke-width: 2.025"/>
      </g>
     </g>
     <g id="text_2">
      <!-- 710 -->
      <g transform="translate(120.066943 399.981635) scale(0.22 -0.22)">
       <defs>
        <path id="ArialMT-31" d="M 2384 0 
L 1822 0 
L 1822 3584 
Q 1619 3391 1289 3197 
Q 959 3003 697 2906 
L 697 3450 
Q 1169 3672 1522 3987 
Q 1875 4303 2022 4600 
L 2384 4600 
L 2384 0 
z
" transform="scale(0.015625)"/>
       </defs>
       <use xlink:href="#ArialMT-37"/>
       <use xlink:href="#ArialMT-31" x="55.615234"/>
       <use xlink:href="#ArialMT-30" x="111.230469"/>
      </g>
     </g>
    </g>
    <g id="xtick_3">
     <g id="line2d_3">
      <g>
       <use xlink:href="#m144059612b" x="224.450273" y="370.609447" style="stroke: #000000; stroke-width: 2.025"/>
      </g>
     </g>
     <g id="text_3">
      <!-- 720 -->
      <g transform="translate(206.09918 399.981635) scale(0.22 -0.22)">
       <defs>
        <path id="ArialMT-32" d="M 3222 541 
L 3222 0 
L 194 0 
Q 188 203 259 391 
Q 375 700 629 1000 
Q 884 1300 1366 1694 
Q 2113 2306 2375 2664 
Q 2638 3022 2638 3341 
Q 2638 3675 2398 3904 
Q 2159 4134 1775 4134 
Q 1369 4134 1125 3890 
Q 881 3647 878 3216 
L 300 3275 
Q 359 3922 746 4261 
Q 1134 4600 1788 4600 
Q 2447 4600 2831 4234 
Q 3216 3869 3216 3328 
Q 3216 3053 3103 2787 
Q 2991 2522 2730 2228 
Q 2469 1934 1863 1422 
Q 1356 997 1212 845 
Q 1069 694 975 541 
L 3222 541 
z
" transform="scale(0.015625)"/>
       </defs>
       <use xlink:href="#ArialMT-37"/>
       <use xlink:href="#ArialMT-32" x="55.615234"/>
       <use xlink:href="#ArialMT-30" x="111.230469"/>
      </g>
     </g>
    </g>
    <g id="xtick_4">
     <g id="line2d_4">
      <g>
       <use xlink:href="#m144059612b" x="310.482511" y="370.609447" style="stroke: #000000; stroke-width: 2.025"/>
      </g>
     </g>
     <g id="text_4">
      <!-- 730 -->
      <g transform="translate(292.131417 399.981635) scale(0.22 -0.22)">
       <defs>
        <path id="ArialMT-33" d="M 269 1209 
L 831 1284 
Q 928 806 1161 595 
Q 1394 384 1728 384 
Q 2125 384 2398 659 
Q 2672 934 2672 1341 
Q 2672 1728 2419 1979 
Q 2166 2231 1775 2231 
Q 1616 2231 1378 2169 
L 1441 2663 
Q 1497 2656 1531 2656 
Q 1891 2656 2178 2843 
Q 2466 3031 2466 3422 
Q 2466 3731 2256 3934 
Q 2047 4138 1716 4138 
Q 1388 4138 1169 3931 
Q 950 3725 888 3313 
L 325 3413 
Q 428 3978 793 4289 
Q 1159 4600 1703 4600 
Q 2078 4600 2393 4439 
Q 2709 4278 2876 4000 
Q 3044 3722 3044 3409 
Q 3044 3113 2884 2869 
Q 2725 2625 2413 2481 
Q 2819 2388 3044 2092 
Q 3269 1797 3269 1353 
Q 3269 753 2831 336 
Q 2394 -81 1725 -81 
Q 1122 -81 723 278 
Q 325 638 269 1209 
z
" transform="scale(0.015625)"/>
       </defs>
       <use xlink:href="#ArialMT-37"/>
       <use xlink:href="#ArialMT-33" x="55.615234"/>
       <use xlink:href="#ArialMT-30" x="111.230469"/>
      </g>
     </g>
    </g>
    <g id="xtick_5">
     <g id="line2d_5">
      <g>
       <use xlink:href="#m144059612b" x="396.514748" y="370.609447" style="stroke: #000000; stroke-width: 2.025"/>
      </g>
     </g>
     <g id="text_5">
      <!-- 740 -->
      <g transform="translate(378.163654 399.981635) scale(0.22 -0.22)">
       <defs>
        <path id="ArialMT-34" d="M 2069 0 
L 2069 1097 
L 81 1097 
L 81 1613 
L 2172 4581 
L 2631 4581 
L 2631 1613 
L 3250 1613 
L 3250 1097 
L 2631 1097 
L 2631 0 
L 2069 0 
z
M 2069 1613 
L 2069 3678 
L 634 1613 
L 2069 1613 
z
" transform="scale(0.015625)"/>
       </defs>
       <use xlink:href="#ArialMT-37"/>
       <use xlink:href="#ArialMT-34" x="55.615234"/>
       <use xlink:href="#ArialMT-30" x="111.230469"/>
      </g>
     </g>
    </g>
    <g id="xtick_6">
     <g id="line2d_6">
      <g>
       <use xlink:href="#m144059612b" x="482.546985" y="370.609447" style="stroke: #000000; stroke-width: 2.025"/>
      </g>
     </g>
     <g id="text_6">
      <!-- 750 -->
      <g transform="translate(464.195891 399.981635) scale(0.22 -0.22)">
       <defs>
        <path id="ArialMT-35" d="M 266 1200 
L 856 1250 
Q 922 819 1161 601 
Q 1400 384 1738 384 
Q 2144 384 2425 690 
Q 2706 997 2706 1503 
Q 2706 1984 2436 2262 
Q 2166 2541 1728 2541 
Q 1456 2541 1237 2417 
Q 1019 2294 894 2097 
L 366 2166 
L 809 4519 
L 3088 4519 
L 3088 3981 
L 1259 3981 
L 1013 2750 
Q 1425 3038 1878 3038 
Q 2478 3038 2890 2622 
Q 3303 2206 3303 1553 
Q 3303 931 2941 478 
Q 2500 -78 1738 -78 
Q 1113 -78 717 272 
Q 322 622 266 1200 
z
" transform="scale(0.015625)"/>
       </defs>
       <use xlink:href="#ArialMT-37"/>
       <use xlink:href="#ArialMT-35" x="55.615234"/>
       <use xlink:href="#ArialMT-30" x="111.230469"/>
      </g>
     </g>
    </g>
    <g id="xtick_7">
     <g id="line2d_7">
      <defs>
       <path id="m8c86da33d3" d="M 0 0 
L 0 5.0625 
" style="stroke: #000000; stroke-width: 2.025"/>
      </defs>
      <g>
       <use xlink:href="#m8c86da33d3" x="35.179352" y="370.609447" style="stroke: #000000; stroke-width: 2.025"/>
      </g>
     </g>
    </g>
    <g id="xtick_8">
     <g id="line2d_8">
      <g>
       <use xlink:href="#m8c86da33d3" x="69.592247" y="370.609447" style="stroke: #000000; stroke-width: 2.025"/>
      </g>
     </g>
    </g>
    <g id="xtick_9">
     <g id="line2d_9">
      <g>
       <use xlink:href="#m8c86da33d3" x="86.798694" y="370.609447" style="stroke: #000000; stroke-width: 2.025"/>
      </g>
     </g>
    </g>
    <g id="xtick_10">
     <g id="line2d_10">
      <g>
       <use xlink:href="#m8c86da33d3" x="104.005142" y="370.609447" style="stroke: #000000; stroke-width: 2.025"/>
      </g>
     </g>
    </g>
    <g id="xtick_11">
     <g id="line2d_11">
      <g>
       <use xlink:href="#m8c86da33d3" x="121.211589" y="370.609447" style="stroke: #000000; stroke-width: 2.025"/>
      </g>
     </g>
    </g>
    <g id="xtick_12">
     <g id="line2d_12">
      <g>
       <use xlink:href="#m8c86da33d3" x="155.624484" y="370.609447" style="stroke: #000000; stroke-width: 2.025"/>
      </g>
     </g>
    </g>
    <g id="xtick_13">
     <g id="line2d_13">
      <g>
       <use xlink:href="#m8c86da33d3" x="172.830931" y="370.609447" style="stroke: #000000; stroke-width: 2.025"/>
      </g>
     </g>
    </g>
    <g id="xtick_14">
     <g id="line2d_14">
      <g>
       <use xlink:href="#m8c86da33d3" x="190.037379" y="370.609447" style="stroke: #000000; stroke-width: 2.025"/>
      </g>
     </g>
    </g>
    <g id="xtick_15">
     <g id="line2d_15">
      <g>
       <use xlink:href="#m8c86da33d3" x="207.243826" y="370.609447" style="stroke: #000000; stroke-width: 2.025"/>
      </g>
     </g>
    </g>
    <g id="xtick_16">
     <g id="line2d_16">
      <g>
       <use xlink:href="#m8c86da33d3" x="241.656721" y="370.609447" style="stroke: #000000; stroke-width: 2.025"/>
      </g>
     </g>
    </g>
    <g id="xtick_17">
     <g id="line2d_17">
      <g>
       <use xlink:href="#m8c86da33d3" x="258.863168" y="370.609447" style="stroke: #000000; stroke-width: 2.025"/>
      </g>
     </g>
    </g>
    <g id="xtick_18">
     <g id="line2d_18">
      <g>
       <use xlink:href="#m8c86da33d3" x="276.069616" y="370.609447" style="stroke: #000000; stroke-width: 2.025"/>
      </g>
     </g>
    </g>
    <g id="xtick_19">
     <g id="line2d_19">
      <g>
       <use xlink:href="#m8c86da33d3" x="293.276063" y="370.609447" style="stroke: #000000; stroke-width: 2.025"/>
      </g>
     </g>
    </g>
    <g id="xtick_20">
     <g id="line2d_20">
      <g>
       <use xlink:href="#m8c86da33d3" x="327.688958" y="370.609447" style="stroke: #000000; stroke-width: 2.025"/>
      </g>
     </g>
    </g>
    <g id="xtick_21">
     <g id="line2d_21">
      <g>
       <use xlink:href="#m8c86da33d3" x="344.895405" y="370.609447" style="stroke: #000000; stroke-width: 2.025"/>
      </g>
     </g>
    </g>
    <g id="xtick_22">
     <g id="line2d_22">
      <g>
       <use xlink:href="#m8c86da33d3" x="362.101853" y="370.609447" style="stroke: #000000; stroke-width: 2.025"/>
      </g>
     </g>
    </g>
    <g id="xtick_23">
     <g id="line2d_23">
      <g>
       <use xlink:href="#m8c86da33d3" x="379.3083" y="370.609447" style="stroke: #000000; stroke-width: 2.025"/>
      </g>
     </g>
    </g>
    <g id="xtick_24">
     <g id="line2d_24">
      <g>
       <use xlink:href="#m8c86da33d3" x="413.721195" y="370.609447" style="stroke: #000000; stroke-width: 2.025"/>
      </g>
     </g>
    </g>
    <g id="xtick_25">
     <g id="line2d_25">
      <g>
       <use xlink:href="#m8c86da33d3" x="430.927642" y="370.609447" style="stroke: #000000; stroke-width: 2.025"/>
      </g>
     </g>
    </g>
    <g id="xtick_26">
     <g id="line2d_26">
      <g>
       <use xlink:href="#m8c86da33d3" x="448.13409" y="370.609447" style="stroke: #000000; stroke-width: 2.025"/>
      </g>
     </g>
    </g>
    <g id="xtick_27">
     <g id="line2d_27">
      <g>
       <use xlink:href="#m8c86da33d3" x="465.340537" y="370.609447" style="stroke: #000000; stroke-width: 2.025"/>
      </g>
     </g>
    </g>
    <g id="xtick_28">
     <g id="line2d_28">
      <g>
       <use xlink:href="#m8c86da33d3" x="499.753432" y="370.609447" style="stroke: #000000; stroke-width: 2.025"/>
      </g>
     </g>
    </g>
    <g id="text_7">
     <!-- Emission Energy (eV) -->
     <g transform="translate(158.950742 424.369447) scale(0.22 -0.22)">
      <defs>
       <path id="ArialMT-45" d="M 506 0 
L 506 4581 
L 3819 4581 
L 3819 4041 
L 1113 4041 
L 1113 2638 
L 3647 2638 
L 3647 2100 
L 1113 2100 
L 1113 541 
L 3925 541 
L 3925 0 
L 506 0 
z
" transform="scale(0.015625)"/>
       <path id="ArialMT-6d" d="M 422 0 
L 422 3319 
L 925 3319 
L 925 2853 
Q 1081 3097 1340 3245 
Q 1600 3394 1931 3394 
Q 2300 3394 2536 3241 
Q 2772 3088 2869 2813 
Q 3263 3394 3894 3394 
Q 4388 3394 4653 3120 
Q 4919 2847 4919 2278 
L 4919 0 
L 4359 0 
L 4359 2091 
Q 4359 2428 4304 2576 
Q 4250 2725 4106 2815 
Q 3963 2906 3769 2906 
Q 3419 2906 3187 2673 
Q 2956 2441 2956 1928 
L 2956 0 
L 2394 0 
L 2394 2156 
Q 2394 2531 2256 2718 
Q 2119 2906 1806 2906 
Q 1569 2906 1367 2781 
Q 1166 2656 1075 2415 
Q 984 2175 984 1722 
L 984 0 
L 422 0 
z
" transform="scale(0.015625)"/>
       <path id="ArialMT-69" d="M 425 3934 
L 425 4581 
L 988 4581 
L 988 3934 
L 425 3934 
z
M 425 0 
L 425 3319 
L 988 3319 
L 988 0 
L 425 0 
z
" transform="scale(0.015625)"/>
       <path id="ArialMT-73" d="M 197 991 
L 753 1078 
Q 800 744 1014 566 
Q 1228 388 1613 388 
Q 2000 388 2187 545 
Q 2375 703 2375 916 
Q 2375 1106 2209 1216 
Q 2094 1291 1634 1406 
Q 1016 1563 777 1677 
Q 538 1791 414 1992 
Q 291 2194 291 2438 
Q 291 2659 392 2848 
Q 494 3038 669 3163 
Q 800 3259 1026 3326 
Q 1253 3394 1513 3394 
Q 1903 3394 2198 3281 
Q 2494 3169 2634 2976 
Q 2775 2784 2828 2463 
L 2278 2388 
Q 2241 2644 2061 2787 
Q 1881 2931 1553 2931 
Q 1166 2931 1000 2803 
Q 834 2675 834 2503 
Q 834 2394 903 2306 
Q 972 2216 1119 2156 
Q 1203 2125 1616 2013 
Q 2213 1853 2448 1751 
Q 2684 1650 2818 1456 
Q 2953 1263 2953 975 
Q 2953 694 2789 445 
Q 2625 197 2315 61 
Q 2006 -75 1616 -75 
Q 969 -75 630 194 
Q 291 463 197 991 
z
" transform="scale(0.015625)"/>
       <path id="ArialMT-6f" d="M 213 1659 
Q 213 2581 725 3025 
Q 1153 3394 1769 3394 
Q 2453 3394 2887 2945 
Q 3322 2497 3322 1706 
Q 3322 1066 3130 698 
Q 2938 331 2570 128 
Q 2203 -75 1769 -75 
Q 1072 -75 642 372 
Q 213 819 213 1659 
z
M 791 1659 
Q 791 1022 1069 705 
Q 1347 388 1769 388 
Q 2188 388 2466 706 
Q 2744 1025 2744 1678 
Q 2744 2294 2464 2611 
Q 2184 2928 1769 2928 
Q 1347 2928 1069 2612 
Q 791 2297 791 1659 
z
" transform="scale(0.015625)"/>
       <path id="ArialMT-6e" d="M 422 0 
L 422 3319 
L 928 3319 
L 928 2847 
Q 1294 3394 1984 3394 
Q 2284 3394 2536 3286 
Q 2788 3178 2913 3003 
Q 3038 2828 3088 2588 
Q 3119 2431 3119 2041 
L 3119 0 
L 2556 0 
L 2556 2019 
Q 2556 2363 2490 2533 
Q 2425 2703 2258 2804 
Q 2091 2906 1866 2906 
Q 1506 2906 1245 2678 
Q 984 2450 984 1813 
L 984 0 
L 422 0 
z
" transform="scale(0.015625)"/>
       <path id="ArialMT-20" transform="scale(0.015625)"/>
       <path id="ArialMT-65" d="M 2694 1069 
L 3275 997 
Q 3138 488 2766 206 
Q 2394 -75 1816 -75 
Q 1088 -75 661 373 
Q 234 822 234 1631 
Q 234 2469 665 2931 
Q 1097 3394 1784 3394 
Q 2450 3394 2872 2941 
Q 3294 2488 3294 1666 
Q 3294 1616 3291 1516 
L 816 1516 
Q 847 969 1125 678 
Q 1403 388 1819 388 
Q 2128 388 2347 550 
Q 2566 713 2694 1069 
z
M 847 1978 
L 2700 1978 
Q 2663 2397 2488 2606 
Q 2219 2931 1791 2931 
Q 1403 2931 1139 2672 
Q 875 2413 847 1978 
z
" transform="scale(0.015625)"/>
       <path id="ArialMT-72" d="M 416 0 
L 416 3319 
L 922 3319 
L 922 2816 
Q 1116 3169 1280 3281 
Q 1444 3394 1641 3394 
Q 1925 3394 2219 3213 
L 2025 2691 
Q 1819 2813 1613 2813 
Q 1428 2813 1281 2702 
Q 1134 2591 1072 2394 
Q 978 2094 978 1738 
L 978 0 
L 416 0 
z
" transform="scale(0.015625)"/>
       <path id="ArialMT-67" d="M 319 -275 
L 866 -356 
Q 900 -609 1056 -725 
Q 1266 -881 1628 -881 
Q 2019 -881 2231 -725 
Q 2444 -569 2519 -288 
Q 2563 -116 2559 434 
Q 2191 0 1641 0 
Q 956 0 581 494 
Q 206 988 206 1678 
Q 206 2153 378 2554 
Q 550 2956 876 3175 
Q 1203 3394 1644 3394 
Q 2231 3394 2613 2919 
L 2613 3319 
L 3131 3319 
L 3131 450 
Q 3131 -325 2973 -648 
Q 2816 -972 2473 -1159 
Q 2131 -1347 1631 -1347 
Q 1038 -1347 672 -1080 
Q 306 -813 319 -275 
z
M 784 1719 
Q 784 1066 1043 766 
Q 1303 466 1694 466 
Q 2081 466 2343 764 
Q 2606 1063 2606 1700 
Q 2606 2309 2336 2618 
Q 2066 2928 1684 2928 
Q 1309 2928 1046 2623 
Q 784 2319 784 1719 
z
" transform="scale(0.015625)"/>
       <path id="ArialMT-79" d="M 397 -1278 
L 334 -750 
Q 519 -800 656 -800 
Q 844 -800 956 -737 
Q 1069 -675 1141 -563 
Q 1194 -478 1313 -144 
Q 1328 -97 1363 -6 
L 103 3319 
L 709 3319 
L 1400 1397 
Q 1534 1031 1641 628 
Q 1738 1016 1872 1384 
L 2581 3319 
L 3144 3319 
L 1881 -56 
Q 1678 -603 1566 -809 
Q 1416 -1088 1222 -1217 
Q 1028 -1347 759 -1347 
Q 597 -1347 397 -1278 
z
" transform="scale(0.015625)"/>
       <path id="ArialMT-28" d="M 1497 -1347 
Q 1031 -759 709 28 
Q 388 816 388 1659 
Q 388 2403 628 3084 
Q 909 3875 1497 4659 
L 1900 4659 
Q 1522 4009 1400 3731 
Q 1209 3300 1100 2831 
Q 966 2247 966 1656 
Q 966 153 1900 -1347 
L 1497 -1347 
z
" transform="scale(0.015625)"/>
       <path id="ArialMT-56" d="M 1803 0 
L 28 4581 
L 684 4581 
L 1875 1253 
Q 2019 853 2116 503 
Q 2222 878 2363 1253 
L 3600 4581 
L 4219 4581 
L 2425 0 
L 1803 0 
z
" transform="scale(0.015625)"/>
       <path id="ArialMT-29" d="M 791 -1347 
L 388 -1347 
Q 1322 153 1322 1656 
Q 1322 2244 1188 2822 
Q 1081 3291 891 3722 
Q 769 4003 388 4659 
L 791 4659 
Q 1378 3875 1659 3084 
Q 1900 2403 1900 1659 
Q 1900 816 1576 28 
Q 1253 -759 791 -1347 
z
" transform="scale(0.015625)"/>
      </defs>
      <use xlink:href="#ArialMT-45"/>
      <use xlink:href="#ArialMT-6d" x="66.699219"/>
      <use xlink:href="#ArialMT-69" x="150"/>
      <use xlink:href="#ArialMT-73" x="172.216797"/>
      <use xlink:href="#ArialMT-73" x="222.216797"/>
      <use xlink:href="#ArialMT-69" x="272.216797"/>
      <use xlink:href="#ArialMT-6f" x="294.433594"/>
      <use xlink:href="#ArialMT-6e" x="350.048828"/>
      <use xlink:href="#ArialMT-20" x="405.664062"/>
      <use xlink:href="#ArialMT-45" x="433.447266"/>
      <use xlink:href="#ArialMT-6e" x="500.146484"/>
      <use xlink:href="#ArialMT-65" x="555.761719"/>
      <use xlink:href="#ArialMT-72" x="611.376953"/>
      <use xlink:href="#ArialMT-67" x="644.677734"/>
      <use xlink:href="#ArialMT-79" x="700.292969"/>
      <use xlink:href="#ArialMT-20" x="750.292969"/>
      <use xlink:href="#ArialMT-28" x="778.076172"/>
      <use xlink:href="#ArialMT-65" x="811.376953"/>
      <use xlink:href="#ArialMT-56" x="866.992188"/>
      <use xlink:href="#ArialMT-29" x="933.691406"/>
     </g>
    </g>
   </g>
   <g id="matplotlib.axis_2">
    <g id="text_8">
     <!-- Normalized Intensity -->
     <g transform="translate(18.747428 286.449375) rotate(-90) scale(0.22 -0.22)">
      <defs>
       <path id="ArialMT-4e" d="M 488 0 
L 488 4581 
L 1109 4581 
L 3516 984 
L 3516 4581 
L 4097 4581 
L 4097 0 
L 3475 0 
L 1069 3600 
L 1069 0 
L 488 0 
z
" transform="scale(0.015625)"/>
       <path id="ArialMT-61" d="M 2588 409 
Q 2275 144 1986 34 
Q 1697 -75 1366 -75 
Q 819 -75 525 192 
Q 231 459 231 875 
Q 231 1119 342 1320 
Q 453 1522 633 1644 
Q 813 1766 1038 1828 
Q 1203 1872 1538 1913 
Q 2219 1994 2541 2106 
Q 2544 2222 2544 2253 
Q 2544 2597 2384 2738 
Q 2169 2928 1744 2928 
Q 1347 2928 1158 2789 
Q 969 2650 878 2297 
L 328 2372 
Q 403 2725 575 2942 
Q 747 3159 1072 3276 
Q 1397 3394 1825 3394 
Q 2250 3394 2515 3294 
Q 2781 3194 2906 3042 
Q 3031 2891 3081 2659 
Q 3109 2516 3109 2141 
L 3109 1391 
Q 3109 606 3145 398 
Q 3181 191 3288 0 
L 2700 0 
Q 2613 175 2588 409 
z
M 2541 1666 
Q 2234 1541 1622 1453 
Q 1275 1403 1131 1340 
Q 988 1278 909 1158 
Q 831 1038 831 891 
Q 831 666 1001 516 
Q 1172 366 1500 366 
Q 1825 366 2078 508 
Q 2331 650 2450 897 
Q 2541 1088 2541 1459 
L 2541 1666 
z
" transform="scale(0.015625)"/>
       <path id="ArialMT-6c" d="M 409 0 
L 409 4581 
L 972 4581 
L 972 0 
L 409 0 
z
" transform="scale(0.015625)"/>
       <path id="ArialMT-7a" d="M 125 0 
L 125 456 
L 2238 2881 
Q 1878 2863 1603 2863 
L 250 2863 
L 250 3319 
L 2963 3319 
L 2963 2947 
L 1166 841 
L 819 456 
Q 1197 484 1528 484 
L 3063 484 
L 3063 0 
L 125 0 
z
" transform="scale(0.015625)"/>
       <path id="ArialMT-64" d="M 2575 0 
L 2575 419 
Q 2259 -75 1647 -75 
Q 1250 -75 917 144 
Q 584 363 401 755 
Q 219 1147 219 1656 
Q 219 2153 384 2558 
Q 550 2963 881 3178 
Q 1213 3394 1622 3394 
Q 1922 3394 2156 3267 
Q 2391 3141 2538 2938 
L 2538 4581 
L 3097 4581 
L 3097 0 
L 2575 0 
z
M 797 1656 
Q 797 1019 1065 703 
Q 1334 388 1700 388 
Q 2069 388 2326 689 
Q 2584 991 2584 1609 
Q 2584 2291 2321 2609 
Q 2059 2928 1675 2928 
Q 1300 2928 1048 2622 
Q 797 2316 797 1656 
z
" transform="scale(0.015625)"/>
       <path id="ArialMT-49" d="M 597 0 
L 597 4581 
L 1203 4581 
L 1203 0 
L 597 0 
z
" transform="scale(0.015625)"/>
       <path id="ArialMT-74" d="M 1650 503 
L 1731 6 
Q 1494 -44 1306 -44 
Q 1000 -44 831 53 
Q 663 150 594 308 
Q 525 466 525 972 
L 525 2881 
L 113 2881 
L 113 3319 
L 525 3319 
L 525 4141 
L 1084 4478 
L 1084 3319 
L 1650 3319 
L 1650 2881 
L 1084 2881 
L 1084 941 
Q 1084 700 1114 631 
Q 1144 563 1211 522 
Q 1278 481 1403 481 
Q 1497 481 1650 503 
z
" transform="scale(0.015625)"/>
      </defs>
      <use xlink:href="#ArialMT-4e"/>
      <use xlink:href="#ArialMT-6f" x="72.216797"/>
      <use xlink:href="#ArialMT-72" x="127.832031"/>
      <use xlink:href="#ArialMT-6d" x="161.132812"/>
      <use xlink:href="#ArialMT-61" x="244.433594"/>
      <use xlink:href="#ArialMT-6c" x="300.048828"/>
      <use xlink:href="#ArialMT-69" x="322.265625"/>
      <use xlink:href="#ArialMT-7a" x="344.482422"/>
      <use xlink:href="#ArialMT-65" x="394.482422"/>
      <use xlink:href="#ArialMT-64" x="450.097656"/>
      <use xlink:href="#ArialMT-20" x="505.712891"/>
      <use xlink:href="#ArialMT-49" x="533.496094"/>
      <use xlink:href="#ArialMT-6e" x="561.279297"/>
      <use xlink:href="#ArialMT-74" x="616.894531"/>
      <use xlink:href="#ArialMT-65" x="644.677734"/>
      <use xlink:href="#ArialMT-6e" x="700.292969"/>
      <use xlink:href="#ArialMT-73" x="755.908203"/>
      <use xlink:href="#ArialMT-69" x="805.908203"/>
      <use xlink:href="#ArialMT-74" x="828.125"/>
      <use xlink:href="#ArialMT-79" x="855.908203"/>
     </g>
    </g>
   </g>
   <g id="line2d_29">
    <path d="M 29.461563 352.652509 
L 31.361327 349.699633 
L 33.262726 348.455125 
L 35.165157 347.390804 
L 37.06862 346.080553 
L 38.973201 345.541939 
L 40.879332 346.233225 
L 44.694689 348.949909 
L 46.603917 349.179526 
L 48.514779 350.410155 
L 50.427189 348.921907 
L 52.340116 347.099096 
L 54.254592 345.744041 
L 56.170185 345.297226 
L 58.087328 341.163151 
L 60.004986 339.407302 
L 61.924193 335.893898 
L 63.845035 334.92868 
L 65.766909 334.419286 
L 67.689816 337.30374 
L 69.613755 339.473289 
L 71.539328 342.893921 
L 73.465934 347.208426 
L 75.394089 350.845769 
L 77.322759 349.952626 
L 79.252979 350.616152 
L 81.184833 349.226034 
L 83.117719 348.25278 
L 85.051724 346.581424 
L 88.92326 346.151166 
L 90.861394 346.108068 
L 92.800045 349.01054 
L 94.74033 348.995443 
L 96.682078 349.241617 
L 98.624427 348.643104 
L 100.568326 348.228187 
L 102.513859 347.370351 
L 104.460424 346.844399 
L 106.408022 345.351039 
L 108.356652 343.708171 
L 110.306831 344.515847 
L 112.258644 346.787908 
L 114.210974 346.189882 
L 116.165368 347.018743 
L 118.120365 346.455049 
L 120.076824 345.009414 
L 122.034401 344.444503 
L 123.993527 344.521935 
L 127.915565 342.064086 
L 131.842248 347.661815 
L 133.807139 344.773953 
L 135.77418 342.727613 
L 137.741737 335.231589 
L 139.710843 329.060427 
L 141.680981 328.66085 
L 143.652754 325.175935 
L 145.625559 323.546703 
L 147.599913 323.214575 
L 151.55232 327.377869 
L 153.530373 330.569128 
L 155.509459 333.25708 
L 157.490179 324.07022 
L 159.471845 322.140758 
L 161.455147 320.430198 
L 163.439566 312.030561 
L 165.424932 300.303794 
L 167.411933 291.221637 
L 169.400482 287.17863 
L 171.390063 285.019064 
L 173.380677 292.500965 
L 175.372926 292.842346 
L 177.366207 283.058434 
L 179.361036 276.415864 
L 181.356984 272.146648 
L 183.35448 265.459031 
L 185.353009 243.885774 
L 187.353087 221.071904 
L 189.354197 211.19035 
L 191.356941 210.03837 
L 193.360718 223.724062 
L 195.365527 225.884846 
L 197.371971 219.274173 
L 199.379963 218.196703 
L 201.388988 219.53447 
L 203.399045 204.629351 
L 205.410737 180.686147 
L 207.423978 162.710542 
L 209.43825 152.642714 
L 211.453555 150.398898 
L 215.488898 174.63868 
L 219.529057 199.878013 
L 221.551159 202.059007 
L 223.574895 201.697415 
L 225.59975 212.187709 
L 227.626067 224.031841 
L 229.653503 221.463933 
L 231.681971 225.139992 
L 235.743553 253.549642 
L 237.776753 264.396171 
L 239.810469 258.331173 
L 241.84625 249.625461 
L 243.883149 248.48663 
L 245.921081 246.396704 
L 247.960561 240.126439 
L 250.001074 230.876027 
L 252.043221 231.142168 
L 254.086831 231.146064 
L 256.131645 233.641654 
L 258.177922 247.140341 
L 260.225317 251.180426 
L 262.274174 260.349511 
L 264.324237 268.68024 
L 266.375761 275.473291 
L 268.428921 273.758592 
L 270.483112 274.375124 
L 272.538853 280.324948 
L 274.595625 278.469265 
L 276.654033 278.861781 
L 278.713472 283.467264 
L 280.775063 285.249411 
L 282.837084 291.217254 
L 284.900739 294.229056 
L 286.965943 298.018584 
L 289.032695 294.453316 
L 291.100566 298.893709 
L 293.169469 304.635588 
L 295.239921 306.662448 
L 297.312007 306.730383 
L 299.385556 301.054736 
L 301.460224 302.610431 
L 303.53601 308.401253 
L 305.613774 310.772173 
L 307.692657 311.405263 
L 309.772573 308.793525 
L 311.854036 310.000048 
L 313.937135 314.581912 
L 316.021266 320.791059 
L 318.107462 312.554321 
L 320.19426 300.468154 
L 322.283036 295.49694 
L 324.372415 292.517523 
L 326.463859 296.86417 
L 328.556421 296.532041 
L 330.650532 296.757275 
L 332.746191 295.70659 
L 334.842883 305.697961 
L 336.941209 314.21959 
L 339.040568 304.800191 
L 341.141991 299.94342 
L 343.243931 300.784698 
L 345.348021 304.099166 
L 347.453144 316.919717 
L 349.559901 317.185371 
L 351.668121 318.270632 
L 353.77746 315.202583 
L 355.888347 321.213281 
L 358.000266 325.004514 
L 360.11382 320.813948 
L 362.228922 322.645038 
L 364.345574 328.818391 
L 366.463343 331.860387 
L 368.582661 335.905586 
L 370.703528 325.245088 
L 372.825943 319.746948 
L 374.949477 312.477132 
L 377.074559 308.198908 
L 379.200674 306.749863 
L 381.328853 309.041404 
L 383.458151 317.878117 
L 385.588481 322.641142 
L 387.720877 326.280433 
L 389.85439 332.325951 
L 391.989452 333.710956 
L 394.125546 337.27866 
L 396.263792 336.509943 
L 398.402983 332.569204 
L 400.543809 330.833808 
L 402.685754 332.899384 
L 404.829677 336.803112 
L 406.974719 334.660104 
L 409.120793 337.623693 
L 411.269018 340.250041 
L 413.41819 342.410825 
L 415.568995 344.040787 
L 417.721436 344.831175 
L 419.875339 343.351693 
L 422.030361 343.561587 
L 424.186931 344.551641 
L 426.345135 341.813529 
L 428.504803 340.214491 
L 430.665588 338.779569 
L 432.828525 334.472855 
L 434.992408 332.928847 
L 437.157409 333.684902 
L 441.492659 341.509159 
L 443.662909 344.750821 
L 445.833588 346.538081 
L 448.006504 345.057139 
L 450.180969 344.995778 
L 452.35638 345.377093 
L 454.533512 342.93848 
L 456.712106 341.219399 
L 458.892335 340.476979 
L 461.074113 342.217489 
L 463.256923 340.834675 
L 465.441883 340.681516 
L 467.627876 341.802815 
L 472.004078 345.231969 
L 474.194717 346.267801 
L 476.38656 345.018423 
L 478.580382 345.495919 
L 480.775323 346.242234 
L 482.971812 346.234929 
L 485.16985 345.356395 
L 487.369006 345.915219 
L 489.570226 347.282205 
L 491.77248 346.731904 
L 493.976281 346.550743 
L 496.182234 348.391573 
L 498.389219 354.159019 
L 500.597236 333.455529 
L 500.597236 333.455529 
" clip-path="url(#p4f5c2c9853)" style="fill: none; stroke: #000000; stroke-width: 3; stroke-linecap: square"/>
   </g>
   <g id="line2d_30">
    <path d="M 29.461563 350.531264 
L 31.361327 348.632625 
L 33.262726 348.582409 
L 35.165157 348.335041 
L 37.06862 348.251999 
L 38.973201 347.958322 
L 40.879332 348.785032 
L 42.786494 349.323341 
L 44.694689 347.672071 
L 46.603917 345.063372 
L 48.514779 343.789015 
L 50.427189 343.734109 
L 52.340116 345.516685 
L 54.254592 346.067499 
L 56.170185 347.412393 
L 58.087328 350.500392 
L 60.004986 351.748175 
L 61.924193 351.577206 
L 65.766909 344.940078 
L 67.689816 344.101645 
L 69.613755 343.443755 
L 71.539328 344.211651 
L 73.465934 343.980305 
L 75.394089 342.765739 
L 77.322759 342.095539 
L 79.252979 340.645524 
L 81.184833 342.829633 
L 83.117719 340.92435 
L 85.051724 338.756459 
L 86.986675 338.860799 
L 88.92326 339.931751 
L 90.861394 343.228236 
L 92.800045 346.07805 
L 94.74033 343.99242 
L 96.682078 343.49866 
L 98.624427 345.523719 
L 100.568326 348.558962 
L 102.513859 347.246113 
L 104.460424 347.049352 
L 106.408022 346.241008 
L 108.356652 347.229114 
L 110.306831 348.45892 
L 112.258644 349.447612 
L 114.210974 347.25471 
L 116.165368 348.002481 
L 118.120365 350.625249 
L 120.076824 351.180752 
L 123.993527 341.919685 
L 125.953772 337.287686 
L 127.915565 335.953148 
L 129.877788 336.647967 
L 131.842248 334.346622 
L 133.807139 335.702263 
L 135.77418 341.957982 
L 137.741737 342.378078 
L 139.710843 337.617901 
L 141.680981 329.167521 
L 143.652754 322.810002 
L 145.625559 320.325573 
L 147.599913 322.94326 
L 149.575385 324.446423 
L 151.55232 320.350974 
L 153.530373 318.83433 
L 155.509459 315.367853 
L 157.490179 308.803998 
L 159.471845 304.923873 
L 161.455147 302.675089 
L 163.439566 298.673624 
L 165.424932 297.507125 
L 167.411933 295.993607 
L 169.400482 290.976682 
L 171.390063 287.460966 
L 173.380677 275.641025 
L 175.372926 269.0971 
L 177.366207 263.890058 
L 179.361036 255.030329 
L 181.356984 242.669343 
L 183.35448 231.88108 
L 185.353009 219.070884 
L 187.353087 201.158182 
L 189.354197 189.456258 
L 191.356941 186.096662 
L 193.360718 183.125312 
L 195.365527 189.801909 
L 197.371971 192.538982 
L 199.379963 196.939049 
L 201.388988 190.671411 
L 203.399045 179.222326 
L 205.410737 169.21466 
L 207.423978 163.644577 
L 209.43825 169.573794 
L 213.470409 203.453079 
L 215.488898 206.468978 
L 217.508504 203.786225 
L 219.529057 203.09883 
L 221.551159 190.873057 
L 223.574895 185.110901 
L 225.59975 187.940786 
L 227.626067 197.465635 
L 229.653503 214.356429 
L 231.681971 232.220478 
L 233.712504 228.187946 
L 237.776753 197.276884 
L 239.810469 193.833269 
L 241.84625 197.245426 
L 245.921081 238.676281 
L 247.960561 260.826092 
L 250.001074 281.665203 
L 252.043221 290.988992 
L 254.086831 289.664029 
L 256.131645 288.596398 
L 258.177922 279.188199 
L 260.225317 276.335454 
L 262.274174 275.871199 
L 264.324237 282.908883 
L 266.375761 291.006578 
L 268.428921 293.721766 
L 270.483112 293.087128 
L 272.538853 288.348835 
L 274.595625 289.089376 
L 276.654033 291.411238 
L 278.713472 287.021917 
L 280.775063 280.331252 
L 282.837084 280.583114 
L 284.900739 285.75225 
L 286.965943 297.166945 
L 289.032695 304.064141 
L 291.100566 309.397799 
L 293.169469 313.00535 
L 295.239921 315.148426 
L 297.312007 320.355468 
L 299.385556 316.621107 
L 301.460224 301.482602 
L 303.53601 294.814407 
L 305.613774 294.082072 
L 307.692657 297.220483 
L 309.772573 297.941485 
L 311.854036 300.96266 
L 313.937135 302.66825 
L 318.107462 309.025769 
L 320.19426 303.100656 
L 322.283036 292.689697 
L 324.372415 285.202803 
L 326.463859 283.624024 
L 328.556421 285.841349 
L 330.650532 279.076825 
L 332.746191 274.945033 
L 334.842883 280.323045 
L 336.941209 291.599988 
L 339.040568 300.231888 
L 341.141991 298.175762 
L 343.243931 300.449166 
L 345.348021 304.34629 
L 347.453144 305.786926 
L 349.559901 307.607212 
L 351.668121 299.648052 
L 353.77746 295.879888 
L 355.888347 299.134558 
L 358.000266 305.491296 
L 360.11382 308.300859 
L 362.228922 307.843248 
L 364.345574 315.660357 
L 366.463343 315.500134 
L 368.582661 310.915029 
L 370.703528 312.249372 
L 372.825943 315.856337 
L 374.949477 313.013947 
L 377.074559 312.2185 
L 379.200674 312.185478 
L 381.328853 311.612389 
L 383.458151 317.788974 
L 385.588481 324.590428 
L 387.720877 325.554499 
L 389.85439 330.013184 
L 391.989452 337.344545 
L 394.125546 340.015575 
L 396.263792 339.497978 
L 398.402983 339.964577 
L 400.543809 338.5511 
L 402.685754 338.267194 
L 404.829677 340.555447 
L 406.974719 343.664549 
L 409.120793 347.605246 
L 411.269018 349.802446 
L 413.41819 351.101813 
L 415.568995 348.789331 
L 417.721436 347.702357 
L 419.875339 344.305049 
L 422.030361 341.651019 
L 424.186931 339.31548 
L 426.345135 338.915314 
L 428.504803 339.233805 
L 430.665588 340.723486 
L 432.828525 341.122089 
L 434.992408 342.838621 
L 439.324475 343.393148 
L 441.492659 343.124677 
L 443.662909 342.241694 
L 445.833588 342.378078 
L 448.006504 343.237224 
L 450.180969 344.906666 
L 452.35638 347.305122 
L 454.533512 345.805281 
L 456.712106 345.42993 
L 458.892335 344.61807 
L 461.074113 345.397885 
L 463.256923 344.740777 
L 467.627876 344.469571 
L 469.815418 344.931481 
L 474.194717 347.713299 
L 476.38656 347.035088 
L 478.580382 347.243963 
L 480.775323 346.510261 
L 485.16985 343.865218 
L 487.369006 341.923593 
L 489.570226 340.728371 
L 491.77248 341.432569 
L 493.976281 342.509969 
L 496.182234 343.717501 
L 498.389219 345.29843 
L 500.597236 348.380568 
L 500.597236 348.380568 
" clip-path="url(#p4f5c2c9853)" style="fill: none; stroke: #0000ff; stroke-width: 3; stroke-linecap: square"/>
   </g>
   <g id="patch_3">
    <path d="M 30.87774 370.609447 
L 30.87774 3.00024 
" style="fill: none; stroke: #000000; stroke-width: 2.25; stroke-linejoin: miter; stroke-linecap: square"/>
   </g>
   <g id="patch_4">
    <path d="M 499.753432 370.609447 
L 499.753432 3.00024 
" style="fill: none; stroke: #000000; stroke-width: 2.25; stroke-linejoin: miter; stroke-linecap: square"/>
   </g>
   <g id="patch_5">
    <path d="M 30.87774 370.609447 
L 499.753432 370.609447 
" style="fill: none; stroke: #000000; stroke-width: 2.25; stroke-linejoin: miter; stroke-linecap: square"/>
   </g>
   <g id="patch_6">
    <path d="M 30.87774 3.00024 
L 499.753432 3.00024 
" style="fill: none; stroke: #000000; stroke-width: 2.25; stroke-linejoin: miter; stroke-linecap: square"/>
   </g>
   <g id="legend_1">
    <g id="line2d_31">
     <path d="M 228.878432 30.847428 
L 250.878432 30.847428 
L 272.878432 30.847428 
" style="fill: none; stroke: #000000; stroke-width: 3; stroke-linecap: square"/>
    </g>
    <g id="text_9">
     <!-- FePCN-224Ac -->
     <g transform="translate(290.478432 38.547428) scale(0.22 -0.22)">
      <defs>
       <path id="ArialMT-46" d="M 525 0 
L 525 4581 
L 3616 4581 
L 3616 4041 
L 1131 4041 
L 1131 2622 
L 3281 2622 
L 3281 2081 
L 1131 2081 
L 1131 0 
L 525 0 
z
" transform="scale(0.015625)"/>
       <path id="ArialMT-50" d="M 494 0 
L 494 4581 
L 2222 4581 
Q 2678 4581 2919 4538 
Q 3256 4481 3484 4323 
Q 3713 4166 3852 3881 
Q 3991 3597 3991 3256 
Q 3991 2672 3619 2267 
Q 3247 1863 2275 1863 
L 1100 1863 
L 1100 0 
L 494 0 
z
M 1100 2403 
L 2284 2403 
Q 2872 2403 3119 2622 
Q 3366 2841 3366 3238 
Q 3366 3525 3220 3729 
Q 3075 3934 2838 4000 
Q 2684 4041 2272 4041 
L 1100 4041 
L 1100 2403 
z
" transform="scale(0.015625)"/>
       <path id="ArialMT-43" d="M 3763 1606 
L 4369 1453 
Q 4178 706 3683 314 
Q 3188 -78 2472 -78 
Q 1731 -78 1267 223 
Q 803 525 561 1097 
Q 319 1669 319 2325 
Q 319 3041 592 3573 
Q 866 4106 1370 4382 
Q 1875 4659 2481 4659 
Q 3169 4659 3637 4309 
Q 4106 3959 4291 3325 
L 3694 3184 
Q 3534 3684 3231 3912 
Q 2928 4141 2469 4141 
Q 1941 4141 1586 3887 
Q 1231 3634 1087 3207 
Q 944 2781 944 2328 
Q 944 1744 1114 1308 
Q 1284 872 1643 656 
Q 2003 441 2422 441 
Q 2931 441 3284 734 
Q 3638 1028 3763 1606 
z
" transform="scale(0.015625)"/>
       <path id="ArialMT-2d" d="M 203 1375 
L 203 1941 
L 1931 1941 
L 1931 1375 
L 203 1375 
z
" transform="scale(0.015625)"/>
       <path id="ArialMT-41" d="M -9 0 
L 1750 4581 
L 2403 4581 
L 4278 0 
L 3588 0 
L 3053 1388 
L 1138 1388 
L 634 0 
L -9 0 
z
M 1313 1881 
L 2866 1881 
L 2388 3150 
Q 2169 3728 2063 4100 
Q 1975 3659 1816 3225 
L 1313 1881 
z
" transform="scale(0.015625)"/>
       <path id="ArialMT-63" d="M 2588 1216 
L 3141 1144 
Q 3050 572 2676 248 
Q 2303 -75 1759 -75 
Q 1078 -75 664 370 
Q 250 816 250 1647 
Q 250 2184 428 2587 
Q 606 2991 970 3192 
Q 1334 3394 1763 3394 
Q 2303 3394 2647 3120 
Q 2991 2847 3088 2344 
L 2541 2259 
Q 2463 2594 2264 2762 
Q 2066 2931 1784 2931 
Q 1359 2931 1093 2626 
Q 828 2322 828 1663 
Q 828 994 1084 691 
Q 1341 388 1753 388 
Q 2084 388 2306 591 
Q 2528 794 2588 1216 
z
" transform="scale(0.015625)"/>
      </defs>
      <use xlink:href="#ArialMT-46"/>
      <use xlink:href="#ArialMT-65" x="61.083984"/>
      <use xlink:href="#ArialMT-50" x="116.699219"/>
      <use xlink:href="#ArialMT-43" x="183.398438"/>
      <use xlink:href="#ArialMT-4e" x="255.615234"/>
      <use xlink:href="#ArialMT-2d" x="327.832031"/>
      <use xlink:href="#ArialMT-32" x="361.132812"/>
      <use xlink:href="#ArialMT-32" x="416.748047"/>
      <use xlink:href="#ArialMT-34" x="472.363281"/>
      <use xlink:href="#ArialMT-41" x="527.978516"/>
      <use xlink:href="#ArialMT-63" x="594.677734"/>
     </g>
    </g>
    <g id="line2d_32">
     <path d="M 228.878432 62.24899 
L 250.878432 62.24899 
L 272.878432 62.24899 
" style="fill: none; stroke: #0000ff; stroke-width: 3; stroke-linecap: square"/>
    </g>
    <g id="text_10">
     <!-- Fe(NO)PCN-224Ac -->
     <g transform="translate(290.478432 69.94899) scale(0.22 -0.22)">
      <defs>
       <path id="ArialMT-4f" d="M 309 2231 
Q 309 3372 921 4017 
Q 1534 4663 2503 4663 
Q 3138 4663 3647 4359 
Q 4156 4056 4423 3514 
Q 4691 2972 4691 2284 
Q 4691 1588 4409 1038 
Q 4128 488 3612 205 
Q 3097 -78 2500 -78 
Q 1853 -78 1343 234 
Q 834 547 571 1087 
Q 309 1628 309 2231 
z
M 934 2222 
Q 934 1394 1379 917 
Q 1825 441 2497 441 
Q 3181 441 3623 922 
Q 4066 1403 4066 2288 
Q 4066 2847 3877 3264 
Q 3688 3681 3323 3911 
Q 2959 4141 2506 4141 
Q 1863 4141 1398 3698 
Q 934 3256 934 2222 
z
" transform="scale(0.015625)"/>
      </defs>
      <use xlink:href="#ArialMT-46"/>
      <use xlink:href="#ArialMT-65" x="61.083984"/>
      <use xlink:href="#ArialMT-28" x="116.699219"/>
      <use xlink:href="#ArialMT-4e" x="150"/>
      <use xlink:href="#ArialMT-4f" x="222.216797"/>
      <use xlink:href="#ArialMT-29" x="300"/>
      <use xlink:href="#ArialMT-50" x="333.300781"/>
      <use xlink:href="#ArialMT-43" x="400"/>
      <use xlink:href="#ArialMT-4e" x="472.216797"/>
      <use xlink:href="#ArialMT-2d" x="544.433594"/>
      <use xlink:href="#ArialMT-32" x="577.734375"/>
      <use xlink:href="#ArialMT-32" x="633.349609"/>
      <use xlink:href="#ArialMT-34" x="688.964844"/>
      <use xlink:href="#ArialMT-41" x="744.580078"/>
      <use xlink:href="#ArialMT-63" x="811.279297"/>
     </g>
    </g>
   </g>
  </g>
 </g>
 <defs>
  <clipPath id="p4f5c2c9853">
   <rect x="30.87774" y="3.00024" width="468.875692" height="367.609207"/>
  </clipPath>
 </defs>
</svg>
