<?xml version="1.0" encoding="utf-8" standalone="no"?>
<!DOCTYPE svg PUBLIC "-//W3C//DTD SVG 1.1//EN"
  "http://www.w3.org/Graphics/SVG/1.1/DTD/svg11.dtd">
<svg xmlns:xlink="http://www.w3.org/1999/xlink" width="504pt" height="432pt" viewBox="0 0 504 432" xmlns="http://www.w3.org/2000/svg" version="1.1">
 <metadata>
  <rdf:RDF xmlns:dc="http://purl.org/dc/elements/1.1/" xmlns:cc="http://creativecommons.org/ns#" xmlns:rdf="http://www.w3.org/1999/02/22-rdf-syntax-ns#">
   <cc:Work>
    <dc:type rdf:resource="http://purl.org/dc/dcmitype/StillImage"/>
    <dc:date>2024-04-07T14:20:43.073152</dc:date>
    <dc:format>image/svg+xml</dc:format>
    <dc:creator>
     <cc:Agent>
      <dc:title>Matplotlib v3.5.2, https://matplotlib.org/</dc:title>
     </cc:Agent>
    </dc:creator>
   </cc:Work>
  </rdf:RDF>
 </metadata>
 <defs>
  <style type="text/css">*{stroke-linejoin: round; stroke-linecap: butt}</style>
 </defs>
 <g id="figure_1">
  <g id="patch_1">
   <path d="M 0 432 
L 504 432 
L 504 0 
L 0 0 
z
" style="fill: #ffffff"/>
  </g>
  <g id="axes_1">
   <g id="patch_2">
    <path d="M 30.87774 370.609447 
L 482.648666 370.609447 
L 482.648666 3.00024 
L 30.87774 3.00024 
z
" style="fill: #ffffff"/>
   </g>
   <g id="matplotlib.axis_1">
    <g id="xtick_1">
     <g id="line2d_1">
      <defs>
       <path id="m08d2e682b9" d="M 0 0 
L 0 10.125 
" style="stroke: #000000; stroke-width: 2.025"/>
      </defs>
      <g>
       <use xlink:href="#m08d2e682b9" x="48.948577" y="370.609447" style="stroke: #000000; stroke-width: 2.025"/>
      </g>
     </g>
     <g id="text_1">
      <!-- 700 -->
      <g transform="translate(30.597483 399.981635)scale(0.22 -0.22)">
       <defs>
        <path id="ArialMT-37" d="M 303 3981 
L 303 4522 
L 3269 4522 
L 3269 4084 
Q 2831 3619 2401 2847 
Q 1972 2075 1738 1259 
Q 1569 684 1522 0 
L 944 0 
Q 953 541 1156 1306 
Q 1359 2072 1739 2783 
Q 2119 3494 2547 3981 
L 303 3981 
z
" transform="scale(0.015625)"/>
        <path id="ArialMT-30" d="M 266 2259 
Q 266 3072 433 3567 
Q 600 4063 929 4331 
Q 1259 4600 1759 4600 
Q 2128 4600 2406 4451 
Q 2684 4303 2865 4023 
Q 3047 3744 3150 3342 
Q 3253 2941 3253 2259 
Q 3253 1453 3087 958 
Q 2922 463 2592 192 
Q 2263 -78 1759 -78 
Q 1097 -78 719 397 
Q 266 969 266 2259 
z
M 844 2259 
Q 844 1131 1108 757 
Q 1372 384 1759 384 
Q 2147 384 2411 759 
Q 2675 1134 2675 2259 
Q 2675 3391 2411 3762 
Q 2147 4134 1753 4134 
Q 1366 4134 1134 3806 
Q 844 3388 844 2259 
z
" transform="scale(0.015625)"/>
       </defs>
       <use xlink:href="#ArialMT-37"/>
       <use xlink:href="#ArialMT-30" x="55.615234"/>
       <use xlink:href="#ArialMT-30" x="111.230469"/>
      </g>
     </g>
    </g>
    <g id="xtick_2">
     <g id="line2d_2">
      <g>
       <use xlink:href="#m08d2e682b9" x="121.231925" y="370.609447" style="stroke: #000000; stroke-width: 2.025"/>
      </g>
     </g>
     <g id="text_2">
      <!-- 710 -->
      <g transform="translate(102.880832 399.981635)scale(0.22 -0.22)">
       <defs>
        <path id="ArialMT-31" d="M 2384 0 
L 1822 0 
L 1822 3584 
Q 1619 3391 1289 3197 
Q 959 3003 697 2906 
L 697 3450 
Q 1169 3672 1522 3987 
Q 1875 4303 2022 4600 
L 2384 4600 
L 2384 0 
z
" transform="scale(0.015625)"/>
       </defs>
       <use xlink:href="#ArialMT-37"/>
       <use xlink:href="#ArialMT-31" x="55.615234"/>
       <use xlink:href="#ArialMT-30" x="111.230469"/>
      </g>
     </g>
    </g>
    <g id="xtick_3">
     <g id="line2d_3">
      <g>
       <use xlink:href="#m08d2e682b9" x="193.515273" y="370.609447" style="stroke: #000000; stroke-width: 2.025"/>
      </g>
     </g>
     <g id="text_3">
      <!-- 720 -->
      <g transform="translate(175.16418 399.981635)scale(0.22 -0.22)">
       <defs>
        <path id="ArialMT-32" d="M 3222 541 
L 3222 0 
L 194 0 
Q 188 203 259 391 
Q 375 700 629 1000 
Q 884 1300 1366 1694 
Q 2113 2306 2375 2664 
Q 2638 3022 2638 3341 
Q 2638 3675 2398 3904 
Q 2159 4134 1775 4134 
Q 1369 4134 1125 3890 
Q 881 3647 878 3216 
L 300 3275 
Q 359 3922 746 4261 
Q 1134 4600 1788 4600 
Q 2447 4600 2831 4234 
Q 3216 3869 3216 3328 
Q 3216 3053 3103 2787 
Q 2991 2522 2730 2228 
Q 2469 1934 1863 1422 
Q 1356 997 1212 845 
Q 1069 694 975 541 
L 3222 541 
z
" transform="scale(0.015625)"/>
       </defs>
       <use xlink:href="#ArialMT-37"/>
       <use xlink:href="#ArialMT-32" x="55.615234"/>
       <use xlink:href="#ArialMT-30" x="111.230469"/>
      </g>
     </g>
    </g>
    <g id="xtick_4">
     <g id="line2d_4">
      <g>
       <use xlink:href="#m08d2e682b9" x="265.798622" y="370.609447" style="stroke: #000000; stroke-width: 2.025"/>
      </g>
     </g>
     <g id="text_4">
      <!-- 730 -->
      <g transform="translate(247.447528 399.981635)scale(0.22 -0.22)">
       <defs>
        <path id="ArialMT-33" d="M 269 1209 
L 831 1284 
Q 928 806 1161 595 
Q 1394 384 1728 384 
Q 2125 384 2398 659 
Q 2672 934 2672 1341 
Q 2672 1728 2419 1979 
Q 2166 2231 1775 2231 
Q 1616 2231 1378 2169 
L 1441 2663 
Q 1497 2656 1531 2656 
Q 1891 2656 2178 2843 
Q 2466 3031 2466 3422 
Q 2466 3731 2256 3934 
Q 2047 4138 1716 4138 
Q 1388 4138 1169 3931 
Q 950 3725 888 3313 
L 325 3413 
Q 428 3978 793 4289 
Q 1159 4600 1703 4600 
Q 2078 4600 2393 4439 
Q 2709 4278 2876 4000 
Q 3044 3722 3044 3409 
Q 3044 3113 2884 2869 
Q 2725 2625 2413 2481 
Q 2819 2388 3044 2092 
Q 3269 1797 3269 1353 
Q 3269 753 2831 336 
Q 2394 -81 1725 -81 
Q 1122 -81 723 278 
Q 325 638 269 1209 
z
" transform="scale(0.015625)"/>
       </defs>
       <use xlink:href="#ArialMT-37"/>
       <use xlink:href="#ArialMT-33" x="55.615234"/>
       <use xlink:href="#ArialMT-30" x="111.230469"/>
      </g>
     </g>
    </g>
    <g id="xtick_5">
     <g id="line2d_5">
      <g>
       <use xlink:href="#m08d2e682b9" x="338.08197" y="370.609447" style="stroke: #000000; stroke-width: 2.025"/>
      </g>
     </g>
     <g id="text_5">
      <!-- 740 -->
      <g transform="translate(319.730876 399.981635)scale(0.22 -0.22)">
       <defs>
        <path id="ArialMT-34" d="M 2069 0 
L 2069 1097 
L 81 1097 
L 81 1613 
L 2172 4581 
L 2631 4581 
L 2631 1613 
L 3250 1613 
L 3250 1097 
L 2631 1097 
L 2631 0 
L 2069 0 
z
M 2069 1613 
L 2069 3678 
L 634 1613 
L 2069 1613 
z
" transform="scale(0.015625)"/>
       </defs>
       <use xlink:href="#ArialMT-37"/>
       <use xlink:href="#ArialMT-34" x="55.615234"/>
       <use xlink:href="#ArialMT-30" x="111.230469"/>
      </g>
     </g>
    </g>
    <g id="xtick_6">
     <g id="line2d_6">
      <g>
       <use xlink:href="#m08d2e682b9" x="410.365318" y="370.609447" style="stroke: #000000; stroke-width: 2.025"/>
      </g>
     </g>
     <g id="text_6">
      <!-- 750 -->
      <g transform="translate(392.014224 399.981635)scale(0.22 -0.22)">
       <defs>
        <path id="ArialMT-35" d="M 266 1200 
L 856 1250 
Q 922 819 1161 601 
Q 1400 384 1738 384 
Q 2144 384 2425 690 
Q 2706 997 2706 1503 
Q 2706 1984 2436 2262 
Q 2166 2541 1728 2541 
Q 1456 2541 1237 2417 
Q 1019 2294 894 2097 
L 366 2166 
L 809 4519 
L 3088 4519 
L 3088 3981 
L 1259 3981 
L 1013 2750 
Q 1425 3038 1878 3038 
Q 2478 3038 2890 2622 
Q 3303 2206 3303 1553 
Q 3303 931 2941 478 
Q 2500 -78 1738 -78 
Q 1113 -78 717 272 
Q 322 622 266 1200 
z
" transform="scale(0.015625)"/>
       </defs>
       <use xlink:href="#ArialMT-37"/>
       <use xlink:href="#ArialMT-35" x="55.615234"/>
       <use xlink:href="#ArialMT-30" x="111.230469"/>
      </g>
     </g>
    </g>
    <g id="xtick_7">
     <g id="line2d_7">
      <g>
       <use xlink:href="#m08d2e682b9" x="482.648666" y="370.609447" style="stroke: #000000; stroke-width: 2.025"/>
      </g>
     </g>
     <g id="text_7">
      <!-- 760 -->
      <g transform="translate(464.297573 399.981635)scale(0.22 -0.22)">
       <defs>
        <path id="ArialMT-36" d="M 3184 3459 
L 2625 3416 
Q 2550 3747 2413 3897 
Q 2184 4138 1850 4138 
Q 1581 4138 1378 3988 
Q 1113 3794 959 3422 
Q 806 3050 800 2363 
Q 1003 2672 1297 2822 
Q 1591 2972 1913 2972 
Q 2475 2972 2870 2558 
Q 3266 2144 3266 1488 
Q 3266 1056 3080 686 
Q 2894 316 2569 119 
Q 2244 -78 1831 -78 
Q 1128 -78 684 439 
Q 241 956 241 2144 
Q 241 3472 731 4075 
Q 1159 4600 1884 4600 
Q 2425 4600 2770 4297 
Q 3116 3994 3184 3459 
z
M 888 1484 
Q 888 1194 1011 928 
Q 1134 663 1356 523 
Q 1578 384 1822 384 
Q 2178 384 2434 671 
Q 2691 959 2691 1453 
Q 2691 1928 2437 2201 
Q 2184 2475 1800 2475 
Q 1419 2475 1153 2201 
Q 888 1928 888 1484 
z
" transform="scale(0.015625)"/>
       </defs>
       <use xlink:href="#ArialMT-37"/>
       <use xlink:href="#ArialMT-36" x="55.615234"/>
       <use xlink:href="#ArialMT-30" x="111.230469"/>
      </g>
     </g>
    </g>
    <g id="xtick_8">
     <g id="line2d_8">
      <defs>
       <path id="m7669db93cc" d="M 0 0 
L 0 5.0625 
" style="stroke: #000000; stroke-width: 2.025"/>
      </defs>
      <g>
       <use xlink:href="#m7669db93cc" x="34.491907" y="370.609447" style="stroke: #000000; stroke-width: 2.025"/>
      </g>
     </g>
    </g>
    <g id="xtick_9">
     <g id="line2d_9">
      <g>
       <use xlink:href="#m7669db93cc" x="63.405247" y="370.609447" style="stroke: #000000; stroke-width: 2.025"/>
      </g>
     </g>
    </g>
    <g id="xtick_10">
     <g id="line2d_10">
      <g>
       <use xlink:href="#m7669db93cc" x="77.861916" y="370.609447" style="stroke: #000000; stroke-width: 2.025"/>
      </g>
     </g>
    </g>
    <g id="xtick_11">
     <g id="line2d_11">
      <g>
       <use xlink:href="#m7669db93cc" x="92.318586" y="370.609447" style="stroke: #000000; stroke-width: 2.025"/>
      </g>
     </g>
    </g>
    <g id="xtick_12">
     <g id="line2d_12">
      <g>
       <use xlink:href="#m7669db93cc" x="106.775256" y="370.609447" style="stroke: #000000; stroke-width: 2.025"/>
      </g>
     </g>
    </g>
    <g id="xtick_13">
     <g id="line2d_13">
      <g>
       <use xlink:href="#m7669db93cc" x="135.688595" y="370.609447" style="stroke: #000000; stroke-width: 2.025"/>
      </g>
     </g>
    </g>
    <g id="xtick_14">
     <g id="line2d_14">
      <g>
       <use xlink:href="#m7669db93cc" x="150.145265" y="370.609447" style="stroke: #000000; stroke-width: 2.025"/>
      </g>
     </g>
    </g>
    <g id="xtick_15">
     <g id="line2d_15">
      <g>
       <use xlink:href="#m7669db93cc" x="164.601934" y="370.609447" style="stroke: #000000; stroke-width: 2.025"/>
      </g>
     </g>
    </g>
    <g id="xtick_16">
     <g id="line2d_16">
      <g>
       <use xlink:href="#m7669db93cc" x="179.058604" y="370.609447" style="stroke: #000000; stroke-width: 2.025"/>
      </g>
     </g>
    </g>
    <g id="xtick_17">
     <g id="line2d_17">
      <g>
       <use xlink:href="#m7669db93cc" x="207.971943" y="370.609447" style="stroke: #000000; stroke-width: 2.025"/>
      </g>
     </g>
    </g>
    <g id="xtick_18">
     <g id="line2d_18">
      <g>
       <use xlink:href="#m7669db93cc" x="222.428613" y="370.609447" style="stroke: #000000; stroke-width: 2.025"/>
      </g>
     </g>
    </g>
    <g id="xtick_19">
     <g id="line2d_19">
      <g>
       <use xlink:href="#m7669db93cc" x="236.885282" y="370.609447" style="stroke: #000000; stroke-width: 2.025"/>
      </g>
     </g>
    </g>
    <g id="xtick_20">
     <g id="line2d_20">
      <g>
       <use xlink:href="#m7669db93cc" x="251.341952" y="370.609447" style="stroke: #000000; stroke-width: 2.025"/>
      </g>
     </g>
    </g>
    <g id="xtick_21">
     <g id="line2d_21">
      <g>
       <use xlink:href="#m7669db93cc" x="280.255291" y="370.609447" style="stroke: #000000; stroke-width: 2.025"/>
      </g>
     </g>
    </g>
    <g id="xtick_22">
     <g id="line2d_22">
      <g>
       <use xlink:href="#m7669db93cc" x="294.711961" y="370.609447" style="stroke: #000000; stroke-width: 2.025"/>
      </g>
     </g>
    </g>
    <g id="xtick_23">
     <g id="line2d_23">
      <g>
       <use xlink:href="#m7669db93cc" x="309.168631" y="370.609447" style="stroke: #000000; stroke-width: 2.025"/>
      </g>
     </g>
    </g>
    <g id="xtick_24">
     <g id="line2d_24">
      <g>
       <use xlink:href="#m7669db93cc" x="323.6253" y="370.609447" style="stroke: #000000; stroke-width: 2.025"/>
      </g>
     </g>
    </g>
    <g id="xtick_25">
     <g id="line2d_25">
      <g>
       <use xlink:href="#m7669db93cc" x="352.538639" y="370.609447" style="stroke: #000000; stroke-width: 2.025"/>
      </g>
     </g>
    </g>
    <g id="xtick_26">
     <g id="line2d_26">
      <g>
       <use xlink:href="#m7669db93cc" x="366.995309" y="370.609447" style="stroke: #000000; stroke-width: 2.025"/>
      </g>
     </g>
    </g>
    <g id="xtick_27">
     <g id="line2d_27">
      <g>
       <use xlink:href="#m7669db93cc" x="381.451979" y="370.609447" style="stroke: #000000; stroke-width: 2.025"/>
      </g>
     </g>
    </g>
    <g id="xtick_28">
     <g id="line2d_28">
      <g>
       <use xlink:href="#m7669db93cc" x="395.908648" y="370.609447" style="stroke: #000000; stroke-width: 2.025"/>
      </g>
     </g>
    </g>
    <g id="xtick_29">
     <g id="line2d_29">
      <g>
       <use xlink:href="#m7669db93cc" x="424.821988" y="370.609447" style="stroke: #000000; stroke-width: 2.025"/>
      </g>
     </g>
    </g>
    <g id="xtick_30">
     <g id="line2d_30">
      <g>
       <use xlink:href="#m7669db93cc" x="439.278657" y="370.609447" style="stroke: #000000; stroke-width: 2.025"/>
      </g>
     </g>
    </g>
    <g id="xtick_31">
     <g id="line2d_31">
      <g>
       <use xlink:href="#m7669db93cc" x="453.735327" y="370.609447" style="stroke: #000000; stroke-width: 2.025"/>
      </g>
     </g>
    </g>
    <g id="xtick_32">
     <g id="line2d_32">
      <g>
       <use xlink:href="#m7669db93cc" x="468.191997" y="370.609447" style="stroke: #000000; stroke-width: 2.025"/>
      </g>
     </g>
    </g>
    <g id="text_8">
     <!-- Emission Energy (eV) -->
     <g transform="translate(150.398359 424.369447)scale(0.22 -0.22)">
      <defs>
       <path id="ArialMT-45" d="M 506 0 
L 506 4581 
L 3819 4581 
L 3819 4041 
L 1113 4041 
L 1113 2638 
L 3647 2638 
L 3647 2100 
L 1113 2100 
L 1113 541 
L 3925 541 
L 3925 0 
L 506 0 
z
" transform="scale(0.015625)"/>
       <path id="ArialMT-6d" d="M 422 0 
L 422 3319 
L 925 3319 
L 925 2853 
Q 1081 3097 1340 3245 
Q 1600 3394 1931 3394 
Q 2300 3394 2536 3241 
Q 2772 3088 2869 2813 
Q 3263 3394 3894 3394 
Q 4388 3394 4653 3120 
Q 4919 2847 4919 2278 
L 4919 0 
L 4359 0 
L 4359 2091 
Q 4359 2428 4304 2576 
Q 4250 2725 4106 2815 
Q 3963 2906 3769 2906 
Q 3419 2906 3187 2673 
Q 2956 2441 2956 1928 
L 2956 0 
L 2394 0 
L 2394 2156 
Q 2394 2531 2256 2718 
Q 2119 2906 1806 2906 
Q 1569 2906 1367 2781 
Q 1166 2656 1075 2415 
Q 984 2175 984 1722 
L 984 0 
L 422 0 
z
" transform="scale(0.015625)"/>
       <path id="ArialMT-69" d="M 425 3934 
L 425 4581 
L 988 4581 
L 988 3934 
L 425 3934 
z
M 425 0 
L 425 3319 
L 988 3319 
L 988 0 
L 425 0 
z
" transform="scale(0.015625)"/>
       <path id="ArialMT-73" d="M 197 991 
L 753 1078 
Q 800 744 1014 566 
Q 1228 388 1613 388 
Q 2000 388 2187 545 
Q 2375 703 2375 916 
Q 2375 1106 2209 1216 
Q 2094 1291 1634 1406 
Q 1016 1563 777 1677 
Q 538 1791 414 1992 
Q 291 2194 291 2438 
Q 291 2659 392 2848 
Q 494 3038 669 3163 
Q 800 3259 1026 3326 
Q 1253 3394 1513 3394 
Q 1903 3394 2198 3281 
Q 2494 3169 2634 2976 
Q 2775 2784 2828 2463 
L 2278 2388 
Q 2241 2644 2061 2787 
Q 1881 2931 1553 2931 
Q 1166 2931 1000 2803 
Q 834 2675 834 2503 
Q 834 2394 903 2306 
Q 972 2216 1119 2156 
Q 1203 2125 1616 2013 
Q 2213 1853 2448 1751 
Q 2684 1650 2818 1456 
Q 2953 1263 2953 975 
Q 2953 694 2789 445 
Q 2625 197 2315 61 
Q 2006 -75 1616 -75 
Q 969 -75 630 194 
Q 291 463 197 991 
z
" transform="scale(0.015625)"/>
       <path id="ArialMT-6f" d="M 213 1659 
Q 213 2581 725 3025 
Q 1153 3394 1769 3394 
Q 2453 3394 2887 2945 
Q 3322 2497 3322 1706 
Q 3322 1066 3130 698 
Q 2938 331 2570 128 
Q 2203 -75 1769 -75 
Q 1072 -75 642 372 
Q 213 819 213 1659 
z
M 791 1659 
Q 791 1022 1069 705 
Q 1347 388 1769 388 
Q 2188 388 2466 706 
Q 2744 1025 2744 1678 
Q 2744 2294 2464 2611 
Q 2184 2928 1769 2928 
Q 1347 2928 1069 2612 
Q 791 2297 791 1659 
z
" transform="scale(0.015625)"/>
       <path id="ArialMT-6e" d="M 422 0 
L 422 3319 
L 928 3319 
L 928 2847 
Q 1294 3394 1984 3394 
Q 2284 3394 2536 3286 
Q 2788 3178 2913 3003 
Q 3038 2828 3088 2588 
Q 3119 2431 3119 2041 
L 3119 0 
L 2556 0 
L 2556 2019 
Q 2556 2363 2490 2533 
Q 2425 2703 2258 2804 
Q 2091 2906 1866 2906 
Q 1506 2906 1245 2678 
Q 984 2450 984 1813 
L 984 0 
L 422 0 
z
" transform="scale(0.015625)"/>
       <path id="ArialMT-20" transform="scale(0.015625)"/>
       <path id="ArialMT-65" d="M 2694 1069 
L 3275 997 
Q 3138 488 2766 206 
Q 2394 -75 1816 -75 
Q 1088 -75 661 373 
Q 234 822 234 1631 
Q 234 2469 665 2931 
Q 1097 3394 1784 3394 
Q 2450 3394 2872 2941 
Q 3294 2488 3294 1666 
Q 3294 1616 3291 1516 
L 816 1516 
Q 847 969 1125 678 
Q 1403 388 1819 388 
Q 2128 388 2347 550 
Q 2566 713 2694 1069 
z
M 847 1978 
L 2700 1978 
Q 2663 2397 2488 2606 
Q 2219 2931 1791 2931 
Q 1403 2931 1139 2672 
Q 875 2413 847 1978 
z
" transform="scale(0.015625)"/>
       <path id="ArialMT-72" d="M 416 0 
L 416 3319 
L 922 3319 
L 922 2816 
Q 1116 3169 1280 3281 
Q 1444 3394 1641 3394 
Q 1925 3394 2219 3213 
L 2025 2691 
Q 1819 2813 1613 2813 
Q 1428 2813 1281 2702 
Q 1134 2591 1072 2394 
Q 978 2094 978 1738 
L 978 0 
L 416 0 
z
" transform="scale(0.015625)"/>
       <path id="ArialMT-67" d="M 319 -275 
L 866 -356 
Q 900 -609 1056 -725 
Q 1266 -881 1628 -881 
Q 2019 -881 2231 -725 
Q 2444 -569 2519 -288 
Q 2563 -116 2559 434 
Q 2191 0 1641 0 
Q 956 0 581 494 
Q 206 988 206 1678 
Q 206 2153 378 2554 
Q 550 2956 876 3175 
Q 1203 3394 1644 3394 
Q 2231 3394 2613 2919 
L 2613 3319 
L 3131 3319 
L 3131 450 
Q 3131 -325 2973 -648 
Q 2816 -972 2473 -1159 
Q 2131 -1347 1631 -1347 
Q 1038 -1347 672 -1080 
Q 306 -813 319 -275 
z
M 784 1719 
Q 784 1066 1043 766 
Q 1303 466 1694 466 
Q 2081 466 2343 764 
Q 2606 1063 2606 1700 
Q 2606 2309 2336 2618 
Q 2066 2928 1684 2928 
Q 1309 2928 1046 2623 
Q 784 2319 784 1719 
z
" transform="scale(0.015625)"/>
       <path id="ArialMT-79" d="M 397 -1278 
L 334 -750 
Q 519 -800 656 -800 
Q 844 -800 956 -737 
Q 1069 -675 1141 -563 
Q 1194 -478 1313 -144 
Q 1328 -97 1363 -6 
L 103 3319 
L 709 3319 
L 1400 1397 
Q 1534 1031 1641 628 
Q 1738 1016 1872 1384 
L 2581 3319 
L 3144 3319 
L 1881 -56 
Q 1678 -603 1566 -809 
Q 1416 -1088 1222 -1217 
Q 1028 -1347 759 -1347 
Q 597 -1347 397 -1278 
z
" transform="scale(0.015625)"/>
       <path id="ArialMT-28" d="M 1497 -1347 
Q 1031 -759 709 28 
Q 388 816 388 1659 
Q 388 2403 628 3084 
Q 909 3875 1497 4659 
L 1900 4659 
Q 1522 4009 1400 3731 
Q 1209 3300 1100 2831 
Q 966 2247 966 1656 
Q 966 153 1900 -1347 
L 1497 -1347 
z
" transform="scale(0.015625)"/>
       <path id="ArialMT-56" d="M 1803 0 
L 28 4581 
L 684 4581 
L 1875 1253 
Q 2019 853 2116 503 
Q 2222 878 2363 1253 
L 3600 4581 
L 4219 4581 
L 2425 0 
L 1803 0 
z
" transform="scale(0.015625)"/>
       <path id="ArialMT-29" d="M 791 -1347 
L 388 -1347 
Q 1322 153 1322 1656 
Q 1322 2244 1188 2822 
Q 1081 3291 891 3722 
Q 769 4003 388 4659 
L 791 4659 
Q 1378 3875 1659 3084 
Q 1900 2403 1900 1659 
Q 1900 816 1576 28 
Q 1253 -759 791 -1347 
z
" transform="scale(0.015625)"/>
      </defs>
      <use xlink:href="#ArialMT-45"/>
      <use xlink:href="#ArialMT-6d" x="66.699219"/>
      <use xlink:href="#ArialMT-69" x="150"/>
      <use xlink:href="#ArialMT-73" x="172.216797"/>
      <use xlink:href="#ArialMT-73" x="222.216797"/>
      <use xlink:href="#ArialMT-69" x="272.216797"/>
      <use xlink:href="#ArialMT-6f" x="294.433594"/>
      <use xlink:href="#ArialMT-6e" x="350.048828"/>
      <use xlink:href="#ArialMT-20" x="405.664062"/>
      <use xlink:href="#ArialMT-45" x="433.447266"/>
      <use xlink:href="#ArialMT-6e" x="500.146484"/>
      <use xlink:href="#ArialMT-65" x="555.761719"/>
      <use xlink:href="#ArialMT-72" x="611.376953"/>
      <use xlink:href="#ArialMT-67" x="644.677734"/>
      <use xlink:href="#ArialMT-79" x="700.292969"/>
      <use xlink:href="#ArialMT-20" x="750.292969"/>
      <use xlink:href="#ArialMT-28" x="778.076172"/>
      <use xlink:href="#ArialMT-65" x="811.376953"/>
      <use xlink:href="#ArialMT-56" x="866.992188"/>
      <use xlink:href="#ArialMT-29" x="933.691406"/>
     </g>
    </g>
   </g>
   <g id="matplotlib.axis_2">
    <g id="text_9">
     <!-- Normalized Intensity -->
     <g transform="translate(18.747428 286.449375)rotate(-90)scale(0.22 -0.22)">
      <defs>
       <path id="ArialMT-4e" d="M 488 0 
L 488 4581 
L 1109 4581 
L 3516 984 
L 3516 4581 
L 4097 4581 
L 4097 0 
L 3475 0 
L 1069 3600 
L 1069 0 
L 488 0 
z
" transform="scale(0.015625)"/>
       <path id="ArialMT-61" d="M 2588 409 
Q 2275 144 1986 34 
Q 1697 -75 1366 -75 
Q 819 -75 525 192 
Q 231 459 231 875 
Q 231 1119 342 1320 
Q 453 1522 633 1644 
Q 813 1766 1038 1828 
Q 1203 1872 1538 1913 
Q 2219 1994 2541 2106 
Q 2544 2222 2544 2253 
Q 2544 2597 2384 2738 
Q 2169 2928 1744 2928 
Q 1347 2928 1158 2789 
Q 969 2650 878 2297 
L 328 2372 
Q 403 2725 575 2942 
Q 747 3159 1072 3276 
Q 1397 3394 1825 3394 
Q 2250 3394 2515 3294 
Q 2781 3194 2906 3042 
Q 3031 2891 3081 2659 
Q 3109 2516 3109 2141 
L 3109 1391 
Q 3109 606 3145 398 
Q 3181 191 3288 0 
L 2700 0 
Q 2613 175 2588 409 
z
M 2541 1666 
Q 2234 1541 1622 1453 
Q 1275 1403 1131 1340 
Q 988 1278 909 1158 
Q 831 1038 831 891 
Q 831 666 1001 516 
Q 1172 366 1500 366 
Q 1825 366 2078 508 
Q 2331 650 2450 897 
Q 2541 1088 2541 1459 
L 2541 1666 
z
" transform="scale(0.015625)"/>
       <path id="ArialMT-6c" d="M 409 0 
L 409 4581 
L 972 4581 
L 972 0 
L 409 0 
z
" transform="scale(0.015625)"/>
       <path id="ArialMT-7a" d="M 125 0 
L 125 456 
L 2238 2881 
Q 1878 2863 1603 2863 
L 250 2863 
L 250 3319 
L 2963 3319 
L 2963 2947 
L 1166 841 
L 819 456 
Q 1197 484 1528 484 
L 3063 484 
L 3063 0 
L 125 0 
z
" transform="scale(0.015625)"/>
       <path id="ArialMT-64" d="M 2575 0 
L 2575 419 
Q 2259 -75 1647 -75 
Q 1250 -75 917 144 
Q 584 363 401 755 
Q 219 1147 219 1656 
Q 219 2153 384 2558 
Q 550 2963 881 3178 
Q 1213 3394 1622 3394 
Q 1922 3394 2156 3267 
Q 2391 3141 2538 2938 
L 2538 4581 
L 3097 4581 
L 3097 0 
L 2575 0 
z
M 797 1656 
Q 797 1019 1065 703 
Q 1334 388 1700 388 
Q 2069 388 2326 689 
Q 2584 991 2584 1609 
Q 2584 2291 2321 2609 
Q 2059 2928 1675 2928 
Q 1300 2928 1048 2622 
Q 797 2316 797 1656 
z
" transform="scale(0.015625)"/>
       <path id="ArialMT-49" d="M 597 0 
L 597 4581 
L 1203 4581 
L 1203 0 
L 597 0 
z
" transform="scale(0.015625)"/>
       <path id="ArialMT-74" d="M 1650 503 
L 1731 6 
Q 1494 -44 1306 -44 
Q 1000 -44 831 53 
Q 663 150 594 308 
Q 525 466 525 972 
L 525 2881 
L 113 2881 
L 113 3319 
L 525 3319 
L 525 4141 
L 1084 4478 
L 1084 3319 
L 1650 3319 
L 1650 2881 
L 1084 2881 
L 1084 941 
Q 1084 700 1114 631 
Q 1144 563 1211 522 
Q 1278 481 1403 481 
Q 1497 481 1650 503 
z
" transform="scale(0.015625)"/>
      </defs>
      <use xlink:href="#ArialMT-4e"/>
      <use xlink:href="#ArialMT-6f" x="72.216797"/>
      <use xlink:href="#ArialMT-72" x="127.832031"/>
      <use xlink:href="#ArialMT-6d" x="161.132812"/>
      <use xlink:href="#ArialMT-61" x="244.433594"/>
      <use xlink:href="#ArialMT-6c" x="300.048828"/>
      <use xlink:href="#ArialMT-69" x="322.265625"/>
      <use xlink:href="#ArialMT-7a" x="344.482422"/>
      <use xlink:href="#ArialMT-65" x="394.482422"/>
      <use xlink:href="#ArialMT-64" x="450.097656"/>
      <use xlink:href="#ArialMT-20" x="505.712891"/>
      <use xlink:href="#ArialMT-49" x="533.496094"/>
      <use xlink:href="#ArialMT-6e" x="561.279297"/>
      <use xlink:href="#ArialMT-74" x="616.894531"/>
      <use xlink:href="#ArialMT-65" x="644.677734"/>
      <use xlink:href="#ArialMT-6e" x="700.292969"/>
      <use xlink:href="#ArialMT-73" x="755.908203"/>
      <use xlink:href="#ArialMT-69" x="805.908203"/>
      <use xlink:href="#ArialMT-74" x="828.125"/>
      <use xlink:href="#ArialMT-79" x="855.908203"/>
     </g>
    </g>
   </g>
   <g id="line2d_33">
    <path d="M 29.687884 352.136595 
L 31.284045 348.9705 
L 32.881579 347.636129 
L 34.479981 346.494957 
L 36.07925 345.090095 
L 37.679458 344.51259 
L 39.280968 345.253791 
L 42.48659 348.16664 
L 44.090702 348.412837 
L 45.696188 349.732326 
L 47.302974 348.136616 
L 48.910195 346.182185 
L 50.518716 344.729285 
L 52.128177 344.250206 
L 53.738939 339.817621 
L 55.350135 337.934986 
L 56.962632 334.167889 
L 58.576502 333.132975 
L 60.19124 332.5868 
L 61.806845 335.679532 
L 63.423318 338.005738 
L 65.041163 341.673365 
L 66.659877 346.299409 
L 68.279891 350.199395 
L 69.900339 349.24176 
L 71.522088 349.953198 
L 73.145211 348.462703 
L 74.769201 347.419173 
L 76.394131 345.627133 
L 79.646954 345.165808 
L 81.275353 345.119597 
L 82.904186 348.231649 
L 84.534392 348.215462 
L 86.165827 348.479412 
L 87.797769 347.837682 
L 89.431011 347.392804 
L 91.065626 346.473026 
L 92.701109 345.909097 
L 94.33746 344.307905 
L 95.974678 342.54641 
L 97.613197 343.412407 
L 99.253089 345.848527 
L 100.893415 345.207319 
L 102.535476 346.096029 
L 104.178043 345.491633 
L 105.821838 343.941612 
L 107.466574 343.335911 
L 109.11261 343.418933 
L 112.407863 340.78361 
L 115.70702 346.785537 
L 117.357899 343.689149 
L 119.010586 341.495048 
L 120.663706 333.457757 
L 122.318127 326.840991 
L 123.973416 326.412562 
L 125.630078 322.676011 
L 127.287607 320.929137 
L 128.946438 320.573026 
L 132.267207 325.036941 
L 133.929146 328.458632 
L 135.591952 331.340674 
L 137.256132 321.490455 
L 138.921106 319.421672 
L 140.587454 317.587597 
L 142.254742 308.581444 
L 143.922825 296.007919 
L 145.592281 286.269964 
L 147.263038 281.935022 
L 148.934663 279.61952 
L 150.607155 287.641669 
L 152.281021 288.007701 
L 153.955754 277.517318 
L 155.631788 270.395106 
L 157.308761 265.817622 
L 158.987036 258.64711 
L 162.346621 211.054907 
L 164.027932 200.459833 
L 165.710616 199.224672 
L 167.394168 213.898571 
L 169.078586 216.215379 
L 170.764379 209.127367 
L 172.451472 207.972096 
L 174.139433 209.40646 
L 175.828261 193.425081 
L 177.518463 167.753003 
L 179.209965 148.479428 
L 180.902335 137.684629 
L 182.595573 135.278793 
L 189.380521 188.330662 
L 191.079469 190.66914 
L 192.77979 190.281439 
L 194.481051 201.529209 
L 196.183541 214.228574 
L 197.88697 211.475243 
L 199.591267 215.41674 
L 203.003764 245.877776 
L 204.712036 257.507503 
L 206.420742 251.004568 
L 208.131183 241.67024 
L 209.842564 240.449177 
L 211.554812 238.208343 
L 213.268361 231.485319 
L 214.982777 221.566959 
L 216.698567 221.852317 
L 218.415586 221.856495 
L 220.133616 224.532285 
L 221.852876 239.005676 
L 223.573075 243.337485 
L 225.294503 253.168645 
L 227.016943 262.100913 
L 228.740612 269.384472 
L 230.465654 267.545959 
L 232.191563 268.207009 
L 233.918774 274.586455 
L 235.646852 272.596778 
L 237.376303 273.017636 
L 239.106622 277.955669 
L 240.838748 279.8665 
L 242.571235 286.265265 
L 244.305096 289.494541 
L 246.040258 293.557701 
L 247.77672 289.734994 
L 249.514123 294.496016 
L 251.252393 300.6525 
L 252.991964 302.825715 
L 254.732908 302.898556 
L 256.475082 296.813084 
L 258.218195 298.481113 
L 259.962247 304.690074 
L 261.707962 307.232192 
L 263.454617 307.910996 
L 265.202139 305.110671 
L 266.950963 306.404313 
L 268.701159 311.317022 
L 270.452224 317.974515 
L 272.205023 309.143024 
L 273.958327 296.184147 
L 275.713295 290.853975 
L 277.468768 287.659422 
L 279.225976 292.319929 
L 280.984124 291.963818 
L 282.743573 292.205316 
L 284.504323 291.078763 
L 286.265941 301.791584 
L 288.028932 310.928537 
L 289.79279 300.828989 
L 291.558383 295.621524 
L 293.32441 296.523549 
L 295.092244 300.077345 
L 296.860945 313.823633 
L 298.63102 314.108469 
L 300.402323 315.272095 
L 302.174566 311.98251 
L 303.94811 318.427225 
L 305.722522 322.492212 
L 307.498307 317.999057 
L 309.275393 319.962364 
L 311.05378 326.58148 
L 312.833107 329.843129 
L 314.613735 334.180421 
L 316.395664 322.750157 
L 318.178894 316.855012 
L 319.963064 309.060262 
L 321.748535 304.473118 
L 323.534874 302.919442 
L 325.322947 305.376449 
L 327.11196 314.851237 
L 328.90184 319.958187 
L 330.693455 323.860262 
L 332.48601 330.342311 
L 334.279866 331.827323 
L 336.074589 335.652641 
L 337.871119 334.828417 
L 339.668445 330.603128 
L 341.467144 328.742424 
L 343.266782 330.95715 
L 345.068083 335.142755 
L 346.870324 332.845006 
L 348.673432 336.022589 
L 350.478347 338.838578 
L 352.284058 341.155386 
L 354.091141 342.903043 
L 355.899598 343.750503 
L 357.709284 342.164192 
L 359.51991 342.389241 
L 361.331837 343.450785 
L 363.145137 340.514961 
L 364.959665 338.80046 
L 366.775134 337.261927 
L 368.59241 332.644237 
L 370.41048 330.98874 
L 372.229491 331.799388 
L 375.871921 340.188613 
L 377.695341 343.664347 
L 379.519122 345.580661 
L 381.344783 343.992783 
L 383.171744 343.926992 
L 384.999501 344.33584 
L 386.828703 341.721142 
L 388.659135 339.87793 
L 390.490939 339.081903 
L 392.324045 340.94809 
L 394.158018 339.465427 
L 395.993798 339.301208 
L 397.830446 340.503473 
L 401.507283 344.180237 
L 403.347834 345.290864 
L 405.189397 343.951272 
L 407.032622 344.463246 
L 408.876787 345.263451 
L 410.722253 345.255618 
L 412.56902 344.313648 
L 414.416727 344.912823 
L 416.266169 346.378516 
L 418.116478 345.788479 
L 419.968089 345.594237 
L 421.821506 347.567988 
L 423.675791 353.751886 
L 425.530943 331.553452 
L 427.387902 312.306508 
L 429.246162 298.356579 
L 431.10529 290.2112 
L 432.965791 289.913832 
L 434.828027 295.001202 
L 436.69113 302.784203 
L 438.555535 318.883067 
L 440.421312 339.432792 
L 442.287958 354.606917 
L 444.156338 342.969879 
L 446.026091 343.226258 
L 447.896712 340.959838 
L 449.769067 338.966767 
L 451.642363 340.904751 
L 453.516959 340.77134 
L 455.392856 338.705167 
L 457.270055 339.159182 
L 461.0285 341.574677 
L 462.909746 341.292191 
L 464.792222 340.135353 
L 466.67607 337.755887 
L 468.560859 336.583385 
L 470.447309 337.843087 
L 472.3347 336.631684 
L 474.223825 337.060897 
L 476.11389 338.176223 
L 478.00569 339.783159 
L 479.898357 341.106042 
L 481.792325 341.790328 
L 483.688101 342.743002 
L 483.688101 342.743002 
" clip-path="url(#p1ffc27ad1f)" style="fill: none; stroke: #000000; stroke-width: 3; stroke-linecap: square"/>
   </g>
   <g id="line2d_34">
    <path d="M 29.687884 350.309632 
L 31.284045 348.36558 
L 32.881579 348.314163 
L 34.479981 348.060878 
L 36.07925 347.975849 
L 37.679458 347.675149 
L 39.280968 348.521632 
L 40.883346 349.072817 
L 42.48659 347.38205 
L 44.090702 344.710955 
L 45.696188 343.406118 
L 47.302974 343.349899 
L 48.910195 345.175111 
L 50.518716 345.7391 
L 52.128177 347.116161 
L 53.738939 350.278021 
L 55.350135 351.555649 
L 56.962632 351.380591 
L 60.19124 344.584713 
L 61.806845 343.726225 
L 63.423318 343.052599 
L 65.041163 343.838863 
L 66.659877 343.601983 
L 68.279891 342.358366 
L 69.900339 341.672136 
L 71.522088 340.187439 
L 73.145211 342.423788 
L 74.769201 340.472934 
L 76.394131 338.25319 
L 78.019855 338.360026 
L 79.646954 339.456594 
L 81.275353 342.831925 
L 82.904186 345.749903 
L 84.534392 343.614387 
L 86.165827 343.108818 
L 87.797769 345.182313 
L 89.431011 348.290155 
L 91.065626 346.945904 
L 92.701109 346.744437 
L 94.33746 345.916759 
L 95.974678 346.928498 
L 97.613197 348.18772 
L 99.253089 349.20006 
L 100.893415 346.954707 
L 102.535476 347.720364 
L 104.178043 350.405864 
L 105.821838 350.974655 
L 109.11261 341.492076 
L 110.759586 336.749286 
L 112.407863 335.382828 
L 114.056502 336.094267 
L 115.70702 333.737877 
L 117.357899 335.125942 
L 119.010586 341.531289 
L 120.663706 341.961433 
L 122.318127 337.0874 
L 123.973416 328.434899 
L 125.630078 321.925317 
L 127.287607 319.381465 
L 128.946438 322.061763 
L 130.606208 323.600879 
L 132.267207 319.407473 
L 133.929146 317.854553 
L 135.591952 314.305163 
L 137.256132 307.58431 
L 138.921106 303.611378 
L 140.587454 301.308807 
L 142.254742 297.211633 
L 143.922825 296.017233 
L 145.592281 294.467513 
L 147.263038 289.330592 
L 148.934663 285.730785 
L 150.607155 273.628128 
L 152.281021 266.927682 
L 153.955754 261.596095 
L 155.631788 252.524454 
L 157.308761 239.867812 
L 158.987036 228.821509 
L 160.666178 215.704912 
L 162.346621 197.363764 
L 164.027932 185.381948 
L 165.710616 181.941995 
L 167.394168 178.899575 
L 169.078586 185.735867 
L 170.764379 188.538406 
L 172.451472 193.043716 
L 174.139433 186.626165 
L 175.828261 174.903236 
L 177.518463 164.656201 
L 179.209965 158.952889 
L 180.902335 165.023924 
L 184.290111 199.713552 
L 185.986023 202.801587 
L 187.682875 200.054666 
L 189.380521 199.35083 
L 191.079469 186.832634 
L 192.77979 180.932657 
L 194.481051 183.830228 
L 196.183541 193.582897 
L 199.591267 229.169026 
L 201.297299 225.040041 
L 204.712036 193.389632 
L 206.420742 189.86365 
L 208.131183 193.357421 
L 211.554812 235.779241 
L 214.982777 279.796396 
L 216.698567 289.343196 
L 218.415586 287.986541 
L 220.133616 286.893375 
L 221.852876 277.260146 
L 223.573075 274.339166 
L 225.294503 273.863807 
L 227.016943 281.069823 
L 228.740612 289.361202 
L 230.465654 292.141334 
L 232.191563 291.491516 
L 233.918774 286.63989 
L 235.646852 287.398144 
L 237.376303 289.775541 
L 239.106622 285.281234 
L 240.838748 278.430538 
L 242.571235 278.688424 
L 244.305096 283.981198 
L 246.040258 295.668916 
L 247.77672 302.731083 
L 249.514123 308.192314 
L 251.252393 311.886152 
L 252.991964 314.080488 
L 254.732908 319.412075 
L 256.475082 315.588393 
L 258.218195 300.087797 
L 259.962247 293.260109 
L 261.707962 292.510257 
L 263.454617 295.723735 
L 265.202139 296.461982 
L 266.950963 299.555419 
L 268.701159 301.301804 
L 272.205023 307.811386 
L 273.958327 301.744553 
L 275.713295 291.08458 
L 277.468768 283.41861 
L 279.225976 281.802068 
L 280.984124 284.072429 
L 282.743573 277.146107 
L 284.504323 272.915489 
L 286.265941 278.422135 
L 288.028932 289.968806 
L 289.79279 298.807168 
L 291.558383 296.701862 
L 293.32441 299.029643 
L 295.092244 303.01998 
L 296.860945 304.495075 
L 298.63102 306.358899 
L 300.402323 298.209368 
L 302.174566 294.351074 
L 303.94811 297.683592 
L 305.722522 304.192373 
L 307.498307 307.069138 
L 309.275393 306.60058 
L 311.05378 314.604663 
L 312.833107 314.440608 
L 314.613735 309.745835 
L 316.395664 311.112093 
L 318.178894 314.805331 
L 319.963064 311.894955 
L 321.748535 311.080482 
L 323.534874 311.046671 
L 325.322947 310.459874 
L 327.11196 316.784194 
L 328.90184 323.748328 
L 330.693455 324.735459 
L 332.48601 329.30079 
L 334.279866 336.807506 
L 336.074589 339.542423 
L 337.871119 339.012445 
L 339.668445 339.490205 
L 341.467144 338.04292 
L 343.266782 337.752222 
L 345.068083 340.095208 
L 346.870324 343.278675 
L 348.673432 347.313627 
L 350.478347 349.563382 
L 352.284058 350.893828 
L 354.091141 348.526034 
L 355.899598 347.413061 
L 357.709284 343.934495 
L 359.51991 341.216984 
L 361.331837 338.825582 
L 363.145137 338.415845 
L 364.959665 338.741954 
L 366.775134 340.267266 
L 368.59241 340.675402 
L 370.41048 342.432991 
L 374.050236 343.000782 
L 375.871921 342.72589 
L 377.695341 341.821787 
L 379.519122 341.961433 
L 381.344783 342.841128 
L 383.171744 344.550501 
L 384.999501 347.006324 
L 386.828703 345.47061 
L 388.659135 345.086281 
L 390.490939 344.255002 
L 392.324045 345.05347 
L 394.158018 344.380644 
L 397.830446 344.102951 
L 399.668394 344.57591 
L 403.347834 347.424265 
L 405.189397 346.729832 
L 407.032622 346.943703 
L 408.876787 346.192452 
L 412.56902 343.484144 
L 414.416727 341.496077 
L 416.266169 340.272267 
L 418.116478 340.993309 
L 419.968089 342.096479 
L 421.821506 343.332893 
L 423.675791 344.951636 
L 425.530943 348.107494 
L 427.387902 346.327497 
L 429.246162 345.278545 
L 431.10529 344.472075 
L 432.965791 342.48761 
L 434.828027 339.873934 
L 436.69113 338.692738 
L 438.555535 338.023914 
L 440.421312 337.663393 
L 442.287958 337.645187 
L 444.156338 340.892075 
L 446.026091 340.861665 
L 447.896712 342.073071 
L 449.769067 342.183508 
L 451.642363 343.099415 
L 453.516959 342.270337 
L 457.270055 342.200113 
L 459.148627 341.631723 
L 461.0285 341.316417 
L 462.909746 342.537026 
L 464.792222 343.247064 
L 466.67607 341.636524 
L 470.447309 342.523822 
L 472.3347 341.838592 
L 474.223825 341.417851 
L 476.11389 340.680804 
L 478.00569 339.452792 
L 479.898357 339.478201 
L 483.688101 342.387976 
L 483.688101 342.387976 
" clip-path="url(#p1ffc27ad1f)" style="fill: none; stroke: #0000ff; stroke-width: 3; stroke-linecap: square"/>
   </g>
   <g id="patch_3">
    <path d="M 30.87774 370.609447 
L 30.87774 3.00024 
" style="fill: none; stroke: #000000; stroke-width: 2.25; stroke-linejoin: miter; stroke-linecap: square"/>
   </g>
   <g id="patch_4">
    <path d="M 482.648666 370.609447 
L 482.648666 3.00024 
" style="fill: none; stroke: #000000; stroke-width: 2.25; stroke-linejoin: miter; stroke-linecap: square"/>
   </g>
   <g id="patch_5">
    <path d="M 30.87774 370.609447 
L 482.648666 370.609447 
" style="fill: none; stroke: #000000; stroke-width: 2.25; stroke-linejoin: miter; stroke-linecap: square"/>
   </g>
   <g id="patch_6">
    <path d="M 30.87774 3.00024 
L 482.648666 3.00024 
" style="fill: none; stroke: #000000; stroke-width: 2.25; stroke-linejoin: miter; stroke-linecap: square"/>
   </g>
   <g id="legend_1">
    <g id="line2d_35">
     <path d="M 211.773666 30.847428 
L 233.773666 30.847428 
L 255.773666 30.847428 
" style="fill: none; stroke: #000000; stroke-width: 3; stroke-linecap: square"/>
    </g>
    <g id="text_10">
     <!-- FePCN-224Ac -->
     <g transform="translate(273.373666 38.547428)scale(0.22 -0.22)">
      <defs>
       <path id="ArialMT-46" d="M 525 0 
L 525 4581 
L 3616 4581 
L 3616 4041 
L 1131 4041 
L 1131 2622 
L 3281 2622 
L 3281 2081 
L 1131 2081 
L 1131 0 
L 525 0 
z
" transform="scale(0.015625)"/>
       <path id="ArialMT-50" d="M 494 0 
L 494 4581 
L 2222 4581 
Q 2678 4581 2919 4538 
Q 3256 4481 3484 4323 
Q 3713 4166 3852 3881 
Q 3991 3597 3991 3256 
Q 3991 2672 3619 2267 
Q 3247 1863 2275 1863 
L 1100 1863 
L 1100 0 
L 494 0 
z
M 1100 2403 
L 2284 2403 
Q 2872 2403 3119 2622 
Q 3366 2841 3366 3238 
Q 3366 3525 3220 3729 
Q 3075 3934 2838 4000 
Q 2684 4041 2272 4041 
L 1100 4041 
L 1100 2403 
z
" transform="scale(0.015625)"/>
       <path id="ArialMT-43" d="M 3763 1606 
L 4369 1453 
Q 4178 706 3683 314 
Q 3188 -78 2472 -78 
Q 1731 -78 1267 223 
Q 803 525 561 1097 
Q 319 1669 319 2325 
Q 319 3041 592 3573 
Q 866 4106 1370 4382 
Q 1875 4659 2481 4659 
Q 3169 4659 3637 4309 
Q 4106 3959 4291 3325 
L 3694 3184 
Q 3534 3684 3231 3912 
Q 2928 4141 2469 4141 
Q 1941 4141 1586 3887 
Q 1231 3634 1087 3207 
Q 944 2781 944 2328 
Q 944 1744 1114 1308 
Q 1284 872 1643 656 
Q 2003 441 2422 441 
Q 2931 441 3284 734 
Q 3638 1028 3763 1606 
z
" transform="scale(0.015625)"/>
       <path id="ArialMT-2d" d="M 203 1375 
L 203 1941 
L 1931 1941 
L 1931 1375 
L 203 1375 
z
" transform="scale(0.015625)"/>
       <path id="ArialMT-41" d="M -9 0 
L 1750 4581 
L 2403 4581 
L 4278 0 
L 3588 0 
L 3053 1388 
L 1138 1388 
L 634 0 
L -9 0 
z
M 1313 1881 
L 2866 1881 
L 2388 3150 
Q 2169 3728 2063 4100 
Q 1975 3659 1816 3225 
L 1313 1881 
z
" transform="scale(0.015625)"/>
       <path id="ArialMT-63" d="M 2588 1216 
L 3141 1144 
Q 3050 572 2676 248 
Q 2303 -75 1759 -75 
Q 1078 -75 664 370 
Q 250 816 250 1647 
Q 250 2184 428 2587 
Q 606 2991 970 3192 
Q 1334 3394 1763 3394 
Q 2303 3394 2647 3120 
Q 2991 2847 3088 2344 
L 2541 2259 
Q 2463 2594 2264 2762 
Q 2066 2931 1784 2931 
Q 1359 2931 1093 2626 
Q 828 2322 828 1663 
Q 828 994 1084 691 
Q 1341 388 1753 388 
Q 2084 388 2306 591 
Q 2528 794 2588 1216 
z
" transform="scale(0.015625)"/>
      </defs>
      <use xlink:href="#ArialMT-46"/>
      <use xlink:href="#ArialMT-65" x="61.083984"/>
      <use xlink:href="#ArialMT-50" x="116.699219"/>
      <use xlink:href="#ArialMT-43" x="183.398438"/>
      <use xlink:href="#ArialMT-4e" x="255.615234"/>
      <use xlink:href="#ArialMT-2d" x="327.832031"/>
      <use xlink:href="#ArialMT-32" x="361.132812"/>
      <use xlink:href="#ArialMT-32" x="416.748047"/>
      <use xlink:href="#ArialMT-34" x="472.363281"/>
      <use xlink:href="#ArialMT-41" x="527.978516"/>
      <use xlink:href="#ArialMT-63" x="594.677734"/>
     </g>
    </g>
    <g id="line2d_36">
     <path d="M 211.773666 62.24899 
L 233.773666 62.24899 
L 255.773666 62.24899 
" style="fill: none; stroke: #0000ff; stroke-width: 3; stroke-linecap: square"/>
    </g>
    <g id="text_11">
     <!-- Fe(NO)PCN-224Ac -->
     <g transform="translate(273.373666 69.94899)scale(0.22 -0.22)">
      <defs>
       <path id="ArialMT-4f" d="M 309 2231 
Q 309 3372 921 4017 
Q 1534 4663 2503 4663 
Q 3138 4663 3647 4359 
Q 4156 4056 4423 3514 
Q 4691 2972 4691 2284 
Q 4691 1588 4409 1038 
Q 4128 488 3612 205 
Q 3097 -78 2500 -78 
Q 1853 -78 1343 234 
Q 834 547 571 1087 
Q 309 1628 309 2231 
z
M 934 2222 
Q 934 1394 1379 917 
Q 1825 441 2497 441 
Q 3181 441 3623 922 
Q 4066 1403 4066 2288 
Q 4066 2847 3877 3264 
Q 3688 3681 3323 3911 
Q 2959 4141 2506 4141 
Q 1863 4141 1398 3698 
Q 934 3256 934 2222 
z
" transform="scale(0.015625)"/>
      </defs>
      <use xlink:href="#ArialMT-46"/>
      <use xlink:href="#ArialMT-65" x="61.083984"/>
      <use xlink:href="#ArialMT-28" x="116.699219"/>
      <use xlink:href="#ArialMT-4e" x="150"/>
      <use xlink:href="#ArialMT-4f" x="222.216797"/>
      <use xlink:href="#ArialMT-29" x="300"/>
      <use xlink:href="#ArialMT-50" x="333.300781"/>
      <use xlink:href="#ArialMT-43" x="400"/>
      <use xlink:href="#ArialMT-4e" x="472.216797"/>
      <use xlink:href="#ArialMT-2d" x="544.433594"/>
      <use xlink:href="#ArialMT-32" x="577.734375"/>
      <use xlink:href="#ArialMT-32" x="633.349609"/>
      <use xlink:href="#ArialMT-34" x="688.964844"/>
      <use xlink:href="#ArialMT-41" x="744.580078"/>
      <use xlink:href="#ArialMT-63" x="811.279297"/>
     </g>
    </g>
   </g>
  </g>
 </g>
 <defs>
  <clipPath id="p1ffc27ad1f">
   <rect x="30.87774" y="3.00024" width="451.770926" height="367.609207"/>
  </clipPath>
 </defs>
</svg>
