<?xml version="1.0" encoding="utf-8" standalone="no"?>
<!DOCTYPE svg PUBLIC "-//W3C//DTD SVG 1.1//EN"
  "http://www.w3.org/Graphics/SVG/1.1/DTD/svg11.dtd">
<svg xmlns:xlink="http://www.w3.org/1999/xlink" width="234pt" height="234pt" viewBox="0 0 234 234" xmlns="http://www.w3.org/2000/svg" version="1.1">
 <metadata>
  <rdf:RDF xmlns:dc="http://purl.org/dc/elements/1.1/" xmlns:cc="http://creativecommons.org/ns#" xmlns:rdf="http://www.w3.org/1999/02/22-rdf-syntax-ns#">
   <cc:Work>
    <dc:type rdf:resource="http://purl.org/dc/dcmitype/StillImage"/>
    <dc:date>2024-04-05T00:39:41.324916</dc:date>
    <dc:format>image/svg+xml</dc:format>
    <dc:creator>
     <cc:Agent>
      <dc:title>Matplotlib v3.6.2, https://matplotlib.org/</dc:title>
     </cc:Agent>
    </dc:creator>
   </cc:Work>
  </rdf:RDF>
 </metadata>
 <defs>
  <style type="text/css">*{stroke-linejoin: round; stroke-linecap: butt}</style>
 </defs>
 <g id="figure_1">
  <g id="patch_1">
   <path d="M 0 234 
L 234 234 
L 234 0 
L 0 0 
z
" style="fill: #ffffff"/>
  </g>
  <g id="axes_1">
   <g id="patch_2">
    <path d="M 21.76149 197.764135 
L 230.478966 197.764135 
L 230.478966 3.00024 
L 21.76149 3.00024 
z
" style="fill: #ffffff"/>
   </g>
   <g id="matplotlib.axis_1">
    <g id="xtick_1">
     <g id="line2d_1">
      <defs>
       <path id="mc27ce4a4a6" d="M 0 0 
L 0 3.5 
" style="stroke: #000000; stroke-width: 0.8"/>
      </defs>
      <g>
       <use xlink:href="#mc27ce4a4a6" x="31.602819" y="197.764135" style="stroke: #000000; stroke-width: 0.8"/>
      </g>
     </g>
     <g id="text_1">
      <!-- 395 -->
      <g transform="translate(21.593131 213.35351) scale(0.12 -0.12)">
       <defs>
        <path id="ArialMT-33" d="M 269 1209 
L 831 1284 
Q 928 806 1161 595 
Q 1394 384 1728 384 
Q 2125 384 2398 659 
Q 2672 934 2672 1341 
Q 2672 1728 2419 1979 
Q 2166 2231 1775 2231 
Q 1616 2231 1378 2169 
L 1441 2663 
Q 1497 2656 1531 2656 
Q 1891 2656 2178 2843 
Q 2466 3031 2466 3422 
Q 2466 3731 2256 3934 
Q 2047 4138 1716 4138 
Q 1388 4138 1169 3931 
Q 950 3725 888 3313 
L 325 3413 
Q 428 3978 793 4289 
Q 1159 4600 1703 4600 
Q 2078 4600 2393 4439 
Q 2709 4278 2876 4000 
Q 3044 3722 3044 3409 
Q 3044 3113 2884 2869 
Q 2725 2625 2413 2481 
Q 2819 2388 3044 2092 
Q 3269 1797 3269 1353 
Q 3269 753 2831 336 
Q 2394 -81 1725 -81 
Q 1122 -81 723 278 
Q 325 638 269 1209 
z
" transform="scale(0.015625)"/>
        <path id="ArialMT-39" d="M 350 1059 
L 891 1109 
Q 959 728 1153 556 
Q 1347 384 1650 384 
Q 1909 384 2104 503 
Q 2300 622 2425 820 
Q 2550 1019 2634 1356 
Q 2719 1694 2719 2044 
Q 2719 2081 2716 2156 
Q 2547 1888 2255 1720 
Q 1963 1553 1622 1553 
Q 1053 1553 659 1965 
Q 266 2378 266 3053 
Q 266 3750 677 4175 
Q 1088 4600 1706 4600 
Q 2153 4600 2523 4359 
Q 2894 4119 3086 3673 
Q 3278 3228 3278 2384 
Q 3278 1506 3087 986 
Q 2897 466 2520 194 
Q 2144 -78 1638 -78 
Q 1100 -78 759 220 
Q 419 519 350 1059 
z
M 2653 3081 
Q 2653 3566 2395 3850 
Q 2138 4134 1775 4134 
Q 1400 4134 1122 3828 
Q 844 3522 844 3034 
Q 844 2597 1108 2323 
Q 1372 2050 1759 2050 
Q 2150 2050 2401 2323 
Q 2653 2597 2653 3081 
z
" transform="scale(0.015625)"/>
        <path id="ArialMT-35" d="M 266 1200 
L 856 1250 
Q 922 819 1161 601 
Q 1400 384 1738 384 
Q 2144 384 2425 690 
Q 2706 997 2706 1503 
Q 2706 1984 2436 2262 
Q 2166 2541 1728 2541 
Q 1456 2541 1237 2417 
Q 1019 2294 894 2097 
L 366 2166 
L 809 4519 
L 3088 4519 
L 3088 3981 
L 1259 3981 
L 1013 2750 
Q 1425 3038 1878 3038 
Q 2478 3038 2890 2622 
Q 3303 2206 3303 1553 
Q 3303 931 2941 478 
Q 2500 -78 1738 -78 
Q 1113 -78 717 272 
Q 322 622 266 1200 
z
" transform="scale(0.015625)"/>
       </defs>
       <use xlink:href="#ArialMT-33"/>
       <use xlink:href="#ArialMT-39" x="55.615234"/>
       <use xlink:href="#ArialMT-35" x="111.230469"/>
      </g>
     </g>
    </g>
    <g id="xtick_2">
     <g id="line2d_2">
      <g>
       <use xlink:href="#mc27ce4a4a6" x="94.713664" y="197.764135" style="stroke: #000000; stroke-width: 0.8"/>
      </g>
     </g>
     <g id="text_2">
      <!-- 400 -->
      <g transform="translate(84.703977 213.35351) scale(0.12 -0.12)">
       <defs>
        <path id="ArialMT-34" d="M 2069 0 
L 2069 1097 
L 81 1097 
L 81 1613 
L 2172 4581 
L 2631 4581 
L 2631 1613 
L 3250 1613 
L 3250 1097 
L 2631 1097 
L 2631 0 
L 2069 0 
z
M 2069 1613 
L 2069 3678 
L 634 1613 
L 2069 1613 
z
" transform="scale(0.015625)"/>
        <path id="ArialMT-30" d="M 266 2259 
Q 266 3072 433 3567 
Q 600 4063 929 4331 
Q 1259 4600 1759 4600 
Q 2128 4600 2406 4451 
Q 2684 4303 2865 4023 
Q 3047 3744 3150 3342 
Q 3253 2941 3253 2259 
Q 3253 1453 3087 958 
Q 2922 463 2592 192 
Q 2263 -78 1759 -78 
Q 1097 -78 719 397 
Q 266 969 266 2259 
z
M 844 2259 
Q 844 1131 1108 757 
Q 1372 384 1759 384 
Q 2147 384 2411 759 
Q 2675 1134 2675 2259 
Q 2675 3391 2411 3762 
Q 2147 4134 1753 4134 
Q 1366 4134 1134 3806 
Q 844 3388 844 2259 
z
" transform="scale(0.015625)"/>
       </defs>
       <use xlink:href="#ArialMT-34"/>
       <use xlink:href="#ArialMT-30" x="55.615234"/>
       <use xlink:href="#ArialMT-30" x="111.230469"/>
      </g>
     </g>
    </g>
    <g id="xtick_3">
     <g id="line2d_3">
      <g>
       <use xlink:href="#mc27ce4a4a6" x="157.82451" y="197.764135" style="stroke: #000000; stroke-width: 0.8"/>
      </g>
     </g>
     <g id="text_3">
      <!-- 405 -->
      <g transform="translate(147.814822 213.35351) scale(0.12 -0.12)">
       <use xlink:href="#ArialMT-34"/>
       <use xlink:href="#ArialMT-30" x="55.615234"/>
       <use xlink:href="#ArialMT-35" x="111.230469"/>
      </g>
     </g>
    </g>
    <g id="xtick_4">
     <g id="line2d_4">
      <g>
       <use xlink:href="#mc27ce4a4a6" x="220.935355" y="197.764135" style="stroke: #000000; stroke-width: 0.8"/>
      </g>
     </g>
     <g id="text_4">
      <!-- 410 -->
      <g transform="translate(210.925668 213.35351) scale(0.12 -0.12)">
       <defs>
        <path id="ArialMT-31" d="M 2384 0 
L 1822 0 
L 1822 3584 
Q 1619 3391 1289 3197 
Q 959 3003 697 2906 
L 697 3450 
Q 1169 3672 1522 3987 
Q 1875 4303 2022 4600 
L 2384 4600 
L 2384 0 
z
" transform="scale(0.015625)"/>
       </defs>
       <use xlink:href="#ArialMT-34"/>
       <use xlink:href="#ArialMT-31" x="55.615234"/>
       <use xlink:href="#ArialMT-30" x="111.230469"/>
      </g>
     </g>
    </g>
    <g id="xtick_5">
     <g id="line2d_5">
      <defs>
       <path id="mf1f6687134" d="M 0 0 
L 0 2 
" style="stroke: #000000; stroke-width: 0.6"/>
      </defs>
      <g>
       <use xlink:href="#mf1f6687134" x="44.224988" y="197.764135" style="stroke: #000000; stroke-width: 0.6"/>
      </g>
     </g>
    </g>
    <g id="xtick_6">
     <g id="line2d_6">
      <g>
       <use xlink:href="#mf1f6687134" x="56.847157" y="197.764135" style="stroke: #000000; stroke-width: 0.6"/>
      </g>
     </g>
    </g>
    <g id="xtick_7">
     <g id="line2d_7">
      <g>
       <use xlink:href="#mf1f6687134" x="69.469326" y="197.764135" style="stroke: #000000; stroke-width: 0.6"/>
      </g>
     </g>
    </g>
    <g id="xtick_8">
     <g id="line2d_8">
      <g>
       <use xlink:href="#mf1f6687134" x="82.091495" y="197.764135" style="stroke: #000000; stroke-width: 0.6"/>
      </g>
     </g>
    </g>
    <g id="xtick_9">
     <g id="line2d_9">
      <g>
       <use xlink:href="#mf1f6687134" x="107.335833" y="197.764135" style="stroke: #000000; stroke-width: 0.6"/>
      </g>
     </g>
    </g>
    <g id="xtick_10">
     <g id="line2d_10">
      <g>
       <use xlink:href="#mf1f6687134" x="119.958002" y="197.764135" style="stroke: #000000; stroke-width: 0.6"/>
      </g>
     </g>
    </g>
    <g id="xtick_11">
     <g id="line2d_11">
      <g>
       <use xlink:href="#mf1f6687134" x="132.580171" y="197.764135" style="stroke: #000000; stroke-width: 0.6"/>
      </g>
     </g>
    </g>
    <g id="xtick_12">
     <g id="line2d_12">
      <g>
       <use xlink:href="#mf1f6687134" x="145.202341" y="197.764135" style="stroke: #000000; stroke-width: 0.6"/>
      </g>
     </g>
    </g>
    <g id="xtick_13">
     <g id="line2d_13">
      <g>
       <use xlink:href="#mf1f6687134" x="170.446679" y="197.764135" style="stroke: #000000; stroke-width: 0.6"/>
      </g>
     </g>
    </g>
    <g id="xtick_14">
     <g id="line2d_14">
      <g>
       <use xlink:href="#mf1f6687134" x="183.068848" y="197.764135" style="stroke: #000000; stroke-width: 0.6"/>
      </g>
     </g>
    </g>
    <g id="xtick_15">
     <g id="line2d_15">
      <g>
       <use xlink:href="#mf1f6687134" x="195.691017" y="197.764135" style="stroke: #000000; stroke-width: 0.6"/>
      </g>
     </g>
    </g>
    <g id="xtick_16">
     <g id="line2d_16">
      <g>
       <use xlink:href="#mf1f6687134" x="208.313186" y="197.764135" style="stroke: #000000; stroke-width: 0.6"/>
      </g>
     </g>
    </g>
    <g id="text_5">
     <!-- Excitation Energy (eV) -->
     <g transform="translate(66.43054 228.474135) scale(0.12 -0.12)">
      <defs>
       <path id="ArialMT-45" d="M 506 0 
L 506 4581 
L 3819 4581 
L 3819 4041 
L 1113 4041 
L 1113 2638 
L 3647 2638 
L 3647 2100 
L 1113 2100 
L 1113 541 
L 3925 541 
L 3925 0 
L 506 0 
z
" transform="scale(0.015625)"/>
       <path id="ArialMT-78" d="M 47 0 
L 1259 1725 
L 138 3319 
L 841 3319 
L 1350 2541 
Q 1494 2319 1581 2169 
Q 1719 2375 1834 2534 
L 2394 3319 
L 3066 3319 
L 1919 1756 
L 3153 0 
L 2463 0 
L 1781 1031 
L 1600 1309 
L 728 0 
L 47 0 
z
" transform="scale(0.015625)"/>
       <path id="ArialMT-63" d="M 2588 1216 
L 3141 1144 
Q 3050 572 2676 248 
Q 2303 -75 1759 -75 
Q 1078 -75 664 370 
Q 250 816 250 1647 
Q 250 2184 428 2587 
Q 606 2991 970 3192 
Q 1334 3394 1763 3394 
Q 2303 3394 2647 3120 
Q 2991 2847 3088 2344 
L 2541 2259 
Q 2463 2594 2264 2762 
Q 2066 2931 1784 2931 
Q 1359 2931 1093 2626 
Q 828 2322 828 1663 
Q 828 994 1084 691 
Q 1341 388 1753 388 
Q 2084 388 2306 591 
Q 2528 794 2588 1216 
z
" transform="scale(0.015625)"/>
       <path id="ArialMT-69" d="M 425 3934 
L 425 4581 
L 988 4581 
L 988 3934 
L 425 3934 
z
M 425 0 
L 425 3319 
L 988 3319 
L 988 0 
L 425 0 
z
" transform="scale(0.015625)"/>
       <path id="ArialMT-74" d="M 1650 503 
L 1731 6 
Q 1494 -44 1306 -44 
Q 1000 -44 831 53 
Q 663 150 594 308 
Q 525 466 525 972 
L 525 2881 
L 113 2881 
L 113 3319 
L 525 3319 
L 525 4141 
L 1084 4478 
L 1084 3319 
L 1650 3319 
L 1650 2881 
L 1084 2881 
L 1084 941 
Q 1084 700 1114 631 
Q 1144 563 1211 522 
Q 1278 481 1403 481 
Q 1497 481 1650 503 
z
" transform="scale(0.015625)"/>
       <path id="ArialMT-61" d="M 2588 409 
Q 2275 144 1986 34 
Q 1697 -75 1366 -75 
Q 819 -75 525 192 
Q 231 459 231 875 
Q 231 1119 342 1320 
Q 453 1522 633 1644 
Q 813 1766 1038 1828 
Q 1203 1872 1538 1913 
Q 2219 1994 2541 2106 
Q 2544 2222 2544 2253 
Q 2544 2597 2384 2738 
Q 2169 2928 1744 2928 
Q 1347 2928 1158 2789 
Q 969 2650 878 2297 
L 328 2372 
Q 403 2725 575 2942 
Q 747 3159 1072 3276 
Q 1397 3394 1825 3394 
Q 2250 3394 2515 3294 
Q 2781 3194 2906 3042 
Q 3031 2891 3081 2659 
Q 3109 2516 3109 2141 
L 3109 1391 
Q 3109 606 3145 398 
Q 3181 191 3288 0 
L 2700 0 
Q 2613 175 2588 409 
z
M 2541 1666 
Q 2234 1541 1622 1453 
Q 1275 1403 1131 1340 
Q 988 1278 909 1158 
Q 831 1038 831 891 
Q 831 666 1001 516 
Q 1172 366 1500 366 
Q 1825 366 2078 508 
Q 2331 650 2450 897 
Q 2541 1088 2541 1459 
L 2541 1666 
z
" transform="scale(0.015625)"/>
       <path id="ArialMT-6f" d="M 213 1659 
Q 213 2581 725 3025 
Q 1153 3394 1769 3394 
Q 2453 3394 2887 2945 
Q 3322 2497 3322 1706 
Q 3322 1066 3130 698 
Q 2938 331 2570 128 
Q 2203 -75 1769 -75 
Q 1072 -75 642 372 
Q 213 819 213 1659 
z
M 791 1659 
Q 791 1022 1069 705 
Q 1347 388 1769 388 
Q 2188 388 2466 706 
Q 2744 1025 2744 1678 
Q 2744 2294 2464 2611 
Q 2184 2928 1769 2928 
Q 1347 2928 1069 2612 
Q 791 2297 791 1659 
z
" transform="scale(0.015625)"/>
       <path id="ArialMT-6e" d="M 422 0 
L 422 3319 
L 928 3319 
L 928 2847 
Q 1294 3394 1984 3394 
Q 2284 3394 2536 3286 
Q 2788 3178 2913 3003 
Q 3038 2828 3088 2588 
Q 3119 2431 3119 2041 
L 3119 0 
L 2556 0 
L 2556 2019 
Q 2556 2363 2490 2533 
Q 2425 2703 2258 2804 
Q 2091 2906 1866 2906 
Q 1506 2906 1245 2678 
Q 984 2450 984 1813 
L 984 0 
L 422 0 
z
" transform="scale(0.015625)"/>
       <path id="ArialMT-20" transform="scale(0.015625)"/>
       <path id="ArialMT-65" d="M 2694 1069 
L 3275 997 
Q 3138 488 2766 206 
Q 2394 -75 1816 -75 
Q 1088 -75 661 373 
Q 234 822 234 1631 
Q 234 2469 665 2931 
Q 1097 3394 1784 3394 
Q 2450 3394 2872 2941 
Q 3294 2488 3294 1666 
Q 3294 1616 3291 1516 
L 816 1516 
Q 847 969 1125 678 
Q 1403 388 1819 388 
Q 2128 388 2347 550 
Q 2566 713 2694 1069 
z
M 847 1978 
L 2700 1978 
Q 2663 2397 2488 2606 
Q 2219 2931 1791 2931 
Q 1403 2931 1139 2672 
Q 875 2413 847 1978 
z
" transform="scale(0.015625)"/>
       <path id="ArialMT-72" d="M 416 0 
L 416 3319 
L 922 3319 
L 922 2816 
Q 1116 3169 1280 3281 
Q 1444 3394 1641 3394 
Q 1925 3394 2219 3213 
L 2025 2691 
Q 1819 2813 1613 2813 
Q 1428 2813 1281 2702 
Q 1134 2591 1072 2394 
Q 978 2094 978 1738 
L 978 0 
L 416 0 
z
" transform="scale(0.015625)"/>
       <path id="ArialMT-67" d="M 319 -275 
L 866 -356 
Q 900 -609 1056 -725 
Q 1266 -881 1628 -881 
Q 2019 -881 2231 -725 
Q 2444 -569 2519 -288 
Q 2563 -116 2559 434 
Q 2191 0 1641 0 
Q 956 0 581 494 
Q 206 988 206 1678 
Q 206 2153 378 2554 
Q 550 2956 876 3175 
Q 1203 3394 1644 3394 
Q 2231 3394 2613 2919 
L 2613 3319 
L 3131 3319 
L 3131 450 
Q 3131 -325 2973 -648 
Q 2816 -972 2473 -1159 
Q 2131 -1347 1631 -1347 
Q 1038 -1347 672 -1080 
Q 306 -813 319 -275 
z
M 784 1719 
Q 784 1066 1043 766 
Q 1303 466 1694 466 
Q 2081 466 2343 764 
Q 2606 1063 2606 1700 
Q 2606 2309 2336 2618 
Q 2066 2928 1684 2928 
Q 1309 2928 1046 2623 
Q 784 2319 784 1719 
z
" transform="scale(0.015625)"/>
       <path id="ArialMT-79" d="M 397 -1278 
L 334 -750 
Q 519 -800 656 -800 
Q 844 -800 956 -737 
Q 1069 -675 1141 -563 
Q 1194 -478 1313 -144 
Q 1328 -97 1363 -6 
L 103 3319 
L 709 3319 
L 1400 1397 
Q 1534 1031 1641 628 
Q 1738 1016 1872 1384 
L 2581 3319 
L 3144 3319 
L 1881 -56 
Q 1678 -603 1566 -809 
Q 1416 -1088 1222 -1217 
Q 1028 -1347 759 -1347 
Q 597 -1347 397 -1278 
z
" transform="scale(0.015625)"/>
       <path id="ArialMT-28" d="M 1497 -1347 
Q 1031 -759 709 28 
Q 388 816 388 1659 
Q 388 2403 628 3084 
Q 909 3875 1497 4659 
L 1900 4659 
Q 1522 4009 1400 3731 
Q 1209 3300 1100 2831 
Q 966 2247 966 1656 
Q 966 153 1900 -1347 
L 1497 -1347 
z
" transform="scale(0.015625)"/>
       <path id="ArialMT-56" d="M 1803 0 
L 28 4581 
L 684 4581 
L 1875 1253 
Q 2019 853 2116 503 
Q 2222 878 2363 1253 
L 3600 4581 
L 4219 4581 
L 2425 0 
L 1803 0 
z
" transform="scale(0.015625)"/>
       <path id="ArialMT-29" d="M 791 -1347 
L 388 -1347 
Q 1322 153 1322 1656 
Q 1322 2244 1188 2822 
Q 1081 3291 891 3722 
Q 769 4003 388 4659 
L 791 4659 
Q 1378 3875 1659 3084 
Q 1900 2403 1900 1659 
Q 1900 816 1576 28 
Q 1253 -759 791 -1347 
z
" transform="scale(0.015625)"/>
      </defs>
      <use xlink:href="#ArialMT-45"/>
      <use xlink:href="#ArialMT-78" x="66.699219"/>
      <use xlink:href="#ArialMT-63" x="116.699219"/>
      <use xlink:href="#ArialMT-69" x="166.699219"/>
      <use xlink:href="#ArialMT-74" x="188.916016"/>
      <use xlink:href="#ArialMT-61" x="216.699219"/>
      <use xlink:href="#ArialMT-74" x="272.314453"/>
      <use xlink:href="#ArialMT-69" x="300.097656"/>
      <use xlink:href="#ArialMT-6f" x="322.314453"/>
      <use xlink:href="#ArialMT-6e" x="377.929688"/>
      <use xlink:href="#ArialMT-20" x="433.544922"/>
      <use xlink:href="#ArialMT-45" x="461.328125"/>
      <use xlink:href="#ArialMT-6e" x="528.027344"/>
      <use xlink:href="#ArialMT-65" x="583.642578"/>
      <use xlink:href="#ArialMT-72" x="639.257812"/>
      <use xlink:href="#ArialMT-67" x="672.558594"/>
      <use xlink:href="#ArialMT-79" x="728.173828"/>
      <use xlink:href="#ArialMT-20" x="778.173828"/>
      <use xlink:href="#ArialMT-28" x="805.957031"/>
      <use xlink:href="#ArialMT-65" x="839.257812"/>
      <use xlink:href="#ArialMT-56" x="894.873047"/>
      <use xlink:href="#ArialMT-29" x="961.572266"/>
     </g>
    </g>
   </g>
   <g id="matplotlib.axis_2">
    <g id="text_6">
     <!-- Intensity (a.u.) -->
     <g transform="translate(11.735865 138.395) rotate(-90) scale(0.12 -0.12)">
      <defs>
       <path id="ArialMT-49" d="M 597 0 
L 597 4581 
L 1203 4581 
L 1203 0 
L 597 0 
z
" transform="scale(0.015625)"/>
       <path id="ArialMT-73" d="M 197 991 
L 753 1078 
Q 800 744 1014 566 
Q 1228 388 1613 388 
Q 2000 388 2187 545 
Q 2375 703 2375 916 
Q 2375 1106 2209 1216 
Q 2094 1291 1634 1406 
Q 1016 1563 777 1677 
Q 538 1791 414 1992 
Q 291 2194 291 2438 
Q 291 2659 392 2848 
Q 494 3038 669 3163 
Q 800 3259 1026 3326 
Q 1253 3394 1513 3394 
Q 1903 3394 2198 3281 
Q 2494 3169 2634 2976 
Q 2775 2784 2828 2463 
L 2278 2388 
Q 2241 2644 2061 2787 
Q 1881 2931 1553 2931 
Q 1166 2931 1000 2803 
Q 834 2675 834 2503 
Q 834 2394 903 2306 
Q 972 2216 1119 2156 
Q 1203 2125 1616 2013 
Q 2213 1853 2448 1751 
Q 2684 1650 2818 1456 
Q 2953 1263 2953 975 
Q 2953 694 2789 445 
Q 2625 197 2315 61 
Q 2006 -75 1616 -75 
Q 969 -75 630 194 
Q 291 463 197 991 
z
" transform="scale(0.015625)"/>
       <path id="ArialMT-2e" d="M 581 0 
L 581 641 
L 1222 641 
L 1222 0 
L 581 0 
z
" transform="scale(0.015625)"/>
       <path id="ArialMT-75" d="M 2597 0 
L 2597 488 
Q 2209 -75 1544 -75 
Q 1250 -75 995 37 
Q 741 150 617 320 
Q 494 491 444 738 
Q 409 903 409 1263 
L 409 3319 
L 972 3319 
L 972 1478 
Q 972 1038 1006 884 
Q 1059 663 1231 536 
Q 1403 409 1656 409 
Q 1909 409 2131 539 
Q 2353 669 2445 892 
Q 2538 1116 2538 1541 
L 2538 3319 
L 3100 3319 
L 3100 0 
L 2597 0 
z
" transform="scale(0.015625)"/>
      </defs>
      <use xlink:href="#ArialMT-49"/>
      <use xlink:href="#ArialMT-6e" x="27.783203"/>
      <use xlink:href="#ArialMT-74" x="83.398438"/>
      <use xlink:href="#ArialMT-65" x="111.181641"/>
      <use xlink:href="#ArialMT-6e" x="166.796875"/>
      <use xlink:href="#ArialMT-73" x="222.412109"/>
      <use xlink:href="#ArialMT-69" x="272.412109"/>
      <use xlink:href="#ArialMT-74" x="294.628906"/>
      <use xlink:href="#ArialMT-79" x="322.412109"/>
      <use xlink:href="#ArialMT-20" x="372.412109"/>
      <use xlink:href="#ArialMT-28" x="400.195312"/>
      <use xlink:href="#ArialMT-61" x="433.496094"/>
      <use xlink:href="#ArialMT-2e" x="489.111328"/>
      <use xlink:href="#ArialMT-75" x="516.894531"/>
      <use xlink:href="#ArialMT-2e" x="572.509766"/>
      <use xlink:href="#ArialMT-29" x="600.292969"/>
     </g>
    </g>
   </g>
   <g id="line2d_17">
    <path d="M 31.284168 130.818318 
L 34.321534 136.649747 
L 36.722073 141.505579 
L 39.463296 142.811088 
L 42.011419 151.854211 
L 44.276611 158.918482 
L 47.008278 156.988066 
L 49.438935 161.956523 
L 51.854056 162.126961 
L 55.042004 167.193077 
L 57.283167 177.480991 
L 59.418606 159.152842 
L 62.148882 164.504255 
L 64.522324 170.003376 
L 67.006053 178.081018 
L 69.798684 188.911231 
L 72.053066 172.100601 
L 74.634564 178.110808 
L 77.218721 174.462055 
L 79.606444 156.048102 
L 82.250059 162.625299 
L 84.805775 145.157081 
L 87.164409 118.879912 
L 89.81597 71.067674 
L 92.342995 37.63416 
L 94.708692 14.565904 
L 97.459327 26.357644 
L 99.902798 11.853144 
L 102.385158 45.505006 
L 104.961357 77.293974 
L 107.466988 103.605663 
L 109.901838 132.879935 
L 112.504039 122.321102 
L 115.017149 128.89938 
L 117.514383 129.217377 
L 120.069247 114.459059 
L 122.571463 107.737822 
L 125.076147 115.359875 
L 127.712417 129.475827 
L 130.16679 139.911815 
L 132.623534 150.639447 
L 135.13815 157.147516 
L 137.858952 141.641101 
L 140.230456 153.148058 
L 142.752603 153.605695 
L 145.221528 128.854029 
L 147.822983 130.505778 
L 150.352654 124.750347 
L 152.828951 124.92025 
L 155.382237 129.403933 
L 157.882082 112.402552 
L 160.421741 110.338101 
L 162.926522 96.480428 
L 165.546079 99.688294 
L 167.924712 98.109622 
L 170.549391 87.800267 
L 173.08288 83.768575 
L 175.506111 115.506473 
L 178.119755 92.279778 
L 180.566581 101.901981 
L 183.128837 98.187088 
L 185.693651 91.785181 
L 188.18548 100.395034 
L 190.717536 97.847532 
L 193.271012 94.521882 
L 195.751253 105.055512 
L 198.271807 98.271531 
L 200.832789 90.485389 
L 203.491315 101.401407 
L 205.867313 91.338052 
L 208.397783 93.652418 
L 210.911681 95.382688 
L 213.466175 92.085004 
L 216.023196 93.006169 
L 218.468089 100.73719 
L 220.991808 109.967243 
" clip-path="url(#p5510ea9c1a)" style="fill: none; stroke: #1f77b4; stroke-width: 1.5; stroke-linecap: square"/>
   </g>
   <g id="line2d_18">
    <path d="M 31.49718 174.281417 
L 34.250436 176.775643 
L 36.828817 181.816931 
L 39.338629 187.408485 
L 41.904449 176.828419 
L 44.383679 175.717486 
L 47.044006 166.630067 
L 49.564106 172.095315 
L 51.818259 173.961793 
L 54.611932 178.448214 
L 56.96031 174.51277 
L 59.454511 181.426241 
L 61.987137 184.540829 
L 64.774186 188.163834 
L 66.952033 184.870628 
L 69.70855 188.911231 
L 72.107196 183.735976 
L 74.562318 184.911668 
L 77.092161 175.18023 
L 79.624542 166.290661 
L 82.268175 145.895452 
L 84.823911 125.023682 
L 87.146257 106.30506 
L 89.834141 52.764335 
L 92.324807 14.688657 
L 94.763311 11.853144 
L 97.386423 18.950953 
L 99.95753 27.224341 
L 102.330374 48.924483 
L 104.924797 77.048453 
L 107.503585 100.23055 
L 109.883522 129.226004 
L 112.522374 128.397166 
L 114.998797 127.228629 
L 117.496012 111.613163 
L 120.014079 105.859577 
L 122.645095 104.715267 
L 125.057721 128.149202 
L 127.657083 129.967866 
L 130.166789 133.404721 
L 132.605054 133.930882 
L 135.193647 138.530781 
L 137.747842 127.91063 
L 140.248993 127.548804 
L 142.752602 123.865559 
L 145.221528 118.647762 
L 147.785801 117.061204 
L 150.296826 117.481699 
L 152.791696 105.943935 
L 155.382237 109.139753 
L 157.882082 107.281346 
L 160.403058 91.257704 
L 162.926522 100.165234 
L 165.489917 88.331091 
L 167.962189 85.808138 
L 170.586906 89.417544 
L 173.08288 82.850315 
L 175.506111 82.594042 
L 178.100942 83.477948 
L 180.566581 86.076669 
L 183.091138 80.009782 
L 185.674783 78.839938 
L 188.18548 85.109787 
L 190.717536 85.336007 
L 193.271012 84.228062 
L 195.732311 84.805834 
L 198.252847 71.704539 
L 200.870749 82.997201 
L 203.339324 73.401214 
L 205.848296 77.511774 
L 208.435854 77.505901 
L 210.930735 83.65527 
L 213.408957 80.018215 
L 215.985014 88.771799 
L 218.468089 79.99646 
L 220.953551 75.950204 
" clip-path="url(#p5510ea9c1a)" style="fill: none; stroke: #ff7f0e; stroke-width: 1.5; stroke-linecap: square"/>
   </g>
   <g id="line2d_19">
    <path d="M 31.550438 139.871587 
L 34.357074 157.723936 
L 36.775444 159.236997 
L 39.374248 162.829728 
L 41.975759 172.115486 
L 44.401524 160.1096 
L 47.472779 172.459496 
L 49.653517 171.277925 
L 51.800361 176.395182 
L 54.522343 177.504581 
L 57.175539 188.911231 
L 59.400653 178.673732 
L 62.059022 177.227909 
L 64.468357 179.961903 
L 67.02406 185.175033 
L 69.65447 182.587545 
L 72.107196 184.338633 
L 74.634564 174.3984 
L 77.236796 182.653283 
L 79.660737 178.484486 
L 82.231942 155.098563 
L 84.842045 118.732836 
L 87.128105 104.504025 
L 89.961341 61.584767 
L 92.361184 36.164073 
L 94.726898 11.853144 
L 97.459326 34.191854 
L 99.902798 40.822365 
L 102.348635 61.068115 
L 104.906517 91.65756 
L 107.540183 121.533005 
L 109.883522 129.488298 
L 112.522374 136.088696 
L 114.980444 141.712954 
L 117.514383 124.801031 
L 120.087637 124.547254 
L 122.58987 125.735352 
L 125.057721 131.240621 
L 127.712417 126.441922 
L 130.185252 134.434308 
L 132.660495 154.416537 
L 135.13815 145.184871 
L 137.803396 147.777049 
L 140.248993 137.755195 
L 142.734047 145.291425 
L 145.221528 133.691622 
L 147.822983 125.38547 
L 150.352654 122.405464 
L 152.773068 124.419571 
L 155.344944 123.093057 
L 157.994073 114.787608 
L 160.421741 98.470226 
L 162.963925 98.925233 
L 165.471197 103.095849 
L 167.943451 89.293759 
L 170.568148 93.612467 
L 173.045328 81.220301 
L 175.524905 86.614832 
L 178.119755 91.151056 
L 180.604243 87.103585 
L 183.091138 89.775775 
L 185.693651 86.369677 
L 188.18548 89.761017 
L 190.679726 88.150908 
L 193.289936 91.299954 
L 195.789138 83.939346 
L 198.252847 89.024585 
L 200.832789 78.794008 
L 203.339323 82.240763 
L 205.88633 89.055965 
L 208.435854 91.195757 
L 210.949789 87.712004 
L 213.389884 98.715235 
L 216.023196 83.352852 
L 218.544529 79.184092 
L 220.953551 92.109641 
" clip-path="url(#p5510ea9c1a)" style="fill: none; stroke: #2ca02c; stroke-width: 1.5; stroke-linecap: square"/>
   </g>
   <g id="line2d_20">
    <path d="M 31.248648 131.396509 
L 34.250435 146.852703 
L 36.793236 132.624571 
L 39.356439 140.275855 
L 41.957942 156.009373 
L 44.330145 149.522475 
L 47.294124 149.486092 
L 49.510462 152.865231 
L 51.800361 160.573691 
L 54.791125 166.574813 
L 57.157603 153.66713 
L 59.400653 163.530443 
L 62.059022 178.493129 
L 64.558302 174.857021 
L 66.952033 184.465732 
L 69.798684 188.911231 
L 72.01698 181.413225 
L 74.652626 175.405247 
L 77.327199 181.475291 
L 79.696933 163.362378 
L 82.231943 141.903142 
L 84.696972 127.838988 
L 87.164409 102.322694 
L 89.870484 71.780308 
L 92.306617 48.320228 
L 94.745105 31.202968 
L 97.441101 11.853144 
L 99.902798 46.506305 
L 102.330374 77.232795 
L 104.979638 93.223816 
L 107.466988 113.172987 
L 109.920154 142.913729 
L 112.540709 142.044637 
L 114.998797 143.845376 
L 117.477641 141.760382 
L 120.050858 133.985721 
L 122.571463 136.007404 
L 125.076147 150.975238 
L 127.693972 136.433106 
L 130.185252 122.807417 
L 132.642015 166.021097 
L 135.13815 166.604522 
L 137.803397 165.650495 
L 140.230456 173.124179 
L 142.734048 158.641996 
L 145.202956 152.429738 
L 147.860166 148.42467 
L 150.352654 148.919091 
L 152.828951 138.768211 
L 155.382237 119.812776 
L 157.900747 137.923461 
L 160.403058 133.230417 
L 162.926522 126.265492 
L 165.508638 112.944436 
L 167.999666 105.107374 
L 170.586906 107.88053 
L 173.045328 119.190891 
L 175.543698 112.04569 
L 178.100942 112.896839 
L 180.585412 116.279752 
L 183.109987 106.866763 
L 185.693651 116.425005 
L 188.18548 112.678613 
L 190.717536 111.844127 
L 193.233164 127.140006 
L 195.751253 111.750589 
L 198.252847 128.701583 
L 200.81381 114.435959 
L 203.491315 120.092933 
L 205.848296 130.281253 
L 208.397782 124.895566 
L 210.911681 125.829217 
L 213.408957 107.830215 
L 215.985013 119.251901 
L 218.525419 114.976124 
L 220.953551 126.404592 
" clip-path="url(#p5510ea9c1a)" style="fill: none; stroke: #d62728; stroke-width: 1.5; stroke-linecap: square"/>
   </g>
   <g id="line2d_21">
    <path d="M 31.372909 64.520717 
L 34.108257 70.660025 
L 36.668702 90.724911 
L 39.231777 84.503785 
L 41.940103 106.153648 
L 44.294455 126.240445 
L 46.936824 111.14313 
L 49.760815 135.734927 
L 51.800361 125.19106 
L 54.7732 134.509704 
L 57.067923 141.07882 
L 59.400653 156.844478 
L 62.130909 175.464196 
L 64.540313 174.40746 
L 67.02406 167.211253 
L 69.582368 180.913692 
L 72.21546 185.471768 
L 74.634564 188.911231 
L 77.236796 182.3488 
L 79.624542 165.805016 
L 82.304408 140.394427 
L 84.769505 127.076269 
L 87.164409 109.239621 
L 89.924998 73.848315 
L 92.288428 64.616882 
L 94.726898 11.853144 
L 97.386423 46.867608 
L 99.902798 69.1149 
L 102.348635 82.386737 
L 104.979637 96.156458 
L 107.503585 119.301336 
L 109.846891 128.657956 
L 112.559044 146.297909 
L 115.017149 149.811954 
L 117.4409 113.425213 
L 120.014079 109.27072 
L 122.626686 133.612056 
L 125.02087 142.111971 
L 127.712417 147.095413 
L 130.185252 165.141451 
L 132.623534 184.266316 
L 135.175148 160.403006 
L 137.803396 153.812127 
L 140.174849 159.968602 
L 142.808265 138.260221 
L 145.221528 168.641542 
L 147.822983 163.134317 
L 150.389874 156.370978 
L 152.810323 126.636785 
L 155.382237 130.495271 
L 157.882082 123.185031 
L 160.421741 140.510817 
L 162.926522 127.468706 
L 165.546079 120.426283 
L 167.980927 119.008683 
L 170.568148 119.679771 
L 173.120432 111.60514 
L 175.562492 122.110992 
L 178.082129 120.858123 
L 180.604243 138.829476 
L 183.091138 135.576773 
L 185.731388 104.158663 
L 188.18548 128.468548 
L 190.717536 111.597188 
L 193.21424 121.931615 
L 195.789138 111.191697 
L 198.290768 119.285736 
L 200.870749 128.975146 
L 203.301327 107.690788 
L 205.848296 126.584178 
L 208.397782 117.185207 
L 210.911681 139.136846 
L 213.428029 121.259887 
L 215.985013 140.527084 
L 218.506309 118.396863 
L 220.991808 95.382133 
" clip-path="url(#p5510ea9c1a)" style="fill: none; stroke: #9467bd; stroke-width: 1.5; stroke-linecap: square"/>
   </g>
   <g id="patch_3">
    <path d="M 21.76149 197.764135 
L 21.76149 3.00024 
" style="fill: none; stroke: #000000; stroke-width: 0.8; stroke-linejoin: miter; stroke-linecap: square"/>
   </g>
   <g id="patch_4">
    <path d="M 230.478966 197.764135 
L 230.478966 3.00024 
" style="fill: none; stroke: #000000; stroke-width: 0.8; stroke-linejoin: miter; stroke-linecap: square"/>
   </g>
   <g id="patch_5">
    <path d="M 21.76149 197.764135 
L 230.478966 197.764135 
" style="fill: none; stroke: #000000; stroke-width: 0.8; stroke-linejoin: miter; stroke-linecap: square"/>
   </g>
   <g id="patch_6">
    <path d="M 21.76149 3.00024 
L 230.478966 3.00024 
" style="fill: none; stroke: #000000; stroke-width: 0.8; stroke-linejoin: miter; stroke-linecap: square"/>
   </g>
   <g id="legend_1">
    <g id="line2d_22">
     <path d="M 151.814903 15.658052 
L 161.814903 15.658052 
L 171.814903 15.658052 
" style="fill: none; stroke: #1f77b4; stroke-width: 1.5; stroke-linecap: square"/>
    </g>
    <g id="text_7">
     <!-- CoCl -->
     <g transform="translate(179.814903 19.158052) scale(0.1 -0.1)">
      <defs>
       <path id="ArialMT-43" d="M 3763 1606 
L 4369 1453 
Q 4178 706 3683 314 
Q 3188 -78 2472 -78 
Q 1731 -78 1267 223 
Q 803 525 561 1097 
Q 319 1669 319 2325 
Q 319 3041 592 3573 
Q 866 4106 1370 4382 
Q 1875 4659 2481 4659 
Q 3169 4659 3637 4309 
Q 4106 3959 4291 3325 
L 3694 3184 
Q 3534 3684 3231 3912 
Q 2928 4141 2469 4141 
Q 1941 4141 1586 3887 
Q 1231 3634 1087 3207 
Q 944 2781 944 2328 
Q 944 1744 1114 1308 
Q 1284 872 1643 656 
Q 2003 441 2422 441 
Q 2931 441 3284 734 
Q 3638 1028 3763 1606 
z
" transform="scale(0.015625)"/>
       <path id="ArialMT-6c" d="M 409 0 
L 409 4581 
L 972 4581 
L 972 0 
L 409 0 
z
" transform="scale(0.015625)"/>
      </defs>
      <use xlink:href="#ArialMT-43"/>
      <use xlink:href="#ArialMT-6f" x="72.216797"/>
      <use xlink:href="#ArialMT-43" x="127.832031"/>
      <use xlink:href="#ArialMT-6c" x="200.048828"/>
     </g>
    </g>
    <g id="line2d_23">
     <path d="M 151.814903 29.803365 
L 161.814903 29.803365 
L 171.814903 29.803365 
" style="fill: none; stroke: #ff7f0e; stroke-width: 1.5; stroke-linecap: square"/>
    </g>
    <g id="text_8">
     <!-- CoN3 -->
     <g transform="translate(179.814903 33.303365) scale(0.1 -0.1)">
      <defs>
       <path id="ArialMT-4e" d="M 488 0 
L 488 4581 
L 1109 4581 
L 3516 984 
L 3516 4581 
L 4097 4581 
L 4097 0 
L 3475 0 
L 1069 3600 
L 1069 0 
L 488 0 
z
" transform="scale(0.015625)"/>
      </defs>
      <use xlink:href="#ArialMT-43"/>
      <use xlink:href="#ArialMT-6f" x="72.216797"/>
      <use xlink:href="#ArialMT-4e" x="127.832031"/>
      <use xlink:href="#ArialMT-33" x="200.048828"/>
     </g>
    </g>
    <g id="line2d_24">
     <path d="M 151.814903 43.948678 
L 161.814903 43.948678 
L 171.814903 43.948678 
" style="fill: none; stroke: #2ca02c; stroke-width: 1.5; stroke-linecap: square"/>
    </g>
    <g id="text_9">
     <!-- CoN -->
     <g transform="translate(179.814903 47.448678) scale(0.1 -0.1)">
      <use xlink:href="#ArialMT-43"/>
      <use xlink:href="#ArialMT-6f" x="72.216797"/>
      <use xlink:href="#ArialMT-4e" x="127.832031"/>
     </g>
    </g>
    <g id="line2d_25">
     <path d="M 151.814903 58.222115 
L 161.814903 58.222115 
L 171.814903 58.222115 
" style="fill: none; stroke: #d62728; stroke-width: 1.5; stroke-linecap: square"/>
    </g>
    <g id="text_10">
     <!-- Co(CO)N -->
     <g transform="translate(179.814903 61.722115) scale(0.1 -0.1)">
      <defs>
       <path id="ArialMT-4f" d="M 309 2231 
Q 309 3372 921 4017 
Q 1534 4663 2503 4663 
Q 3138 4663 3647 4359 
Q 4156 4056 4423 3514 
Q 4691 2972 4691 2284 
Q 4691 1588 4409 1038 
Q 4128 488 3612 205 
Q 3097 -78 2500 -78 
Q 1853 -78 1343 234 
Q 834 547 571 1087 
Q 309 1628 309 2231 
z
M 934 2222 
Q 934 1394 1379 917 
Q 1825 441 2497 441 
Q 3181 441 3623 922 
Q 4066 1403 4066 2288 
Q 4066 2847 3877 3264 
Q 3688 3681 3323 3911 
Q 2959 4141 2506 4141 
Q 1863 4141 1398 3698 
Q 934 3256 934 2222 
z
" transform="scale(0.015625)"/>
      </defs>
      <use xlink:href="#ArialMT-43"/>
      <use xlink:href="#ArialMT-6f" x="72.216797"/>
      <use xlink:href="#ArialMT-28" x="127.832031"/>
      <use xlink:href="#ArialMT-43" x="161.132812"/>
      <use xlink:href="#ArialMT-4f" x="233.349609"/>
      <use xlink:href="#ArialMT-29" x="311.132812"/>
      <use xlink:href="#ArialMT-4e" x="344.433594"/>
     </g>
    </g>
    <g id="line2d_26">
     <path d="M 151.814903 72.484615 
L 161.814903 72.484615 
L 171.814903 72.484615 
" style="fill: none; stroke: #9467bd; stroke-width: 1.5; stroke-linecap: square"/>
    </g>
    <g id="text_11">
     <!-- CoNCO -->
     <g transform="translate(179.814903 75.984615) scale(0.1 -0.1)">
      <use xlink:href="#ArialMT-43"/>
      <use xlink:href="#ArialMT-6f" x="72.216797"/>
      <use xlink:href="#ArialMT-4e" x="127.832031"/>
      <use xlink:href="#ArialMT-43" x="200.048828"/>
      <use xlink:href="#ArialMT-4f" x="272.265625"/>
     </g>
    </g>
   </g>
  </g>
 </g>
 <defs>
  <clipPath id="p5510ea9c1a">
   <rect x="21.76149" y="3.00024" width="208.717476" height="194.763895"/>
  </clipPath>
 </defs>
</svg>
