<?xml version="1.0" encoding="utf-8" standalone="no"?>
<!DOCTYPE svg PUBLIC "-//W3C//DTD SVG 1.1//EN"
  "http://www.w3.org/Graphics/SVG/1.1/DTD/svg11.dtd">
<svg xmlns:xlink="http://www.w3.org/1999/xlink" width="288pt" height="288pt" viewBox="0 0 288 288" xmlns="http://www.w3.org/2000/svg" version="1.1">
 <metadata>
  <rdf:RDF xmlns:dc="http://purl.org/dc/elements/1.1/" xmlns:cc="http://creativecommons.org/ns#" xmlns:rdf="http://www.w3.org/1999/02/22-rdf-syntax-ns#">
   <cc:Work>
    <dc:type rdf:resource="http://purl.org/dc/dcmitype/StillImage"/>
    <dc:date>2024-04-06T18:23:45.037166</dc:date>
    <dc:format>image/svg+xml</dc:format>
    <dc:creator>
     <cc:Agent>
      <dc:title>Matplotlib v3.6.2, https://matplotlib.org/</dc:title>
     </cc:Agent>
    </dc:creator>
   </cc:Work>
  </rdf:RDF>
 </metadata>
 <defs>
  <style type="text/css">*{stroke-linejoin: round; stroke-linecap: butt}</style>
 </defs>
 <g id="figure_1">
  <g id="patch_1">
   <path d="M 0 288 
L 288 288 
L 288 0 
L 0 0 
z
" style="fill: #ffffff"/>
  </g>
  <g id="axes_1">
   <g id="patch_2">
    <path d="M 21.76149 251.764135 
L 284.99976 251.764135 
L 284.99976 3.00024 
L 21.76149 3.00024 
z
" style="fill: #ffffff"/>
   </g>
   <g id="matplotlib.axis_1">
    <g id="xtick_1">
     <g id="line2d_1">
      <defs>
       <path id="m4ea3c44ee3" d="M 0 0 
L 0 3.5 
" style="stroke: #000000; stroke-width: 0.8"/>
      </defs>
      <g>
       <use xlink:href="#m4ea3c44ee3" x="34.173552" y="251.764135" style="stroke: #000000; stroke-width: 0.8"/>
      </g>
     </g>
     <g id="text_1">
      <!-- 395 -->
      <g transform="translate(24.163865 267.35351) scale(0.12 -0.12)">
       <defs>
        <path id="ArialMT-33" d="M 269 1209 
L 831 1284 
Q 928 806 1161 595 
Q 1394 384 1728 384 
Q 2125 384 2398 659 
Q 2672 934 2672 1341 
Q 2672 1728 2419 1979 
Q 2166 2231 1775 2231 
Q 1616 2231 1378 2169 
L 1441 2663 
Q 1497 2656 1531 2656 
Q 1891 2656 2178 2843 
Q 2466 3031 2466 3422 
Q 2466 3731 2256 3934 
Q 2047 4138 1716 4138 
Q 1388 4138 1169 3931 
Q 950 3725 888 3313 
L 325 3413 
Q 428 3978 793 4289 
Q 1159 4600 1703 4600 
Q 2078 4600 2393 4439 
Q 2709 4278 2876 4000 
Q 3044 3722 3044 3409 
Q 3044 3113 2884 2869 
Q 2725 2625 2413 2481 
Q 2819 2388 3044 2092 
Q 3269 1797 3269 1353 
Q 3269 753 2831 336 
Q 2394 -81 1725 -81 
Q 1122 -81 723 278 
Q 325 638 269 1209 
z
" transform="scale(0.015625)"/>
        <path id="ArialMT-39" d="M 350 1059 
L 891 1109 
Q 959 728 1153 556 
Q 1347 384 1650 384 
Q 1909 384 2104 503 
Q 2300 622 2425 820 
Q 2550 1019 2634 1356 
Q 2719 1694 2719 2044 
Q 2719 2081 2716 2156 
Q 2547 1888 2255 1720 
Q 1963 1553 1622 1553 
Q 1053 1553 659 1965 
Q 266 2378 266 3053 
Q 266 3750 677 4175 
Q 1088 4600 1706 4600 
Q 2153 4600 2523 4359 
Q 2894 4119 3086 3673 
Q 3278 3228 3278 2384 
Q 3278 1506 3087 986 
Q 2897 466 2520 194 
Q 2144 -78 1638 -78 
Q 1100 -78 759 220 
Q 419 519 350 1059 
z
M 2653 3081 
Q 2653 3566 2395 3850 
Q 2138 4134 1775 4134 
Q 1400 4134 1122 3828 
Q 844 3522 844 3034 
Q 844 2597 1108 2323 
Q 1372 2050 1759 2050 
Q 2150 2050 2401 2323 
Q 2653 2597 2653 3081 
z
" transform="scale(0.015625)"/>
        <path id="ArialMT-35" d="M 266 1200 
L 856 1250 
Q 922 819 1161 601 
Q 1400 384 1738 384 
Q 2144 384 2425 690 
Q 2706 997 2706 1503 
Q 2706 1984 2436 2262 
Q 2166 2541 1728 2541 
Q 1456 2541 1237 2417 
Q 1019 2294 894 2097 
L 366 2166 
L 809 4519 
L 3088 4519 
L 3088 3981 
L 1259 3981 
L 1013 2750 
Q 1425 3038 1878 3038 
Q 2478 3038 2890 2622 
Q 3303 2206 3303 1553 
Q 3303 931 2941 478 
Q 2500 -78 1738 -78 
Q 1113 -78 717 272 
Q 322 622 266 1200 
z
" transform="scale(0.015625)"/>
       </defs>
       <use xlink:href="#ArialMT-33"/>
       <use xlink:href="#ArialMT-39" x="55.615234"/>
       <use xlink:href="#ArialMT-35" x="111.230469"/>
      </g>
     </g>
    </g>
    <g id="xtick_2">
     <g id="line2d_2">
      <g>
       <use xlink:href="#m4ea3c44ee3" x="113.770097" y="251.764135" style="stroke: #000000; stroke-width: 0.8"/>
      </g>
     </g>
     <g id="text_2">
      <!-- 400 -->
      <g transform="translate(103.760409 267.35351) scale(0.12 -0.12)">
       <defs>
        <path id="ArialMT-34" d="M 2069 0 
L 2069 1097 
L 81 1097 
L 81 1613 
L 2172 4581 
L 2631 4581 
L 2631 1613 
L 3250 1613 
L 3250 1097 
L 2631 1097 
L 2631 0 
L 2069 0 
z
M 2069 1613 
L 2069 3678 
L 634 1613 
L 2069 1613 
z
" transform="scale(0.015625)"/>
        <path id="ArialMT-30" d="M 266 2259 
Q 266 3072 433 3567 
Q 600 4063 929 4331 
Q 1259 4600 1759 4600 
Q 2128 4600 2406 4451 
Q 2684 4303 2865 4023 
Q 3047 3744 3150 3342 
Q 3253 2941 3253 2259 
Q 3253 1453 3087 958 
Q 2922 463 2592 192 
Q 2263 -78 1759 -78 
Q 1097 -78 719 397 
Q 266 969 266 2259 
z
M 844 2259 
Q 844 1131 1108 757 
Q 1372 384 1759 384 
Q 2147 384 2411 759 
Q 2675 1134 2675 2259 
Q 2675 3391 2411 3762 
Q 2147 4134 1753 4134 
Q 1366 4134 1134 3806 
Q 844 3388 844 2259 
z
" transform="scale(0.015625)"/>
       </defs>
       <use xlink:href="#ArialMT-34"/>
       <use xlink:href="#ArialMT-30" x="55.615234"/>
       <use xlink:href="#ArialMT-30" x="111.230469"/>
      </g>
     </g>
    </g>
    <g id="xtick_3">
     <g id="line2d_3">
      <g>
       <use xlink:href="#m4ea3c44ee3" x="193.366641" y="251.764135" style="stroke: #000000; stroke-width: 0.8"/>
      </g>
     </g>
     <g id="text_3">
      <!-- 405 -->
      <g transform="translate(183.356953 267.35351) scale(0.12 -0.12)">
       <use xlink:href="#ArialMT-34"/>
       <use xlink:href="#ArialMT-30" x="55.615234"/>
       <use xlink:href="#ArialMT-35" x="111.230469"/>
      </g>
     </g>
    </g>
    <g id="xtick_4">
     <g id="line2d_4">
      <g>
       <use xlink:href="#m4ea3c44ee3" x="272.963185" y="251.764135" style="stroke: #000000; stroke-width: 0.8"/>
      </g>
     </g>
     <g id="text_4">
      <!-- 410 -->
      <g transform="translate(262.953498 267.35351) scale(0.12 -0.12)">
       <defs>
        <path id="ArialMT-31" d="M 2384 0 
L 1822 0 
L 1822 3584 
Q 1619 3391 1289 3197 
Q 959 3003 697 2906 
L 697 3450 
Q 1169 3672 1522 3987 
Q 1875 4303 2022 4600 
L 2384 4600 
L 2384 0 
z
" transform="scale(0.015625)"/>
       </defs>
       <use xlink:href="#ArialMT-34"/>
       <use xlink:href="#ArialMT-31" x="55.615234"/>
       <use xlink:href="#ArialMT-30" x="111.230469"/>
      </g>
     </g>
    </g>
    <g id="xtick_5">
     <g id="line2d_5">
      <defs>
       <path id="m6575d05353" d="M 0 0 
L 0 2 
" style="stroke: #000000; stroke-width: 0.6"/>
      </defs>
      <g>
       <use xlink:href="#m6575d05353" x="50.092861" y="251.764135" style="stroke: #000000; stroke-width: 0.6"/>
      </g>
     </g>
    </g>
    <g id="xtick_6">
     <g id="line2d_6">
      <g>
       <use xlink:href="#m6575d05353" x="66.01217" y="251.764135" style="stroke: #000000; stroke-width: 0.6"/>
      </g>
     </g>
    </g>
    <g id="xtick_7">
     <g id="line2d_7">
      <g>
       <use xlink:href="#m6575d05353" x="81.931479" y="251.764135" style="stroke: #000000; stroke-width: 0.6"/>
      </g>
     </g>
    </g>
    <g id="xtick_8">
     <g id="line2d_8">
      <g>
       <use xlink:href="#m6575d05353" x="97.850788" y="251.764135" style="stroke: #000000; stroke-width: 0.6"/>
      </g>
     </g>
    </g>
    <g id="xtick_9">
     <g id="line2d_9">
      <g>
       <use xlink:href="#m6575d05353" x="129.689405" y="251.764135" style="stroke: #000000; stroke-width: 0.6"/>
      </g>
     </g>
    </g>
    <g id="xtick_10">
     <g id="line2d_10">
      <g>
       <use xlink:href="#m6575d05353" x="145.608714" y="251.764135" style="stroke: #000000; stroke-width: 0.6"/>
      </g>
     </g>
    </g>
    <g id="xtick_11">
     <g id="line2d_11">
      <g>
       <use xlink:href="#m6575d05353" x="161.528023" y="251.764135" style="stroke: #000000; stroke-width: 0.6"/>
      </g>
     </g>
    </g>
    <g id="xtick_12">
     <g id="line2d_12">
      <g>
       <use xlink:href="#m6575d05353" x="177.447332" y="251.764135" style="stroke: #000000; stroke-width: 0.6"/>
      </g>
     </g>
    </g>
    <g id="xtick_13">
     <g id="line2d_13">
      <g>
       <use xlink:href="#m6575d05353" x="209.28595" y="251.764135" style="stroke: #000000; stroke-width: 0.6"/>
      </g>
     </g>
    </g>
    <g id="xtick_14">
     <g id="line2d_14">
      <g>
       <use xlink:href="#m6575d05353" x="225.205259" y="251.764135" style="stroke: #000000; stroke-width: 0.6"/>
      </g>
     </g>
    </g>
    <g id="xtick_15">
     <g id="line2d_15">
      <g>
       <use xlink:href="#m6575d05353" x="241.124568" y="251.764135" style="stroke: #000000; stroke-width: 0.6"/>
      </g>
     </g>
    </g>
    <g id="xtick_16">
     <g id="line2d_16">
      <g>
       <use xlink:href="#m6575d05353" x="257.043876" y="251.764135" style="stroke: #000000; stroke-width: 0.6"/>
      </g>
     </g>
    </g>
    <g id="text_5">
     <!-- Excitation Energy (eV) -->
     <g transform="translate(93.690937 282.474135) scale(0.12 -0.12)">
      <defs>
       <path id="ArialMT-45" d="M 506 0 
L 506 4581 
L 3819 4581 
L 3819 4041 
L 1113 4041 
L 1113 2638 
L 3647 2638 
L 3647 2100 
L 1113 2100 
L 1113 541 
L 3925 541 
L 3925 0 
L 506 0 
z
" transform="scale(0.015625)"/>
       <path id="ArialMT-78" d="M 47 0 
L 1259 1725 
L 138 3319 
L 841 3319 
L 1350 2541 
Q 1494 2319 1581 2169 
Q 1719 2375 1834 2534 
L 2394 3319 
L 3066 3319 
L 1919 1756 
L 3153 0 
L 2463 0 
L 1781 1031 
L 1600 1309 
L 728 0 
L 47 0 
z
" transform="scale(0.015625)"/>
       <path id="ArialMT-63" d="M 2588 1216 
L 3141 1144 
Q 3050 572 2676 248 
Q 2303 -75 1759 -75 
Q 1078 -75 664 370 
Q 250 816 250 1647 
Q 250 2184 428 2587 
Q 606 2991 970 3192 
Q 1334 3394 1763 3394 
Q 2303 3394 2647 3120 
Q 2991 2847 3088 2344 
L 2541 2259 
Q 2463 2594 2264 2762 
Q 2066 2931 1784 2931 
Q 1359 2931 1093 2626 
Q 828 2322 828 1663 
Q 828 994 1084 691 
Q 1341 388 1753 388 
Q 2084 388 2306 591 
Q 2528 794 2588 1216 
z
" transform="scale(0.015625)"/>
       <path id="ArialMT-69" d="M 425 3934 
L 425 4581 
L 988 4581 
L 988 3934 
L 425 3934 
z
M 425 0 
L 425 3319 
L 988 3319 
L 988 0 
L 425 0 
z
" transform="scale(0.015625)"/>
       <path id="ArialMT-74" d="M 1650 503 
L 1731 6 
Q 1494 -44 1306 -44 
Q 1000 -44 831 53 
Q 663 150 594 308 
Q 525 466 525 972 
L 525 2881 
L 113 2881 
L 113 3319 
L 525 3319 
L 525 4141 
L 1084 4478 
L 1084 3319 
L 1650 3319 
L 1650 2881 
L 1084 2881 
L 1084 941 
Q 1084 700 1114 631 
Q 1144 563 1211 522 
Q 1278 481 1403 481 
Q 1497 481 1650 503 
z
" transform="scale(0.015625)"/>
       <path id="ArialMT-61" d="M 2588 409 
Q 2275 144 1986 34 
Q 1697 -75 1366 -75 
Q 819 -75 525 192 
Q 231 459 231 875 
Q 231 1119 342 1320 
Q 453 1522 633 1644 
Q 813 1766 1038 1828 
Q 1203 1872 1538 1913 
Q 2219 1994 2541 2106 
Q 2544 2222 2544 2253 
Q 2544 2597 2384 2738 
Q 2169 2928 1744 2928 
Q 1347 2928 1158 2789 
Q 969 2650 878 2297 
L 328 2372 
Q 403 2725 575 2942 
Q 747 3159 1072 3276 
Q 1397 3394 1825 3394 
Q 2250 3394 2515 3294 
Q 2781 3194 2906 3042 
Q 3031 2891 3081 2659 
Q 3109 2516 3109 2141 
L 3109 1391 
Q 3109 606 3145 398 
Q 3181 191 3288 0 
L 2700 0 
Q 2613 175 2588 409 
z
M 2541 1666 
Q 2234 1541 1622 1453 
Q 1275 1403 1131 1340 
Q 988 1278 909 1158 
Q 831 1038 831 891 
Q 831 666 1001 516 
Q 1172 366 1500 366 
Q 1825 366 2078 508 
Q 2331 650 2450 897 
Q 2541 1088 2541 1459 
L 2541 1666 
z
" transform="scale(0.015625)"/>
       <path id="ArialMT-6f" d="M 213 1659 
Q 213 2581 725 3025 
Q 1153 3394 1769 3394 
Q 2453 3394 2887 2945 
Q 3322 2497 3322 1706 
Q 3322 1066 3130 698 
Q 2938 331 2570 128 
Q 2203 -75 1769 -75 
Q 1072 -75 642 372 
Q 213 819 213 1659 
z
M 791 1659 
Q 791 1022 1069 705 
Q 1347 388 1769 388 
Q 2188 388 2466 706 
Q 2744 1025 2744 1678 
Q 2744 2294 2464 2611 
Q 2184 2928 1769 2928 
Q 1347 2928 1069 2612 
Q 791 2297 791 1659 
z
" transform="scale(0.015625)"/>
       <path id="ArialMT-6e" d="M 422 0 
L 422 3319 
L 928 3319 
L 928 2847 
Q 1294 3394 1984 3394 
Q 2284 3394 2536 3286 
Q 2788 3178 2913 3003 
Q 3038 2828 3088 2588 
Q 3119 2431 3119 2041 
L 3119 0 
L 2556 0 
L 2556 2019 
Q 2556 2363 2490 2533 
Q 2425 2703 2258 2804 
Q 2091 2906 1866 2906 
Q 1506 2906 1245 2678 
Q 984 2450 984 1813 
L 984 0 
L 422 0 
z
" transform="scale(0.015625)"/>
       <path id="ArialMT-20" transform="scale(0.015625)"/>
       <path id="ArialMT-65" d="M 2694 1069 
L 3275 997 
Q 3138 488 2766 206 
Q 2394 -75 1816 -75 
Q 1088 -75 661 373 
Q 234 822 234 1631 
Q 234 2469 665 2931 
Q 1097 3394 1784 3394 
Q 2450 3394 2872 2941 
Q 3294 2488 3294 1666 
Q 3294 1616 3291 1516 
L 816 1516 
Q 847 969 1125 678 
Q 1403 388 1819 388 
Q 2128 388 2347 550 
Q 2566 713 2694 1069 
z
M 847 1978 
L 2700 1978 
Q 2663 2397 2488 2606 
Q 2219 2931 1791 2931 
Q 1403 2931 1139 2672 
Q 875 2413 847 1978 
z
" transform="scale(0.015625)"/>
       <path id="ArialMT-72" d="M 416 0 
L 416 3319 
L 922 3319 
L 922 2816 
Q 1116 3169 1280 3281 
Q 1444 3394 1641 3394 
Q 1925 3394 2219 3213 
L 2025 2691 
Q 1819 2813 1613 2813 
Q 1428 2813 1281 2702 
Q 1134 2591 1072 2394 
Q 978 2094 978 1738 
L 978 0 
L 416 0 
z
" transform="scale(0.015625)"/>
       <path id="ArialMT-67" d="M 319 -275 
L 866 -356 
Q 900 -609 1056 -725 
Q 1266 -881 1628 -881 
Q 2019 -881 2231 -725 
Q 2444 -569 2519 -288 
Q 2563 -116 2559 434 
Q 2191 0 1641 0 
Q 956 0 581 494 
Q 206 988 206 1678 
Q 206 2153 378 2554 
Q 550 2956 876 3175 
Q 1203 3394 1644 3394 
Q 2231 3394 2613 2919 
L 2613 3319 
L 3131 3319 
L 3131 450 
Q 3131 -325 2973 -648 
Q 2816 -972 2473 -1159 
Q 2131 -1347 1631 -1347 
Q 1038 -1347 672 -1080 
Q 306 -813 319 -275 
z
M 784 1719 
Q 784 1066 1043 766 
Q 1303 466 1694 466 
Q 2081 466 2343 764 
Q 2606 1063 2606 1700 
Q 2606 2309 2336 2618 
Q 2066 2928 1684 2928 
Q 1309 2928 1046 2623 
Q 784 2319 784 1719 
z
" transform="scale(0.015625)"/>
       <path id="ArialMT-79" d="M 397 -1278 
L 334 -750 
Q 519 -800 656 -800 
Q 844 -800 956 -737 
Q 1069 -675 1141 -563 
Q 1194 -478 1313 -144 
Q 1328 -97 1363 -6 
L 103 3319 
L 709 3319 
L 1400 1397 
Q 1534 1031 1641 628 
Q 1738 1016 1872 1384 
L 2581 3319 
L 3144 3319 
L 1881 -56 
Q 1678 -603 1566 -809 
Q 1416 -1088 1222 -1217 
Q 1028 -1347 759 -1347 
Q 597 -1347 397 -1278 
z
" transform="scale(0.015625)"/>
       <path id="ArialMT-28" d="M 1497 -1347 
Q 1031 -759 709 28 
Q 388 816 388 1659 
Q 388 2403 628 3084 
Q 909 3875 1497 4659 
L 1900 4659 
Q 1522 4009 1400 3731 
Q 1209 3300 1100 2831 
Q 966 2247 966 1656 
Q 966 153 1900 -1347 
L 1497 -1347 
z
" transform="scale(0.015625)"/>
       <path id="ArialMT-56" d="M 1803 0 
L 28 4581 
L 684 4581 
L 1875 1253 
Q 2019 853 2116 503 
Q 2222 878 2363 1253 
L 3600 4581 
L 4219 4581 
L 2425 0 
L 1803 0 
z
" transform="scale(0.015625)"/>
       <path id="ArialMT-29" d="M 791 -1347 
L 388 -1347 
Q 1322 153 1322 1656 
Q 1322 2244 1188 2822 
Q 1081 3291 891 3722 
Q 769 4003 388 4659 
L 791 4659 
Q 1378 3875 1659 3084 
Q 1900 2403 1900 1659 
Q 1900 816 1576 28 
Q 1253 -759 791 -1347 
z
" transform="scale(0.015625)"/>
      </defs>
      <use xlink:href="#ArialMT-45"/>
      <use xlink:href="#ArialMT-78" x="66.699219"/>
      <use xlink:href="#ArialMT-63" x="116.699219"/>
      <use xlink:href="#ArialMT-69" x="166.699219"/>
      <use xlink:href="#ArialMT-74" x="188.916016"/>
      <use xlink:href="#ArialMT-61" x="216.699219"/>
      <use xlink:href="#ArialMT-74" x="272.314453"/>
      <use xlink:href="#ArialMT-69" x="300.097656"/>
      <use xlink:href="#ArialMT-6f" x="322.314453"/>
      <use xlink:href="#ArialMT-6e" x="377.929688"/>
      <use xlink:href="#ArialMT-20" x="433.544922"/>
      <use xlink:href="#ArialMT-45" x="461.328125"/>
      <use xlink:href="#ArialMT-6e" x="528.027344"/>
      <use xlink:href="#ArialMT-65" x="583.642578"/>
      <use xlink:href="#ArialMT-72" x="639.257812"/>
      <use xlink:href="#ArialMT-67" x="672.558594"/>
      <use xlink:href="#ArialMT-79" x="728.173828"/>
      <use xlink:href="#ArialMT-20" x="778.173828"/>
      <use xlink:href="#ArialMT-28" x="805.957031"/>
      <use xlink:href="#ArialMT-65" x="839.257812"/>
      <use xlink:href="#ArialMT-56" x="894.873047"/>
      <use xlink:href="#ArialMT-29" x="961.572266"/>
     </g>
    </g>
   </g>
   <g id="matplotlib.axis_2">
    <g id="text_6">
     <!-- Intensity (a.u.) -->
     <g transform="translate(11.735865 165.395) rotate(-90) scale(0.12 -0.12)">
      <defs>
       <path id="ArialMT-49" d="M 597 0 
L 597 4581 
L 1203 4581 
L 1203 0 
L 597 0 
z
" transform="scale(0.015625)"/>
       <path id="ArialMT-73" d="M 197 991 
L 753 1078 
Q 800 744 1014 566 
Q 1228 388 1613 388 
Q 2000 388 2187 545 
Q 2375 703 2375 916 
Q 2375 1106 2209 1216 
Q 2094 1291 1634 1406 
Q 1016 1563 777 1677 
Q 538 1791 414 1992 
Q 291 2194 291 2438 
Q 291 2659 392 2848 
Q 494 3038 669 3163 
Q 800 3259 1026 3326 
Q 1253 3394 1513 3394 
Q 1903 3394 2198 3281 
Q 2494 3169 2634 2976 
Q 2775 2784 2828 2463 
L 2278 2388 
Q 2241 2644 2061 2787 
Q 1881 2931 1553 2931 
Q 1166 2931 1000 2803 
Q 834 2675 834 2503 
Q 834 2394 903 2306 
Q 972 2216 1119 2156 
Q 1203 2125 1616 2013 
Q 2213 1853 2448 1751 
Q 2684 1650 2818 1456 
Q 2953 1263 2953 975 
Q 2953 694 2789 445 
Q 2625 197 2315 61 
Q 2006 -75 1616 -75 
Q 969 -75 630 194 
Q 291 463 197 991 
z
" transform="scale(0.015625)"/>
       <path id="ArialMT-2e" d="M 581 0 
L 581 641 
L 1222 641 
L 1222 0 
L 581 0 
z
" transform="scale(0.015625)"/>
       <path id="ArialMT-75" d="M 2597 0 
L 2597 488 
Q 2209 -75 1544 -75 
Q 1250 -75 995 37 
Q 741 150 617 320 
Q 494 491 444 738 
Q 409 903 409 1263 
L 409 3319 
L 972 3319 
L 972 1478 
Q 972 1038 1006 884 
Q 1059 663 1231 536 
Q 1403 409 1656 409 
Q 1909 409 2131 539 
Q 2353 669 2445 892 
Q 2538 1116 2538 1541 
L 2538 3319 
L 3100 3319 
L 3100 0 
L 2597 0 
z
" transform="scale(0.015625)"/>
      </defs>
      <use xlink:href="#ArialMT-49"/>
      <use xlink:href="#ArialMT-6e" x="27.783203"/>
      <use xlink:href="#ArialMT-74" x="83.398438"/>
      <use xlink:href="#ArialMT-65" x="111.181641"/>
      <use xlink:href="#ArialMT-6e" x="166.796875"/>
      <use xlink:href="#ArialMT-73" x="222.412109"/>
      <use xlink:href="#ArialMT-69" x="272.412109"/>
      <use xlink:href="#ArialMT-74" x="294.628906"/>
      <use xlink:href="#ArialMT-79" x="322.412109"/>
      <use xlink:href="#ArialMT-20" x="372.412109"/>
      <use xlink:href="#ArialMT-28" x="400.195312"/>
      <use xlink:href="#ArialMT-61" x="433.496094"/>
      <use xlink:href="#ArialMT-2e" x="489.111328"/>
      <use xlink:href="#ArialMT-75" x="516.894531"/>
      <use xlink:href="#ArialMT-2e" x="572.509766"/>
      <use xlink:href="#ArialMT-29" x="600.292969"/>
     </g>
    </g>
   </g>
   <g id="line2d_17">
    <path d="M 33.771664 196.53535 
L 37.602445 196.32675 
L 40.630049 196.064039 
L 44.087329 202.416636 
L 47.301068 198.086808 
L 50.157969 203.085014 
L 53.603197 207.103355 
L 56.668786 204.602205 
L 59.71478 207.179001 
L 63.735479 211.22001 
L 66.562074 211.442548 
L 69.255328 211.791173 
L 72.698802 217.345132 
L 75.69223 216.114956 
L 78.824755 214.070616 
L 82.346872 216.760978 
L 85.190139 211.382611 
L 88.445971 215.564218 
L 91.705156 214.65238 
L 94.716597 206.677192 
L 98.050771 202.575539 
L 101.274087 198.705848 
L 104.248839 195.36114 
L 107.593036 187.781367 
L 110.780165 177.687538 
L 113.763826 178.198383 
L 117.232976 185.864051 
L 120.314727 177.63752 
L 123.445524 189.598864 
L 126.694673 190.558532 
L 129.85482 196.114445 
L 132.925697 201.245381 
L 136.20764 204.689444 
L 139.377221 197.415665 
L 142.526778 199.994262 
L 145.749018 204.686311 
L 148.904858 207.953137 
L 152.063812 215.178119 
L 155.388723 218.39852 
L 158.484222 218.391753 
L 161.582712 219.120997 
L 164.754192 221.896708 
L 168.185717 221.996269 
L 171.176702 219.051739 
L 174.357679 219.457338 
L 177.471531 219.44367 
L 180.752534 220.656729 
L 183.943001 222.183203 
L 187.066152 220.965691 
L 190.286402 219.768405 
L 193.439252 212.205977 
L 196.642317 209.036967 
L 199.801392 211.694963 
L 203.105224 220.23614 
L 206.1052 213.093096 
L 209.415492 208.603435 
L 212.610775 202.199119 
L 215.666998 209.335135 
L 218.963373 212.695968 
L 222.049355 207.811175 
L 225.280918 212.720161 
L 228.515708 213.468627 
L 231.658448 218.52125 
L 234.851924 214.574704 
L 238.072413 214.587552 
L 241.200539 224.74405 
L 244.379507 235.884063 
L 247.609464 236.650015 
L 250.962446 233.93553 
L 253.959097 235.660156 
L 257.150571 239.745515 
L 260.321146 236.746381 
L 263.54292 238.104639 
L 266.767881 239.39486 
L 269.851425 239.176701 
L 273.034384 240.456685 
" clip-path="url(#p3dcd4df000)" style="fill: none; stroke: #4fbdff; stroke-width: 1.5; stroke-linecap: square"/>
   </g>
   <g id="line2d_18">
    <path d="M 34.040319 136.805062 
L 37.512776 157.858956 
L 40.764677 172.821619 
L 43.930097 177.368322 
L 47.166155 174.493223 
L 50.293006 184.044192 
L 53.648258 178.759017 
L 56.826654 185.546621 
L 59.669633 184.563925 
L 63.193064 186.004603 
L 66.154881 182.215236 
L 69.300612 187.728357 
L 72.494807 187.793836 
L 76.009883 188.418212 
L 78.756624 191.553256 
L 82.233193 198.102195 
L 85.258409 190.458197 
L 88.354853 192.73646 
L 91.545537 185.228742 
L 94.739422 187.280821 
L 98.07362 175.411313 
L 101.296961 164.902652 
L 104.225945 154.618286 
L 107.615953 150.867867 
L 110.757226 145.311629 
L 113.832712 153.212205 
L 117.141029 160.112564 
L 120.383755 166.787637 
L 123.376429 180.561768 
L 126.648563 184.076162 
L 129.900977 181.47316 
L 132.902597 181.299766 
L 136.230765 172.839124 
L 139.354074 178.31494 
L 142.503608 180.334514 
L 145.679439 181.369886 
L 148.997724 186.935033 
L 152.040573 191.078056 
L 155.318934 184.758339 
L 158.484222 190.116673 
L 161.559405 189.544557 
L 164.824187 185.864266 
L 168.045584 181.220395 
L 171.20008 182.73024 
L 174.357677 182.202001 
L 177.471531 181.383193 
L 180.705639 189.650016 
L 183.872589 186.333834 
L 187.019165 181.714597 
L 190.286402 174.680012 
L 193.439252 166.381782 
L 196.618753 163.379897 
L 199.801391 175.023769 
L 203.034392 174.073627 
L 206.152466 182.454817 
L 209.462807 188.945488 
L 212.610775 190.191719 
L 215.666998 190.505369 
L 218.939646 193.080596 
L 222.049355 194.52895 
L 225.233371 191.519001 
L 228.491911 189.605358 
L 231.658448 192.492978 
L 234.851924 190.496096 
L 238.072413 197.361162 
L 241.176648 192.258658 
L 244.355594 192.509731 
L 247.657339 194.875994 
L 250.770751 196.49857 
L 253.935113 194.459197 
L 257.198587 195.960445 
L 260.345177 197.143372 
L 263.470755 193.792602 
L 266.719725 195.983068 
L 269.851424 193.905328 
L 272.986135 199.624228 
" clip-path="url(#p3dcd4df000)" style="fill: none; stroke: #0000ff; stroke-width: 1.5; stroke-linecap: square"/>
   </g>
   <g id="line2d_19">
    <path d="M 34.107489 115.631699 
L 37.647269 128.03763 
L 40.697362 128.811896 
L 43.97502 139.187544 
L 47.256093 137.622005 
L 50.315512 131.032665 
L 54.189035 143.389161 
L 56.939421 143.491467 
L 59.647059 145.675803 
L 63.080072 146.586525 
L 66.426332 152.695812 
L 69.232686 150.130995 
L 72.585469 147.750516 
L 75.624166 151.826567 
L 78.847465 158.247698 
L 82.164986 156.690838 
L 85.258409 158.79177 
L 88.445971 153.395018 
L 91.727953 148.472562 
L 94.785072 150.216269 
L 98.027922 141.262784 
L 101.319831 124.930442 
L 104.203052 107.822735 
L 107.776381 109.669784 
L 110.803106 100.863136 
L 113.786788 95.972605 
L 117.232976 113.580131 
L 120.314727 114.570499 
L 123.39946 122.606313 
L 126.625507 137.394206 
L 129.947135 136.516754 
L 132.902597 141.374391 
L 136.230765 130.180245 
L 139.330927 133.364646 
L 142.526778 133.01022 
L 145.772212 135.147687 
L 148.928074 136.727461 
L 152.040573 141.462192 
L 155.388722 136.975877 
L 158.507507 137.58728 
L 161.629329 147.574979 
L 164.754192 139.358613 
L 168.115649 144.948485 
L 171.20008 146.783742 
L 174.334276 144.140473 
L 177.471531 140.130403 
L 180.752534 134.481293 
L 183.943001 142.15877 
L 186.995671 139.058627 
L 190.239368 133.539064 
L 193.580497 125.236225 
L 196.642317 124.830887 
L 199.848565 129.27869 
L 203.010782 139.069616 
L 206.128833 142.062547 
L 209.439149 144.843426 
L 212.563414 146.355978 
L 215.6907 143.345273 
L 218.963373 147.938089 
L 222.096854 149.442582 
L 225.233371 148.026971 
L 228.515708 150.680727 
L 231.658448 150.357332 
L 234.804237 148.934085 
L 238.096281 152.048823 
L 241.24832 153.646778 
L 244.355594 153.394867 
L 247.609464 150.68154 
L 250.770751 150.857758 
L 253.983082 158.146412 
L 257.198587 153.545556 
L 260.369208 157.225323 
L 263.446701 158.683791 
L 266.767881 154.442603 
L 269.947832 154.303621 
L 272.986134 158.392818 
" clip-path="url(#p3dcd4df000)" style="fill: none; stroke: #000000; stroke-width: 1.5; stroke-linecap: square"/>
   </g>
   <g id="line2d_20">
    <path d="M 33.726866 116.99161 
L 37.512774 116.811795 
L 40.719801 116.679257 
L 43.952559 117.515953 
L 47.233622 117.226427 
L 50.225487 116.822785 
L 53.963711 115.76635 
L 56.758997 116.247526 
L 59.64706 116.289699 
L 63.419065 116.792516 
L 66.403711 115.976388 
L 69.232686 116.83651 
L 72.585469 117.730392 
L 75.737607 117.210987 
L 78.756623 117.959313 
L 82.346872 117.554627 
L 85.144627 116.332413 
L 88.468751 114.11798 
L 91.841972 111.6756 
L 94.830723 109.081311 
L 98.027923 104.248804 
L 101.136863 97.109335 
L 104.248839 88.415026 
L 107.66179 76.844477 
L 110.734285 65.251584 
L 113.80975 56.976108 
L 117.20999 55.140147 
L 120.314727 60.934157 
L 123.376429 71.638662 
L 126.71773 81.450367 
L 129.854821 89.615032 
L 132.948798 91.74643 
L 136.25389 92.443923 
L 139.354074 93.383309 
L 142.480438 92.247881 
L 145.725825 91.761662 
L 148.904858 92.922085 
L 152.063812 94.424471 
L 155.365459 95.77251 
L 158.507507 95.306197 
L 161.606021 98.010137 
L 164.754192 98.097637 
L 168.11565 97.515765 
L 171.176702 96.943905 
L 174.334276 96.154429 
L 177.448108 93.993355 
L 180.79943 92.695494 
L 183.943001 90.957209 
L 187.066152 89.227798 
L 190.286402 86.593364 
L 193.462793 84.87994 
L 196.618753 83.813355 
L 199.801391 82.874354 
L 203.058003 79.025703 
L 206.199733 77.776137 
L 209.462807 75.872581 
L 212.563414 76.709357 
L 215.714404 75.606716 
L 218.939646 76.855739 
L 222.073104 75.863096 
L 225.257145 76.371273 
L 228.515708 75.853426 
L 231.658448 74.232367 
L 234.851924 76.130954 
L 238.024679 75.69563 
L 241.200539 75.238498 
L 244.355594 77.170827 
L 247.585527 78.455375 
L 250.962446 76.233074 
L 253.935113 77.322366 
L 257.150571 76.88512 
L 260.321146 77.352115 
L 263.470755 74.944657 
L 266.719724 77.787805 
L 269.92373 76.74835 
L 272.986134 78.023124 
" clip-path="url(#p3dcd4df000)" style="fill: none; stroke: #808080; stroke-width: 1.5; stroke-linecap: square"/>
   </g>
   <g id="line2d_21">
    <path d="M 33.883586 67.173549 
L 37.333457 68.250897 
L 40.562737 66.22907 
L 43.795334 67.209174 
L 47.211123 70.59853 
L 50.180475 69.670292 
L 53.513078 71.517882 
L 57.074748 73.680358 
L 59.647059 71.060286 
L 63.396458 72.407599 
L 66.290604 73.018159 
L 69.232686 73.931208 
L 72.676134 75.987943 
L 75.714918 76.539417 
L 78.847465 76.728172 
L 82.074049 77.126855 
L 85.394953 76.29073 
L 88.445971 75.140592 
L 91.727953 72.863206 
L 94.739422 67.78994 
L 98.119318 63.105999 
L 101.228343 53.120156 
L 104.248839 48.892467 
L 107.730544 34.540904 
L 110.711345 28.073324 
L 113.786788 21.700307 
L 117.141029 14.30769 
L 120.314727 22.264103 
L 123.39946 33.220492 
L 126.717728 40.792342 
L 129.900977 46.141147 
L 132.856397 46.378422 
L 136.277014 47.081297 
L 139.377221 46.694386 
L 142.434099 44.184463 
L 145.679439 45.473302 
L 148.974507 51.381569 
L 151.994095 51.156744 
L 155.388722 50.702676 
L 158.507507 52.091724 
L 161.582712 53.200647 
L 164.800855 51.384097 
L 168.115649 53.735997 
L 171.106569 50.012577 
L 174.427881 51.654049 
L 177.471531 51.546561 
L 180.752534 52.026549 
L 183.989944 49.411374 
L 187.042658 47.137352 
L 190.286402 46.30961 
L 193.439252 45.217181 
L 196.642317 43.916178 
L 199.801391 42.484051 
L 203.105224 42.946325 
L 206.176099 42.213527 
L 209.439149 44.448282 
L 212.658136 39.441959 
L 215.738107 40.998207 
L 218.915919 40.436567 
L 222.096854 40.582556 
L 225.233371 41.760236 
L 228.563303 40.391082 
L 231.658448 40.440353 
L 234.851924 36.029892 
L 238.000812 40.632019 
L 241.24832 39.676518 
L 244.403421 41.682285 
L 247.657339 43.015775 
L 250.722829 43.63402 
L 253.935113 45.683443 
L 257.150571 42.427074 
L 260.321146 46.391798 
L 263.49481 44.012858 
L 266.719724 43.737857 
L 269.899628 42.681814 
L 273.034384 41.34663 
" clip-path="url(#p3dcd4df000)" style="fill: none; stroke: #800080; stroke-width: 1.5; stroke-linecap: square"/>
   </g>
   <g id="patch_3">
    <path d="M 21.76149 251.764135 
L 21.76149 3.00024 
" style="fill: none; stroke: #000000; stroke-width: 0.8; stroke-linejoin: miter; stroke-linecap: square"/>
   </g>
   <g id="patch_4">
    <path d="M 284.99976 251.764135 
L 284.99976 3.00024 
" style="fill: none; stroke: #000000; stroke-width: 0.8; stroke-linejoin: miter; stroke-linecap: square"/>
   </g>
   <g id="patch_5">
    <path d="M 21.76149 251.764135 
L 284.99976 251.764135 
" style="fill: none; stroke: #000000; stroke-width: 0.8; stroke-linejoin: miter; stroke-linecap: square"/>
   </g>
   <g id="patch_6">
    <path d="M 21.76149 3.00024 
L 284.99976 3.00024 
" style="fill: none; stroke: #000000; stroke-width: 0.8; stroke-linejoin: miter; stroke-linecap: square"/>
   </g>
  </g>
 </g>
 <defs>
  <clipPath id="p3dcd4df000">
   <rect x="21.76149" y="3.00024" width="263.23827" height="248.763895"/>
  </clipPath>
 </defs>
</svg>
