<?xml version="1.0" encoding="utf-8" standalone="no"?>
<!DOCTYPE svg PUBLIC "-//W3C//DTD SVG 1.1//EN"
  "http://www.w3.org/Graphics/SVG/1.1/DTD/svg11.dtd">
<svg xmlns:xlink="http://www.w3.org/1999/xlink" width="198pt" height="288pt" viewBox="0 0 198 288" xmlns="http://www.w3.org/2000/svg" version="1.1">
 <metadata>
  <rdf:RDF xmlns:dc="http://purl.org/dc/elements/1.1/" xmlns:cc="http://creativecommons.org/ns#" xmlns:rdf="http://www.w3.org/1999/02/22-rdf-syntax-ns#">
   <cc:Work>
    <dc:type rdf:resource="http://purl.org/dc/dcmitype/StillImage"/>
    <dc:date>2024-04-04T23:01:44.731152</dc:date>
    <dc:format>image/svg+xml</dc:format>
    <dc:creator>
     <cc:Agent>
      <dc:title>Matplotlib v3.6.2, https://matplotlib.org/</dc:title>
     </cc:Agent>
    </dc:creator>
   </cc:Work>
  </rdf:RDF>
 </metadata>
 <defs>
  <style type="text/css">*{stroke-linejoin: round; stroke-linecap: butt}</style>
 </defs>
 <g id="figure_1">
  <g id="patch_1">
   <path d="M 0 288 
L 198 288 
L 198 0 
L 0 0 
z
" style="fill: #ffffff"/>
  </g>
  <g id="axes_1">
   <g id="patch_2">
    <path d="M 21.76149 251.764135 
L 194.99976 251.764135 
L 194.99976 3.00024 
L 21.76149 3.00024 
z
" style="fill: #ffffff"/>
   </g>
   <g id="matplotlib.axis_1">
    <g id="xtick_1">
     <g id="line2d_1">
      <defs>
       <path id="m1404c5946f" d="M 0 0 
L 0 3.5 
" style="stroke: #000000; stroke-width: 0.8"/>
      </defs>
      <g>
       <use xlink:href="#m1404c5946f" x="36.198013" y="251.764135" style="stroke: #000000; stroke-width: 0.8"/>
      </g>
     </g>
     <g id="text_1">
      <!-- 500 -->
      <g transform="translate(26.188325 267.35351) scale(0.12 -0.12)">
       <defs>
        <path id="ArialMT-35" d="M 266 1200 
L 856 1250 
Q 922 819 1161 601 
Q 1400 384 1738 384 
Q 2144 384 2425 690 
Q 2706 997 2706 1503 
Q 2706 1984 2436 2262 
Q 2166 2541 1728 2541 
Q 1456 2541 1237 2417 
Q 1019 2294 894 2097 
L 366 2166 
L 809 4519 
L 3088 4519 
L 3088 3981 
L 1259 3981 
L 1013 2750 
Q 1425 3038 1878 3038 
Q 2478 3038 2890 2622 
Q 3303 2206 3303 1553 
Q 3303 931 2941 478 
Q 2500 -78 1738 -78 
Q 1113 -78 717 272 
Q 322 622 266 1200 
z
" transform="scale(0.015625)"/>
        <path id="ArialMT-30" d="M 266 2259 
Q 266 3072 433 3567 
Q 600 4063 929 4331 
Q 1259 4600 1759 4600 
Q 2128 4600 2406 4451 
Q 2684 4303 2865 4023 
Q 3047 3744 3150 3342 
Q 3253 2941 3253 2259 
Q 3253 1453 3087 958 
Q 2922 463 2592 192 
Q 2263 -78 1759 -78 
Q 1097 -78 719 397 
Q 266 969 266 2259 
z
M 844 2259 
Q 844 1131 1108 757 
Q 1372 384 1759 384 
Q 2147 384 2411 759 
Q 2675 1134 2675 2259 
Q 2675 3391 2411 3762 
Q 2147 4134 1753 4134 
Q 1366 4134 1134 3806 
Q 844 3388 844 2259 
z
" transform="scale(0.015625)"/>
       </defs>
       <use xlink:href="#ArialMT-35"/>
       <use xlink:href="#ArialMT-30" x="55.615234"/>
       <use xlink:href="#ArialMT-30" x="111.230469"/>
      </g>
     </g>
    </g>
    <g id="xtick_2">
     <g id="line2d_2">
      <g>
       <use xlink:href="#m1404c5946f" x="93.944102" y="251.764135" style="stroke: #000000; stroke-width: 0.8"/>
      </g>
     </g>
     <g id="text_2">
      <!-- 520 -->
      <g transform="translate(83.934415 267.35351) scale(0.12 -0.12)">
       <defs>
        <path id="ArialMT-32" d="M 3222 541 
L 3222 0 
L 194 0 
Q 188 203 259 391 
Q 375 700 629 1000 
Q 884 1300 1366 1694 
Q 2113 2306 2375 2664 
Q 2638 3022 2638 3341 
Q 2638 3675 2398 3904 
Q 2159 4134 1775 4134 
Q 1369 4134 1125 3890 
Q 881 3647 878 3216 
L 300 3275 
Q 359 3922 746 4261 
Q 1134 4600 1788 4600 
Q 2447 4600 2831 4234 
Q 3216 3869 3216 3328 
Q 3216 3053 3103 2787 
Q 2991 2522 2730 2228 
Q 2469 1934 1863 1422 
Q 1356 997 1212 845 
Q 1069 694 975 541 
L 3222 541 
z
" transform="scale(0.015625)"/>
       </defs>
       <use xlink:href="#ArialMT-35"/>
       <use xlink:href="#ArialMT-32" x="55.615234"/>
       <use xlink:href="#ArialMT-30" x="111.230469"/>
      </g>
     </g>
    </g>
    <g id="xtick_3">
     <g id="line2d_3">
      <g>
       <use xlink:href="#m1404c5946f" x="151.690192" y="251.764135" style="stroke: #000000; stroke-width: 0.8"/>
      </g>
     </g>
     <g id="text_3">
      <!-- 540 -->
      <g transform="translate(141.680505 267.35351) scale(0.12 -0.12)">
       <defs>
        <path id="ArialMT-34" d="M 2069 0 
L 2069 1097 
L 81 1097 
L 81 1613 
L 2172 4581 
L 2631 4581 
L 2631 1613 
L 3250 1613 
L 3250 1097 
L 2631 1097 
L 2631 0 
L 2069 0 
z
M 2069 1613 
L 2069 3678 
L 634 1613 
L 2069 1613 
z
" transform="scale(0.015625)"/>
       </defs>
       <use xlink:href="#ArialMT-35"/>
       <use xlink:href="#ArialMT-34" x="55.615234"/>
       <use xlink:href="#ArialMT-30" x="111.230469"/>
      </g>
     </g>
    </g>
    <g id="xtick_4">
     <g id="line2d_4">
      <defs>
       <path id="m1d5babc1f9" d="M 0 0 
L 0 2 
" style="stroke: #000000; stroke-width: 0.6"/>
      </defs>
      <g>
       <use xlink:href="#m1d5babc1f9" x="21.76149" y="251.764135" style="stroke: #000000; stroke-width: 0.6"/>
      </g>
     </g>
    </g>
    <g id="xtick_5">
     <g id="line2d_5">
      <g>
       <use xlink:href="#m1d5babc1f9" x="50.634535" y="251.764135" style="stroke: #000000; stroke-width: 0.6"/>
      </g>
     </g>
    </g>
    <g id="xtick_6">
     <g id="line2d_6">
      <g>
       <use xlink:href="#m1d5babc1f9" x="65.071057" y="251.764135" style="stroke: #000000; stroke-width: 0.6"/>
      </g>
     </g>
    </g>
    <g id="xtick_7">
     <g id="line2d_7">
      <g>
       <use xlink:href="#m1d5babc1f9" x="79.50758" y="251.764135" style="stroke: #000000; stroke-width: 0.6"/>
      </g>
     </g>
    </g>
    <g id="xtick_8">
     <g id="line2d_8">
      <g>
       <use xlink:href="#m1d5babc1f9" x="108.380625" y="251.764135" style="stroke: #000000; stroke-width: 0.6"/>
      </g>
     </g>
    </g>
    <g id="xtick_9">
     <g id="line2d_9">
      <g>
       <use xlink:href="#m1d5babc1f9" x="122.817147" y="251.764135" style="stroke: #000000; stroke-width: 0.6"/>
      </g>
     </g>
    </g>
    <g id="xtick_10">
     <g id="line2d_10">
      <g>
       <use xlink:href="#m1d5babc1f9" x="137.25367" y="251.764135" style="stroke: #000000; stroke-width: 0.6"/>
      </g>
     </g>
    </g>
    <g id="xtick_11">
     <g id="line2d_11">
      <g>
       <use xlink:href="#m1d5babc1f9" x="166.126715" y="251.764135" style="stroke: #000000; stroke-width: 0.6"/>
      </g>
     </g>
    </g>
    <g id="xtick_12">
     <g id="line2d_12">
      <g>
       <use xlink:href="#m1d5babc1f9" x="180.563237" y="251.764135" style="stroke: #000000; stroke-width: 0.6"/>
      </g>
     </g>
    </g>
    <g id="xtick_13">
     <g id="line2d_13">
      <g>
       <use xlink:href="#m1d5babc1f9" x="194.99976" y="251.764135" style="stroke: #000000; stroke-width: 0.6"/>
      </g>
     </g>
    </g>
    <g id="text_4">
     <!-- Emission Energy (eV) -->
     <g transform="translate(50.363437 282.474135) scale(0.12 -0.12)">
      <defs>
       <path id="ArialMT-45" d="M 506 0 
L 506 4581 
L 3819 4581 
L 3819 4041 
L 1113 4041 
L 1113 2638 
L 3647 2638 
L 3647 2100 
L 1113 2100 
L 1113 541 
L 3925 541 
L 3925 0 
L 506 0 
z
" transform="scale(0.015625)"/>
       <path id="ArialMT-6d" d="M 422 0 
L 422 3319 
L 925 3319 
L 925 2853 
Q 1081 3097 1340 3245 
Q 1600 3394 1931 3394 
Q 2300 3394 2536 3241 
Q 2772 3088 2869 2813 
Q 3263 3394 3894 3394 
Q 4388 3394 4653 3120 
Q 4919 2847 4919 2278 
L 4919 0 
L 4359 0 
L 4359 2091 
Q 4359 2428 4304 2576 
Q 4250 2725 4106 2815 
Q 3963 2906 3769 2906 
Q 3419 2906 3187 2673 
Q 2956 2441 2956 1928 
L 2956 0 
L 2394 0 
L 2394 2156 
Q 2394 2531 2256 2718 
Q 2119 2906 1806 2906 
Q 1569 2906 1367 2781 
Q 1166 2656 1075 2415 
Q 984 2175 984 1722 
L 984 0 
L 422 0 
z
" transform="scale(0.015625)"/>
       <path id="ArialMT-69" d="M 425 3934 
L 425 4581 
L 988 4581 
L 988 3934 
L 425 3934 
z
M 425 0 
L 425 3319 
L 988 3319 
L 988 0 
L 425 0 
z
" transform="scale(0.015625)"/>
       <path id="ArialMT-73" d="M 197 991 
L 753 1078 
Q 800 744 1014 566 
Q 1228 388 1613 388 
Q 2000 388 2187 545 
Q 2375 703 2375 916 
Q 2375 1106 2209 1216 
Q 2094 1291 1634 1406 
Q 1016 1563 777 1677 
Q 538 1791 414 1992 
Q 291 2194 291 2438 
Q 291 2659 392 2848 
Q 494 3038 669 3163 
Q 800 3259 1026 3326 
Q 1253 3394 1513 3394 
Q 1903 3394 2198 3281 
Q 2494 3169 2634 2976 
Q 2775 2784 2828 2463 
L 2278 2388 
Q 2241 2644 2061 2787 
Q 1881 2931 1553 2931 
Q 1166 2931 1000 2803 
Q 834 2675 834 2503 
Q 834 2394 903 2306 
Q 972 2216 1119 2156 
Q 1203 2125 1616 2013 
Q 2213 1853 2448 1751 
Q 2684 1650 2818 1456 
Q 2953 1263 2953 975 
Q 2953 694 2789 445 
Q 2625 197 2315 61 
Q 2006 -75 1616 -75 
Q 969 -75 630 194 
Q 291 463 197 991 
z
" transform="scale(0.015625)"/>
       <path id="ArialMT-6f" d="M 213 1659 
Q 213 2581 725 3025 
Q 1153 3394 1769 3394 
Q 2453 3394 2887 2945 
Q 3322 2497 3322 1706 
Q 3322 1066 3130 698 
Q 2938 331 2570 128 
Q 2203 -75 1769 -75 
Q 1072 -75 642 372 
Q 213 819 213 1659 
z
M 791 1659 
Q 791 1022 1069 705 
Q 1347 388 1769 388 
Q 2188 388 2466 706 
Q 2744 1025 2744 1678 
Q 2744 2294 2464 2611 
Q 2184 2928 1769 2928 
Q 1347 2928 1069 2612 
Q 791 2297 791 1659 
z
" transform="scale(0.015625)"/>
       <path id="ArialMT-6e" d="M 422 0 
L 422 3319 
L 928 3319 
L 928 2847 
Q 1294 3394 1984 3394 
Q 2284 3394 2536 3286 
Q 2788 3178 2913 3003 
Q 3038 2828 3088 2588 
Q 3119 2431 3119 2041 
L 3119 0 
L 2556 0 
L 2556 2019 
Q 2556 2363 2490 2533 
Q 2425 2703 2258 2804 
Q 2091 2906 1866 2906 
Q 1506 2906 1245 2678 
Q 984 2450 984 1813 
L 984 0 
L 422 0 
z
" transform="scale(0.015625)"/>
       <path id="ArialMT-20" transform="scale(0.015625)"/>
       <path id="ArialMT-65" d="M 2694 1069 
L 3275 997 
Q 3138 488 2766 206 
Q 2394 -75 1816 -75 
Q 1088 -75 661 373 
Q 234 822 234 1631 
Q 234 2469 665 2931 
Q 1097 3394 1784 3394 
Q 2450 3394 2872 2941 
Q 3294 2488 3294 1666 
Q 3294 1616 3291 1516 
L 816 1516 
Q 847 969 1125 678 
Q 1403 388 1819 388 
Q 2128 388 2347 550 
Q 2566 713 2694 1069 
z
M 847 1978 
L 2700 1978 
Q 2663 2397 2488 2606 
Q 2219 2931 1791 2931 
Q 1403 2931 1139 2672 
Q 875 2413 847 1978 
z
" transform="scale(0.015625)"/>
       <path id="ArialMT-72" d="M 416 0 
L 416 3319 
L 922 3319 
L 922 2816 
Q 1116 3169 1280 3281 
Q 1444 3394 1641 3394 
Q 1925 3394 2219 3213 
L 2025 2691 
Q 1819 2813 1613 2813 
Q 1428 2813 1281 2702 
Q 1134 2591 1072 2394 
Q 978 2094 978 1738 
L 978 0 
L 416 0 
z
" transform="scale(0.015625)"/>
       <path id="ArialMT-67" d="M 319 -275 
L 866 -356 
Q 900 -609 1056 -725 
Q 1266 -881 1628 -881 
Q 2019 -881 2231 -725 
Q 2444 -569 2519 -288 
Q 2563 -116 2559 434 
Q 2191 0 1641 0 
Q 956 0 581 494 
Q 206 988 206 1678 
Q 206 2153 378 2554 
Q 550 2956 876 3175 
Q 1203 3394 1644 3394 
Q 2231 3394 2613 2919 
L 2613 3319 
L 3131 3319 
L 3131 450 
Q 3131 -325 2973 -648 
Q 2816 -972 2473 -1159 
Q 2131 -1347 1631 -1347 
Q 1038 -1347 672 -1080 
Q 306 -813 319 -275 
z
M 784 1719 
Q 784 1066 1043 766 
Q 1303 466 1694 466 
Q 2081 466 2343 764 
Q 2606 1063 2606 1700 
Q 2606 2309 2336 2618 
Q 2066 2928 1684 2928 
Q 1309 2928 1046 2623 
Q 784 2319 784 1719 
z
" transform="scale(0.015625)"/>
       <path id="ArialMT-79" d="M 397 -1278 
L 334 -750 
Q 519 -800 656 -800 
Q 844 -800 956 -737 
Q 1069 -675 1141 -563 
Q 1194 -478 1313 -144 
Q 1328 -97 1363 -6 
L 103 3319 
L 709 3319 
L 1400 1397 
Q 1534 1031 1641 628 
Q 1738 1016 1872 1384 
L 2581 3319 
L 3144 3319 
L 1881 -56 
Q 1678 -603 1566 -809 
Q 1416 -1088 1222 -1217 
Q 1028 -1347 759 -1347 
Q 597 -1347 397 -1278 
z
" transform="scale(0.015625)"/>
       <path id="ArialMT-28" d="M 1497 -1347 
Q 1031 -759 709 28 
Q 388 816 388 1659 
Q 388 2403 628 3084 
Q 909 3875 1497 4659 
L 1900 4659 
Q 1522 4009 1400 3731 
Q 1209 3300 1100 2831 
Q 966 2247 966 1656 
Q 966 153 1900 -1347 
L 1497 -1347 
z
" transform="scale(0.015625)"/>
       <path id="ArialMT-56" d="M 1803 0 
L 28 4581 
L 684 4581 
L 1875 1253 
Q 2019 853 2116 503 
Q 2222 878 2363 1253 
L 3600 4581 
L 4219 4581 
L 2425 0 
L 1803 0 
z
" transform="scale(0.015625)"/>
       <path id="ArialMT-29" d="M 791 -1347 
L 388 -1347 
Q 1322 153 1322 1656 
Q 1322 2244 1188 2822 
Q 1081 3291 891 3722 
Q 769 4003 388 4659 
L 791 4659 
Q 1378 3875 1659 3084 
Q 1900 2403 1900 1659 
Q 1900 816 1576 28 
Q 1253 -759 791 -1347 
z
" transform="scale(0.015625)"/>
      </defs>
      <use xlink:href="#ArialMT-45"/>
      <use xlink:href="#ArialMT-6d" x="66.699219"/>
      <use xlink:href="#ArialMT-69" x="150"/>
      <use xlink:href="#ArialMT-73" x="172.216797"/>
      <use xlink:href="#ArialMT-73" x="222.216797"/>
      <use xlink:href="#ArialMT-69" x="272.216797"/>
      <use xlink:href="#ArialMT-6f" x="294.433594"/>
      <use xlink:href="#ArialMT-6e" x="350.048828"/>
      <use xlink:href="#ArialMT-20" x="405.664062"/>
      <use xlink:href="#ArialMT-45" x="433.447266"/>
      <use xlink:href="#ArialMT-6e" x="500.146484"/>
      <use xlink:href="#ArialMT-65" x="555.761719"/>
      <use xlink:href="#ArialMT-72" x="611.376953"/>
      <use xlink:href="#ArialMT-67" x="644.677734"/>
      <use xlink:href="#ArialMT-79" x="700.292969"/>
      <use xlink:href="#ArialMT-20" x="750.292969"/>
      <use xlink:href="#ArialMT-28" x="778.076172"/>
      <use xlink:href="#ArialMT-65" x="811.376953"/>
      <use xlink:href="#ArialMT-56" x="866.992188"/>
      <use xlink:href="#ArialMT-29" x="933.691406"/>
     </g>
    </g>
   </g>
   <g id="matplotlib.axis_2">
    <g id="text_5">
     <!-- Intensity (a.u.) -->
     <g transform="translate(11.735865 165.395) rotate(-90) scale(0.12 -0.12)">
      <defs>
       <path id="ArialMT-49" d="M 597 0 
L 597 4581 
L 1203 4581 
L 1203 0 
L 597 0 
z
" transform="scale(0.015625)"/>
       <path id="ArialMT-74" d="M 1650 503 
L 1731 6 
Q 1494 -44 1306 -44 
Q 1000 -44 831 53 
Q 663 150 594 308 
Q 525 466 525 972 
L 525 2881 
L 113 2881 
L 113 3319 
L 525 3319 
L 525 4141 
L 1084 4478 
L 1084 3319 
L 1650 3319 
L 1650 2881 
L 1084 2881 
L 1084 941 
Q 1084 700 1114 631 
Q 1144 563 1211 522 
Q 1278 481 1403 481 
Q 1497 481 1650 503 
z
" transform="scale(0.015625)"/>
       <path id="ArialMT-61" d="M 2588 409 
Q 2275 144 1986 34 
Q 1697 -75 1366 -75 
Q 819 -75 525 192 
Q 231 459 231 875 
Q 231 1119 342 1320 
Q 453 1522 633 1644 
Q 813 1766 1038 1828 
Q 1203 1872 1538 1913 
Q 2219 1994 2541 2106 
Q 2544 2222 2544 2253 
Q 2544 2597 2384 2738 
Q 2169 2928 1744 2928 
Q 1347 2928 1158 2789 
Q 969 2650 878 2297 
L 328 2372 
Q 403 2725 575 2942 
Q 747 3159 1072 3276 
Q 1397 3394 1825 3394 
Q 2250 3394 2515 3294 
Q 2781 3194 2906 3042 
Q 3031 2891 3081 2659 
Q 3109 2516 3109 2141 
L 3109 1391 
Q 3109 606 3145 398 
Q 3181 191 3288 0 
L 2700 0 
Q 2613 175 2588 409 
z
M 2541 1666 
Q 2234 1541 1622 1453 
Q 1275 1403 1131 1340 
Q 988 1278 909 1158 
Q 831 1038 831 891 
Q 831 666 1001 516 
Q 1172 366 1500 366 
Q 1825 366 2078 508 
Q 2331 650 2450 897 
Q 2541 1088 2541 1459 
L 2541 1666 
z
" transform="scale(0.015625)"/>
       <path id="ArialMT-2e" d="M 581 0 
L 581 641 
L 1222 641 
L 1222 0 
L 581 0 
z
" transform="scale(0.015625)"/>
       <path id="ArialMT-75" d="M 2597 0 
L 2597 488 
Q 2209 -75 1544 -75 
Q 1250 -75 995 37 
Q 741 150 617 320 
Q 494 491 444 738 
Q 409 903 409 1263 
L 409 3319 
L 972 3319 
L 972 1478 
Q 972 1038 1006 884 
Q 1059 663 1231 536 
Q 1403 409 1656 409 
Q 1909 409 2131 539 
Q 2353 669 2445 892 
Q 2538 1116 2538 1541 
L 2538 3319 
L 3100 3319 
L 3100 0 
L 2597 0 
z
" transform="scale(0.015625)"/>
      </defs>
      <use xlink:href="#ArialMT-49"/>
      <use xlink:href="#ArialMT-6e" x="27.783203"/>
      <use xlink:href="#ArialMT-74" x="83.398438"/>
      <use xlink:href="#ArialMT-65" x="111.181641"/>
      <use xlink:href="#ArialMT-6e" x="166.796875"/>
      <use xlink:href="#ArialMT-73" x="222.412109"/>
      <use xlink:href="#ArialMT-69" x="272.412109"/>
      <use xlink:href="#ArialMT-74" x="294.628906"/>
      <use xlink:href="#ArialMT-79" x="322.412109"/>
      <use xlink:href="#ArialMT-20" x="372.412109"/>
      <use xlink:href="#ArialMT-28" x="400.195312"/>
      <use xlink:href="#ArialMT-61" x="433.496094"/>
      <use xlink:href="#ArialMT-2e" x="489.111328"/>
      <use xlink:href="#ArialMT-75" x="516.894531"/>
      <use xlink:href="#ArialMT-2e" x="572.509766"/>
      <use xlink:href="#ArialMT-29" x="600.292969"/>
     </g>
    </g>
   </g>
   <g id="line2d_14">
    <path d="M 21.759469 240.165338 
L 22.080826 240.051332 
L 22.402241 239.785319 
L 23.367524 239.949994 
L 23.689603 239.658646 
L 24.011826 239.797987 
L 24.334136 239.59531 
L 24.656648 238.999948 
L 24.979218 239.696648 
L 25.302076 240.114669 
L 25.624906 239.126621 
L 25.948024 238.98728 
L 26.271229 237.758554 
L 26.918071 239.899325 
L 27.241796 239.506639 
L 27.565521 238.543926 
L 27.889534 239.87399 
L 28.213605 240.127336 
L 28.537849 240.063999 
L 28.862209 240.178005 
L 29.186742 239.101286 
L 29.51142 238.860608 
L 30.161265 239.886658 
L 30.81163 239.620645 
L 31.13703 238.936611 
L 31.462602 237.289865 
L 31.78829 238.670598 
L 32.440157 239.962661 
L 32.766249 240.038665 
L 33.09263 239.861323 
L 33.419011 240.292011 
L 33.745623 239.03795 
L 34.07235 238.277913 
L 34.399251 239.101286 
L 34.726238 240.355347 
L 35.053514 239.810654 
L 35.380848 239.012615 
L 36.03589 239.519306 
L 36.363657 238.518591 
L 36.691626 239.785319 
L 37.019682 239.329297 
L 37.347882 239.569975 
L 37.676284 238.265245 
L 38.004859 239.785319 
L 38.333521 240.127336 
L 38.991306 239.835988 
L 39.320401 240.000663 
L 39.97914 239.924659 
L 40.308697 239.329297 
L 40.638398 236.187811 
L 40.968302 236.960515 
L 41.298292 239.658646 
L 41.628455 239.202624 
L 41.958791 239.59531 
L 42.619897 239.848656 
L 42.950696 239.797987 
L 43.281639 240.165338 
L 43.612668 240.140003 
L 43.9439 238.885942 
L 44.275305 238.518591 
L 44.938518 239.430635 
L 45.270356 237.530543 
L 45.934465 238.733935 
L 46.599209 239.975328 
L 46.931827 237.353201 
L 47.264531 239.379966 
L 47.597437 237.12519 
L 47.930517 239.012615 
L 48.59708 240.114669 
L 48.930506 239.87399 
L 49.264191 238.467922 
L 49.59805 239.468637 
L 49.931996 239.924659 
L 50.266144 238.455255 
L 50.600349 239.620645 
L 50.934815 239.886658 
L 51.269396 238.784604 
L 51.60415 238.328582 
L 51.938961 240.140003 
L 52.274062 239.645979 
L 52.609249 239.696648 
L 52.94461 239.03795 
L 53.280057 239.265961 
L 53.615764 238.923944 
L 53.951557 238.771937 
L 54.287553 239.443303 
L 54.623606 237.948563 
L 54.959948 239.582643 
L 55.296348 239.924659 
L 55.63295 239.354632 
L 56.306587 240.076667 
L 56.643622 239.949994 
L 56.98083 240.292011 
L 57.318125 237.302532 
L 57.65568 237.581212 
L 57.99335 237.277197 
L 58.331165 239.291295 
L 58.669182 239.87399 
L 59.007256 238.949279 
L 59.345533 238.531258 
L 59.684069 239.797987 
L 60.022606 240.292011 
L 60.700285 236.593164 
L 61.039341 238.391918 
L 61.37857 239.253293 
L 61.717973 237.631881 
L 62.057578 238.277913 
L 62.39724 239.823321 
L 62.737105 239.835988 
L 63.077143 240.051332 
L 63.417267 239.797987 
L 63.757623 240.01333 
L 64.098094 239.87399 
L 64.438767 239.417968 
L 64.779584 240.063999 
L 65.120488 239.265961 
L 65.461565 236.84651 
L 66.144269 239.519306 
L 66.485894 240.025998 
L 66.827694 239.899325 
L 67.169579 237.847225 
L 67.511638 239.189957 
L 67.85387 239.633312 
L 68.196276 237.049186 
L 68.538768 238.7086 
L 68.88152 239.810654 
L 69.224387 239.924659 
L 69.567399 239.417968 
L 69.910613 239.379966 
L 70.253885 239.063284 
L 70.597358 239.088619 
L 70.941005 238.923944 
L 71.284826 239.215292 
L 71.628819 238.645264 
L 71.972986 239.164622 
L 72.317326 238.746602 
L 72.661694 239.075951 
L 73.006381 239.911992 
L 73.351096 240.15267 
L 73.696129 239.367299 
L 74.041191 239.569975 
L 74.386426 238.379251 
L 74.731834 239.633312 
L 75.077415 239.075951 
L 75.42317 239.683981 
L 75.769098 239.721983 
L 76.115199 239.405301 
L 76.461503 238.56926 
L 76.807777 238.784604 
L 77.154427 238.227243 
L 77.501048 237.885227 
L 77.847871 234.959085 
L 78.19504 236.010469 
L 78.54221 236.314484 
L 78.889552 239.785319 
L 79.237068 239.493972 
L 79.584758 238.201909 
L 79.932649 238.607262 
L 80.280685 234.895748 
L 80.628749 233.705024 
L 80.977131 236.415822 
L 81.325716 233.76836 
L 81.6743 233.071659 
L 82.372161 237.213861 
L 82.721265 239.468637 
L 83.070543 237.720552 
L 83.419993 233.02099 
L 83.769646 237.099855 
L 84.119443 234.781743 
L 84.469442 235.731789 
L 84.819585 235.35177 
L 85.169931 232.526966 
L 85.520449 233.401009 
L 85.870968 229.66416 
L 86.221833 229.550155 
L 86.572872 228.042748 
L 86.92391 224.837926 
L 87.275151 226.877358 
L 87.626709 221.607769 
L 87.978296 219.593671 
L 88.330028 219.948355 
L 88.681961 219.733011 
L 89.034068 214.007399 
L 90.091428 208.421128 
L 90.444227 211.76529 
L 90.797229 211.714621 
L 91.150376 218.466283 
L 91.503522 212.183311 
L 91.857043 209.76386 
L 92.210738 215.476804 
L 92.564433 203.784902 
L 92.918474 201.517459 
L 93.272515 212.93068 
L 93.62673 212.867344 
L 93.981291 199.782041 
L 94.335852 199.769374 
L 94.690586 195.981856 
L 95.045523 199.503361 
L 95.400805 207.154399 
L 95.756059 210.080542 
L 96.111515 193.157052 
L 96.467145 190.534925 
L 96.822947 193.752414 
L 97.17875 189.141524 
L 97.534899 191.370965 
L 98.247745 198.325303 
L 98.604414 192.815036 
L 99.318156 168.658528 
L 99.675171 156.789284 
L 100.032561 165.555043 
L 100.747689 145.578739 
L 101.463538 152.102389 
L 101.821622 150.74699 
L 102.538511 124.487713 
L 102.897143 124.55105 
L 103.255948 122.422946 
L 103.6151 128.237229 
L 103.974252 113.302503 
L 104.693075 106.626845 
L 105.052747 106.158156 
L 105.41262 117.660048 
L 105.772638 136.888983 
L 106.132858 132.303427 
L 106.493223 144.464018 
L 106.85379 146.22477 
L 107.575442 160.665472 
L 107.936529 156.814619 
L 108.297615 158.62604 
L 108.659077 166.999114 
L 109.020683 162.324886 
L 109.382462 161.602851 
L 109.744443 159.436746 
L 110.106425 167.569141 
L 110.468752 180.705113 
L 110.831225 177.538293 
L 111.193726 177.018934 
L 111.556602 184.5433 
L 111.919623 180.920457 
L 112.282644 187.368104 
L 112.646011 186.544731 
L 113.00958 190.433586 
L 113.37315 196.564551 
L 113.737037 197.425926 
L 114.100953 206.875719 
L 114.465215 211.511945 
L 114.829477 209.751192 
L 115.194086 211.967967 
L 115.558695 210.447893 
L 115.923679 209.915867 
L 116.288634 211.258599 
L 116.653965 216.173505 
L 117.019267 217.820251 
L 117.750621 226.966029 
L 118.116645 225.547294 
L 118.849038 230.056846 
L 119.215408 228.08075 
L 119.582154 231.450247 
L 119.94887 231.285573 
L 120.315789 226.167991 
L 120.683025 233.705024 
L 121.05029 233.578351 
L 121.417902 231.43758 
L 121.785514 234.642403 
L 122.153472 230.816883 
L 122.52143 232.843648 
L 122.889763 237.137857 
L 123.258068 235.187096 
L 123.626748 230.867552 
L 123.995399 233.363007 
L 124.364425 234.173713 
L 124.733451 232.159615 
L 125.472197 238.366584 
L 125.841917 238.075236 
L 126.581702 235.339103 
L 126.951796 235.833127 
L 127.322209 235.187096 
L 127.692823 233.933035 
L 128.063438 233.223667 
L 128.434398 236.643833 
L 128.805533 238.746602 
L 129.176667 238.632597 
L 129.548147 237.302532 
L 129.919801 237.910561 
L 130.291455 236.149809 
L 130.663484 236.149809 
L 131.408033 239.886658 
L 131.780409 239.430635 
L 132.153131 238.29058 
L 132.526026 237.935896 
L 132.899095 235.693787 
L 133.272337 236.441157 
L 133.645781 235.263099 
L 134.019369 235.985134 
L 134.39316 235.326436 
L 134.767094 238.683266 
L 135.141231 239.620645 
L 135.515542 239.405301 
L 135.890025 240.076667 
L 136.639511 239.709316 
L 137.014717 240.216007 
L 137.765271 237.049186 
L 138.140794 239.709316 
L 138.516692 240.038665 
L 139.268835 239.569975 
L 139.64508 239.025282 
L 140.021498 238.898609 
L 140.398262 239.772652 
L 141.152166 239.835988 
L 141.906937 239.747317 
L 142.284423 239.227959 
L 143.040261 239.772652 
L 143.41844 238.809938 
L 143.796793 239.721983 
L 144.175347 239.278628 
L 144.554046 239.924659 
L 144.932947 239.899325 
L 145.311992 237.201194 
L 145.69124 237.277197 
L 146.070661 239.430635 
L 146.450428 239.848656 
L 146.830195 239.493972 
L 147.210135 239.493972 
L 147.590451 239.088619 
L 147.970738 239.924659 
L 148.3514 239.899325 
L 148.732034 240.127336 
L 149.113042 240.063999 
L 149.494224 239.696648 
L 149.875579 239.151955 
L 150.256935 239.785319 
L 150.638636 240.01333 
L 151.02054 239.430635 
L 151.402588 239.759985 
L 152.167233 239.645979 
L 152.550003 239.848656 
L 152.932773 239.291295 
L 153.315716 239.987996 
L 153.699006 239.848656 
L 154.082295 240.063999 
L 154.465932 239.886658 
L 154.849597 240.076667 
L 155.233579 239.709316 
L 155.617764 238.98728 
L 156.002122 238.809938 
L 156.771358 239.227959 
L 157.156235 238.999948 
L 157.541286 239.557308 
L 158.311937 239.291295 
L 158.697507 239.607977 
L 159.083453 239.227959 
L 159.46937 239.443303 
L 159.855663 239.810654 
L 160.242129 239.937327 
L 160.628594 239.354632 
L 161.015435 238.176574 
L 161.402421 238.467922 
L 161.789579 239.569975 
L 162.17694 240.114669 
L 162.564474 239.544641 
L 162.952326 239.17729 
L 163.340206 239.87399 
L 164.11666 239.747317 
L 164.505263 239.03795 
L 164.893836 239.937327 
L 166.061144 239.215292 
L 166.450613 239.899325 
L 166.840255 239.620645 
L 167.23007 239.506639 
L 167.620231 239.227959 
L 168.010392 239.519306 
L 168.400929 240.406016 
L 168.791437 239.87399 
L 169.18232 239.848656 
L 169.573377 239.569975 
L 169.964578 239.607977 
L 170.355981 239.493972 
L 171.139307 239.088619 
L 171.531258 239.45597 
L 171.923527 239.569975 
L 172.708441 240.127336 
L 173.101259 239.747317 
L 173.49425 240.063999 
L 174.280752 239.025282 
L 174.674262 238.961946 
L 175.067946 239.17729 
L 175.462006 238.683266 
L 175.856036 239.582643 
L 176.644992 238.961946 
L 177.039744 239.544641 
L 177.43467 239.544641 
L 177.829769 239.721983 
L 178.225069 239.139288 
L 179.016306 239.607977 
L 179.412127 239.645979 
L 179.808294 238.607262 
L 180.601119 239.265961 
L 180.997806 239.861323 
L 181.394666 239.31663 
L 181.791901 239.17729 
L 182.189108 239.696648 
L 182.586689 239.73465 
L 182.984242 239.468637 
L 183.382171 239.645979 
L 183.780272 239.949994 
L 184.178547 239.025282 
L 184.576995 239.937327 
L 185.374584 239.633312 
L 185.773754 239.151955 
L 186.173068 239.291295 
L 186.572584 239.924659 
L 186.972274 239.31663 
L 187.372137 239.303963 
L 187.772173 239.59531 
L 188.172555 239.063284 
L 188.973667 240.038665 
L 189.374598 239.202624 
L 189.775673 238.835273 
L 190.176951 239.709316 
L 190.578402 239.557308 
L 190.980199 238.974613 
L 191.381996 240.178005 
L 191.78414 239.73465 
L 192.186457 238.98728 
L 192.588976 239.747317 
L 192.99164 239.848656 
L 193.394505 239.417968 
L 193.797717 239.721983 
L 194.201103 239.607977 
L 194.604488 239.31663 
L 195.00822 239.405301 
L 195.00822 239.405301 
" clip-path="url(#p2254699bba)" style="fill: none; stroke: #d57800; stroke-width: 1.5; stroke-linecap: square"/>
   </g>
   <g id="line2d_15">
    <path d="M 21.759469 226.281996 
L 22.402241 226.472005 
L 22.723857 226.256661 
L 23.045648 227.257377 
L 23.689603 224.673251 
L 24.011826 226.383334 
L 24.334136 226.63668 
L 24.656648 225.420621 
L 24.979218 227.181373 
L 25.302076 226.738018 
L 25.624906 227.320713 
L 25.948024 226.77602 
L 26.271229 227.143371 
L 26.594607 226.966029 
L 26.918071 225.990649 
L 27.241796 224.242564 
L 27.565521 226.269329 
L 27.889534 225.420621 
L 28.213605 226.015983 
L 28.537849 225.673966 
L 28.862209 224.039887 
L 29.186742 224.407238 
L 29.51142 227.599393 
L 29.836212 226.700016 
L 30.161265 226.611345 
L 30.81163 225.648632 
L 31.13703 224.115891 
L 31.462602 224.72392 
L 31.78829 225.914645 
L 32.114122 225.838641 
L 32.440157 226.003316 
L 32.766249 227.308046 
L 33.09263 227.536057 
L 33.419011 227.181373 
L 33.745623 227.52339 
L 34.07235 227.232042 
L 34.399251 227.396717 
L 34.726238 226.991364 
L 35.053514 225.458623 
L 35.380848 222.912499 
L 36.03589 226.510007 
L 36.363657 225.015268 
L 36.691626 226.472005 
L 37.019682 224.698586 
L 37.347882 226.066652 
L 37.676284 226.269329 
L 38.004859 225.825974 
L 38.333521 226.294663 
L 38.662385 224.989933 
L 38.991306 225.179942 
L 39.320401 225.851308 
L 39.649698 225.724636 
L 39.97914 224.622582 
L 40.308697 225.458623 
L 40.638398 224.293233 
L 40.968302 225.939979 
L 41.958791 223.799209 
L 42.289301 224.609915 
L 42.619897 226.269329 
L 42.950696 226.472005 
L 43.281639 226.902693 
L 43.612668 227.0547 
L 43.9439 226.49734 
L 44.275305 224.495909 
L 44.938518 227.0547 
L 45.270356 226.864691 
L 45.602367 227.004031 
L 45.934465 226.953362 
L 46.599209 221.620436 
L 46.931827 225.281281 
L 47.264531 224.293233 
L 48.263654 222.633819 
L 48.59708 225.281281 
L 48.930506 226.63668 
L 49.264191 223.330519 
L 49.59805 224.483242 
L 49.931996 224.16656 
L 50.266144 224.850593 
L 50.600349 225.863976 
L 50.934815 226.319998 
L 51.269396 223.368521 
L 51.60415 226.687349 
L 51.938961 226.814022 
L 52.274062 225.382619 
L 52.609249 222.494479 
L 52.94461 225.661299 
L 53.280057 226.940695 
L 53.615764 226.953362 
L 53.951557 227.308046 
L 54.287553 225.268613 
L 54.623606 219.986357 
L 54.959948 224.673251 
L 55.296348 225.521959 
L 55.63295 225.990649 
L 55.969639 224.86326 
L 56.306587 223.241848 
L 56.643622 225.458623 
L 56.98083 226.712684 
L 57.318125 222.317137 
L 57.99335 226.396002 
L 58.331165 227.396717 
L 58.669182 226.801355 
L 59.007256 224.571913 
L 59.345533 223.786541 
L 59.684069 225.572628 
L 60.022606 226.104654 
L 60.700285 222.329804 
L 61.039341 223.178512 
L 61.37857 224.951931 
L 61.717973 225.914645 
L 62.057578 224.508576 
L 62.39724 225.534626 
L 62.737105 227.257377 
L 63.077143 226.573344 
L 63.417267 226.826689 
L 63.757623 226.662015 
L 64.098094 222.291802 
L 64.438767 223.267183 
L 64.779584 225.534626 
L 65.120488 223.229181 
L 65.461565 224.115891 
L 65.802931 226.763353 
L 66.144269 227.409384 
L 66.485894 227.067368 
L 67.169579 223.507861 
L 67.511638 224.58458 
L 67.85387 227.308046 
L 68.196276 225.585296 
L 68.538768 224.875928 
L 68.88152 225.382619 
L 69.224387 223.305185 
L 69.567399 223.191179 
L 69.910613 222.507146 
L 70.253885 222.519813 
L 70.597358 225.547294 
L 70.941005 226.383334 
L 71.284826 227.66273 
L 71.628819 227.24471 
L 71.972986 226.02865 
L 72.317326 222.165129 
L 72.661694 225.711968 
L 73.006381 222.899832 
L 73.351096 223.431857 
L 73.696129 223.241848 
L 74.041191 221.240418 
L 74.386426 222.671821 
L 74.731834 225.116606 
L 75.077415 226.117321 
L 75.42317 222.329804 
L 75.769098 223.355854 
L 76.115199 221.810445 
L 76.461503 220.936403 
L 76.807777 225.825974 
L 77.154427 223.659869 
L 77.501048 225.129273 
L 77.847871 225.623297 
L 78.19504 225.230612 
L 78.54221 224.407238 
L 78.889552 221.962453 
L 79.237068 224.3059 
L 79.584758 225.863976 
L 79.932649 225.243279 
L 80.280685 221.987787 
L 80.628749 222.697155 
L 81.325716 217.908922 
L 81.6743 221.797778 
L 82.023057 221.569767 
L 82.372161 220.860399 
L 82.721265 219.124981 
L 83.070543 222.190464 
L 83.419993 215.26146 
L 83.769646 214.514091 
L 84.119443 211.76529 
L 84.469442 212.715336 
L 84.819585 215.704815 
L 85.169931 217.604907 
L 85.520449 213.868059 
L 85.870968 215.654146 
L 86.221833 216.806869 
L 86.572872 216.135503 
L 87.275151 206.26769 
L 87.626709 202.277496 
L 87.978296 202.239494 
L 88.330028 198.603984 
L 88.681961 196.33654 
L 89.034068 196.982571 
L 89.386521 188.102806 
L 89.738801 186.87408 
L 90.091428 189.027518 
L 90.444227 192.257675 
L 90.797229 187.178095 
L 91.503522 183.339908 
L 91.857043 186.5954 
L 92.210738 180.933125 
L 92.564433 183.542585 
L 92.918474 180.743115 
L 93.272515 176.626248 
L 93.62673 164.503659 
L 93.981291 162.40089 
L 94.335852 168.658528 
L 94.690586 164.098306 
L 95.045523 166.163073 
L 95.400805 173.725441 
L 96.111515 150.404974 
L 96.467145 159.32274 
L 96.822947 158.575371 
L 97.17875 169.038546 
L 97.534899 163.642284 
L 98.247745 140.106473 
L 98.604414 142.31058 
L 98.961112 135.394244 
L 99.318156 139.549112 
L 100.032561 125.881115 
L 100.747689 112.808479 
L 101.105455 103.092673 
L 101.463538 114.417224 
L 101.821622 114.176545 
L 102.180081 88.487296 
L 102.897143 53.208914 
L 103.255948 52.233534 
L 103.6151 29.331087 
L 103.974252 38.210852 
L 104.333577 29.673104 
L 104.693075 26.974972 
L 105.052747 14.30769 
L 105.41262 26.062928 
L 106.132858 67.674951 
L 107.214529 109.350311 
L 107.575442 113.9232 
L 107.936529 102.155294 
L 108.297615 96.366346 
L 108.659077 103.282682 
L 109.020683 118.876107 
L 109.382462 113.581183 
L 110.468752 130.073985 
L 111.193726 148.251536 
L 111.556602 135.647589 
L 111.919623 137.167663 
L 112.282644 140.461157 
L 112.646011 148.036192 
L 113.00958 150.341637 
L 113.37315 154.306497 
L 113.737037 163.971633 
L 114.100953 167.252459 
L 114.465215 168.101167 
L 114.829477 175.448191 
L 115.194086 175.068173 
L 115.558695 180.211089 
L 115.923679 180.059082 
L 116.288634 180.413766 
L 116.653965 190.002899 
L 117.019267 192.156337 
L 117.384944 203.480887 
L 118.116645 199.668035 
L 118.482668 196.108529 
L 118.849038 209.168497 
L 119.215408 213.044686 
L 119.582154 213.842725 
L 119.94887 212.816675 
L 120.315789 213.526043 
L 120.683025 211.182595 
L 121.05029 207.040394 
L 121.417902 209.890532 
L 121.785514 210.815244 
L 122.153472 219.796347 
L 122.52143 220.581719 
L 122.889763 223.634534 
L 123.258068 219.695009 
L 123.626748 219.010976 
L 123.995399 219.568336 
L 124.364425 222.608484 
L 124.733451 221.962453 
L 125.102824 222.279135 
L 125.472197 220.366375 
L 125.841917 219.897686 
L 126.211636 221.202416 
L 126.581702 223.685203 
L 126.951796 223.089841 
L 127.322209 225.293948 
L 127.692823 224.698586 
L 128.063438 219.834349 
L 128.434398 222.621151 
L 128.805533 223.659869 
L 129.176667 223.951216 
L 129.548147 223.254516 
L 129.919801 224.749255 
L 130.291455 224.153893 
L 130.663484 223.229181 
L 131.035687 225.990649 
L 131.408033 222.912499 
L 131.780409 222.760491 
L 132.153131 226.63668 
L 132.526026 225.952647 
L 132.899095 222.431142 
L 133.272337 224.850593 
L 133.645781 224.875928 
L 134.019369 225.597963 
L 134.39316 226.725351 
L 134.767094 223.925881 
L 135.141231 222.659153 
L 135.515542 225.293948 
L 135.890025 225.673966 
L 136.264682 225.762637 
L 136.639511 226.129989 
L 137.014717 225.129273 
L 137.389893 225.559961 
L 137.765271 224.267898 
L 138.140794 225.496625 
L 138.516692 226.243994 
L 138.892591 225.952647 
L 139.268835 226.07932 
L 139.64508 227.0547 
L 140.021498 226.738018 
L 140.775229 227.536057 
L 141.152166 225.851308 
L 141.529479 225.775305 
L 141.906937 224.546578 
L 142.284423 224.685918 
L 142.662255 225.179942 
L 143.040261 226.560676 
L 143.41844 226.877358 
L 143.796793 226.49734 
L 144.175347 225.737303 
L 144.932947 226.269329 
L 145.311992 224.508576 
L 145.69124 225.141941 
L 146.070661 226.459338 
L 146.450428 227.270044 
L 146.830195 226.902693 
L 147.210135 226.978697 
L 147.590451 226.662015 
L 148.3514 227.042033 
L 148.732034 227.042033 
L 149.494224 226.725351 
L 149.875579 227.0547 
L 150.256935 225.357284 
L 150.638636 225.357284 
L 151.02054 225.88931 
L 151.784838 227.485388 
L 152.167233 226.750686 
L 152.550003 227.092702 
L 152.932773 225.205277 
L 153.315716 226.598678 
L 153.699006 226.535342 
L 154.082295 226.129989 
L 154.465932 226.839356 
L 154.849597 226.370667 
L 155.233579 226.421336 
L 155.617764 226.928027 
L 156.002122 226.104654 
L 156.386653 226.902693 
L 156.771358 227.270044 
L 157.156235 226.155323 
L 157.92651 227.24471 
L 158.311937 226.434003 
L 158.697507 226.63668 
L 159.083453 227.282711 
L 159.46937 225.344617 
L 159.855663 226.940695 
L 160.242129 225.775305 
L 160.628594 227.168706 
L 161.015435 226.814022 
L 162.17694 226.548009 
L 162.564474 226.788687 
L 162.952326 225.255946 
L 163.340206 226.700016 
L 164.11666 226.91536 
L 164.505263 226.243994 
L 164.893836 226.738018 
L 165.282756 226.928027 
L 165.671878 226.459338 
L 166.061144 226.877358 
L 166.450613 226.015983 
L 166.840255 226.788687 
L 167.23007 226.902693 
L 167.620231 226.383334 
L 168.010392 226.788687 
L 168.400929 226.890026 
L 168.791437 226.63668 
L 169.573377 226.852024 
L 169.964578 227.016698 
L 170.355981 226.674682 
L 171.531258 227.168706 
L 171.923527 226.852024 
L 172.315797 226.383334 
L 172.708441 226.928027 
L 173.101259 226.180658 
L 173.49425 226.510007 
L 173.887414 226.624013 
L 174.280752 226.256661 
L 175.067946 226.953362 
L 175.462006 226.421336 
L 175.856036 226.839356 
L 176.250442 226.624013 
L 176.644992 226.573344 
L 177.039744 226.129989 
L 177.43467 226.370667 
L 177.829769 226.408669 
L 178.225069 226.725351 
L 179.016306 226.801355 
L 179.412127 225.927312 
L 179.808294 225.939979 
L 180.601119 226.725351 
L 180.997806 226.104654 
L 181.394666 226.953362 
L 181.791901 226.510007 
L 182.189108 227.320713 
L 182.586689 225.851308 
L 182.984242 225.015268 
L 183.780272 226.738018 
L 184.178547 226.573344 
L 184.576995 226.91536 
L 184.975789 227.105369 
L 185.374584 226.421336 
L 185.773754 226.814022 
L 186.173068 225.635965 
L 186.572584 226.687349 
L 186.972274 226.63668 
L 188.172555 226.053985 
L 188.572938 227.0547 
L 189.374598 225.927312 
L 189.775673 224.052554 
L 190.176951 226.421336 
L 190.578402 226.548009 
L 190.980199 226.522674 
L 191.381996 226.928027 
L 191.78414 226.421336 
L 192.186457 226.902693 
L 192.588976 226.193325 
L 193.394505 226.978697 
L 193.797717 226.560676 
L 194.201103 225.585296 
L 194.604488 226.788687 
L 195.00822 226.535342 
L 195.00822 226.535342 
" clip-path="url(#p2254699bba)" style="fill: none; stroke: #672e45; stroke-width: 1.5; stroke-linecap: square"/>
   </g>
   <g id="patch_3">
    <path d="M 21.76149 251.764135 
L 21.76149 3.00024 
" style="fill: none; stroke: #000000; stroke-width: 0.8; stroke-linejoin: miter; stroke-linecap: square"/>
   </g>
   <g id="patch_4">
    <path d="M 194.99976 251.764135 
L 194.99976 3.00024 
" style="fill: none; stroke: #000000; stroke-width: 0.8; stroke-linejoin: miter; stroke-linecap: square"/>
   </g>
   <g id="patch_5">
    <path d="M 21.76149 251.764135 
L 194.99976 251.764135 
" style="fill: none; stroke: #000000; stroke-width: 0.8; stroke-linejoin: miter; stroke-linecap: square"/>
   </g>
   <g id="patch_6">
    <path d="M 21.76149 3.00024 
L 194.99976 3.00024 
" style="fill: none; stroke: #000000; stroke-width: 0.8; stroke-linejoin: miter; stroke-linecap: square"/>
   </g>
  </g>
 </g>
 <defs>
  <clipPath id="p2254699bba">
   <rect x="21.76149" y="3.00024" width="173.23827" height="248.763895"/>
  </clipPath>
 </defs>
</svg>
