<?xml version="1.0" encoding="utf-8" standalone="no"?>
<!DOCTYPE svg PUBLIC "-//W3C//DTD SVG 1.1//EN"
  "http://www.w3.org/Graphics/SVG/1.1/DTD/svg11.dtd">
<svg xmlns:xlink="http://www.w3.org/1999/xlink" width="198pt" height="288pt" viewBox="0 0 198 288" xmlns="http://www.w3.org/2000/svg" version="1.1">
 <metadata>
  <rdf:RDF xmlns:dc="http://purl.org/dc/elements/1.1/" xmlns:cc="http://creativecommons.org/ns#" xmlns:rdf="http://www.w3.org/1999/02/22-rdf-syntax-ns#">
   <cc:Work>
    <dc:type rdf:resource="http://purl.org/dc/dcmitype/StillImage"/>
    <dc:date>2024-04-04T23:01:44.781816</dc:date>
    <dc:format>image/svg+xml</dc:format>
    <dc:creator>
     <cc:Agent>
      <dc:title>Matplotlib v3.6.2, https://matplotlib.org/</dc:title>
     </cc:Agent>
    </dc:creator>
   </cc:Work>
  </rdf:RDF>
 </metadata>
 <defs>
  <style type="text/css">*{stroke-linejoin: round; stroke-linecap: butt}</style>
 </defs>
 <g id="figure_1">
  <g id="patch_1">
   <path d="M 0 288 
L 198 288 
L 198 0 
L 0 0 
z
" style="fill: #ffffff"/>
  </g>
  <g id="axes_1">
   <g id="patch_2">
    <path d="M 21.76149 251.764135 
L 194.99976 251.764135 
L 194.99976 3.00024 
L 21.76149 3.00024 
z
" style="fill: #ffffff"/>
   </g>
   <g id="matplotlib.axis_1">
    <g id="xtick_1">
     <g id="line2d_1">
      <defs>
       <path id="mcdaa5b8a36" d="M 0 0 
L 0 3.5 
" style="stroke: #000000; stroke-width: 0.8"/>
      </defs>
      <g>
       <use xlink:href="#mcdaa5b8a36" x="43.416274" y="251.764135" style="stroke: #000000; stroke-width: 0.8"/>
      </g>
     </g>
     <g id="text_1">
      <!-- 680 -->
      <g transform="translate(33.406586 267.35351) scale(0.12 -0.12)">
       <defs>
        <path id="ArialMT-36" d="M 3184 3459 
L 2625 3416 
Q 2550 3747 2413 3897 
Q 2184 4138 1850 4138 
Q 1581 4138 1378 3988 
Q 1113 3794 959 3422 
Q 806 3050 800 2363 
Q 1003 2672 1297 2822 
Q 1591 2972 1913 2972 
Q 2475 2972 2870 2558 
Q 3266 2144 3266 1488 
Q 3266 1056 3080 686 
Q 2894 316 2569 119 
Q 2244 -78 1831 -78 
Q 1128 -78 684 439 
Q 241 956 241 2144 
Q 241 3472 731 4075 
Q 1159 4600 1884 4600 
Q 2425 4600 2770 4297 
Q 3116 3994 3184 3459 
z
M 888 1484 
Q 888 1194 1011 928 
Q 1134 663 1356 523 
Q 1578 384 1822 384 
Q 2178 384 2434 671 
Q 2691 959 2691 1453 
Q 2691 1928 2437 2201 
Q 2184 2475 1800 2475 
Q 1419 2475 1153 2201 
Q 888 1928 888 1484 
z
" transform="scale(0.015625)"/>
        <path id="ArialMT-38" d="M 1131 2484 
Q 781 2613 612 2850 
Q 444 3088 444 3419 
Q 444 3919 803 4259 
Q 1163 4600 1759 4600 
Q 2359 4600 2725 4251 
Q 3091 3903 3091 3403 
Q 3091 3084 2923 2848 
Q 2756 2613 2416 2484 
Q 2838 2347 3058 2040 
Q 3278 1734 3278 1309 
Q 3278 722 2862 322 
Q 2447 -78 1769 -78 
Q 1091 -78 675 323 
Q 259 725 259 1325 
Q 259 1772 486 2073 
Q 713 2375 1131 2484 
z
M 1019 3438 
Q 1019 3113 1228 2906 
Q 1438 2700 1772 2700 
Q 2097 2700 2305 2904 
Q 2513 3109 2513 3406 
Q 2513 3716 2298 3927 
Q 2084 4138 1766 4138 
Q 1444 4138 1231 3931 
Q 1019 3725 1019 3438 
z
M 838 1322 
Q 838 1081 952 856 
Q 1066 631 1291 507 
Q 1516 384 1775 384 
Q 2178 384 2440 643 
Q 2703 903 2703 1303 
Q 2703 1709 2433 1975 
Q 2163 2241 1756 2241 
Q 1359 2241 1098 1978 
Q 838 1716 838 1322 
z
" transform="scale(0.015625)"/>
        <path id="ArialMT-30" d="M 266 2259 
Q 266 3072 433 3567 
Q 600 4063 929 4331 
Q 1259 4600 1759 4600 
Q 2128 4600 2406 4451 
Q 2684 4303 2865 4023 
Q 3047 3744 3150 3342 
Q 3253 2941 3253 2259 
Q 3253 1453 3087 958 
Q 2922 463 2592 192 
Q 2263 -78 1759 -78 
Q 1097 -78 719 397 
Q 266 969 266 2259 
z
M 844 2259 
Q 844 1131 1108 757 
Q 1372 384 1759 384 
Q 2147 384 2411 759 
Q 2675 1134 2675 2259 
Q 2675 3391 2411 3762 
Q 2147 4134 1753 4134 
Q 1366 4134 1134 3806 
Q 844 3388 844 2259 
z
" transform="scale(0.015625)"/>
       </defs>
       <use xlink:href="#ArialMT-36"/>
       <use xlink:href="#ArialMT-38" x="55.615234"/>
       <use xlink:href="#ArialMT-30" x="111.230469"/>
      </g>
     </g>
    </g>
    <g id="xtick_2">
     <g id="line2d_2">
      <g>
       <use xlink:href="#mcdaa5b8a36" x="86.725841" y="251.764135" style="stroke: #000000; stroke-width: 0.8"/>
      </g>
     </g>
     <g id="text_2">
      <!-- 700 -->
      <g transform="translate(76.716154 267.35351) scale(0.12 -0.12)">
       <defs>
        <path id="ArialMT-37" d="M 303 3981 
L 303 4522 
L 3269 4522 
L 3269 4084 
Q 2831 3619 2401 2847 
Q 1972 2075 1738 1259 
Q 1569 684 1522 0 
L 944 0 
Q 953 541 1156 1306 
Q 1359 2072 1739 2783 
Q 2119 3494 2547 3981 
L 303 3981 
z
" transform="scale(0.015625)"/>
       </defs>
       <use xlink:href="#ArialMT-37"/>
       <use xlink:href="#ArialMT-30" x="55.615234"/>
       <use xlink:href="#ArialMT-30" x="111.230469"/>
      </g>
     </g>
    </g>
    <g id="xtick_3">
     <g id="line2d_3">
      <g>
       <use xlink:href="#mcdaa5b8a36" x="130.035409" y="251.764135" style="stroke: #000000; stroke-width: 0.8"/>
      </g>
     </g>
     <g id="text_3">
      <!-- 720 -->
      <g transform="translate(120.025721 267.35351) scale(0.12 -0.12)">
       <defs>
        <path id="ArialMT-32" d="M 3222 541 
L 3222 0 
L 194 0 
Q 188 203 259 391 
Q 375 700 629 1000 
Q 884 1300 1366 1694 
Q 2113 2306 2375 2664 
Q 2638 3022 2638 3341 
Q 2638 3675 2398 3904 
Q 2159 4134 1775 4134 
Q 1369 4134 1125 3890 
Q 881 3647 878 3216 
L 300 3275 
Q 359 3922 746 4261 
Q 1134 4600 1788 4600 
Q 2447 4600 2831 4234 
Q 3216 3869 3216 3328 
Q 3216 3053 3103 2787 
Q 2991 2522 2730 2228 
Q 2469 1934 1863 1422 
Q 1356 997 1212 845 
Q 1069 694 975 541 
L 3222 541 
z
" transform="scale(0.015625)"/>
       </defs>
       <use xlink:href="#ArialMT-37"/>
       <use xlink:href="#ArialMT-32" x="55.615234"/>
       <use xlink:href="#ArialMT-30" x="111.230469"/>
      </g>
     </g>
    </g>
    <g id="xtick_4">
     <g id="line2d_4">
      <g>
       <use xlink:href="#mcdaa5b8a36" x="173.344976" y="251.764135" style="stroke: #000000; stroke-width: 0.8"/>
      </g>
     </g>
     <g id="text_4">
      <!-- 740 -->
      <g transform="translate(163.335289 267.35351) scale(0.12 -0.12)">
       <defs>
        <path id="ArialMT-34" d="M 2069 0 
L 2069 1097 
L 81 1097 
L 81 1613 
L 2172 4581 
L 2631 4581 
L 2631 1613 
L 3250 1613 
L 3250 1097 
L 2631 1097 
L 2631 0 
L 2069 0 
z
M 2069 1613 
L 2069 3678 
L 634 1613 
L 2069 1613 
z
" transform="scale(0.015625)"/>
       </defs>
       <use xlink:href="#ArialMT-37"/>
       <use xlink:href="#ArialMT-34" x="55.615234"/>
       <use xlink:href="#ArialMT-30" x="111.230469"/>
      </g>
     </g>
    </g>
    <g id="xtick_5">
     <g id="line2d_5">
      <defs>
       <path id="m4efe1de0bb" d="M 0 0 
L 0 2 
" style="stroke: #000000; stroke-width: 0.6"/>
      </defs>
      <g>
       <use xlink:href="#m4efe1de0bb" x="21.76149" y="251.764135" style="stroke: #000000; stroke-width: 0.6"/>
      </g>
     </g>
    </g>
    <g id="xtick_6">
     <g id="line2d_6">
      <g>
       <use xlink:href="#m4efe1de0bb" x="32.588882" y="251.764135" style="stroke: #000000; stroke-width: 0.6"/>
      </g>
     </g>
    </g>
    <g id="xtick_7">
     <g id="line2d_7">
      <g>
       <use xlink:href="#m4efe1de0bb" x="54.243666" y="251.764135" style="stroke: #000000; stroke-width: 0.6"/>
      </g>
     </g>
    </g>
    <g id="xtick_8">
     <g id="line2d_8">
      <g>
       <use xlink:href="#m4efe1de0bb" x="65.071058" y="251.764135" style="stroke: #000000; stroke-width: 0.6"/>
      </g>
     </g>
    </g>
    <g id="xtick_9">
     <g id="line2d_9">
      <g>
       <use xlink:href="#m4efe1de0bb" x="75.898449" y="251.764135" style="stroke: #000000; stroke-width: 0.6"/>
      </g>
     </g>
    </g>
    <g id="xtick_10">
     <g id="line2d_10">
      <g>
       <use xlink:href="#m4efe1de0bb" x="97.553233" y="251.764135" style="stroke: #000000; stroke-width: 0.6"/>
      </g>
     </g>
    </g>
    <g id="xtick_11">
     <g id="line2d_11">
      <g>
       <use xlink:href="#m4efe1de0bb" x="108.380625" y="251.764135" style="stroke: #000000; stroke-width: 0.6"/>
      </g>
     </g>
    </g>
    <g id="xtick_12">
     <g id="line2d_12">
      <g>
       <use xlink:href="#m4efe1de0bb" x="119.208017" y="251.764135" style="stroke: #000000; stroke-width: 0.6"/>
      </g>
     </g>
    </g>
    <g id="xtick_13">
     <g id="line2d_13">
      <g>
       <use xlink:href="#m4efe1de0bb" x="140.862801" y="251.764135" style="stroke: #000000; stroke-width: 0.6"/>
      </g>
     </g>
    </g>
    <g id="xtick_14">
     <g id="line2d_14">
      <g>
       <use xlink:href="#m4efe1de0bb" x="151.690193" y="251.764135" style="stroke: #000000; stroke-width: 0.6"/>
      </g>
     </g>
    </g>
    <g id="xtick_15">
     <g id="line2d_15">
      <g>
       <use xlink:href="#m4efe1de0bb" x="162.517584" y="251.764135" style="stroke: #000000; stroke-width: 0.6"/>
      </g>
     </g>
    </g>
    <g id="xtick_16">
     <g id="line2d_16">
      <g>
       <use xlink:href="#m4efe1de0bb" x="184.172368" y="251.764135" style="stroke: #000000; stroke-width: 0.6"/>
      </g>
     </g>
    </g>
    <g id="xtick_17">
     <g id="line2d_17">
      <g>
       <use xlink:href="#m4efe1de0bb" x="194.99976" y="251.764135" style="stroke: #000000; stroke-width: 0.6"/>
      </g>
     </g>
    </g>
    <g id="text_5">
     <!-- Emission Energy (eV) -->
     <g transform="translate(50.363437 282.474135) scale(0.12 -0.12)">
      <defs>
       <path id="ArialMT-45" d="M 506 0 
L 506 4581 
L 3819 4581 
L 3819 4041 
L 1113 4041 
L 1113 2638 
L 3647 2638 
L 3647 2100 
L 1113 2100 
L 1113 541 
L 3925 541 
L 3925 0 
L 506 0 
z
" transform="scale(0.015625)"/>
       <path id="ArialMT-6d" d="M 422 0 
L 422 3319 
L 925 3319 
L 925 2853 
Q 1081 3097 1340 3245 
Q 1600 3394 1931 3394 
Q 2300 3394 2536 3241 
Q 2772 3088 2869 2813 
Q 3263 3394 3894 3394 
Q 4388 3394 4653 3120 
Q 4919 2847 4919 2278 
L 4919 0 
L 4359 0 
L 4359 2091 
Q 4359 2428 4304 2576 
Q 4250 2725 4106 2815 
Q 3963 2906 3769 2906 
Q 3419 2906 3187 2673 
Q 2956 2441 2956 1928 
L 2956 0 
L 2394 0 
L 2394 2156 
Q 2394 2531 2256 2718 
Q 2119 2906 1806 2906 
Q 1569 2906 1367 2781 
Q 1166 2656 1075 2415 
Q 984 2175 984 1722 
L 984 0 
L 422 0 
z
" transform="scale(0.015625)"/>
       <path id="ArialMT-69" d="M 425 3934 
L 425 4581 
L 988 4581 
L 988 3934 
L 425 3934 
z
M 425 0 
L 425 3319 
L 988 3319 
L 988 0 
L 425 0 
z
" transform="scale(0.015625)"/>
       <path id="ArialMT-73" d="M 197 991 
L 753 1078 
Q 800 744 1014 566 
Q 1228 388 1613 388 
Q 2000 388 2187 545 
Q 2375 703 2375 916 
Q 2375 1106 2209 1216 
Q 2094 1291 1634 1406 
Q 1016 1563 777 1677 
Q 538 1791 414 1992 
Q 291 2194 291 2438 
Q 291 2659 392 2848 
Q 494 3038 669 3163 
Q 800 3259 1026 3326 
Q 1253 3394 1513 3394 
Q 1903 3394 2198 3281 
Q 2494 3169 2634 2976 
Q 2775 2784 2828 2463 
L 2278 2388 
Q 2241 2644 2061 2787 
Q 1881 2931 1553 2931 
Q 1166 2931 1000 2803 
Q 834 2675 834 2503 
Q 834 2394 903 2306 
Q 972 2216 1119 2156 
Q 1203 2125 1616 2013 
Q 2213 1853 2448 1751 
Q 2684 1650 2818 1456 
Q 2953 1263 2953 975 
Q 2953 694 2789 445 
Q 2625 197 2315 61 
Q 2006 -75 1616 -75 
Q 969 -75 630 194 
Q 291 463 197 991 
z
" transform="scale(0.015625)"/>
       <path id="ArialMT-6f" d="M 213 1659 
Q 213 2581 725 3025 
Q 1153 3394 1769 3394 
Q 2453 3394 2887 2945 
Q 3322 2497 3322 1706 
Q 3322 1066 3130 698 
Q 2938 331 2570 128 
Q 2203 -75 1769 -75 
Q 1072 -75 642 372 
Q 213 819 213 1659 
z
M 791 1659 
Q 791 1022 1069 705 
Q 1347 388 1769 388 
Q 2188 388 2466 706 
Q 2744 1025 2744 1678 
Q 2744 2294 2464 2611 
Q 2184 2928 1769 2928 
Q 1347 2928 1069 2612 
Q 791 2297 791 1659 
z
" transform="scale(0.015625)"/>
       <path id="ArialMT-6e" d="M 422 0 
L 422 3319 
L 928 3319 
L 928 2847 
Q 1294 3394 1984 3394 
Q 2284 3394 2536 3286 
Q 2788 3178 2913 3003 
Q 3038 2828 3088 2588 
Q 3119 2431 3119 2041 
L 3119 0 
L 2556 0 
L 2556 2019 
Q 2556 2363 2490 2533 
Q 2425 2703 2258 2804 
Q 2091 2906 1866 2906 
Q 1506 2906 1245 2678 
Q 984 2450 984 1813 
L 984 0 
L 422 0 
z
" transform="scale(0.015625)"/>
       <path id="ArialMT-20" transform="scale(0.015625)"/>
       <path id="ArialMT-65" d="M 2694 1069 
L 3275 997 
Q 3138 488 2766 206 
Q 2394 -75 1816 -75 
Q 1088 -75 661 373 
Q 234 822 234 1631 
Q 234 2469 665 2931 
Q 1097 3394 1784 3394 
Q 2450 3394 2872 2941 
Q 3294 2488 3294 1666 
Q 3294 1616 3291 1516 
L 816 1516 
Q 847 969 1125 678 
Q 1403 388 1819 388 
Q 2128 388 2347 550 
Q 2566 713 2694 1069 
z
M 847 1978 
L 2700 1978 
Q 2663 2397 2488 2606 
Q 2219 2931 1791 2931 
Q 1403 2931 1139 2672 
Q 875 2413 847 1978 
z
" transform="scale(0.015625)"/>
       <path id="ArialMT-72" d="M 416 0 
L 416 3319 
L 922 3319 
L 922 2816 
Q 1116 3169 1280 3281 
Q 1444 3394 1641 3394 
Q 1925 3394 2219 3213 
L 2025 2691 
Q 1819 2813 1613 2813 
Q 1428 2813 1281 2702 
Q 1134 2591 1072 2394 
Q 978 2094 978 1738 
L 978 0 
L 416 0 
z
" transform="scale(0.015625)"/>
       <path id="ArialMT-67" d="M 319 -275 
L 866 -356 
Q 900 -609 1056 -725 
Q 1266 -881 1628 -881 
Q 2019 -881 2231 -725 
Q 2444 -569 2519 -288 
Q 2563 -116 2559 434 
Q 2191 0 1641 0 
Q 956 0 581 494 
Q 206 988 206 1678 
Q 206 2153 378 2554 
Q 550 2956 876 3175 
Q 1203 3394 1644 3394 
Q 2231 3394 2613 2919 
L 2613 3319 
L 3131 3319 
L 3131 450 
Q 3131 -325 2973 -648 
Q 2816 -972 2473 -1159 
Q 2131 -1347 1631 -1347 
Q 1038 -1347 672 -1080 
Q 306 -813 319 -275 
z
M 784 1719 
Q 784 1066 1043 766 
Q 1303 466 1694 466 
Q 2081 466 2343 764 
Q 2606 1063 2606 1700 
Q 2606 2309 2336 2618 
Q 2066 2928 1684 2928 
Q 1309 2928 1046 2623 
Q 784 2319 784 1719 
z
" transform="scale(0.015625)"/>
       <path id="ArialMT-79" d="M 397 -1278 
L 334 -750 
Q 519 -800 656 -800 
Q 844 -800 956 -737 
Q 1069 -675 1141 -563 
Q 1194 -478 1313 -144 
Q 1328 -97 1363 -6 
L 103 3319 
L 709 3319 
L 1400 1397 
Q 1534 1031 1641 628 
Q 1738 1016 1872 1384 
L 2581 3319 
L 3144 3319 
L 1881 -56 
Q 1678 -603 1566 -809 
Q 1416 -1088 1222 -1217 
Q 1028 -1347 759 -1347 
Q 597 -1347 397 -1278 
z
" transform="scale(0.015625)"/>
       <path id="ArialMT-28" d="M 1497 -1347 
Q 1031 -759 709 28 
Q 388 816 388 1659 
Q 388 2403 628 3084 
Q 909 3875 1497 4659 
L 1900 4659 
Q 1522 4009 1400 3731 
Q 1209 3300 1100 2831 
Q 966 2247 966 1656 
Q 966 153 1900 -1347 
L 1497 -1347 
z
" transform="scale(0.015625)"/>
       <path id="ArialMT-56" d="M 1803 0 
L 28 4581 
L 684 4581 
L 1875 1253 
Q 2019 853 2116 503 
Q 2222 878 2363 1253 
L 3600 4581 
L 4219 4581 
L 2425 0 
L 1803 0 
z
" transform="scale(0.015625)"/>
       <path id="ArialMT-29" d="M 791 -1347 
L 388 -1347 
Q 1322 153 1322 1656 
Q 1322 2244 1188 2822 
Q 1081 3291 891 3722 
Q 769 4003 388 4659 
L 791 4659 
Q 1378 3875 1659 3084 
Q 1900 2403 1900 1659 
Q 1900 816 1576 28 
Q 1253 -759 791 -1347 
z
" transform="scale(0.015625)"/>
      </defs>
      <use xlink:href="#ArialMT-45"/>
      <use xlink:href="#ArialMT-6d" x="66.699219"/>
      <use xlink:href="#ArialMT-69" x="150"/>
      <use xlink:href="#ArialMT-73" x="172.216797"/>
      <use xlink:href="#ArialMT-73" x="222.216797"/>
      <use xlink:href="#ArialMT-69" x="272.216797"/>
      <use xlink:href="#ArialMT-6f" x="294.433594"/>
      <use xlink:href="#ArialMT-6e" x="350.048828"/>
      <use xlink:href="#ArialMT-20" x="405.664062"/>
      <use xlink:href="#ArialMT-45" x="433.447266"/>
      <use xlink:href="#ArialMT-6e" x="500.146484"/>
      <use xlink:href="#ArialMT-65" x="555.761719"/>
      <use xlink:href="#ArialMT-72" x="611.376953"/>
      <use xlink:href="#ArialMT-67" x="644.677734"/>
      <use xlink:href="#ArialMT-79" x="700.292969"/>
      <use xlink:href="#ArialMT-20" x="750.292969"/>
      <use xlink:href="#ArialMT-28" x="778.076172"/>
      <use xlink:href="#ArialMT-65" x="811.376953"/>
      <use xlink:href="#ArialMT-56" x="866.992188"/>
      <use xlink:href="#ArialMT-29" x="933.691406"/>
     </g>
    </g>
   </g>
   <g id="matplotlib.axis_2">
    <g id="text_6">
     <!-- Intensity (a.u.) -->
     <g transform="translate(11.735865 165.395) rotate(-90) scale(0.12 -0.12)">
      <defs>
       <path id="ArialMT-49" d="M 597 0 
L 597 4581 
L 1203 4581 
L 1203 0 
L 597 0 
z
" transform="scale(0.015625)"/>
       <path id="ArialMT-74" d="M 1650 503 
L 1731 6 
Q 1494 -44 1306 -44 
Q 1000 -44 831 53 
Q 663 150 594 308 
Q 525 466 525 972 
L 525 2881 
L 113 2881 
L 113 3319 
L 525 3319 
L 525 4141 
L 1084 4478 
L 1084 3319 
L 1650 3319 
L 1650 2881 
L 1084 2881 
L 1084 941 
Q 1084 700 1114 631 
Q 1144 563 1211 522 
Q 1278 481 1403 481 
Q 1497 481 1650 503 
z
" transform="scale(0.015625)"/>
       <path id="ArialMT-61" d="M 2588 409 
Q 2275 144 1986 34 
Q 1697 -75 1366 -75 
Q 819 -75 525 192 
Q 231 459 231 875 
Q 231 1119 342 1320 
Q 453 1522 633 1644 
Q 813 1766 1038 1828 
Q 1203 1872 1538 1913 
Q 2219 1994 2541 2106 
Q 2544 2222 2544 2253 
Q 2544 2597 2384 2738 
Q 2169 2928 1744 2928 
Q 1347 2928 1158 2789 
Q 969 2650 878 2297 
L 328 2372 
Q 403 2725 575 2942 
Q 747 3159 1072 3276 
Q 1397 3394 1825 3394 
Q 2250 3394 2515 3294 
Q 2781 3194 2906 3042 
Q 3031 2891 3081 2659 
Q 3109 2516 3109 2141 
L 3109 1391 
Q 3109 606 3145 398 
Q 3181 191 3288 0 
L 2700 0 
Q 2613 175 2588 409 
z
M 2541 1666 
Q 2234 1541 1622 1453 
Q 1275 1403 1131 1340 
Q 988 1278 909 1158 
Q 831 1038 831 891 
Q 831 666 1001 516 
Q 1172 366 1500 366 
Q 1825 366 2078 508 
Q 2331 650 2450 897 
Q 2541 1088 2541 1459 
L 2541 1666 
z
" transform="scale(0.015625)"/>
       <path id="ArialMT-2e" d="M 581 0 
L 581 641 
L 1222 641 
L 1222 0 
L 581 0 
z
" transform="scale(0.015625)"/>
       <path id="ArialMT-75" d="M 2597 0 
L 2597 488 
Q 2209 -75 1544 -75 
Q 1250 -75 995 37 
Q 741 150 617 320 
Q 494 491 444 738 
Q 409 903 409 1263 
L 409 3319 
L 972 3319 
L 972 1478 
Q 972 1038 1006 884 
Q 1059 663 1231 536 
Q 1403 409 1656 409 
Q 1909 409 2131 539 
Q 2353 669 2445 892 
Q 2538 1116 2538 1541 
L 2538 3319 
L 3100 3319 
L 3100 0 
L 2597 0 
z
" transform="scale(0.015625)"/>
      </defs>
      <use xlink:href="#ArialMT-49"/>
      <use xlink:href="#ArialMT-6e" x="27.783203"/>
      <use xlink:href="#ArialMT-74" x="83.398438"/>
      <use xlink:href="#ArialMT-65" x="111.181641"/>
      <use xlink:href="#ArialMT-6e" x="166.796875"/>
      <use xlink:href="#ArialMT-73" x="222.412109"/>
      <use xlink:href="#ArialMT-69" x="272.412109"/>
      <use xlink:href="#ArialMT-74" x="294.628906"/>
      <use xlink:href="#ArialMT-79" x="322.412109"/>
      <use xlink:href="#ArialMT-20" x="372.412109"/>
      <use xlink:href="#ArialMT-28" x="400.195312"/>
      <use xlink:href="#ArialMT-61" x="433.496094"/>
      <use xlink:href="#ArialMT-2e" x="489.111328"/>
      <use xlink:href="#ArialMT-75" x="516.894531"/>
      <use xlink:href="#ArialMT-2e" x="572.509766"/>
      <use xlink:href="#ArialMT-29" x="600.292969"/>
     </g>
    </g>
   </g>
   <g id="line2d_18">
    <path d="M 21.704386 236.556682 
L 22.145841 234.960838 
L 22.587555 235.148584 
L 23.029529 230.407989 
L 23.471763 235.054711 
L 23.914279 236.087316 
L 24.357054 233.177248 
L 24.800089 235.148584 
L 25.243384 236.321999 
L 25.686939 227.92035 
L 26.574872 234.679218 
L 27.019358 233.318058 
L 27.463974 235.89957 
L 27.908872 236.415872 
L 28.354137 232.614009 
L 28.799685 234.491472 
L 29.245362 234.773092 
L 29.69145 236.181189 
L 30.137647 234.960838 
L 30.584255 234.444536 
L 31.031123 232.660945 
L 31.478251 235.47714 
L 31.925661 235.75876 
L 32.373309 234.209853 
L 32.821238 234.820028 
L 33.269557 231.816087 
L 33.718006 234.773092 
L 34.166736 233.881297 
L 34.615856 236.181189 
L 35.065085 236.556682 
L 35.514746 235.75876 
L 35.964646 232.660945 
L 36.414676 237.119921 
L 36.865117 236.932174 
L 37.315818 235.711823 
L 37.766779 235.89957 
L 38.218151 232.379326 
L 38.669632 227.216302 
L 39.121394 232.848692 
L 39.573546 233.599677 
L 40.025979 233.458867 
L 40.478521 232.707882 
L 40.931474 236.650555 
L 41.384687 235.571014 
L 41.83816 232.285453 
L 42.291892 235.148584 
L 42.746037 233.411931 
L 43.200311 225.902077 
L 43.654974 226.465316 
L 44.109768 233.69355 
L 44.564973 232.332389 
L 45.020417 234.022106 
L 45.476142 229.328448 
L 45.932127 218.157541 
L 46.388393 195.862664 
L 46.845027 182.673483 
L 47.301943 185.959044 
L 47.758989 184.128518 
L 48.674142 149.583192 
L 49.132119 157.186918 
L 49.590486 143.997738 
L 50.048982 166.855855 
L 50.507869 175.069757 
L 51.426313 197.97481 
L 51.886001 219.753385 
L 52.3461 199.852273 
L 52.806308 201.54199 
L 53.266927 204.827551 
L 53.727675 200.274702 
L 54.188814 217.969795 
L 55.112022 199.852273 
L 55.573962 198.256429 
L 56.036292 212.337404 
L 56.498751 197.880937 
L 56.961622 204.452058 
L 57.424732 189.244605 
L 57.888252 183.612215 
L 58.351925 184.3632 
L 58.815965 209.521209 
L 59.280287 199.101288 
L 59.744869 206.751951 
L 60.20971 223.742994 
L 61.140303 167.559903 
L 61.606076 203.090897 
L 62.072108 199.523717 
L 62.538552 204.311249 
L 63.005105 213.510819 
L 63.472068 217.124936 
L 63.939292 228.436653 
L 64.406775 212.80677 
L 64.874519 211.539483 
L 65.342673 218.204477 
L 65.810936 202.058293 
L 66.279633 207.409063 
L 66.748697 220.457433 
L 67.217891 210.835434 
L 67.687497 216.280078 
L 68.157362 215.622965 
L 68.627488 206.705014 
L 69.097894 232.848692 
L 69.568691 227.075492 
L 70.039596 234.069043 
L 70.510912 230.220243 
L 70.98264 232.379326 
L 71.454476 224.306233 
L 71.926724 229.187638 
L 72.399231 227.92035 
L 72.87215 228.812145 
L 73.345177 232.707882 
L 73.818616 228.624399 
L 74.292314 234.726155 
L 74.766272 231.440594 
L 75.240642 225.761267 
L 75.715272 232.895628 
L 76.190139 233.83436 
L 76.66531 230.079433 
L 77.140849 230.548799 
L 77.61667 229.422321 
L 78.09275 232.895628 
L 78.569091 225.291902 
L 79.045821 234.913901 
L 79.522832 234.491472 
L 80.000234 233.224184 
L 80.955686 234.022106 
L 81.433867 235.195521 
L 81.912459 231.722214 
L 82.391311 231.863023 
L 83.349817 230.783482 
L 83.829601 231.252848 
L 84.309644 232.144643 
L 84.789947 232.660945 
L 85.27051 233.97517 
L 85.751484 233.97517 
L 86.232848 231.956897 
L 86.714343 233.083375 
L 87.196226 229.98556 
L 87.678392 232.660945 
L 88.160947 226.183697 
L 88.643632 230.407989 
L 89.126707 230.12637 
L 89.610193 227.216302 
L 90.09394 219.284019 
L 90.577946 230.361053 
L 91.062212 225.573521 
L 91.546889 232.848692 
L 92.031826 232.801755 
L 92.517153 235.007775 
L 93.488457 231.816087 
L 93.974715 233.083375 
L 94.461233 232.520136 
L 94.948033 231.76915 
L 95.43507 232.097706 
L 95.92252 232.707882 
L 96.410359 229.750877 
L 96.898328 231.065101 
L 97.386708 233.458867 
L 97.875456 233.364994 
L 98.364356 235.054711 
L 98.853646 235.664887 
L 99.343347 226.042887 
L 99.833309 232.379326 
L 100.32353 230.079433 
L 100.81401 232.238516 
L 101.304881 233.364994 
L 101.796163 231.299784 
L 102.287575 227.779541 
L 103.27159 234.397599 
L 103.764042 231.90996 
L 104.256775 231.62834 
L 104.749897 230.314116 
L 105.243302 228.436653 
L 105.737096 227.732604 
L 106.230998 231.62834 
L 106.725463 232.895628 
L 107.220037 231.158975 
L 107.715152 230.454926 
L 108.210397 233.69355 
L 109.201926 213.041453 
L 109.698232 224.118487 
L 110.194798 216.186204 
L 110.691753 230.314116 
L 111.188991 229.328448 
L 111.686596 213.135326 
L 112.184483 224.07155 
L 112.682629 222.053277 
L 113.181187 222.42877 
L 113.679984 228.108097 
L 114.179191 229.187638 
L 114.678681 206.892761 
L 115.178408 199.7584 
L 115.678547 218.251414 
L 116.179076 205.625473 
L 116.679864 201.635863 
L 117.180913 196.285093 
L 117.682372 213.276136 
L 118.184092 211.210926 
L 118.686202 199.148224 
L 119.188593 206.000966 
L 119.691373 184.973376 
L 120.194414 176.524791 
L 121.201535 189.620098 
L 122.209998 145.07728 
L 122.714619 165.447757 
L 123.219652 200.744068 
L 123.725075 195.346361 
L 124.230757 180.185844 
L 124.7367 143.809992 
L 125.243054 150.28724 
L 125.749797 161.223465 
L 126.256801 143.481436 
L 126.764064 133.8125 
L 127.271717 158.970509 
L 127.779782 157.093045 
L 128.288128 140.94686 
L 129.305686 188.540556 
L 129.815071 179.15324 
L 130.324738 161.317338 
L 130.834773 156.999172 
L 131.34509 166.761981 
L 131.855667 193.140342 
L 132.366763 196.003473 
L 133.389756 179.059366 
L 133.901654 197.083015 
L 134.414071 194.407629 
L 134.92677 189.948654 
L 135.439728 189.995591 
L 135.953076 167.184411 
L 136.466685 188.118127 
L 136.980704 184.973376 
L 137.495092 174.224898 
L 138.009783 178.777747 
L 138.524842 188.024254 
L 139.040182 191.966927 
L 139.555891 185.442742 
L 140.588283 211.117053 
L 141.105074 192.952595 
L 141.622126 198.068683 
L 142.139567 200.040019 
L 142.657268 204.780614 
L 143.17538 190.981259 
L 143.693752 211.02318 
L 144.212666 213.510819 
L 144.731688 197.364634 
L 145.251121 204.968361 
L 145.770944 207.643746 
L 146.291157 216.092331 
L 146.811651 216.467824 
L 147.332405 204.452058 
L 147.853549 210.413005 
L 148.375105 212.619024 
L 148.897029 219.941131 
L 149.419234 212.619024 
L 149.94172 215.810712 
L 150.464705 206.798888 
L 150.987971 207.362127 
L 151.511497 227.544858 
L 152.035413 222.241024 
L 153.084327 209.521209 
L 153.609434 210.647687 
L 154.134693 221.114546 
L 154.660449 223.696058 
L 155.712785 186.944713 
L 156.239494 207.596809 
L 156.766594 213.276136 
L 157.294082 217.735112 
L 157.821831 225.573521 
L 158.349991 204.592868 
L 158.878411 209.943639 
L 159.407351 204.311249 
L 159.936421 226.981619 
L 160.995903 198.819668 
L 161.526185 224.21236 
L 162.056836 228.530526 
L 162.587768 221.255355 
L 163.119089 223.508311 
L 163.650671 205.296917 
L 164.182664 222.147151 
L 164.715047 222.757326 
L 165.24782 227.779541 
L 165.780874 226.042887 
L 166.314318 223.789931 
L 166.848151 224.869472 
L 167.382375 223.508311 
L 167.91688 214.778107 
L 168.451775 213.839375 
L 168.986929 204.358185 
L 169.522604 221.536975 
L 170.05856 214.87198 
L 170.594775 221.865531 
L 171.131511 226.371443 
L 171.668528 229.610067 
L 172.205935 227.967287 
L 172.743601 212.619024 
L 173.281809 229.563131 
L 173.820255 234.209853 
L 174.359113 228.014224 
L 174.898252 223.226692 
L 175.437889 222.147151 
L 175.977808 220.128877 
L 176.517987 231.675277 
L 177.058707 233.740487 
L 178.141034 230.220243 
L 178.682815 230.032497 
L 179.224965 223.179755 
L 179.767395 231.581404 
L 180.310216 233.928233 
L 180.853448 232.660945 
L 181.397048 230.548799 
L 181.940929 226.512253 
L 182.485352 224.540916 
L 183.030013 220.081941 
L 183.574956 230.407989 
L 184.120418 227.967287 
L 184.666162 228.999892 
L 185.212426 231.018165 
L 185.758798 231.863023 
L 186.305732 233.928233 
L 186.853057 229.093765 
L 187.40062 230.454926 
L 187.948616 229.657004 
L 188.49698 229.938623 
L 189.045756 229.563131 
L 189.594921 231.440594 
L 190.144346 224.634789 
L 190.694313 230.877355 
L 191.244539 231.252848 
L 191.795155 230.877355 
L 192.346053 226.512253 
L 192.897449 233.271121 
L 193.449148 234.162916 
L 194.001345 231.76915 
L 194.553823 230.26718 
L 195.106691 228.389716 
L 195.106691 228.389716 
" clip-path="url(#p52b8675f64)" style="fill: none; stroke: #d57800; stroke-width: 1.5; stroke-linecap: square"/>
   </g>
   <g id="line2d_19">
    <path d="M 21.704386 178.636937 
L 22.145841 176.80641 
L 22.587555 177.651269 
L 23.029529 168.263952 
L 23.471763 179.481796 
L 23.914279 180.138908 
L 24.357054 178.824684 
L 24.800089 179.01243 
L 25.243384 180.138908 
L 25.686939 177.22884 
L 26.574872 179.669542 
L 27.019358 176.618664 
L 27.908872 180.79602 
L 28.354137 177.510459 
L 28.799685 179.059366 
L 29.245362 179.434859 
L 29.69145 178.683874 
L 30.137647 178.683874 
L 30.584255 175.445249 
L 31.031123 175.867679 
L 31.478251 178.918557 
L 31.925661 178.073698 
L 32.373309 176.149298 
L 32.821238 176.853347 
L 33.269557 176.243171 
L 33.718006 176.337045 
L 34.166736 177.510459 
L 34.615856 174.600391 
L 35.065085 176.80641 
L 35.514746 172.910674 
L 35.964646 166.949728 
L 36.414676 173.23923 
L 36.865117 175.914615 
L 37.315818 179.716479 
L 37.766779 176.290108 
L 38.218151 177.745142 
L 38.669632 176.759474 
L 39.121394 177.510459 
L 39.573546 171.59645 
L 40.025979 163.335611 
L 40.478521 175.30444 
L 40.931474 172.394372 
L 41.384687 173.09842 
L 41.83816 172.582118 
L 42.291892 168.029269 
L 42.746037 169.437367 
L 43.200311 170.047542 
L 43.654974 160.425543 
L 44.564973 158.26646 
L 45.020417 138.928587 
L 45.476142 157.562411 
L 45.932127 160.143923 
L 47.301943 101.754813 
L 47.758989 103.256783 
L 48.216425 99.31411 
L 48.674142 97.436647 
L 49.132119 70.307301 
L 49.590486 18.019947 
L 50.048982 23.089098 
L 50.507869 68.711458 
L 50.966907 94.198023 
L 51.426313 91.710384 
L 51.886001 103.820022 
L 52.806308 122.923212 
L 53.266927 134.938978 
L 53.727675 153.619738 
L 54.188814 140.430558 
L 54.650213 122.40691 
L 55.112022 116.258217 
L 55.573962 132.122782 
L 56.036292 136.206265 
L 56.498751 135.408343 
L 56.961622 102.130305 
L 57.424732 105.36893 
L 57.888252 97.765203 
L 58.351925 104.617944 
L 58.815965 132.216656 
L 59.280287 131.74729 
L 59.744869 149.817875 
L 60.20971 130.761622 
L 60.674942 139.820382 
L 61.140303 118.229554 
L 61.606076 132.686021 
L 62.072108 127.006695 
L 62.538552 153.948294 
L 63.005105 140.899924 
L 63.472068 158.501143 
L 63.939292 171.784196 
L 64.406775 166.057933 
L 64.874519 154.887026 
L 65.342673 156.999172 
L 65.810936 168.639445 
L 66.279633 160.613289 
L 66.748697 158.782762 
L 67.217891 147.940411 
L 67.687497 156.34206 
L 68.157362 156.529806 
L 68.627488 148.92608 
L 69.097894 157.374665 
L 69.568691 154.229914 
L 70.039596 158.782762 
L 70.510912 155.919631 
L 70.98264 163.382547 
L 71.454476 164.274342 
L 71.926724 170.329162 
L 72.87215 163.053991 
L 73.345177 174.037152 
L 73.818616 171.220957 
L 74.292314 171.971942 
L 74.766272 172.300498 
L 75.240642 170.282225 
L 75.715272 171.361767 
L 76.190139 169.061874 
L 76.66531 161.645894 
L 77.140849 170.141415 
L 77.61667 171.220957 
L 78.09275 174.600391 
L 78.569091 172.159689 
L 79.045821 177.08803 
L 79.522832 176.243171 
L 80.477765 175.257503 
L 80.955686 176.571727 
L 81.433867 175.914615 
L 81.912459 175.632996 
L 82.391311 173.192293 
L 82.870424 175.398313 
L 83.349817 172.957611 
L 83.829601 177.181903 
L 84.309644 174.600391 
L 84.789947 175.351376 
L 85.27051 174.506518 
L 85.751484 174.694264 
L 86.232848 170.188352 
L 86.714343 166.996664 
L 87.196226 174.037152 
L 87.678392 178.167571 
L 88.160947 179.951162 
L 88.643632 175.586059 
L 89.126707 172.816801 
L 89.610193 176.759474 
L 90.09394 177.08803 
L 90.577946 168.217016 
L 91.062212 172.769864 
L 91.546889 170.423035 
L 92.031826 171.971942 
L 92.517153 175.773806 
L 93.00261 170.469972 
L 93.488457 175.351376 
L 93.974715 167.841523 
L 94.461233 164.555962 
L 94.948033 171.17402 
L 95.43507 176.149298 
L 95.92252 175.069757 
L 96.410359 161.364274 
L 96.898328 170.939337 
L 97.386708 175.726869 
L 97.875456 177.932888 
L 98.364356 174.412645 
L 98.853646 173.661659 
L 99.343347 166.198742 
L 99.833309 176.94722 
L 100.32353 177.134967 
L 101.304881 174.647328 
L 101.796163 174.224898 
L 102.287575 171.033211 
L 102.779507 176.994157 
L 103.27159 176.430918 
L 103.764042 174.694264 
L 104.256775 175.069757 
L 104.749897 177.134967 
L 105.243302 173.09842 
L 105.737096 160.801035 
L 106.230998 156.811426 
L 106.725463 170.610781 
L 107.220037 174.600391 
L 107.715152 174.365708 
L 108.210397 169.953669 
L 108.706031 161.83364 
L 109.201926 175.069757 
L 109.698232 166.715045 
L 110.194798 144.467104 
L 110.691753 156.670616 
L 111.188991 160.660226 
L 111.686596 163.053991 
L 112.184483 167.653777 
L 112.682629 164.509025 
L 113.181187 146.57925 
L 113.679984 139.538763 
L 114.179191 143.997738 
L 114.678681 147.236363 
L 115.178408 159.017445 
L 116.179076 142.495768 
L 116.679864 130.573875 
L 117.180913 133.437007 
L 117.682372 127.522997 
L 118.184092 132.404402 
L 118.686202 132.545212 
L 119.188593 103.538403 
L 119.691373 123.955817 
L 120.194414 94.244959 
L 120.697844 86.688169 
L 121.201535 88.19014 
L 121.705636 95.88774 
L 122.209998 72.513321 
L 122.714619 72.701067 
L 123.219652 92.789925 
L 123.725075 95.981613 
L 124.230757 95.418374 
L 124.7367 83.918911 
L 125.749797 74.625467 
L 126.256801 41.910668 
L 126.764064 65.285087 
L 127.271717 112.080861 
L 127.779782 114.897056 
L 128.288128 114.099134 
L 128.796712 104.054705 
L 129.305686 65.097341 
L 129.815071 49.091965 
L 130.834773 108.232061 
L 131.34509 111.376812 
L 131.855667 121.233495 
L 132.366763 95.793866 
L 132.877989 103.726149 
L 133.389756 99.079427 
L 134.414071 67.16255 
L 134.92677 103.0221 
L 135.439728 111.705368 
L 135.953076 136.487885 
L 136.466685 140.806051 
L 136.980704 157.703221 
L 137.495092 140.195875 
L 138.009783 130.198383 
L 138.524842 133.061514 
L 139.040182 130.198383 
L 139.555891 144.93647 
L 140.071903 137.144997 
L 140.588283 131.137114 
L 141.105074 151.601465 
L 141.622126 146.813933 
L 142.139567 145.781328 
L 142.657268 146.062948 
L 143.17538 131.841163 
L 143.693752 133.437007 
L 144.212666 140.242812 
L 144.731688 150.381114 
L 145.251121 146.57925 
L 145.770944 128.086236 
L 146.291157 131.794226 
L 146.811651 169.296557 
L 147.332405 164.931455 
L 147.853549 164.555962 
L 148.375105 151.272909 
L 148.897029 151.836148 
L 149.419234 146.250694 
L 149.94172 145.265026 
L 150.464705 158.454206 
L 150.987971 139.585699 
L 151.511497 130.996304 
L 152.035413 152.774879 
L 152.55974 160.472479 
L 153.084327 150.756606 
L 153.609434 147.330236 
L 154.134693 152.21164 
L 154.660449 147.517982 
L 155.186357 146.297631 
L 155.712785 127.522997 
L 156.239494 129.635144 
L 156.766594 142.354958 
L 157.294082 140.242812 
L 157.821831 146.532314 
L 158.349991 141.932529 
L 158.878411 117.290822 
L 159.407351 150.615797 
L 159.936421 172.206625 
L 160.995903 146.813933 
L 161.526185 127.663807 
L 162.056836 156.999172 
L 162.587768 153.385055 
L 163.119089 141.181543 
L 163.650671 155.309455 
L 164.182664 151.742275 
L 164.715047 150.099494 
L 165.24782 152.49326 
L 165.780874 160.378606 
L 166.314318 153.760548 
L 166.848151 166.574235 
L 167.382375 154.980899 
L 167.91688 134.375739 
L 168.451775 158.548079 
L 168.986929 167.278284 
L 169.522604 160.988782 
L 170.05856 144.701787 
L 170.594775 163.100928 
L 171.131511 156.999172 
L 171.668528 166.433425 
L 172.205935 172.675991 
L 172.743601 173.567786 
L 173.281809 172.629054 
L 173.820255 167.982333 
L 174.359113 166.339552 
L 174.898252 162.068323 
L 175.437889 178.355318 
L 175.977808 170.000606 
L 176.517987 176.80641 
L 177.058707 175.492186 
L 177.599665 176.900284 
L 178.141034 174.271835 
L 178.682815 174.88201 
L 179.224965 172.722928 
L 179.767395 173.614723 
L 180.310216 169.155747 
L 180.853448 166.057933 
L 181.397048 170.282225 
L 181.940929 169.39043 
L 182.485352 172.488245 
L 183.030013 174.224898 
L 183.574956 173.051484 
L 184.120418 171.220957 
L 184.666162 168.592508 
L 185.212426 172.722928 
L 185.758798 171.502576 
L 186.305732 175.351376 
L 186.853057 170.047542 
L 187.40062 173.286167 
L 187.948616 174.506518 
L 188.49698 173.990215 
L 189.045756 175.539123 
L 189.594921 173.802469 
L 190.144346 166.292616 
L 190.694313 174.741201 
L 191.244539 173.943279 
L 191.795155 174.788137 
L 192.346053 173.426976 
L 192.897449 173.473913 
L 193.449148 172.816801 
L 194.001345 175.351376 
L 194.553823 174.271835 
L 195.106691 174.224898 
L 195.106691 174.224898 
" clip-path="url(#p52b8675f64)" style="fill: none; stroke: #672e45; stroke-width: 1.5; stroke-linecap: square"/>
   </g>
   <g id="patch_3">
    <path d="M 21.76149 251.764135 
L 21.76149 3.00024 
" style="fill: none; stroke: #000000; stroke-width: 0.8; stroke-linejoin: miter; stroke-linecap: square"/>
   </g>
   <g id="patch_4">
    <path d="M 194.99976 251.764135 
L 194.99976 3.00024 
" style="fill: none; stroke: #000000; stroke-width: 0.8; stroke-linejoin: miter; stroke-linecap: square"/>
   </g>
   <g id="patch_5">
    <path d="M 21.76149 251.764135 
L 194.99976 251.764135 
" style="fill: none; stroke: #000000; stroke-width: 0.8; stroke-linejoin: miter; stroke-linecap: square"/>
   </g>
   <g id="patch_6">
    <path d="M 21.76149 3.00024 
L 194.99976 3.00024 
" style="fill: none; stroke: #000000; stroke-width: 0.8; stroke-linejoin: miter; stroke-linecap: square"/>
   </g>
  </g>
 </g>
 <defs>
  <clipPath id="p52b8675f64">
   <rect x="21.76149" y="3.00024" width="173.23827" height="248.763895"/>
  </clipPath>
 </defs>
</svg>
