<?xml version="1.0" encoding="utf-8" standalone="no"?>
<!DOCTYPE svg PUBLIC "-//W3C//DTD SVG 1.1//EN"
  "http://www.w3.org/Graphics/SVG/1.1/DTD/svg11.dtd">
<svg xmlns:xlink="http://www.w3.org/1999/xlink" width="198pt" height="288pt" viewBox="0 0 198 288" xmlns="http://www.w3.org/2000/svg" version="1.1">
 <metadata>
  <rdf:RDF xmlns:dc="http://purl.org/dc/elements/1.1/" xmlns:cc="http://creativecommons.org/ns#" xmlns:rdf="http://www.w3.org/1999/02/22-rdf-syntax-ns#">
   <cc:Work>
    <dc:type rdf:resource="http://purl.org/dc/dcmitype/StillImage"/>
    <dc:date>2024-04-02T13:12:44.512019</dc:date>
    <dc:format>image/svg+xml</dc:format>
    <dc:creator>
     <cc:Agent>
      <dc:title>Matplotlib v3.6.2, https://matplotlib.org/</dc:title>
     </cc:Agent>
    </dc:creator>
   </cc:Work>
  </rdf:RDF>
 </metadata>
 <defs>
  <style type="text/css">*{stroke-linejoin: round; stroke-linecap: butt}</style>
 </defs>
 <g id="figure_1">
  <g id="patch_1">
   <path d="M 0 288 
L 198 288 
L 198 0 
L 0 0 
z
" style="fill: #ffffff"/>
  </g>
  <g id="axes_1">
   <g id="patch_2">
    <path d="M 21.76149 251.764135 
L 194.99976 251.764135 
L 194.99976 3.00024 
L 21.76149 3.00024 
z
" style="fill: #ffffff"/>
   </g>
   <g id="matplotlib.axis_1">
    <g id="xtick_1">
     <g id="line2d_1">
      <defs>
       <path id="m7d8f1a9321" d="M 0 0 
L 0 3.5 
" style="stroke: #000000; stroke-width: 0.8"/>
      </defs>
      <g>
       <use xlink:href="#m7d8f1a9321" x="42.760068" y="251.764135" style="stroke: #000000; stroke-width: 0.8"/>
      </g>
     </g>
     <g id="text_1">
      <!-- 500 -->
      <g transform="translate(32.750381 267.35351) scale(0.12 -0.12)">
       <defs>
        <path id="ArialMT-35" d="M 266 1200 
L 856 1250 
Q 922 819 1161 601 
Q 1400 384 1738 384 
Q 2144 384 2425 690 
Q 2706 997 2706 1503 
Q 2706 1984 2436 2262 
Q 2166 2541 1728 2541 
Q 1456 2541 1237 2417 
Q 1019 2294 894 2097 
L 366 2166 
L 809 4519 
L 3088 4519 
L 3088 3981 
L 1259 3981 
L 1013 2750 
Q 1425 3038 1878 3038 
Q 2478 3038 2890 2622 
Q 3303 2206 3303 1553 
Q 3303 931 2941 478 
Q 2500 -78 1738 -78 
Q 1113 -78 717 272 
Q 322 622 266 1200 
z
" transform="scale(0.015625)"/>
        <path id="ArialMT-30" d="M 266 2259 
Q 266 3072 433 3567 
Q 600 4063 929 4331 
Q 1259 4600 1759 4600 
Q 2128 4600 2406 4451 
Q 2684 4303 2865 4023 
Q 3047 3744 3150 3342 
Q 3253 2941 3253 2259 
Q 3253 1453 3087 958 
Q 2922 463 2592 192 
Q 2263 -78 1759 -78 
Q 1097 -78 719 397 
Q 266 969 266 2259 
z
M 844 2259 
Q 844 1131 1108 757 
Q 1372 384 1759 384 
Q 2147 384 2411 759 
Q 2675 1134 2675 2259 
Q 2675 3391 2411 3762 
Q 2147 4134 1753 4134 
Q 1366 4134 1134 3806 
Q 844 3388 844 2259 
z
" transform="scale(0.015625)"/>
       </defs>
       <use xlink:href="#ArialMT-35"/>
       <use xlink:href="#ArialMT-30" x="55.615234"/>
       <use xlink:href="#ArialMT-30" x="111.230469"/>
      </g>
     </g>
    </g>
    <g id="xtick_2">
     <g id="line2d_2">
      <g>
       <use xlink:href="#m7d8f1a9321" x="95.256514" y="251.764135" style="stroke: #000000; stroke-width: 0.8"/>
      </g>
     </g>
     <g id="text_2">
      <!-- 600 -->
      <g transform="translate(85.246826 267.35351) scale(0.12 -0.12)">
       <defs>
        <path id="ArialMT-36" d="M 3184 3459 
L 2625 3416 
Q 2550 3747 2413 3897 
Q 2184 4138 1850 4138 
Q 1581 4138 1378 3988 
Q 1113 3794 959 3422 
Q 806 3050 800 2363 
Q 1003 2672 1297 2822 
Q 1591 2972 1913 2972 
Q 2475 2972 2870 2558 
Q 3266 2144 3266 1488 
Q 3266 1056 3080 686 
Q 2894 316 2569 119 
Q 2244 -78 1831 -78 
Q 1128 -78 684 439 
Q 241 956 241 2144 
Q 241 3472 731 4075 
Q 1159 4600 1884 4600 
Q 2425 4600 2770 4297 
Q 3116 3994 3184 3459 
z
M 888 1484 
Q 888 1194 1011 928 
Q 1134 663 1356 523 
Q 1578 384 1822 384 
Q 2178 384 2434 671 
Q 2691 959 2691 1453 
Q 2691 1928 2437 2201 
Q 2184 2475 1800 2475 
Q 1419 2475 1153 2201 
Q 888 1928 888 1484 
z
" transform="scale(0.015625)"/>
       </defs>
       <use xlink:href="#ArialMT-36"/>
       <use xlink:href="#ArialMT-30" x="55.615234"/>
       <use xlink:href="#ArialMT-30" x="111.230469"/>
      </g>
     </g>
    </g>
    <g id="xtick_3">
     <g id="line2d_3">
      <g>
       <use xlink:href="#m7d8f1a9321" x="147.752959" y="251.764135" style="stroke: #000000; stroke-width: 0.8"/>
      </g>
     </g>
     <g id="text_3">
      <!-- 700 -->
      <g transform="translate(137.743272 267.35351) scale(0.12 -0.12)">
       <defs>
        <path id="ArialMT-37" d="M 303 3981 
L 303 4522 
L 3269 4522 
L 3269 4084 
Q 2831 3619 2401 2847 
Q 1972 2075 1738 1259 
Q 1569 684 1522 0 
L 944 0 
Q 953 541 1156 1306 
Q 1359 2072 1739 2783 
Q 2119 3494 2547 3981 
L 303 3981 
z
" transform="scale(0.015625)"/>
       </defs>
       <use xlink:href="#ArialMT-37"/>
       <use xlink:href="#ArialMT-30" x="55.615234"/>
       <use xlink:href="#ArialMT-30" x="111.230469"/>
      </g>
     </g>
    </g>
    <g id="xtick_4">
     <g id="line2d_4">
      <defs>
       <path id="m7de75eb5f0" d="M 0 0 
L 0 2 
" style="stroke: #000000; stroke-width: 0.6"/>
      </defs>
      <g>
       <use xlink:href="#m7de75eb5f0" x="29.635957" y="251.764135" style="stroke: #000000; stroke-width: 0.6"/>
      </g>
     </g>
    </g>
    <g id="xtick_5">
     <g id="line2d_5">
      <g>
       <use xlink:href="#m7de75eb5f0" x="55.88418" y="251.764135" style="stroke: #000000; stroke-width: 0.6"/>
      </g>
     </g>
    </g>
    <g id="xtick_6">
     <g id="line2d_6">
      <g>
       <use xlink:href="#m7de75eb5f0" x="69.008291" y="251.764135" style="stroke: #000000; stroke-width: 0.6"/>
      </g>
     </g>
    </g>
    <g id="xtick_7">
     <g id="line2d_7">
      <g>
       <use xlink:href="#m7de75eb5f0" x="82.132402" y="251.764135" style="stroke: #000000; stroke-width: 0.6"/>
      </g>
     </g>
    </g>
    <g id="xtick_8">
     <g id="line2d_8">
      <g>
       <use xlink:href="#m7de75eb5f0" x="108.380625" y="251.764135" style="stroke: #000000; stroke-width: 0.6"/>
      </g>
     </g>
    </g>
    <g id="xtick_9">
     <g id="line2d_9">
      <g>
       <use xlink:href="#m7de75eb5f0" x="121.504736" y="251.764135" style="stroke: #000000; stroke-width: 0.6"/>
      </g>
     </g>
    </g>
    <g id="xtick_10">
     <g id="line2d_10">
      <g>
       <use xlink:href="#m7de75eb5f0" x="134.628848" y="251.764135" style="stroke: #000000; stroke-width: 0.6"/>
      </g>
     </g>
    </g>
    <g id="xtick_11">
     <g id="line2d_11">
      <g>
       <use xlink:href="#m7de75eb5f0" x="160.87707" y="251.764135" style="stroke: #000000; stroke-width: 0.6"/>
      </g>
     </g>
    </g>
    <g id="xtick_12">
     <g id="line2d_12">
      <g>
       <use xlink:href="#m7de75eb5f0" x="174.001182" y="251.764135" style="stroke: #000000; stroke-width: 0.6"/>
      </g>
     </g>
    </g>
    <g id="xtick_13">
     <g id="line2d_13">
      <g>
       <use xlink:href="#m7de75eb5f0" x="187.125293" y="251.764135" style="stroke: #000000; stroke-width: 0.6"/>
      </g>
     </g>
    </g>
    <g id="text_4">
     <!-- Emission Energy (eV) -->
     <g transform="translate(50.363437 282.474135) scale(0.12 -0.12)">
      <defs>
       <path id="ArialMT-45" d="M 506 0 
L 506 4581 
L 3819 4581 
L 3819 4041 
L 1113 4041 
L 1113 2638 
L 3647 2638 
L 3647 2100 
L 1113 2100 
L 1113 541 
L 3925 541 
L 3925 0 
L 506 0 
z
" transform="scale(0.015625)"/>
       <path id="ArialMT-6d" d="M 422 0 
L 422 3319 
L 925 3319 
L 925 2853 
Q 1081 3097 1340 3245 
Q 1600 3394 1931 3394 
Q 2300 3394 2536 3241 
Q 2772 3088 2869 2813 
Q 3263 3394 3894 3394 
Q 4388 3394 4653 3120 
Q 4919 2847 4919 2278 
L 4919 0 
L 4359 0 
L 4359 2091 
Q 4359 2428 4304 2576 
Q 4250 2725 4106 2815 
Q 3963 2906 3769 2906 
Q 3419 2906 3187 2673 
Q 2956 2441 2956 1928 
L 2956 0 
L 2394 0 
L 2394 2156 
Q 2394 2531 2256 2718 
Q 2119 2906 1806 2906 
Q 1569 2906 1367 2781 
Q 1166 2656 1075 2415 
Q 984 2175 984 1722 
L 984 0 
L 422 0 
z
" transform="scale(0.015625)"/>
       <path id="ArialMT-69" d="M 425 3934 
L 425 4581 
L 988 4581 
L 988 3934 
L 425 3934 
z
M 425 0 
L 425 3319 
L 988 3319 
L 988 0 
L 425 0 
z
" transform="scale(0.015625)"/>
       <path id="ArialMT-73" d="M 197 991 
L 753 1078 
Q 800 744 1014 566 
Q 1228 388 1613 388 
Q 2000 388 2187 545 
Q 2375 703 2375 916 
Q 2375 1106 2209 1216 
Q 2094 1291 1634 1406 
Q 1016 1563 777 1677 
Q 538 1791 414 1992 
Q 291 2194 291 2438 
Q 291 2659 392 2848 
Q 494 3038 669 3163 
Q 800 3259 1026 3326 
Q 1253 3394 1513 3394 
Q 1903 3394 2198 3281 
Q 2494 3169 2634 2976 
Q 2775 2784 2828 2463 
L 2278 2388 
Q 2241 2644 2061 2787 
Q 1881 2931 1553 2931 
Q 1166 2931 1000 2803 
Q 834 2675 834 2503 
Q 834 2394 903 2306 
Q 972 2216 1119 2156 
Q 1203 2125 1616 2013 
Q 2213 1853 2448 1751 
Q 2684 1650 2818 1456 
Q 2953 1263 2953 975 
Q 2953 694 2789 445 
Q 2625 197 2315 61 
Q 2006 -75 1616 -75 
Q 969 -75 630 194 
Q 291 463 197 991 
z
" transform="scale(0.015625)"/>
       <path id="ArialMT-6f" d="M 213 1659 
Q 213 2581 725 3025 
Q 1153 3394 1769 3394 
Q 2453 3394 2887 2945 
Q 3322 2497 3322 1706 
Q 3322 1066 3130 698 
Q 2938 331 2570 128 
Q 2203 -75 1769 -75 
Q 1072 -75 642 372 
Q 213 819 213 1659 
z
M 791 1659 
Q 791 1022 1069 705 
Q 1347 388 1769 388 
Q 2188 388 2466 706 
Q 2744 1025 2744 1678 
Q 2744 2294 2464 2611 
Q 2184 2928 1769 2928 
Q 1347 2928 1069 2612 
Q 791 2297 791 1659 
z
" transform="scale(0.015625)"/>
       <path id="ArialMT-6e" d="M 422 0 
L 422 3319 
L 928 3319 
L 928 2847 
Q 1294 3394 1984 3394 
Q 2284 3394 2536 3286 
Q 2788 3178 2913 3003 
Q 3038 2828 3088 2588 
Q 3119 2431 3119 2041 
L 3119 0 
L 2556 0 
L 2556 2019 
Q 2556 2363 2490 2533 
Q 2425 2703 2258 2804 
Q 2091 2906 1866 2906 
Q 1506 2906 1245 2678 
Q 984 2450 984 1813 
L 984 0 
L 422 0 
z
" transform="scale(0.015625)"/>
       <path id="ArialMT-20" transform="scale(0.015625)"/>
       <path id="ArialMT-65" d="M 2694 1069 
L 3275 997 
Q 3138 488 2766 206 
Q 2394 -75 1816 -75 
Q 1088 -75 661 373 
Q 234 822 234 1631 
Q 234 2469 665 2931 
Q 1097 3394 1784 3394 
Q 2450 3394 2872 2941 
Q 3294 2488 3294 1666 
Q 3294 1616 3291 1516 
L 816 1516 
Q 847 969 1125 678 
Q 1403 388 1819 388 
Q 2128 388 2347 550 
Q 2566 713 2694 1069 
z
M 847 1978 
L 2700 1978 
Q 2663 2397 2488 2606 
Q 2219 2931 1791 2931 
Q 1403 2931 1139 2672 
Q 875 2413 847 1978 
z
" transform="scale(0.015625)"/>
       <path id="ArialMT-72" d="M 416 0 
L 416 3319 
L 922 3319 
L 922 2816 
Q 1116 3169 1280 3281 
Q 1444 3394 1641 3394 
Q 1925 3394 2219 3213 
L 2025 2691 
Q 1819 2813 1613 2813 
Q 1428 2813 1281 2702 
Q 1134 2591 1072 2394 
Q 978 2094 978 1738 
L 978 0 
L 416 0 
z
" transform="scale(0.015625)"/>
       <path id="ArialMT-67" d="M 319 -275 
L 866 -356 
Q 900 -609 1056 -725 
Q 1266 -881 1628 -881 
Q 2019 -881 2231 -725 
Q 2444 -569 2519 -288 
Q 2563 -116 2559 434 
Q 2191 0 1641 0 
Q 956 0 581 494 
Q 206 988 206 1678 
Q 206 2153 378 2554 
Q 550 2956 876 3175 
Q 1203 3394 1644 3394 
Q 2231 3394 2613 2919 
L 2613 3319 
L 3131 3319 
L 3131 450 
Q 3131 -325 2973 -648 
Q 2816 -972 2473 -1159 
Q 2131 -1347 1631 -1347 
Q 1038 -1347 672 -1080 
Q 306 -813 319 -275 
z
M 784 1719 
Q 784 1066 1043 766 
Q 1303 466 1694 466 
Q 2081 466 2343 764 
Q 2606 1063 2606 1700 
Q 2606 2309 2336 2618 
Q 2066 2928 1684 2928 
Q 1309 2928 1046 2623 
Q 784 2319 784 1719 
z
" transform="scale(0.015625)"/>
       <path id="ArialMT-79" d="M 397 -1278 
L 334 -750 
Q 519 -800 656 -800 
Q 844 -800 956 -737 
Q 1069 -675 1141 -563 
Q 1194 -478 1313 -144 
Q 1328 -97 1363 -6 
L 103 3319 
L 709 3319 
L 1400 1397 
Q 1534 1031 1641 628 
Q 1738 1016 1872 1384 
L 2581 3319 
L 3144 3319 
L 1881 -56 
Q 1678 -603 1566 -809 
Q 1416 -1088 1222 -1217 
Q 1028 -1347 759 -1347 
Q 597 -1347 397 -1278 
z
" transform="scale(0.015625)"/>
       <path id="ArialMT-28" d="M 1497 -1347 
Q 1031 -759 709 28 
Q 388 816 388 1659 
Q 388 2403 628 3084 
Q 909 3875 1497 4659 
L 1900 4659 
Q 1522 4009 1400 3731 
Q 1209 3300 1100 2831 
Q 966 2247 966 1656 
Q 966 153 1900 -1347 
L 1497 -1347 
z
" transform="scale(0.015625)"/>
       <path id="ArialMT-56" d="M 1803 0 
L 28 4581 
L 684 4581 
L 1875 1253 
Q 2019 853 2116 503 
Q 2222 878 2363 1253 
L 3600 4581 
L 4219 4581 
L 2425 0 
L 1803 0 
z
" transform="scale(0.015625)"/>
       <path id="ArialMT-29" d="M 791 -1347 
L 388 -1347 
Q 1322 153 1322 1656 
Q 1322 2244 1188 2822 
Q 1081 3291 891 3722 
Q 769 4003 388 4659 
L 791 4659 
Q 1378 3875 1659 3084 
Q 1900 2403 1900 1659 
Q 1900 816 1576 28 
Q 1253 -759 791 -1347 
z
" transform="scale(0.015625)"/>
      </defs>
      <use xlink:href="#ArialMT-45"/>
      <use xlink:href="#ArialMT-6d" x="66.699219"/>
      <use xlink:href="#ArialMT-69" x="150"/>
      <use xlink:href="#ArialMT-73" x="172.216797"/>
      <use xlink:href="#ArialMT-73" x="222.216797"/>
      <use xlink:href="#ArialMT-69" x="272.216797"/>
      <use xlink:href="#ArialMT-6f" x="294.433594"/>
      <use xlink:href="#ArialMT-6e" x="350.048828"/>
      <use xlink:href="#ArialMT-20" x="405.664062"/>
      <use xlink:href="#ArialMT-45" x="433.447266"/>
      <use xlink:href="#ArialMT-6e" x="500.146484"/>
      <use xlink:href="#ArialMT-65" x="555.761719"/>
      <use xlink:href="#ArialMT-72" x="611.376953"/>
      <use xlink:href="#ArialMT-67" x="644.677734"/>
      <use xlink:href="#ArialMT-79" x="700.292969"/>
      <use xlink:href="#ArialMT-20" x="750.292969"/>
      <use xlink:href="#ArialMT-28" x="778.076172"/>
      <use xlink:href="#ArialMT-65" x="811.376953"/>
      <use xlink:href="#ArialMT-56" x="866.992188"/>
      <use xlink:href="#ArialMT-29" x="933.691406"/>
     </g>
    </g>
   </g>
   <g id="matplotlib.axis_2">
    <g id="text_5">
     <!-- Intensity (a.u.) -->
     <g transform="translate(11.735865 165.395) rotate(-90) scale(0.12 -0.12)">
      <defs>
       <path id="ArialMT-49" d="M 597 0 
L 597 4581 
L 1203 4581 
L 1203 0 
L 597 0 
z
" transform="scale(0.015625)"/>
       <path id="ArialMT-74" d="M 1650 503 
L 1731 6 
Q 1494 -44 1306 -44 
Q 1000 -44 831 53 
Q 663 150 594 308 
Q 525 466 525 972 
L 525 2881 
L 113 2881 
L 113 3319 
L 525 3319 
L 525 4141 
L 1084 4478 
L 1084 3319 
L 1650 3319 
L 1650 2881 
L 1084 2881 
L 1084 941 
Q 1084 700 1114 631 
Q 1144 563 1211 522 
Q 1278 481 1403 481 
Q 1497 481 1650 503 
z
" transform="scale(0.015625)"/>
       <path id="ArialMT-61" d="M 2588 409 
Q 2275 144 1986 34 
Q 1697 -75 1366 -75 
Q 819 -75 525 192 
Q 231 459 231 875 
Q 231 1119 342 1320 
Q 453 1522 633 1644 
Q 813 1766 1038 1828 
Q 1203 1872 1538 1913 
Q 2219 1994 2541 2106 
Q 2544 2222 2544 2253 
Q 2544 2597 2384 2738 
Q 2169 2928 1744 2928 
Q 1347 2928 1158 2789 
Q 969 2650 878 2297 
L 328 2372 
Q 403 2725 575 2942 
Q 747 3159 1072 3276 
Q 1397 3394 1825 3394 
Q 2250 3394 2515 3294 
Q 2781 3194 2906 3042 
Q 3031 2891 3081 2659 
Q 3109 2516 3109 2141 
L 3109 1391 
Q 3109 606 3145 398 
Q 3181 191 3288 0 
L 2700 0 
Q 2613 175 2588 409 
z
M 2541 1666 
Q 2234 1541 1622 1453 
Q 1275 1403 1131 1340 
Q 988 1278 909 1158 
Q 831 1038 831 891 
Q 831 666 1001 516 
Q 1172 366 1500 366 
Q 1825 366 2078 508 
Q 2331 650 2450 897 
Q 2541 1088 2541 1459 
L 2541 1666 
z
" transform="scale(0.015625)"/>
       <path id="ArialMT-2e" d="M 581 0 
L 581 641 
L 1222 641 
L 1222 0 
L 581 0 
z
" transform="scale(0.015625)"/>
       <path id="ArialMT-75" d="M 2597 0 
L 2597 488 
Q 2209 -75 1544 -75 
Q 1250 -75 995 37 
Q 741 150 617 320 
Q 494 491 444 738 
Q 409 903 409 1263 
L 409 3319 
L 972 3319 
L 972 1478 
Q 972 1038 1006 884 
Q 1059 663 1231 536 
Q 1403 409 1656 409 
Q 1909 409 2131 539 
Q 2353 669 2445 892 
Q 2538 1116 2538 1541 
L 2538 3319 
L 3100 3319 
L 3100 0 
L 2597 0 
z
" transform="scale(0.015625)"/>
      </defs>
      <use xlink:href="#ArialMT-49"/>
      <use xlink:href="#ArialMT-6e" x="27.783203"/>
      <use xlink:href="#ArialMT-74" x="83.398438"/>
      <use xlink:href="#ArialMT-65" x="111.181641"/>
      <use xlink:href="#ArialMT-6e" x="166.796875"/>
      <use xlink:href="#ArialMT-73" x="222.412109"/>
      <use xlink:href="#ArialMT-69" x="272.412109"/>
      <use xlink:href="#ArialMT-74" x="294.628906"/>
      <use xlink:href="#ArialMT-79" x="322.412109"/>
      <use xlink:href="#ArialMT-20" x="372.412109"/>
      <use xlink:href="#ArialMT-28" x="400.195312"/>
      <use xlink:href="#ArialMT-61" x="433.496094"/>
      <use xlink:href="#ArialMT-2e" x="489.111328"/>
      <use xlink:href="#ArialMT-75" x="516.894531"/>
      <use xlink:href="#ArialMT-2e" x="572.509766"/>
      <use xlink:href="#ArialMT-29" x="600.292969"/>
     </g>
    </g>
   </g>
   <g id="line2d_14">
    <path d="M 21.735216 240.208318 
L 21.785649 240.456685 
L 21.836129 239.773674 
L 21.937122 239.88751 
L 22.038199 240.166923 
L 22.088774 239.19415 
L 22.13937 240.084134 
L 22.291279 239.835766 
L 22.341948 240.073785 
L 22.392639 238.81125 
L 22.443361 240.18762 
L 22.494115 239.690885 
L 22.544868 240.042739 
L 22.595653 239.825418 
L 22.74814 240.249712 
L 22.799003 240.394593 
L 22.900815 239.494261 
L 22.951742 238.645672 
L 23.00269 240.197969 
L 23.104659 240.053088 
L 23.155685 239.587399 
L 23.206728 240.435988 
L 23.257786 239.908207 
L 23.359981 240.218666 
L 23.411102 240.053088 
L 23.462259 239.866812 
L 23.513428 240.301456 
L 23.564612 239.556353 
L 23.615832 240.208318 
L 23.872209 239.307985 
L 24.026297 239.949601 
L 24.129132 239.980647 
L 24.180589 239.101012 
L 24.232051 239.57705 
L 24.283556 239.794372 
L 24.33506 239.514958 
L 24.386601 239.690885 
L 24.438153 240.084134 
L 24.489741 239.19415 
L 24.541345 239.339031 
L 24.644611 240.011693 
L 24.696278 239.825418 
L 24.747976 239.556353 
L 24.799675 240.084134 
L 24.851426 240.063437 
L 24.903171 239.752977 
L 24.954949 239.825418 
L 25.006742 239.918556 
L 25.058571 239.50461 
L 25.110411 239.525307 
L 25.214165 240.18762 
L 25.318009 238.728461 
L 25.369964 239.390775 
L 25.473923 239.73228 
L 25.525942 239.473564 
L 25.577992 239.680537 
L 25.630058 239.73228 
L 25.68214 240.322153 
L 25.734243 238.593929 
L 25.786371 238.997526 
L 25.890698 239.95995 
L 25.942895 239.380426 
L 25.995108 239.742629 
L 26.047347 239.690885 
L 26.151899 238.997526 
L 26.361255 239.980647 
L 26.518513 239.090664 
L 26.675966 239.866812 
L 26.781064 240.166923 
L 26.886219 239.535656 
L 26.938847 239.711583 
L 26.991496 239.95995 
L 27.044155 239.908207 
L 27.149552 238.376607 
L 27.202279 238.81125 
L 27.307823 239.483912 
L 27.360609 238.697415 
L 27.519148 240.053088 
L 27.730845 239.856464 
L 27.836841 239.152756 
L 27.889852 239.701234 
L 27.94291 239.42182 
L 28.049063 239.546004 
L 28.102189 238.821599 
L 28.155331 239.846115 
L 28.208484 239.711583 
L 28.261673 239.680537 
L 28.314879 238.749158 
L 28.368115 239.742629 
L 28.421368 239.721931 
L 28.474651 239.214848 
L 28.581272 240.208318 
L 28.634619 238.821599 
L 28.741381 238.852645 
L 28.955178 239.846115 
L 29.008666 239.587399 
L 29.115749 239.928904 
L 29.169321 239.597747 
L 29.222931 239.680537 
L 29.383858 240.27041 
L 29.437557 240.166923 
L 29.491277 239.939253 
L 29.545007 240.042739 
L 29.598758 240.104831 
L 29.706349 239.597747 
L 29.814041 238.500791 
L 29.921816 239.80472 
L 29.97574 239.680537 
L 30.137644 239.287288 
L 30.245703 239.980647 
L 30.299759 239.949601 
L 30.35384 239.95995 
L 30.407959 238.656021 
L 30.462093 239.514958 
L 30.516243 240.18762 
L 30.570425 239.877161 
L 30.624622 239.88751 
L 30.678851 239.711583 
L 30.733101 239.12171 
L 30.895998 240.001345 
L 31.004712 238.956131 
L 31.059104 239.111361 
L 31.113511 239.090664 
L 31.167945 239.19415 
L 31.276901 239.980647 
L 31.385942 239.380426 
L 31.440506 239.846115 
L 31.495087 239.80472 
L 31.549688 239.711583 
L 31.604316 238.335212 
L 31.658965 240.197969 
L 31.71364 239.525307 
L 31.768336 240.135877 
L 31.823064 239.618445 
L 31.877807 238.480094 
L 31.932582 239.028572 
L 32.042194 239.856464 
L 32.097032 239.628793 
L 32.151901 240.094483 
L 32.206792 239.742629 
L 32.261708 239.80472 
L 32.37161 238.324864 
L 32.536637 240.146226 
L 32.591701 239.88751 
L 32.64678 240.053088 
L 32.701891 240.249712 
L 32.757017 240.11518 
L 32.81216 239.587399 
L 32.867355 239.88751 
L 32.922544 240.218666 
L 32.977781 239.908207 
L 33.088291 240.156574 
L 33.143596 239.980647 
L 33.309637 238.945783 
L 33.365037 239.918556 
L 33.420468 239.452866 
L 33.475899 237.869523 
L 33.586855 240.177272 
L 33.642386 240.011693 
L 33.697927 239.825418 
L 33.753484 239.908207 
L 33.809078 240.239364 
L 33.920323 239.204499 
L 33.975995 239.525307 
L 34.087388 240.177272 
L 34.143123 240.11518 
L 34.19889 240.166923 
L 34.310492 239.370077 
L 34.366322 239.680537 
L 34.422189 239.970299 
L 34.478066 239.897858 
L 34.53398 239.42182 
L 34.58991 239.463215 
L 34.645866 239.88751 
L 34.701843 239.815069 
L 34.813891 239.525307 
L 34.869947 240.197969 
L 34.926024 240.125529 
L 34.982127 239.50461 
L 35.038261 240.177272 
L 35.094416 240.073785 
L 35.150598 240.125529 
L 35.31928 239.038921 
L 35.488187 240.27041 
L 35.544547 239.794372 
L 35.600923 240.042739 
L 35.657331 240.311804 
L 35.770214 239.825418 
L 35.826684 239.856464 
L 35.883191 239.670188 
L 35.939714 240.218666 
L 35.996263 240.053088 
L 36.052849 240.166923 
L 36.166084 239.307985 
L 36.222733 239.50461 
L 36.279413 240.135877 
L 36.33611 239.763326 
L 36.392837 239.442518 
L 36.449602 239.525307 
L 36.506377 239.473564 
L 36.563188 237.579761 
L 36.62001 238.800902 
L 36.79065 240.311804 
L 37.018527 239.514958 
L 37.189691 240.260061 
L 37.303934 239.483912 
L 37.361082 239.949601 
L 37.475482 238.73881 
L 37.647256 240.166923 
L 37.704561 240.280758 
L 37.761897 240.146226 
L 37.819271 239.670188 
L 37.876655 239.763326 
L 38.163968 240.301456 
L 38.394301 239.339031 
L 38.451942 239.639142 
L 38.509599 239.721931 
L 38.567303 240.135877 
L 38.625028 239.825418 
L 38.740536 239.452866 
L 38.79834 239.546004 
L 38.914011 240.11518 
L 38.971893 239.784023 
L 39.029792 240.177272 
L 39.087721 239.88751 
L 39.145667 239.80472 
L 39.20366 239.038921 
L 39.261658 240.053088 
L 39.319698 239.773674 
L 39.377743 239.359729 
L 39.435831 239.608096 
L 39.493939 240.001345 
L 39.552079 239.608096 
L 39.610234 239.918556 
L 39.668437 240.146226 
L 39.72664 240.032391 
L 39.78489 239.835766 
L 39.84314 240.042739 
L 39.901442 239.897858 
L 39.959756 240.032391 
L 40.018105 239.73228 
L 40.076481 239.970299 
L 40.134878 240.218666 
L 40.193307 240.125529 
L 40.251746 239.908207 
L 40.310222 239.95995 
L 40.427252 240.042739 
L 40.661638 239.266591 
L 40.778989 240.177272 
L 40.955198 238.252423 
L 41.072806 240.001345 
L 41.131665 239.680537 
L 41.190524 238.894039 
L 41.308358 240.18762 
L 41.367311 240.135877 
L 41.426286 240.229015 
L 41.544324 239.152756 
L 41.662478 239.990996 
L 41.721578 239.928904 
L 41.780726 239.773674 
L 41.899084 237.869523 
L 41.9583 238.997526 
L 42.136111 240.11518 
L 42.195453 239.970299 
L 42.254795 240.322153 
L 42.373584 238.676718 
L 42.492473 240.373896 
L 42.551978 239.928904 
L 42.611493 239.276939 
L 42.671024 239.442518 
L 42.730591 239.690885 
L 42.790185 238.873342 
L 42.849816 239.908207 
L 42.909463 239.535656 
L 42.969135 239.73228 
L 43.028845 238.666369 
L 43.148342 240.18762 
L 43.208136 240.11518 
L 43.26794 239.949601 
L 43.327775 240.084134 
L 43.447546 240.022042 
L 43.507465 239.535656 
L 43.567411 236.969191 
L 43.627393 237.600458 
L 43.687392 239.80472 
L 43.747421 239.432169 
L 43.927684 239.95995 
L 43.987829 239.918556 
L 44.048 240.218666 
L 44.108187 240.197969 
L 44.228667 238.873342 
L 44.349251 239.618445 
L 44.409585 238.066148 
L 44.469951 238.480094 
L 44.651195 240.063437 
L 44.711671 237.921267 
L 44.772162 239.57705 
L 44.832691 237.734991 
L 45.014444 240.177272 
L 45.075067 239.980647 
L 45.135737 238.831948 
L 45.196439 239.649491 
L 45.257156 240.022042 
L 45.31791 238.821599 
L 45.378675 239.773674 
L 45.439487 239.990996 
L 45.561184 238.718112 
L 45.622059 240.197969 
L 45.682986 239.794372 
L 45.743929 239.835766 
L 45.926932 239.204499 
L 45.987985 239.080315 
L 46.049075 239.628793 
L 46.110176 238.407653 
L 46.232493 240.022042 
L 46.293693 239.556353 
L 46.354909 239.794372 
L 46.538762 240.322153 
L 46.600089 237.879872 
L 46.661462 238.107542 
L 46.722857 237.859175 
L 46.845735 239.980647 
L 46.968708 238.883691 
L 47.091812 240.322153 
L 47.215027 237.300348 
L 47.338351 239.473564 
L 47.400061 238.148937 
L 47.461807 238.676718 
L 47.585358 239.949601 
L 47.647183 240.125529 
L 47.709024 239.918556 
L 47.770906 240.094483 
L 47.83281 239.980647 
L 47.894751 239.608096 
L 47.956718 240.135877 
L 48.0187 239.483912 
L 48.080714 237.507321 
L 48.142781 238.624975 
L 48.266956 240.104831 
L 48.329101 240.001345 
L 48.391262 238.324864 
L 48.453455 239.42182 
L 48.515679 239.784023 
L 48.577934 237.672899 
L 48.640206 239.028572 
L 48.764864 240.022042 
L 48.952045 239.318334 
L 49.014495 239.339031 
L 49.076976 239.204499 
L 49.139489 239.442518 
L 49.202033 238.976829 
L 49.264609 239.401123 
L 49.327216 239.059618 
L 49.389829 239.328683 
L 49.515174 240.208318 
L 49.703416 238.759507 
L 49.766218 239.784023 
L 49.829051 239.328683 
L 49.954811 239.856464 
L 50.269711 238.35591 
L 50.33277 235.965372 
L 50.395891 236.82431 
L 50.459013 237.072677 
L 50.522166 239.908207 
L 50.585351 239.670188 
L 50.838384 234.940856 
L 50.901726 237.155467 
L 51.028484 234.423424 
L 51.218841 239.649491 
L 51.282346 238.221377 
L 51.345883 234.382029 
L 51.409456 237.714294 
L 51.473055 235.820491 
L 51.536692 236.59664 
L 51.600354 236.28618 
L 51.791515 231.639637 
L 51.855308 231.5465 
L 52.174665 223.412463 
L 52.302604 223.526298 
L 52.494757 215.609582 
L 52.558871 214.284956 
L 52.751407 222.491433 
L 52.879892 215.381912 
L 52.9442 220.049152 
L 53.072879 208.644943 
L 53.137251 217.969074 
L 53.201653 217.917331 
L 53.395082 204.122584 
L 53.588804 215.640628 
L 53.718092 199.672665 
L 53.782784 202.301222 
L 53.847475 198.534314 
L 53.912229 200.355676 
L 54.041838 206.037083 
L 54.171541 192.832209 
L 54.30137 172.103868 
L 54.36635 179.265132 
L 54.496373 162.945315 
L 54.561421 165.81189 
L 54.626527 168.274868 
L 54.691634 167.167563 
L 54.95242 144.027987 
L 55.01772 148.778016 
L 55.213716 131.123224 
L 55.279111 130.740324 
L 55.606573 163.473096 
L 55.737783 175.270554 
L 55.803435 172.124565 
L 55.869087 173.604422 
L 55.934807 180.444878 
L 56.000554 176.626227 
L 56.066332 176.036354 
L 56.132147 174.266735 
L 56.263839 191.642115 
L 56.329743 189.054953 
L 56.395652 188.630658 
L 56.593638 197.085503 
L 56.659704 196.412841 
L 57.122991 217.182577 
L 57.255644 215.506096 
L 57.321999 216.603053 
L 57.587815 229.435376 
L 57.654365 228.276327 
L 57.787527 231.960446 
L 57.85414 230.346057 
L 57.920821 233.098797 
L 57.987497 232.964264 
L 58.054209 228.783411 
L 58.12098 234.940856 
L 58.187755 234.83737 
L 58.254594 233.088448 
L 58.321432 235.706656 
L 58.388333 232.581364 
L 58.455235 234.237148 
L 58.522205 237.74534 
L 58.589169 236.151648 
L 58.656202 232.622759 
L 58.723229 234.661443 
L 58.790325 235.323756 
L 58.857421 233.678321 
L 58.991738 238.749158 
L 59.05896 238.511139 
L 59.193466 236.275832 
L 59.260756 236.679429 
L 59.462873 234.547607 
L 59.597799 239.059618 
L 59.665278 238.96648 
L 59.867967 236.938145 
L 59.935608 236.938145 
L 60.070981 239.990996 
L 60.138686 239.618445 
L 60.477844 236.21374 
L 60.545769 236.803613 
L 60.613731 236.265483 
L 60.749744 239.773674 
L 60.817801 239.597747 
L 60.885889 240.146226 
L 60.954008 240.011693 
L 61.022159 239.846115 
L 61.090378 240.260061 
L 61.226843 237.672899 
L 61.363465 240.11518 
L 61.637066 239.183802 
L 61.774107 239.949601 
L 61.979873 239.877161 
L 62.048506 239.452866 
L 62.117203 239.628793 
L 62.185932 239.897858 
L 62.254691 239.111361 
L 62.323483 239.856464 
L 62.392311 239.494261 
L 62.461165 240.022042 
L 62.530056 240.001345 
L 62.598974 237.797083 
L 62.667928 237.859175 
L 62.805962 239.95995 
L 63.013239 239.339031 
L 63.082382 240.022042 
L 63.151593 240.001345 
L 63.220799 240.18762 
L 63.290074 240.135877 
L 63.428717 239.390775 
L 63.567454 240.094483 
L 63.636891 239.618445 
L 63.706355 239.88751 
L 63.914976 239.95995 
L 63.98457 239.50461 
L 64.054196 240.073785 
L 64.123885 239.95995 
L 64.193574 240.135877 
L 64.263326 239.990996 
L 64.333083 240.146226 
L 64.542634 239.111361 
L 64.612548 239.318334 
L 64.682495 239.452866 
L 64.752472 239.266591 
L 64.822482 239.721931 
L 64.892522 239.597747 
L 64.9626 239.50461 
L 65.032704 239.763326 
L 65.102876 239.452866 
L 65.173042 239.628793 
L 65.313544 240.032391 
L 65.454145 238.593929 
L 65.524506 238.831948 
L 65.665328 240.177272 
L 65.806307 239.411472 
L 65.876831 239.980647 
L 65.947386 239.95995 
L 66.018004 239.877161 
L 66.088659 239.297637 
L 66.159309 240.032391 
L 66.230022 239.835766 
L 66.371547 239.442518 
L 66.442359 240.001345 
L 66.513203 239.773674 
L 66.655017 239.452866 
L 66.725955 239.690885 
L 66.796962 240.415291 
L 67.010134 239.73228 
L 67.081262 239.763326 
L 67.294849 239.339031 
L 67.580146 240.18762 
L 67.651568 239.877161 
L 67.72302 240.135877 
L 67.937568 239.235545 
L 68.009147 239.411472 
L 68.080794 239.007875 
L 68.152436 239.742629 
L 68.224146 239.535656 
L 68.295883 239.235545 
L 68.43946 239.711583 
L 68.511297 239.856464 
L 68.583169 239.380426 
L 68.655069 239.556353 
L 68.798998 239.794372 
L 68.871028 238.945783 
L 68.943085 239.235545 
L 69.087303 239.970299 
L 69.231684 239.411472 
L 69.376191 239.866812 
L 69.448474 239.649491 
L 69.593206 240.042739 
L 69.66562 239.287288 
L 69.738065 240.032391 
L 69.810573 239.866812 
L 69.883081 239.784023 
L 69.955658 239.390775 
L 70.02826 239.50461 
L 70.100899 240.022042 
L 70.246273 239.514958 
L 70.319006 239.752977 
L 70.391803 239.318334 
L 70.53746 240.11518 
L 70.683279 239.132058 
L 70.756239 239.846115 
L 70.82923 239.721931 
L 70.902284 239.245893 
L 70.975338 240.229015 
L 71.048455 239.866812 
L 71.121604 239.256242 
L 71.268 239.95995 
L 71.341249 239.608096 
L 71.41456 239.856464 
L 71.487903 239.763326 
L 71.561246 239.525307 
L 71.634651 239.597747 
L 71.708089 240.249712 
L 71.781594 239.442518 
L 71.855094 239.670188 
L 72.002226 238.987177 
L 72.075858 239.95995 
L 72.149521 239.73228 
L 72.223252 239.908207 
L 72.296978 238.780204 
L 72.370735 239.018223 
L 72.444561 240.073785 
L 72.518413 239.566702 
L 72.592302 239.742629 
L 72.740205 239.401123 
L 72.814189 239.949601 
L 72.888235 238.945783 
L 72.962313 239.339031 
L 73.036427 239.608096 
L 73.110568 239.494261 
L 73.184745 238.345561 
L 73.258986 239.701234 
L 73.333258 239.173453 
L 73.40753 239.95995 
L 73.481896 239.514958 
L 73.556263 239.73228 
L 73.630661 239.877161 
L 73.705127 239.163104 
L 73.854149 239.752977 
L 73.928709 239.556353 
L 74.003301 239.670188 
L 74.152617 239.918556 
L 74.30209 239.101012 
L 74.376871 238.552534 
L 74.526602 239.846115 
L 74.601483 239.815069 
L 74.676427 239.359729 
L 74.751434 239.659839 
L 74.901516 238.987177 
L 74.976591 238.883691 
L 75.051724 238.211029 
L 75.35266 239.835766 
L 75.427987 239.618445 
L 75.503351 238.790553 
L 75.578772 239.038921 
L 75.654199 238.790553 
L 75.729689 239.587399 
L 75.956348 238.345561 
L 76.183395 239.701234 
L 76.334915 239.007875 
L 76.562535 239.535656 
L 76.866547 238.790553 
L 76.942677 239.473564 
L 77.094969 238.107542 
L 77.247451 239.877161 
L 77.476482 238.593929 
L 77.705834 238.345561 
L 77.935569 239.659839 
L 78.08889 238.697415 
L 78.2424 240.011693 
L 78.319202 239.101012 
L 78.396068 239.784023 
L 78.549866 239.245893 
L 78.780914 239.659839 
L 78.858005 239.566702 
L 79.012287 238.304167 
L 79.166757 239.866812 
L 79.398734 238.490442 
L 79.476145 239.256242 
L 79.553593 238.552534 
L 79.708605 239.618445 
L 79.786147 239.225196 
L 79.863784 235.789445 
L 79.941421 235.882583 
L 80.096821 239.608096 
L 80.174616 239.566702 
L 80.25241 239.038921 
L 80.330273 240.125529 
L 80.642065 237.983358 
L 80.720117 238.04545 
L 80.798205 239.276939 
L 80.876351 239.018223 
L 81.032743 240.177272 
L 81.189267 239.19415 
L 81.267607 239.877161 
L 81.345979 239.328683 
L 81.502886 239.866812 
L 81.581389 238.96648 
L 81.659924 238.997526 
L 81.817114 239.587399 
L 81.89578 239.028572 
L 81.974472 239.380426 
L 82.053227 239.12171 
L 82.132019 239.680537 
L 82.210837 239.049269 
L 82.289724 239.701234 
L 82.36861 239.494261 
L 82.447591 239.556353 
L 82.526572 239.276939 
L 82.605621 238.552534 
L 82.684665 239.711583 
L 82.763809 239.680537 
L 82.842952 239.183802 
L 82.922154 239.214848 
L 83.001392 239.877161 
L 83.080667 238.81125 
L 83.239363 239.73228 
L 83.318764 239.142407 
L 83.398223 239.752977 
L 83.557245 239.007875 
L 83.71643 239.19415 
L 83.796083 238.469745 
L 83.875799 239.463215 
L 83.955551 239.432169 
L 84.035335 239.546004 
L 84.115151 239.939253 
L 84.194998 238.707764 
L 84.274908 238.883691 
L 84.354881 239.256242 
L 84.514896 238.883691 
L 84.675104 239.494261 
L 84.83547 238.790553 
L 84.915701 239.370077 
L 84.995994 239.266591 
L 85.076324 239.390775 
L 85.156717 239.328683 
L 85.237105 238.531837 
L 85.39808 239.73228 
L 85.559186 238.573231 
L 85.639832 238.769856 
L 85.720513 239.463215 
L 85.801227 238.904388 
L 85.881971 239.835766 
L 85.962779 239.670188 
L 86.043618 238.997526 
L 86.205428 239.928904 
L 86.367396 239.50461 
L 86.448461 239.701234 
L 86.529557 239.214848 
L 86.610685 239.307985 
L 86.691876 239.95995 
L 86.773104 238.96648 
L 86.854389 239.307985 
L 86.93568 239.535656 
L 87.179899 239.276939 
L 87.261378 239.95995 
L 87.342895 239.266591 
L 87.424469 239.608096 
L 87.50608 238.96648 
L 87.587754 239.390775 
L 87.66946 239.173453 
L 87.751197 239.339031 
L 87.832997 238.531837 
L 87.996696 239.784023 
L 88.160585 239.173453 
L 88.242579 239.514958 
L 88.406725 238.769856 
L 88.571065 239.370077 
L 88.653285 238.107542 
L 88.817882 239.380426 
L 88.900228 239.773674 
L 88.982637 239.680537 
L 89.147555 239.204499 
L 89.312661 239.846115 
L 89.395296 239.318334 
L 89.477962 239.773674 
L 89.643426 239.370077 
L 89.726218 239.897858 
L 89.809078 239.649491 
L 89.89197 239.752977 
L 89.974894 239.266591 
L 90.05788 239.318334 
L 90.223947 239.670188 
L 90.307065 239.42182 
L 90.390209 239.897858 
L 90.473421 239.597747 
L 90.556664 239.928904 
L 90.639939 239.825418 
L 90.723283 239.815069 
L 90.806652 239.483912 
L 90.973554 239.825418 
L 91.140619 238.718112 
L 91.391568 239.95995 
L 91.475289 239.069966 
L 91.559079 239.877161 
L 91.642931 239.639142 
L 91.726784 239.763326 
L 91.810699 239.101012 
L 91.894678 240.022042 
L 91.978688 239.639142 
L 92.062735 239.711583 
L 92.146845 239.50461 
L 92.230981 239.763326 
L 92.315154 239.080315 
L 92.399395 239.711583 
L 92.483693 239.670188 
L 92.736789 239.473564 
L 92.821246 239.546004 
L 92.990331 238.81125 
L 93.159569 239.73228 
L 93.329007 239.442518 
L 93.413789 240.073785 
L 93.498602 239.566702 
L 93.583478 239.897858 
L 93.668386 239.452866 
L 93.753362 239.680537 
L 93.838401 239.566702 
L 93.923435 239.183802 
L 94.093702 239.742629 
L 94.178903 239.815069 
L 94.349422 239.080315 
L 94.520141 239.856464 
L 94.605594 238.945783 
L 94.691048 240.063437 
L 94.776565 239.452866 
L 94.86215 240.053088 
L 94.947766 238.914737 
L 95.03344 239.525307 
L 95.204894 238.96648 
L 95.290699 239.587399 
L 95.376542 239.463215 
L 95.462441 239.690885 
L 95.548378 239.546004 
L 95.634378 239.794372 
L 95.892629 239.318334 
L 95.978786 239.670188 
L 96.1513 238.935434 
L 96.23762 239.494261 
L 96.323971 239.090664 
L 96.410386 240.001345 
L 96.669917 238.883691 
L 96.843166 239.690885 
L 96.929869 239.42182 
L 97.016604 239.835766 
L 97.103407 239.132058 
L 97.190236 239.680537 
L 97.277133 239.390775 
L 97.364062 239.763326 
L 97.538077 239.432169 
L 97.625164 239.980647 
L 97.712287 239.101012 
L 97.799436 239.132058 
L 97.973934 239.618445 
L 98.061246 239.680537 
L 98.148627 239.307985 
L 98.236033 239.525307 
L 98.323508 239.390775 
L 98.411009 239.773674 
L 98.498579 239.752977 
L 98.849271 238.73881 
L 99.024924 240.001345 
L 99.112813 239.163104 
L 99.28875 239.639142 
L 99.464881 238.81125 
L 99.553027 239.815069 
L 99.729447 236.503502 
L 99.817751 239.856464 
L 99.906087 239.597747 
L 100.082895 239.401123 
L 100.171357 239.463215 
L 100.348485 239.856464 
L 100.43711 239.018223 
L 100.525766 239.866812 
L 100.703277 238.20068 
L 100.792096 238.707764 
L 100.880978 235.592821 
L 101.058872 239.763326 
L 101.14788 239.721931 
L 101.236956 239.173453 
L 101.326095 240.001345 
L 101.415265 239.970299 
L 101.504467 239.711583 
L 101.593738 238.759507 
L 101.683065 239.877161 
L 101.77243 239.442518 
L 101.861858 240.032391 
L 102.040839 237.548715 
L 102.309668 239.401123 
L 102.399379 239.287288 
L 102.489159 238.262772 
L 102.578975 239.556353 
L 102.758754 238.438699 
L 102.848728 239.95995 
L 102.938733 239.608096 
L 103.028801 238.790553 
L 103.118933 238.935434 
L 103.209095 238.769856 
L 103.299326 236.224088 
L 103.389583 238.418002 
L 103.479909 238.386956 
L 103.751173 239.897858 
L 103.841688 239.339031 
L 103.93227 239.50461 
L 104.113556 239.069966 
L 104.295042 235.748051 
L 104.385876 236.948494 
L 104.567682 236.048161 
L 104.749708 239.276939 
L 104.931924 236.389667 
L 105.023084 239.442518 
L 105.114338 238.997526 
L 105.205624 238.925085 
L 105.296942 236.948494 
L 105.479766 239.57705 
L 105.571278 239.57705 
L 105.662821 239.918556 
L 105.754391 239.649491 
L 105.937766 240.260061 
L 106.305052 239.256242 
L 106.397015 239.276939 
L 106.581089 238.469745 
L 106.673178 239.856464 
L 106.765362 239.132058 
L 106.949855 239.597747 
L 107.042165 239.690885 
L 107.226947 239.597747 
L 107.411955 239.752977 
L 107.504554 239.235545 
L 107.689877 240.094483 
L 107.782606 238.925085 
L 107.968255 239.752977 
L 108.061142 239.266591 
L 108.154092 239.307985 
L 108.247079 239.370077 
L 108.340155 240.218666 
L 108.433237 240.053088 
L 108.61962 239.256242 
L 108.806198 240.166923 
L 108.899568 240.11518 
L 108.992996 239.908207 
L 109.086492 240.239364 
L 109.273616 239.57705 
L 109.367238 239.846115 
L 109.460928 239.57705 
L 109.554682 238.749158 
L 109.648467 239.618445 
L 109.742315 239.57705 
L 109.836231 239.597747 
L 109.930173 239.142407 
L 110.024215 240.34285 
L 110.400798 239.318334 
L 110.589392 239.928904 
L 110.683786 239.556353 
L 110.778243 238.117891 
L 110.967288 239.587399 
L 111.156553 239.204499 
L 111.346013 239.980647 
L 111.440858 239.918556 
L 111.630638 239.587399 
L 111.725641 239.566702 
L 111.820675 239.339031 
L 111.915772 236.845007 
L 112.010901 240.073785 
L 112.10613 239.307985 
L 112.296681 239.835766 
L 112.392036 239.535656 
L 112.487485 240.125529 
L 112.582934 239.80472 
L 112.678483 240.353199 
L 112.774063 239.628793 
L 112.869706 239.918556 
L 113.06115 239.546004 
L 113.348721 239.918556 
L 113.636805 239.049269 
L 113.732963 240.104831 
L 113.829152 239.970299 
L 113.925399 239.007875 
L 114.021688 240.166923 
L 114.118067 239.649491 
L 114.214476 240.208318 
L 114.600703 239.711583 
L 114.697407 240.022042 
L 114.890935 239.287288 
L 114.987796 239.473564 
L 115.08472 240.073785 
L 115.181707 239.701234 
L 115.278731 239.980647 
L 115.375813 239.007875 
L 115.472963 239.245893 
L 115.570144 240.022042 
L 115.66742 239.059618 
L 115.862103 239.73228 
L 116.252142 234.495864 
L 116.349806 227.789941 
L 116.447502 227.955519 
L 116.643077 239.763326 
L 116.838915 239.856464 
L 116.9369 239.390775 
L 117.034942 239.980647 
L 117.133053 239.546004 
L 117.329437 240.073785 
L 117.427705 240.301456 
L 117.624441 239.908207 
L 117.722903 239.12171 
L 117.821397 240.011693 
L 117.91999 238.894039 
L 118.01861 239.587399 
L 118.117267 238.780204 
L 118.3148 239.566702 
L 118.413683 239.266591 
L 118.512591 240.073785 
L 118.710576 239.401123 
L 118.809679 239.939253 
L 118.908813 239.908207 
L 119.008016 239.566702 
L 119.107281 239.763326 
L 119.206573 238.925085 
L 119.305965 240.166923 
L 119.604433 239.597747 
L 119.803731 240.197969 
L 119.903443 239.380426 
L 120.003249 240.094483 
L 120.202993 239.059618 
L 120.30293 239.256242 
L 120.402967 240.104831 
L 120.503062 239.183802 
L 120.603189 240.135877 
L 120.703383 240.104831 
L 120.803641 239.794372 
L 121.004314 240.208318 
L 121.205244 239.990996 
L 121.305791 240.063437 
L 121.4064 240.280758 
L 122.011343 239.897858 
L 122.112367 239.711583 
L 122.314578 240.156574 
L 122.618396 239.659839 
L 122.719772 240.239364 
L 123.227628 239.597747 
L 123.329361 240.011693 
L 123.533047 239.401123 
L 123.736959 240.363547 
L 123.839007 240.084134 
L 123.941123 240.249712 
L 124.145549 239.88751 
L 124.247823 240.322153 
L 124.657599 239.628793 
L 124.760193 238.687066 
L 124.862855 239.173453 
L 124.96558 238.656021 
L 125.068368 233.554137 
L 125.480098 240.146226 
L 125.583206 240.291107 
L 125.686351 240.104831 
L 125.789554 240.260061 
L 125.99619 239.680537 
L 126.099587 239.980647 
L 126.203016 239.866812 
L 126.41013 240.073785 
L 126.513784 238.273121 
L 126.72125 239.639142 
L 127.032948 240.177272 
L 127.136954 239.721931 
L 127.241023 240.053088 
L 127.345192 239.980647 
L 127.449387 240.260061 
L 127.657976 240.032391 
L 127.762365 239.204499 
L 127.866823 240.001345 
L 127.971343 239.266591 
L 128.180573 240.301456 
L 128.599799 239.007875 
L 128.809764 240.135877 
L 128.914862 239.835766 
L 129.12521 240.291107 
L 129.230502 240.291107 
L 129.441233 239.928904 
L 129.546714 240.11518 
L 129.757834 239.835766 
L 129.863509 238.769856 
L 129.969211 239.928904 
L 130.075012 239.245893 
L 130.180876 240.239364 
L 130.286772 240.125529 
L 130.392768 239.535656 
L 130.604911 240.053088 
L 130.817312 240.229015 
L 131.02997 239.970299 
L 131.136411 240.146226 
L 131.242916 240.042739 
L 131.349453 239.297637 
L 131.562782 240.042739 
L 131.669544 239.339031 
L 131.776338 239.928904 
L 131.883231 239.256242 
L 131.990182 240.208318 
L 132.097201 239.856464 
L 132.204284 239.897858 
L 132.311429 238.852645 
L 132.525914 240.104831 
L 132.633253 239.463215 
L 132.848121 240.156574 
L 132.95565 238.304167 
L 133.170906 239.794372 
L 133.27866 239.494261 
L 133.4943 240.177272 
L 133.602243 239.339031 
L 133.818297 239.815069 
L 133.92644 240.125529 
L 134.251209 239.34938 
L 134.468067 240.032391 
L 134.576588 239.690885 
L 134.685176 239.825418 
L 134.79386 239.163104 
L 134.902575 239.815069 
L 135.011358 239.618445 
L 135.229139 240.208318 
L 135.338148 240.032391 
L 135.447215 239.34938 
L 135.556313 240.332501 
L 135.665511 240.291107 
L 135.774772 240.022042 
L 135.884095 240.063437 
L 136.102969 238.148937 
L 136.3221 239.556353 
L 136.43178 239.525307 
L 136.541487 239.359729 
L 136.651294 240.229015 
L 136.761164 239.990996 
L 136.871097 239.266591 
L 136.981093 239.897858 
L 137.091188 239.514958 
L 137.201315 237.859175 
L 137.311537 237.983358 
L 137.42179 239.57705 
L 137.532143 239.276939 
L 137.642553 239.649491 
L 137.753032 238.614626 
L 137.974184 231.23604 
L 138.084883 228.32807 
L 138.19565 229.052476 
L 138.306449 228.648878 
L 138.528305 221.032274 
L 138.639329 222.708755 
L 138.750449 219.800785 
L 138.972845 226.651589 
L 139.306937 236.503502 
L 139.418476 232.115675 
L 139.641707 233.212632 
L 139.753404 232.208813 
L 139.865195 236.110253 
L 140.200988 231.763821 
L 140.313068 234.868416 
L 140.42518 231.681032 
L 140.537391 233.129843 
L 140.762028 228.535043 
L 140.874434 228.700622 
L 140.986928 234.247497 
L 141.099491 231.950097 
L 141.212117 233.636926 
L 141.324806 237.383137 
L 141.550404 224.995806 
L 141.663319 232.829732 
L 141.776297 232.043235 
L 142.115681 235.923978 
L 142.228947 238.418002 
L 142.455669 234.692489 
L 142.569161 236.161996 
L 142.682679 232.602062 
L 142.796302 233.781808 
L 142.910015 236.658732 
L 143.023759 234.537259 
L 143.137603 235.737702 
L 143.25151 235.592821 
L 143.365479 233.626578 
L 143.479517 239.390775 
L 143.59365 238.117891 
L 143.707809 239.659839 
L 143.822067 238.81125 
L 143.936426 239.287288 
L 144.05081 237.507321 
L 144.165294 238.58358 
L 144.279842 238.304167 
L 144.394488 238.500791 
L 144.509162 239.359729 
L 144.623935 238.459396 
L 144.738771 239.80472 
L 144.968668 237.828129 
L 145.19885 239.608096 
L 145.314042 238.780204 
L 145.429325 238.883691 
L 145.544675 238.635323 
L 145.660089 239.401123 
L 145.775565 237.724642 
L 145.891136 239.846115 
L 146.006775 239.752977 
L 146.122509 239.473564 
L 146.354134 239.649491 
L 146.470056 239.908207 
L 146.586079 239.142407 
L 146.702164 239.173453 
L 146.934529 238.935434 
L 147.283651 239.34938 
L 147.516751 239.639142 
L 147.633446 239.19415 
L 147.750172 239.442518 
L 147.866992 238.759507 
L 147.98388 239.34938 
L 148.100864 237.921267 
L 148.217878 238.852645 
L 148.334987 238.790553 
L 148.452196 238.148937 
L 148.569468 236.400015 
L 148.686803 238.842296 
L 148.8042 237.786734 
L 148.921698 239.390775 
L 149.039258 239.380426 
L 149.156914 239.866812 
L 149.392381 239.163104 
L 149.510262 239.442518 
L 149.864287 239.225196 
L 149.982457 239.359729 
L 150.100721 238.707764 
L 150.693033 240.011693 
L 150.811748 237.890221 
L 150.930527 239.287288 
L 151.049368 238.780204 
L 151.287272 239.50461 
L 151.525501 238.273121 
L 151.76405 239.73228 
L 152.002882 239.12171 
L 152.361748 238.262772 
L 152.601352 239.401123 
L 152.841277 238.862994 
L 152.961336 239.57705 
L 153.201707 235.023645 
L 153.322024 237.465926 
L 153.442403 235.717005 
L 153.562877 238.831948 
L 153.68342 238.614626 
L 153.804051 235.044343 
L 153.924751 237.455577 
L 154.045514 237.010586 
L 154.166376 237.093375 
L 154.408317 238.58358 
L 154.650551 232.094978 
L 154.771797 236.172345 
L 155.01454 232.508924 
L 155.136007 231.329178 
L 155.257573 235.075388 
L 155.379202 234.620048 
L 155.500925 231.960446 
L 155.622717 233.471348 
L 155.866552 226.972397 
L 156.110703 229.85967 
L 156.355179 220.038804 
L 156.599944 232.3123 
L 156.72247 231.122205 
L 156.84506 227.779592 
L 156.967713 219.75939 
L 157.213312 223.598738 
L 157.459195 217.555128 
L 157.582262 223.102003 
L 157.705429 222.688057 
L 157.828665 219.128123 
L 158.075346 229.621651 
L 158.446034 222.66736 
L 158.569747 224.819879 
L 158.817425 231.267086 
L 159.065423 227.531224 
L 159.18952 231.505105 
L 159.562386 229.942459 
L 159.686834 224.913017 
L 159.811345 229.528513 
L 159.935956 228.835154 
L 160.060656 226.465314 
L 160.18543 227.469133 
L 160.435224 230.377102 
L 160.560244 228.93864 
L 160.810521 234.599351 
L 160.935803 230.594424 
L 161.312093 233.202283 
L 161.437696 230.159781 
L 161.689159 235.127132 
L 161.814982 231.567197 
L 162.193036 235.696307 
L 162.319216 235.779097 
L 162.44546 233.129843 
L 162.824762 236.544896 
L 162.951357 234.930507 
L 163.078021 235.634215 
L 163.204805 233.647275 
L 163.331657 233.771459 
L 163.458573 238.221377 
L 163.839865 234.247497 
L 163.967163 234.495864 
L 164.221955 237.372788 
L 164.477067 229.269797 
L 164.732535 235.075388 
L 164.988351 237.786734 
L 165.116389 233.160889 
L 165.244491 234.340635 
L 165.372719 233.098797 
L 165.500978 238.097194 
L 165.757822 231.888005 
L 166.015018 238.438699 
L 166.143729 236.834659 
L 166.272534 237.331394 
L 166.401403 233.316118 
L 166.530371 237.031283 
L 166.659433 237.165815 
L 166.78859 238.273121 
L 167.047135 237.393486 
L 167.176549 237.631504 
L 167.306058 237.331394 
L 167.435635 235.406545 
L 167.565307 235.199572 
L 167.695041 233.109145 
L 167.824902 236.89675 
L 167.95483 235.427243 
L 168.21494 237.962661 
L 168.345126 238.676718 
L 168.475406 238.314515 
L 168.605749 234.930507 
L 168.866756 239.690885 
L 169.128089 237.269302 
L 169.3898 236.586291 
L 169.651836 239.587399 
L 170.045559 238.769856 
L 170.176989 237.258953 
L 170.44008 239.628793 
L 170.703555 238.883691 
L 171.099425 236.575942 
L 171.231532 238.852645 
L 171.363766 238.314515 
L 171.760949 239.173453 
L 171.893539 239.628793 
L 172.026224 238.562883 
L 172.158966 238.862994 
L 172.291814 238.687066 
L 172.42475 238.749158 
L 172.557787 238.666369 
L 172.690918 239.080315 
L 172.824112 237.579761 
L 172.957437 238.956131 
L 173.090825 239.038921 
L 173.224308 238.956131 
L 173.357859 237.993707 
L 173.491531 239.483912 
L 173.625276 239.680537 
L 174.027105 238.407653 
L 174.161228 239.34938 
L 174.295419 239.34938 
L 174.564117 238.987177 
L 174.698592 239.628793 
L 174.967867 238.656021 
L 175.102599 238.138588 
L 175.237463 238.945783 
L 175.37242 238.035102 
L 175.507441 233.285072 
L 175.642562 223.246884 
L 175.777809 237.289999 
L 175.913118 238.231726 
L 176.048522 238.231726 
L 176.184026 239.618445 
L 176.455286 238.024753 
L 176.591078 239.42182 
L 176.726934 238.96648 
L 176.862915 238.956131 
L 176.998965 238.397304 
L 177.135109 238.542185 
L 177.271348 237.579761 
L 177.407681 239.276939 
L 177.544114 239.256242 
L 177.680642 238.397304 
L 177.817269 238.386956 
L 177.953986 238.894039 
L 178.090802 238.81125 
L 178.364692 238.024753 
L 178.501765 238.159285 
L 178.638965 238.81125 
L 178.776232 238.190331 
L 178.913626 239.028572 
L 179.051083 238.117891 
L 179.188634 239.380426 
L 179.326316 238.604277 
L 179.601902 239.225196 
L 179.739841 239.183802 
L 179.877875 239.463215 
L 180.016036 239.256242 
L 180.292587 238.117891 
L 180.569516 238.883691 
L 180.708128 238.086845 
L 180.98564 239.297637 
L 181.124535 238.211029 
L 181.402624 239.266591 
L 181.681092 237.196861 
L 181.820506 238.459396 
L 182.099551 238.800902 
L 182.239223 238.656021 
L 182.378985 237.786734 
L 182.658833 239.059618 
L 182.798888 238.573231 
L 182.939032 239.142407 
L 183.079313 239.028572 
L 183.219652 239.12171 
L 183.360122 238.107542 
L 183.500655 238.656021 
L 183.641314 238.190331 
L 183.782073 238.873342 
L 184.063842 238.73881 
L 184.20489 239.12171 
L 184.346032 238.562883 
L 184.487268 238.656021 
L 184.628636 239.928904 
L 184.770066 237.776386 
L 184.911592 239.12171 
L 185.053216 239.080315 
L 185.194967 238.749158 
L 185.336813 238.718112 
L 185.478721 239.359729 
L 185.620761 237.455577 
L 185.7629 238.511139 
L 185.905129 237.559064 
L 186.047457 238.73881 
L 186.18988 238.697415 
L 186.475046 237.786734 
L 186.760632 239.163104 
L 186.903569 237.859175 
L 187.189727 239.038921 
L 187.476305 237.724642 
L 187.61972 238.842296 
L 188.050648 238.004056 
L 188.194478 238.790553 
L 188.338439 238.397304 
L 188.482468 237.455577 
L 188.626618 238.987177 
L 188.770868 237.714294 
L 189.059656 239.245893 
L 189.348896 237.828129 
L 189.493655 238.531837 
L 189.638513 237.74534 
L 189.783472 238.107542 
L 189.928519 237.538367 
L 190.073698 238.676718 
L 190.218977 238.304167 
L 190.364345 238.925085 
L 190.655411 238.873342 
L 190.946887 238.862994 
L 191.092775 237.786734 
L 191.238783 238.304167 
L 191.38486 237.321045 
L 191.531068 238.418002 
L 191.677365 237.672899 
L 191.970321 238.862994 
L 192.116939 238.831948 
L 192.263656 238.273121 
L 192.410473 238.324864 
L 192.557415 238.759507 
L 192.704453 237.931615 
L 192.851584 238.304167 
L 192.998847 238.314515 
L 193.146205 238.759507 
L 193.441209 237.838477 
L 193.588887 237.983358 
L 193.736659 237.393486 
L 193.884531 237.269302 
L 194.180626 238.728461 
L 194.328813 238.58358 
L 194.477137 237.97301 
L 194.62555 238.211029 
L 194.774062 238.862994 
L 194.922669 238.862994 
L 195.071402 238.42835 
L 195.071402 238.42835 
" clip-path="url(#p48a3969e60)" style="fill: none; stroke: #d57800; stroke-width: 1.5; stroke-linecap: square"/>
   </g>
   <g id="line2d_15">
    <path d="M 21.735216 187.989042 
L 21.785649 188.020088 
L 21.836129 188.558218 
L 21.88661 188.434034 
L 22.088774 187.968345 
L 22.13937 188.289153 
L 22.24062 188.361593 
L 22.291279 187.709629 
L 22.443361 188.413337 
L 22.494115 188.23741 
L 22.544868 188.330547 
L 22.595653 187.419866 
L 22.646454 187.92695 
L 22.849899 188.320199 
L 22.951742 187.85451 
L 23.00269 188.413337 
L 23.053669 188.009739 
L 23.104659 188.102877 
L 23.206728 188.641007 
L 23.308875 188.071831 
L 23.359981 188.289153 
L 23.411102 187.719977 
L 23.462259 188.216712 
L 23.564612 187.813115 
L 23.718316 188.371942 
L 23.872209 187.575096 
L 23.923556 188.423685 
L 23.974919 187.54405 
L 24.026297 188.371942 
L 24.077707 187.957996 
L 24.129132 188.62031 
L 24.180589 188.051134 
L 24.33506 187.078361 
L 24.489741 188.092528 
L 24.541345 187.430215 
L 24.592965 188.175318 
L 24.644611 187.751023 
L 24.747976 187.792418 
L 24.851426 188.227061 
L 24.954949 187.864858 
L 25.006742 187.957996 
L 25.058571 187.957996 
L 25.110411 188.278804 
L 25.162273 188.216712 
L 25.214165 187.833812 
L 25.266069 188.475428 
L 25.369964 187.564747 
L 25.473923 188.08218 
L 25.525942 187.813115 
L 25.68214 188.423685 
L 25.890698 187.109407 
L 26.047347 188.133923 
L 26.099607 187.833812 
L 26.151899 188.247758 
L 26.204206 187.823464 
L 26.308884 187.254288 
L 26.361255 187.347426 
L 26.413662 187.668234 
L 26.46608 187.595793 
L 26.518513 187.243939 
L 26.570983 187.813115 
L 26.623469 186.798948 
L 26.675966 187.357775 
L 26.728499 187.957996 
L 26.781064 187.678583 
L 26.833628 187.595793 
L 26.886219 188.289153 
L 26.938847 187.864858 
L 26.991496 186.871388 
L 27.044155 187.813115 
L 27.149552 187.916601 
L 27.202279 187.823464 
L 27.360609 186.612672 
L 27.307823 187.85451 
L 27.413446 186.736856 
L 27.466279 188.382291 
L 27.572033 188.330547 
L 27.730845 186.902434 
L 27.783824 187.306031 
L 27.836841 187.895904 
L 27.889852 187.626839 
L 27.94291 187.243939 
L 27.995973 187.916601 
L 28.049063 187.616491 
L 28.102189 185.774431 
L 28.155331 187.378472 
L 28.208484 188.133923 
L 28.261673 188.030437 
L 28.314879 187.140453 
L 28.368115 187.533702 
L 28.421368 187.31638 
L 28.581272 187.668234 
L 28.634619 185.877918 
L 28.687981 187.688931 
L 28.741381 187.606142 
L 28.794791 187.109407 
L 28.848221 187.885556 
L 28.901684 187.740674 
L 28.955178 187.730326 
L 29.008666 186.084891 
L 29.062207 186.902434 
L 29.169321 186.829993 
L 29.222931 188.164969 
L 29.27655 188.08218 
L 29.330186 187.357775 
L 29.383858 187.833812 
L 29.437557 187.502656 
L 29.545007 188.361593 
L 29.706349 187.513004 
L 29.760179 187.802766 
L 29.814041 187.026618 
L 29.867918 187.564747 
L 29.921816 187.554399 
L 30.083652 186.757553 
L 30.137644 186.364304 
L 30.191663 186.767902 
L 30.35384 187.792418 
L 30.407959 187.823464 
L 30.516243 187.69928 
L 30.570425 187.202545 
L 30.624622 187.295683 
L 30.678851 187.264637 
L 30.787377 187.730326 
L 30.841669 187.243939 
L 30.895998 188.227061 
L 30.950337 187.92695 
L 31.059104 187.399169 
L 31.113511 187.637188 
L 31.222415 188.258107 
L 31.440506 186.105588 
L 31.549688 187.54405 
L 31.604316 187.337077 
L 31.658965 188.144272 
L 31.71364 187.450912 
L 31.768336 186.902434 
L 31.877807 188.040785 
L 31.932582 187.005921 
L 31.987372 187.833812 
L 32.042194 188.289153 
L 32.206792 187.802766 
L 32.261708 188.216712 
L 32.316641 187.92695 
L 32.426594 186.488488 
L 32.536637 187.999391 
L 32.591701 187.844161 
L 32.64678 186.985223 
L 32.757017 188.568566 
L 32.81216 187.668234 
L 32.867355 187.875207 
L 32.922544 187.92695 
L 32.977781 187.595793 
L 33.143596 188.496126 
L 33.309637 187.751023 
L 33.365037 188.23741 
L 33.420468 188.164969 
L 33.475899 185.981404 
L 33.531377 187.626839 
L 33.586855 188.46508 
L 33.642386 188.144272 
L 33.697927 187.533702 
L 33.753484 187.54405 
L 33.809078 188.216712 
L 33.864687 188.175318 
L 33.920323 187.782069 
L 33.975995 187.864858 
L 34.031684 188.382291 
L 34.254678 185.691642 
L 34.366322 188.371942 
L 34.422189 188.071831 
L 34.58991 186.519534 
L 34.645866 188.15462 
L 34.701843 187.968345 
L 34.757851 186.798948 
L 34.813891 187.606142 
L 34.926024 188.268456 
L 34.982127 188.164969 
L 35.038261 187.77172 
L 35.094416 187.802766 
L 35.26303 188.299501 
L 35.31928 187.357775 
L 35.375561 187.77172 
L 35.431858 187.730326 
L 35.488187 187.937299 
L 35.544547 187.036966 
L 35.600923 187.295683 
L 35.657331 188.278804 
L 35.713759 188.144272 
L 35.826684 186.560929 
L 35.996263 187.916601 
L 36.052849 186.219423 
L 36.109451 187.481958 
L 36.166084 187.533702 
L 36.222733 186.974875 
L 36.279413 187.005921 
L 36.392837 187.968345 
L 36.449602 187.957996 
L 36.506377 188.175318 
L 36.676869 185.008632 
L 36.79065 188.092528 
L 36.847588 187.906253 
L 36.96151 188.382291 
L 37.018527 187.844161 
L 37.075543 188.258107 
L 37.189691 188.258107 
L 37.246786 187.430215 
L 37.303934 187.657885 
L 37.361082 188.413337 
L 37.418271 187.85451 
L 37.475482 188.216712 
L 37.532708 187.906253 
L 37.589966 185.743385 
L 37.647256 187.130104 
L 37.704561 186.809296 
L 37.934075 188.196015 
L 37.991506 187.885556 
L 38.048974 187.688931 
L 38.106458 187.978693 
L 38.163968 187.192196 
L 38.221514 187.575096 
L 38.279077 188.185666 
L 38.33667 187.823464 
L 38.394301 187.844161 
L 38.451942 187.554399 
L 38.625028 188.69275 
L 38.79834 187.719977 
L 38.914011 188.258107 
L 39.029792 188.268456 
L 39.087721 187.554399 
L 39.145667 188.434034 
L 39.20366 187.688931 
L 39.261658 184.884448 
L 39.319698 187.057664 
L 39.377743 187.119756 
L 39.493939 187.885556 
L 39.552079 187.38882 
L 39.610234 187.585445 
L 39.668437 187.730326 
L 39.72664 187.254288 
L 39.78489 187.264637 
L 39.959756 188.496126 
L 40.018105 188.444383 
L 40.076481 188.216712 
L 40.134878 187.481958 
L 40.193307 187.554399 
L 40.251746 187.637188 
L 40.310222 187.461261 
L 40.368729 188.278804 
L 40.485812 186.16768 
L 40.603 187.77172 
L 40.661638 186.77825 
L 40.720287 188.216712 
L 40.778989 187.85451 
L 40.837685 188.330547 
L 40.896434 187.885556 
L 40.955198 188.185666 
L 41.013994 188.040785 
L 41.131665 185.815826 
L 41.190524 187.47161 
L 41.249436 186.77825 
L 41.308358 187.264637 
L 41.367311 186.985223 
L 41.426286 185.650248 
L 41.485292 185.950358 
L 41.544324 188.558218 
L 41.603377 187.823464 
L 41.662478 187.751023 
L 41.839889 185.71234 
L 41.899084 186.209075 
L 41.9583 187.181848 
L 42.017543 187.119756 
L 42.076822 187.254288 
L 42.195453 188.506474 
L 42.254795 188.216712 
L 42.314179 188.496126 
L 42.373584 188.258107 
L 42.433021 188.392639 
L 42.492473 188.061483 
L 42.611493 184.729218 
L 42.671024 186.281515 
L 42.730591 187.668234 
L 42.790185 186.447094 
L 42.849816 187.637188 
L 42.909463 186.188377 
L 42.969135 187.306031 
L 43.028845 187.47161 
L 43.088586 187.109407 
L 43.148342 187.492307 
L 43.208136 186.426396 
L 43.26794 186.581626 
L 43.327775 187.130104 
L 43.387647 187.026618 
L 43.567411 185.857221 
L 43.627393 187.202545 
L 43.687392 186.55058 
L 43.807483 185.453623 
L 44.108187 188.113226 
L 44.168411 187.657885 
L 44.228667 186.022799 
L 44.288948 187.223242 
L 44.349251 188.113226 
L 44.409585 187.957996 
L 44.469951 188.071831 
L 44.530332 188.030437 
L 44.651195 183.673656 
L 44.711671 186.664415 
L 44.772162 185.857221 
L 44.953821 184.501548 
L 45.075067 187.77172 
L 45.135737 185.070723 
L 45.196439 186.01245 
L 45.257156 185.753734 
L 45.439487 187.513004 
L 45.50032 185.101769 
L 45.622059 187.916601 
L 45.743929 184.387713 
L 45.926932 188.030437 
L 45.987985 188.320199 
L 46.110176 182.33868 
L 46.171329 186.16768 
L 46.293693 187.243939 
L 46.416173 184.998283 
L 46.538762 187.833812 
L 46.600089 184.242832 
L 46.661462 186.157331 
L 46.784278 188.392639 
L 46.845735 187.906253 
L 46.968708 185.443275 
L 47.091812 187.337077 
L 47.215027 184.25318 
L 47.276673 184.94654 
L 47.400061 187.181848 
L 47.461807 186.033148 
L 47.523564 186.871388 
L 47.585358 188.278804 
L 47.647183 187.719977 
L 47.709024 187.92695 
L 47.770906 187.792418 
L 47.83281 184.222134 
L 47.894751 185.01898 
L 47.956718 186.871388 
L 48.0187 184.987934 
L 48.080714 185.71234 
L 48.204842 188.402988 
L 48.266956 188.123574 
L 48.391262 185.215604 
L 48.453455 186.09524 
L 48.515679 188.320199 
L 48.577934 186.912783 
L 48.889632 184.398061 
L 48.952045 184.40841 
L 49.139489 188.609961 
L 49.202033 188.268456 
L 49.264609 187.274985 
L 49.327216 184.118648 
L 49.389829 187.016269 
L 49.452499 184.718869 
L 49.515174 185.153513 
L 49.577908 184.998283 
L 49.640646 183.363197 
L 49.703416 184.532594 
L 49.829051 187.347426 
L 49.891915 184.25318 
L 49.954811 185.091421 
L 50.080703 183.114829 
L 50.143662 187.109407 
L 50.206689 185.339788 
L 50.33277 186.943829 
L 50.459013 185.950358 
L 50.522166 183.953069 
L 50.648567 187.140453 
L 50.71182 186.633369 
L 50.965105 180.641502 
L 51.028484 183.818537 
L 51.091895 183.632261 
L 51.218841 181.634972 
L 51.282346 184.139345 
L 51.473055 175.622408 
L 51.536692 176.398557 
L 51.664053 180.393135 
L 51.727784 177.340284 
L 51.791515 178.799443 
L 51.855308 179.74117 
L 51.919134 179.192692 
L 52.174665 167.840225 
L 52.494757 155.287316 
L 52.623016 159.685491 
L 52.815615 152.400043 
L 52.879892 155.059645 
L 52.9442 150.4338 
L 53.008508 152.565621 
L 53.137251 146.91526 
L 53.266119 135.293729 
L 53.330584 140.40596 
L 53.395082 136.680447 
L 53.459615 138.367277 
L 53.524212 144.54542 
L 53.653432 125.493559 
L 53.718092 132.779007 
L 53.782784 132.168437 
L 53.847475 140.71642 
L 53.912229 136.307896 
L 54.041838 117.080109 
L 54.106687 118.880774 
L 54.171541 113.230412 
L 54.236458 116.624768 
L 54.561421 86.841361 
L 54.626527 96.093052 
L 54.691634 95.896427 
L 55.01772 26.581186 
L 55.083021 33.835588 
L 55.279111 14.30769 
L 55.475495 57.906542 
L 55.737783 95.689454 
L 55.869087 81.346229 
L 56.395652 123.734289 
L 56.46163 113.437385 
L 56.527634 114.679223 
L 56.791911 128.680943 
L 56.990469 139.95062 
L 57.189283 149.843927 
L 57.255644 149.719743 
L 57.321999 150.009505 
L 57.521328 168.854393 
L 57.720915 162.83148 
L 57.920821 177.319586 
L 57.987497 176.481346 
L 58.054209 177.06087 
L 58.187755 171.762363 
L 58.254594 174.090808 
L 58.321432 174.84626 
L 58.522205 185.319091 
L 58.656202 181.541835 
L 58.723229 181.997175 
L 58.790325 184.48085 
L 58.857421 183.953069 
L 58.924579 184.211786 
L 59.05896 182.26624 
L 59.328104 186.674764 
L 59.395488 186.188377 
L 59.462873 182.214497 
L 59.53032 184.491199 
L 59.665278 185.577807 
L 59.73282 185.008632 
L 59.800393 186.229772 
L 59.867967 185.743385 
L 59.935608 184.987934 
L 60.003282 187.243939 
L 60.138686 184.605034 
L 60.206453 187.77172 
L 60.274253 187.212893 
L 60.342083 184.335969 
L 60.477844 186.333258 
L 60.613731 187.844161 
L 60.749744 184.522245 
L 60.885889 186.985223 
L 60.954008 187.057664 
L 61.022159 187.357775 
L 61.226843 185.836523 
L 61.363465 187.450912 
L 61.43181 187.212893 
L 61.500218 187.31638 
L 61.568626 188.113226 
L 61.637066 187.85451 
L 61.774107 188.506474 
L 61.979873 186.064194 
L 62.048506 186.178029 
L 62.117203 186.581626 
L 62.254691 187.968345 
L 62.392311 187.036966 
L 62.461165 187.254288 
L 62.530056 187.47161 
L 62.598974 186.033148 
L 62.667928 186.55058 
L 62.805962 188.289153 
L 63.013239 187.792418 
L 63.220799 188.102877 
L 63.359379 187.844161 
L 63.428717 188.113226 
L 63.567454 186.726507 
L 63.775855 188.46508 
L 63.845381 187.864858 
L 63.914976 188.144272 
L 63.98457 186.602323 
L 64.054196 187.740674 
L 64.123885 187.688931 
L 64.193574 187.357775 
L 64.263326 187.937299 
L 64.333083 187.554399 
L 64.402898 187.595793 
L 64.47275 188.009739 
L 64.542634 187.337077 
L 64.682495 188.289153 
L 64.752472 187.378472 
L 64.822482 187.792418 
L 64.892522 188.268456 
L 64.9626 187.606142 
L 65.032704 187.77172 
L 65.102876 188.299501 
L 65.173042 186.716158 
L 65.243277 188.020088 
L 65.313544 187.068012 
L 65.38381 188.206364 
L 65.454145 187.916601 
L 65.665328 187.69928 
L 65.735788 187.895904 
L 65.806307 186.643718 
L 65.947386 187.885556 
L 66.018004 187.999391 
L 66.088659 187.450912 
L 66.230022 188.009739 
L 66.300771 187.626839 
L 66.371547 187.968345 
L 66.442359 187.264637 
L 66.584079 187.989042 
L 66.655017 187.564747 
L 66.796962 187.978693 
L 66.867964 187.77172 
L 66.939033 187.833812 
L 67.081262 188.08218 
L 67.152426 187.802766 
L 67.223622 187.906253 
L 67.294849 187.968345 
L 67.366113 188.206364 
L 67.508756 187.564747 
L 67.580146 188.009739 
L 67.651568 187.399169 
L 67.72302 187.668234 
L 67.794505 187.761372 
L 67.866021 187.461261 
L 68.009147 188.030437 
L 68.080794 187.595793 
L 68.152436 187.937299 
L 68.224146 187.761372 
L 68.295883 187.719977 
L 68.367656 187.357775 
L 68.43946 187.554399 
L 68.511297 187.585445 
L 68.655069 187.875207 
L 68.727031 187.906253 
L 68.798998 187.192196 
L 68.871028 187.202545 
L 69.015178 187.844161 
L 69.087303 187.337077 
L 69.15946 188.030437 
L 69.231684 187.668234 
L 69.303904 188.330547 
L 69.448474 186.447094 
L 69.593206 187.85451 
L 69.66562 187.719977 
L 69.810573 188.15462 
L 69.883081 187.595793 
L 69.955658 187.916601 
L 70.02826 186.954177 
L 70.100899 187.813115 
L 70.17357 187.77172 
L 70.391803 187.295683 
L 70.4646 188.113226 
L 70.610356 187.192196 
L 70.683279 185.660596 
L 70.82923 187.69928 
L 70.902284 187.678583 
L 70.975338 188.009739 
L 71.048455 187.595793 
L 71.121604 187.989042 
L 71.194789 187.409518 
L 71.268 187.69928 
L 71.341249 188.051134 
L 71.487903 186.912783 
L 71.561246 187.895904 
L 71.634651 187.688931 
L 71.708089 188.206364 
L 71.781594 186.16768 
L 71.928663 187.802766 
L 72.002226 187.833812 
L 72.075858 187.274985 
L 72.149521 187.823464 
L 72.223252 187.782069 
L 72.296978 187.606142 
L 72.370735 180.538016 
L 72.444561 187.77172 
L 72.518413 187.502656 
L 72.592302 187.502656 
L 72.666222 187.347426 
L 72.740205 187.957996 
L 72.814189 187.875207 
L 72.888235 187.119756 
L 72.962313 188.247758 
L 73.036427 188.175318 
L 73.184745 186.995572 
L 73.258986 187.513004 
L 73.333258 187.409518 
L 73.40753 187.595793 
L 73.481896 187.54405 
L 73.556263 186.798948 
L 73.630661 187.999391 
L 73.779625 187.295683 
L 73.854149 187.916601 
L 73.928709 187.616491 
L 74.077962 188.216712 
L 74.30209 186.819645 
L 74.376871 186.281515 
L 74.451721 187.31638 
L 74.526602 186.01245 
L 74.601483 187.47161 
L 74.676427 186.664415 
L 74.826446 187.813115 
L 74.901516 186.064194 
L 74.976591 186.716158 
L 75.051724 186.374653 
L 75.202126 187.306031 
L 75.277359 186.767902 
L 75.427987 187.751023 
L 75.654199 186.840342 
L 75.729689 187.647537 
L 75.880763 186.571277 
L 75.956348 187.192196 
L 76.107679 186.405699 
L 76.183395 186.353956 
L 76.259137 187.378472 
L 76.334915 186.291864 
L 76.410757 187.523353 
L 76.48663 186.571277 
L 76.562535 187.130104 
L 76.638476 186.39535 
L 76.714475 187.306031 
L 76.790479 187.140453 
L 76.866547 186.809296 
L 76.942677 187.264637 
L 77.018808 187.150802 
L 77.094969 186.436745 
L 77.247451 187.233591 
L 77.323775 186.591975 
L 77.476482 187.192196 
L 77.705834 185.567458 
L 77.858961 187.461261 
L 77.935569 187.523353 
L 78.012214 187.357775 
L 78.08889 186.840342 
L 78.165629 187.181848 
L 78.2424 188.144272 
L 78.396068 186.767902 
L 78.549866 187.440564 
L 78.703854 187.306031 
L 78.858005 187.668234 
L 78.935133 187.264637 
L 79.012287 187.895904 
L 79.244043 187.08871 
L 79.321354 187.150802 
L 79.398734 186.250469 
L 79.553593 187.54405 
L 79.631067 187.368123 
L 79.708605 187.730326 
L 79.786147 186.560929 
L 79.941421 187.378472 
L 80.019121 187.337077 
L 80.25241 186.39535 
L 80.330273 187.554399 
L 80.408167 187.078361 
L 80.486087 187.77172 
L 80.564045 187.595793 
L 80.720117 186.126285 
L 80.798205 187.85451 
L 80.876351 187.730326 
L 80.954503 187.751023 
L 81.189267 186.571277 
L 81.267607 187.657885 
L 81.345979 187.513004 
L 81.424419 188.102877 
L 81.502886 187.833812 
L 81.581389 187.08871 
L 81.659924 187.285334 
L 81.738485 187.119756 
L 81.89578 177.081567 
L 82.053227 186.871388 
L 82.132019 186.954177 
L 82.210837 186.685112 
L 82.289724 187.38882 
L 82.36861 185.650248 
L 82.447591 187.47161 
L 82.605621 184.667126 
L 82.684665 184.884448 
L 82.842952 187.254288 
L 82.922154 186.861039 
L 83.001392 187.761372 
L 83.080667 186.084891 
L 83.318764 187.719977 
L 83.398223 186.405699 
L 83.636835 188.020088 
L 83.796083 186.571277 
L 83.875799 187.906253 
L 83.955551 187.564747 
L 84.115151 187.668234 
L 84.274908 187.119756 
L 84.354881 187.895904 
L 84.43486 187.77172 
L 84.514896 187.130104 
L 84.594969 187.564747 
L 84.675104 187.450912 
L 84.755272 187.606142 
L 84.83547 186.747204 
L 84.995994 187.254288 
L 85.076324 187.099058 
L 85.156717 187.688931 
L 85.237105 186.374653 
L 85.39808 187.523353 
L 85.478604 187.492307 
L 85.559186 187.730326 
L 85.639832 187.31638 
L 85.720513 187.709629 
L 85.801227 186.643718 
L 85.962779 187.813115 
L 86.043618 187.078361 
L 86.205428 187.678583 
L 86.286394 186.488488 
L 86.367396 188.020088 
L 86.448461 187.202545 
L 86.610685 187.85451 
L 86.773104 187.513004 
L 86.854389 187.657885 
L 87.017034 186.053845 
L 87.098451 186.892085 
L 87.179899 185.836523 
L 87.424469 188.051134 
L 87.66946 187.078361 
L 87.751197 187.419866 
L 87.832997 187.326729 
L 87.996696 186.985223 
L 88.078622 187.368123 
L 88.160585 187.264637 
L 88.324636 187.937299 
L 88.406725 187.31638 
L 88.488882 188.102877 
L 88.653285 187.016269 
L 88.900228 187.823464 
L 88.982637 187.947647 
L 89.065078 186.788599 
L 89.23009 187.916601 
L 89.312661 187.657885 
L 89.395296 188.092528 
L 89.477962 187.47161 
L 89.56066 187.740674 
L 89.643426 187.326729 
L 89.726218 187.875207 
L 89.809078 186.995572 
L 89.974894 187.69928 
L 90.140898 186.871388 
L 90.223947 188.061483 
L 90.307065 187.678583 
L 90.390209 187.688931 
L 90.473421 187.875207 
L 90.556664 187.585445 
L 90.639939 187.719977 
L 90.806652 187.078361 
L 90.890085 187.916601 
L 90.973554 187.688931 
L 91.057055 187.533702 
L 91.140619 187.036966 
L 91.307873 187.637188 
L 91.391568 186.93348 
L 91.559079 187.906253 
L 91.642931 187.792418 
L 91.726784 187.657885 
L 92.062735 186.385002 
L 92.230981 187.575096 
L 92.483693 186.943829 
L 92.567992 187.595793 
L 92.821246 186.974875 
L 93.074919 188.185666 
L 93.159569 187.802766 
L 93.244257 187.85451 
L 93.329007 187.792418 
L 93.413789 187.564747 
L 93.498602 187.906253 
L 93.583478 187.523353 
L 93.668386 187.616491 
L 93.753362 187.564747 
L 94.008537 187.833812 
L 94.093702 188.175318 
L 94.349422 187.274985 
L 94.520141 187.730326 
L 94.605594 187.31638 
L 94.776565 187.895904 
L 94.86215 187.38882 
L 95.03344 187.85451 
L 95.119151 187.751023 
L 95.204894 186.560929 
L 95.376542 187.554399 
L 95.462441 187.533702 
L 95.548378 187.968345 
L 95.634378 187.223242 
L 95.720409 187.409518 
L 95.806503 187.295683 
L 95.892629 187.409518 
L 95.978786 187.274985 
L 96.065011 188.113226 
L 96.1513 187.895904 
L 96.410386 185.908964 
L 96.583377 187.968345 
L 96.756526 187.368123 
L 96.843166 187.823464 
L 96.929869 187.223242 
L 97.016604 187.989042 
L 97.103407 187.368123 
L 97.190236 187.481958 
L 97.364062 187.481958 
L 97.451054 186.757553 
L 97.538077 188.175318 
L 97.625164 187.968345 
L 97.799436 186.974875 
L 97.886685 187.575096 
L 97.973934 187.54405 
L 98.061246 187.751023 
L 98.148627 187.69928 
L 98.236033 187.554399 
L 98.323508 187.730326 
L 98.498579 187.575096 
L 98.586179 187.792418 
L 98.761544 187.357775 
L 98.937097 188.040785 
L 99.200766 187.399169 
L 99.28875 187.864858 
L 99.464881 187.233591 
L 99.553027 187.85451 
L 99.729447 187.140453 
L 99.817751 188.102877 
L 99.906087 187.678583 
L 99.99446 187.751023 
L 100.259887 186.736856 
L 100.348485 187.31638 
L 100.43711 186.881737 
L 100.614521 187.492307 
L 100.703277 187.523353 
L 100.792096 187.999391 
L 100.880978 187.906253 
L 100.969891 188.020088 
L 101.236956 185.225953 
L 101.326095 187.823464 
L 101.415265 187.212893 
L 101.593738 185.815826 
L 101.77243 187.202545 
L 101.861858 185.184559 
L 102.040839 186.281515 
L 102.220015 184.211786 
L 102.309668 183.953069 
L 102.489159 186.115937 
L 102.578975 187.864858 
L 102.668849 187.751023 
L 102.848728 186.260818 
L 103.028801 182.131707 
L 103.118933 183.073434 
L 103.209095 186.881737 
L 103.389583 184.501548 
L 103.479909 186.260818 
L 103.570265 184.108299 
L 103.660685 184.222134 
L 103.751173 185.753734 
L 103.841688 185.505367 
L 104.113556 186.643718 
L 104.204265 181.966129 
L 104.295042 185.122467 
L 104.385876 184.035859 
L 104.476748 181.417651 
L 104.65868 187.16115 
L 104.749708 187.813115 
L 104.840769 186.974875 
L 104.931924 182.328332 
L 105.023084 182.980297 
L 105.205624 187.513004 
L 105.479766 185.453623 
L 105.662821 186.93348 
L 105.846065 187.957996 
L 105.937766 187.306031 
L 106.029498 187.357775 
L 106.213162 186.995572 
L 106.305052 187.430215 
L 106.397015 184.853402 
L 106.581089 187.730326 
L 106.857572 185.826175 
L 106.949855 186.405699 
L 107.042165 187.999391 
L 107.134538 187.864858 
L 107.319451 187.036966 
L 107.504554 184.087602 
L 107.689877 187.957996 
L 107.782606 187.16115 
L 107.875399 187.378472 
L 107.968255 188.164969 
L 108.061142 187.502656 
L 108.154092 187.792418 
L 108.340155 186.995572 
L 108.433237 186.664415 
L 108.712891 187.957996 
L 108.899568 187.202545 
L 108.992996 188.030437 
L 109.086492 187.709629 
L 109.180025 187.968345 
L 109.273616 187.274985 
L 109.367238 187.326729 
L 109.460928 187.802766 
L 109.554682 186.260818 
L 109.742315 187.937299 
L 109.836231 187.957996 
L 109.930173 187.409518 
L 110.118257 188.475428 
L 110.212394 187.730326 
L 110.306562 187.844161 
L 110.400798 187.751023 
L 110.495061 188.30985 
L 110.589392 187.823464 
L 110.683786 188.113226 
L 110.967288 186.374653 
L 111.156553 188.061483 
L 111.346013 187.575096 
L 111.440858 188.113226 
L 111.53573 187.730326 
L 111.630638 187.782069 
L 111.725641 188.133923 
L 111.820675 186.861039 
L 111.915772 186.912783 
L 112.10613 187.823464 
L 112.201358 187.916601 
L 112.296681 187.378472 
L 112.487485 187.782069 
L 112.582934 187.626839 
L 112.774063 188.123574 
L 112.869706 187.626839 
L 112.965413 188.371942 
L 113.156956 186.77825 
L 113.348721 187.85451 
L 113.444721 187.92695 
L 113.540747 187.823464 
L 113.636805 188.361593 
L 113.732963 187.243939 
L 113.829152 188.175318 
L 113.925399 187.306031 
L 114.021688 188.092528 
L 114.118067 187.906253 
L 114.214476 188.268456 
L 114.310954 187.595793 
L 114.407464 187.668234 
L 114.504068 187.119756 
L 114.600703 187.968345 
L 114.697407 187.461261 
L 114.794137 187.533702 
L 114.890935 187.233591 
L 115.08472 188.485777 
L 115.181707 187.999391 
L 115.278731 188.23741 
L 115.375813 187.036966 
L 115.472963 187.08871 
L 115.570144 188.009739 
L 115.764733 187.057664 
L 115.862103 187.77172 
L 115.959511 187.554399 
L 116.154545 188.164969 
L 116.252142 188.113226 
L 116.349806 188.196015 
L 116.447502 188.08218 
L 116.545255 187.678583 
L 116.643077 187.875207 
L 116.740967 188.361593 
L 116.838915 188.340896 
L 117.034942 187.792418 
L 117.231232 188.434034 
L 117.427705 187.968345 
L 117.526041 188.423685 
L 117.821397 187.668234 
L 117.91999 188.040785 
L 118.01861 187.77172 
L 118.117267 188.351245 
L 118.216018 187.906253 
L 118.3148 188.196015 
L 118.512591 187.885556 
L 118.611537 187.709629 
L 118.710576 187.285334 
L 118.809679 188.289153 
L 119.206573 186.612672 
L 119.405393 188.08218 
L 119.504911 188.061483 
L 119.604433 187.77172 
L 119.704051 187.047315 
L 119.903443 187.813115 
L 120.003249 187.678583 
L 120.103092 188.330547 
L 120.202993 187.989042 
L 120.402967 188.299501 
L 120.503062 187.719977 
L 120.603189 187.823464 
L 120.703383 188.092528 
L 120.803641 188.051134 
L 120.903962 188.164969 
L 121.104766 187.989042 
L 121.305791 188.330547 
L 121.4064 188.051134 
L 121.607813 188.547869 
L 121.809447 188.030437 
L 121.910382 188.599612 
L 122.213459 187.181848 
L 122.314578 187.968345 
L 122.415796 187.916601 
L 122.618396 187.916601 
L 122.719772 188.196015 
L 122.922723 187.885556 
L 123.125932 187.85451 
L 123.227628 187.554399 
L 123.329361 188.040785 
L 123.431188 187.502656 
L 123.634969 188.051134 
L 123.736959 188.23741 
L 123.839007 187.595793 
L 124.043302 188.299501 
L 124.145549 187.450912 
L 124.247823 187.85451 
L 124.350196 187.751023 
L 124.555069 188.247758 
L 124.657599 188.102877 
L 124.760193 186.16768 
L 124.862855 187.864858 
L 124.96558 187.254288 
L 125.171219 188.196015 
L 125.274107 187.906253 
L 125.583206 188.527172 
L 125.686351 187.895904 
L 125.789554 188.371942 
L 125.892825 187.461261 
L 125.99619 187.513004 
L 126.099587 187.357775 
L 126.306539 188.196015 
L 126.41013 188.051134 
L 126.513784 187.688931 
L 126.617502 187.844161 
L 126.825094 187.668234 
L 127.032948 188.351245 
L 127.136954 188.206364 
L 127.241023 188.506474 
L 127.345192 187.430215 
L 127.55365 188.15462 
L 127.657976 187.730326 
L 128.180573 188.485777 
L 128.285282 188.423685 
L 128.390055 187.461261 
L 128.494895 188.247758 
L 128.704734 188.133923 
L 128.809764 188.320199 
L 128.914862 188.102877 
L 129.020023 188.340896 
L 129.12521 187.999391 
L 129.335852 188.496126 
L 129.441233 187.999391 
L 129.546714 188.092528 
L 129.757834 187.140453 
L 129.969211 188.113226 
L 130.075012 187.709629 
L 130.180876 188.402988 
L 130.286772 188.15462 
L 130.392768 187.595793 
L 130.604911 188.206364 
L 130.711064 185.701991 
L 130.923628 187.947647 
L 131.02997 188.320199 
L 131.136411 188.061483 
L 131.242916 188.216712 
L 131.349453 187.595793 
L 131.562782 187.864858 
L 131.669544 187.85451 
L 131.776338 188.423685 
L 132.097201 187.709629 
L 132.204284 187.895904 
L 132.311429 185.826175 
L 132.525914 188.444383 
L 132.633253 188.15462 
L 132.740656 188.196015 
L 132.848121 188.444383 
L 132.95565 187.802766 
L 133.170906 188.340896 
L 133.27866 187.668234 
L 133.4943 188.589264 
L 133.602243 187.864858 
L 133.818297 188.289153 
L 134.034609 188.123574 
L 134.142878 187.409518 
L 134.251209 187.502656 
L 134.359604 188.175318 
L 134.468067 187.989042 
L 134.576588 187.564747 
L 134.685176 187.719977 
L 134.902575 187.606142 
L 135.011358 187.864858 
L 135.120235 187.223242 
L 135.229139 187.709629 
L 135.447215 185.536413 
L 135.774772 188.351245 
L 135.884095 187.595793 
L 135.993519 187.916601 
L 136.102969 187.69928 
L 136.212487 187.864858 
L 136.43178 184.739567 
L 136.541487 187.378472 
L 136.651294 186.736856 
L 136.761164 186.892085 
L 136.871097 186.77825 
L 136.981093 185.774431 
L 137.201315 186.219423 
L 137.42179 183.880629 
L 137.532143 183.621913 
L 137.642553 179.35827 
L 137.863574 184.035859 
L 138.19565 171.162141 
L 138.306449 171.493298 
L 138.528305 170.210065 
L 138.750449 152.700154 
L 138.861599 153.817808 
L 139.084127 169.496009 
L 139.195498 168.94753 
L 139.753404 182.597397 
L 140.089003 174.359873 
L 140.313068 178.758048 
L 140.42518 178.582121 
L 140.537391 171.24493 
L 140.64966 171.958987 
L 140.762028 170.282506 
L 140.874434 171.793409 
L 140.986928 177.878413 
L 141.099491 177.774927 
L 141.212117 181.759156 
L 141.324806 177.557605 
L 141.437589 179.554894 
L 141.550404 174.794516 
L 141.663319 177.9819 
L 141.776297 176.729713 
L 141.889374 182.669837 
L 142.002477 179.792913 
L 142.228947 186.602323 
L 142.455669 182.87681 
L 142.569161 183.342499 
L 142.682679 185.908964 
L 143.023759 181.34521 
L 143.137603 183.197618 
L 143.25151 183.239013 
L 143.365479 181.562532 
L 143.479517 183.425288 
L 143.59365 182.731929 
L 143.707809 183.735748 
L 143.822067 183.10448 
L 144.05081 184.94654 
L 144.165294 186.281515 
L 144.394488 184.677475 
L 144.509162 187.099058 
L 144.623935 186.478139 
L 144.85367 186.716158 
L 144.968668 186.271167 
L 145.08373 186.509185 
L 145.19885 186.002102 
L 145.314042 184.367015 
L 145.544675 186.478139 
L 145.660089 187.223242 
L 145.775565 186.685112 
L 145.891136 187.77172 
L 146.238274 187.368123 
L 146.354134 187.657885 
L 146.586079 187.450912 
L 146.702164 186.912783 
L 146.818312 187.399169 
L 146.934529 186.861039 
L 147.05084 187.792418 
L 147.167214 187.223242 
L 147.283651 187.38882 
L 147.400151 187.202545 
L 147.516751 187.243939 
L 147.750172 185.546761 
L 147.98388 188.009739 
L 148.100864 188.402988 
L 148.334987 186.829993 
L 148.569468 187.77172 
L 148.686803 185.815826 
L 148.8042 186.819645 
L 148.921698 186.302212 
L 149.039258 186.643718 
L 149.156914 187.481958 
L 149.2746 186.312561 
L 149.392381 187.38882 
L 149.628206 185.008632 
L 149.864287 187.564747 
L 149.982457 187.326729 
L 150.100721 184.304923 
L 150.337412 187.47161 
L 150.455896 187.957996 
L 150.811748 185.370834 
L 150.930527 187.740674 
L 151.049368 187.782069 
L 151.525501 186.436745 
L 151.644757 187.751023 
L 151.76405 187.626839 
L 151.883432 187.243939 
L 152.002882 187.326729 
L 152.122427 187.782069 
L 152.24204 186.892085 
L 152.481482 183.301105 
L 152.721249 187.223242 
L 152.841277 187.171499 
L 153.08149 184.40841 
L 153.201707 187.326729 
L 153.322024 185.484669 
L 153.442403 180.57941 
L 153.68342 184.149694 
L 153.924751 185.691642 
L 154.045514 184.998283 
L 154.287297 179.492802 
L 154.529405 181.189981 
L 154.650551 183.787491 
L 155.01454 177.516211 
L 155.136007 178.147478 
L 155.257573 176.843549 
L 155.379202 177.919808 
L 155.500925 177.950854 
L 155.622717 171.55539 
L 155.744603 176.057051 
L 155.988596 167.840225 
L 156.110703 168.171382 
L 156.232909 169.86856 
L 156.355179 164.714934 
L 156.477511 164.756328 
L 156.72247 169.889257 
L 156.84506 169.765074 
L 157.090465 166.174093 
L 157.213312 165.180623 
L 157.336222 157.967615 
L 157.459195 163.121242 
L 157.582262 173.438844 
L 157.705429 174.059762 
L 157.828665 173.883835 
L 157.951958 171.669225 
L 158.198833 159.550958 
L 158.446034 172.590254 
L 158.569747 173.283614 
L 158.693523 175.45683 
L 158.817425 169.847863 
L 158.941359 171.596784 
L 159.065423 170.572268 
L 159.313742 163.535188 
L 159.562386 173.356054 
L 159.811345 179.772216 
L 159.935956 183.497729 
L 160.18543 177.433421 
L 160.310293 178.064689 
L 160.435224 177.433421 
L 160.560244 180.682897 
L 160.810521 177.640394 
L 160.935803 182.152405 
L 161.186589 180.869172 
L 161.312093 180.931264 
L 161.437696 177.795624 
L 161.563362 178.147478 
L 161.814982 181.88334 
L 161.940906 181.045099 
L 162.066923 176.967732 
L 162.193036 177.785276 
L 162.319216 186.053845 
L 162.44546 185.091421 
L 162.571797 185.008632 
L 162.698235 182.079964 
L 162.824762 182.204148 
L 163.078021 180.755337 
L 163.204805 183.663307 
L 163.458573 177.609349 
L 163.712692 184.108299 
L 163.967163 181.210678 
L 164.094499 182.286937 
L 164.349448 180.983008 
L 164.477067 176.843549 
L 164.604754 177.309238 
L 164.732535 180.113721 
L 164.860411 179.648032 
L 164.988351 181.034751 
L 165.116389 180.020583 
L 165.244491 174.587543 
L 165.500978 186.695461 
L 165.886376 176.874595 
L 166.015018 183.342499 
L 166.143729 182.545653 
L 166.272534 179.855005 
L 166.401403 182.969948 
L 166.659433 181.821248 
L 166.78859 182.349029 
L 166.917815 184.087602 
L 167.047135 182.628443 
L 167.176549 185.453623 
L 167.435635 178.354451 
L 167.695041 185.608853 
L 167.824902 184.222134 
L 167.95483 180.631154 
L 168.084822 184.687823 
L 168.21494 183.342499 
L 168.475406 186.798948 
L 168.605749 186.995572 
L 168.736224 186.788599 
L 169.128089 184.460153 
L 169.25891 188.051134 
L 169.3898 186.209075 
L 169.520752 187.709629 
L 169.651836 187.419866 
L 169.782977 187.730326 
L 169.914218 187.150802 
L 170.045559 187.285334 
L 170.176989 186.809296 
L 170.308487 187.005921 
L 170.571773 185.339788 
L 170.703555 186.271167 
L 170.835405 186.074542 
L 171.099425 187.140453 
L 171.363766 186.478139 
L 171.496067 185.898615 
L 171.628495 186.809296 
L 171.760949 186.540231 
L 171.893539 187.38882 
L 172.026224 186.219423 
L 172.291814 187.202545 
L 172.42475 187.08871 
L 172.557787 187.430215 
L 172.690918 187.047315 
L 172.824112 185.391531 
L 172.957437 187.254288 
L 173.090825 187.078361 
L 173.224308 187.264637 
L 173.357859 186.964526 
L 173.491531 186.974875 
L 173.625276 186.829993 
L 173.759142 187.38882 
L 173.893076 187.150802 
L 174.161228 187.057664 
L 174.429737 186.022799 
L 174.564117 186.09524 
L 174.698592 186.747204 
L 174.833198 186.519534 
L 174.967867 187.513004 
L 175.102599 187.419866 
L 175.37242 186.747204 
L 175.642562 187.409518 
L 175.777809 184.584337 
L 175.913118 187.337077 
L 176.184026 185.670945 
L 176.319593 185.370834 
L 176.455286 186.881737 
L 176.862915 186.457442 
L 176.998965 187.513004 
L 177.271348 185.588156 
L 177.544114 187.554399 
L 177.680642 186.260818 
L 177.817269 186.291864 
L 177.953986 186.571277 
L 178.090802 186.540231 
L 178.227686 186.819645 
L 178.364692 186.571277 
L 178.501765 186.726507 
L 178.638965 186.240121 
L 178.776232 186.93348 
L 178.913626 185.55711 
L 179.051083 186.540231 
L 179.188634 186.623021 
L 179.326316 186.16768 
L 179.464062 186.560929 
L 179.739841 187.678583 
L 179.877875 186.850691 
L 180.016036 187.38882 
L 180.292587 186.16768 
L 180.431004 186.70581 
L 180.708128 185.577807 
L 180.846834 185.288045 
L 180.98564 186.364304 
L 181.124535 185.453623 
L 181.402624 186.70581 
L 181.681092 185.929661 
L 181.820506 186.312561 
L 181.959979 185.577807 
L 182.239223 186.736856 
L 182.378985 185.412229 
L 182.658833 186.716158 
L 182.798888 186.809296 
L 182.939032 186.674764 
L 183.079313 187.16115 
L 183.219652 186.602323 
L 183.360122 187.036966 
L 183.500655 186.115937 
L 183.641314 186.157331 
L 183.782073 185.971056 
L 184.063842 187.068012 
L 184.20489 186.416048 
L 184.346032 186.519534 
L 184.628636 187.606142 
L 184.770066 186.105588 
L 184.911592 187.461261 
L 185.194967 186.353956 
L 185.336813 187.347426 
L 185.478721 187.08871 
L 185.620761 185.32944 
L 185.7629 186.571277 
L 185.905129 184.801659 
L 186.047457 186.374653 
L 186.18988 186.312561 
L 186.332434 185.950358 
L 186.475046 185.267348 
L 186.760632 186.581626 
L 186.903569 185.867569 
L 187.189727 186.271167 
L 187.332953 185.62955 
L 187.476305 186.923131 
L 187.61972 186.77825 
L 187.763267 186.436745 
L 187.906908 186.995572 
L 188.050648 186.250469 
L 188.194478 186.353956 
L 188.338439 185.412229 
L 188.626618 186.923131 
L 188.915217 186.343607 
L 189.059656 187.036966 
L 189.348896 185.898615 
L 189.493655 186.32291 
L 189.928519 186.157331 
L 190.073698 186.871388 
L 190.218977 186.633369 
L 190.364345 186.829993 
L 190.509813 186.540231 
L 190.655411 187.057664 
L 190.946887 186.747204 
L 191.092775 184.573988 
L 191.238783 186.250469 
L 191.38486 185.608853 
L 191.531068 186.385002 
L 191.677365 185.608853 
L 191.823793 186.736856 
L 191.970321 185.484669 
L 192.116939 186.716158 
L 192.263656 185.381183 
L 192.410473 186.467791 
L 192.557415 186.591975 
L 192.704453 186.519534 
L 192.851584 185.857221 
L 193.146205 186.219423 
L 193.293657 186.074542 
L 193.441209 186.591975 
L 193.588887 186.571277 
L 193.736659 184.79131 
L 194.032529 186.716158 
L 194.180626 186.788599 
L 194.328813 187.099058 
L 194.477137 185.484669 
L 194.62555 186.809296 
L 194.774062 186.333258 
L 194.922669 186.32291 
L 195.071402 187.078361 
L 195.071402 187.078361 
" clip-path="url(#p48a3969e60)" style="fill: none; stroke: #672e45; stroke-width: 1.5; stroke-linecap: square"/>
   </g>
   <g id="patch_3">
    <path d="M 21.76149 251.764135 
L 21.76149 3.00024 
" style="fill: none; stroke: #000000; stroke-width: 0.8; stroke-linejoin: miter; stroke-linecap: square"/>
   </g>
   <g id="patch_4">
    <path d="M 194.99976 251.764135 
L 194.99976 3.00024 
" style="fill: none; stroke: #000000; stroke-width: 0.8; stroke-linejoin: miter; stroke-linecap: square"/>
   </g>
   <g id="patch_5">
    <path d="M 21.76149 251.764135 
L 194.99976 251.764135 
" style="fill: none; stroke: #000000; stroke-width: 0.8; stroke-linejoin: miter; stroke-linecap: square"/>
   </g>
   <g id="patch_6">
    <path d="M 21.76149 3.00024 
L 194.99976 3.00024 
" style="fill: none; stroke: #000000; stroke-width: 0.8; stroke-linejoin: miter; stroke-linecap: square"/>
   </g>
  </g>
 </g>
 <defs>
  <clipPath id="p48a3969e60">
   <rect x="21.76149" y="3.00024" width="173.23827" height="248.763895"/>
  </clipPath>
 </defs>
</svg>
